<?xml version="1.0" encoding="UTF-8" standalone="no"?>
<!-- Created with Inkscape (http://www.inkscape.org/) -->
<svg
   xmlns:dc="http://purl.org/dc/elements/1.1/"
   xmlns:cc="http://web.resource.org/cc/"
   xmlns:rdf="http://www.w3.org/1999/02/22-rdf-syntax-ns#"
   xmlns:svg="http://www.w3.org/2000/svg"
   xmlns="http://www.w3.org/2000/svg"
   xmlns:xlink="http://www.w3.org/1999/xlink"
   xmlns:sodipodi="http://sodipodi.sourceforge.net/DTD/sodipodi-0.dtd"
   xmlns:inkscape="http://www.inkscape.org/namespaces/inkscape"
   width="48px"
   height="48px"
   id="svg1306"
   sodipodi:version="0.32"
   inkscape:version="0.45.1"
   sodipodi:docbase="/Users/mlanglie/Desktop/Red Hat Work/GNOME icons/new gnome icons/SVG"
   sodipodi:docname="drive-removable-media-flash-sm.svg"
   inkscape:export-filename="/home/jimmac/Desktop/drive-optical.png"
   inkscape:export-xdpi="90"
   inkscape:export-ydpi="90"
   inkscape:output_extension="org.inkscape.output.svg.inkscape">
  <defs
     id="defs1308">
    <linearGradient
       id="SVGID_3_"
       gradientUnits="userSpaceOnUse"
       x1="11.9619"
       y1="4.5454"
       x2="13.4619"
       y2="12.7954">
      <stop
         offset="0"
         style="stop-color:#C78A46"
         id="stop267" />
      <stop
         offset="1"
         style="stop-color:#EDDC83"
         id="stop269" />
    </linearGradient>
    <linearGradient
       id="SVGID_2_"
       gradientUnits="userSpaceOnUse"
       x1="12.8071"
       y1="10.8662"
       x2="12.8071"
       y2="37.6162">
      <stop
         offset="0"
         style="stop-color:#D1D3D4"
         id="stop252" />
      <stop
         offset="1"
         style="stop-color:#574F8A"
         id="stop254" />
    </linearGradient>
    <linearGradient
       id="white_line_1_"
       gradientUnits="userSpaceOnUse"
       x1="12.7632"
       y1="-0.3838"
       x2="12.7632"
       y2="31.1162">
      <stop
         offset="0"
         style="stop-color:#D1D3D4"
         id="stop246" />
      <stop
         offset="1"
         style="stop-color:#574F8A"
         id="stop248" />
    </linearGradient>
    <linearGradient
       id="SVGID_1_"
       gradientUnits="userSpaceOnUse"
       x1="12.7632"
       y1="-3.2637"
       x2="12.7632"
       y2="31.0645">
      <stop
         offset="0.011"
         style="stop-color:#F6F7F5"
         id="stop237" />
      <stop
         offset="0.3077"
         style="stop-color:#574F8A"
         id="stop239" />
      <stop
         offset="1"
         style="stop-color:#414A6B"
         id="stop241" />
    </linearGradient>
    <linearGradient
       inkscape:collect="always"
       id="linearGradient2268">
      <stop
         style="stop-color:#eeeeec"
         offset="0"
         id="stop2270" />
      <stop
         style="stop-color:#ffffff;stop-opacity:1"
         offset="1"
         id="stop2272" />
    </linearGradient>
    <linearGradient
       inkscape:collect="always"
       xlink:href="#linearGradient2268"
       id="linearGradient18521"
       gradientUnits="userSpaceOnUse"
       gradientTransform="matrix(0.4012926,0,0,0.4012926,45.582758,36.91226)"
       x1="21.875"
       y1="7.6059465"
       x2="21.875"
       y2="18.51421" />
    <linearGradient
       inkscape:collect="always"
       id="linearGradient2249">
      <stop
         style="stop-color:#204a87;stop-opacity:1;"
         offset="0"
         id="stop2251" />
      <stop
         style="stop-color:#204a87;stop-opacity:0;"
         offset="1"
         id="stop2253" />
    </linearGradient>
    <linearGradient
       inkscape:collect="always"
       xlink:href="#linearGradient2249"
       id="linearGradient18519"
       gradientUnits="userSpaceOnUse"
       gradientTransform="matrix(0.4012926,0,0,0.4012926,45.582758,36.91226)"
       x1="37.625"
       y1="7.625"
       x2="37.625"
       y2="3.4829895" />
    <linearGradient
       inkscape:collect="always"
       id="linearGradient2319">
      <stop
         style="stop-color:#ffffff;stop-opacity:1;"
         offset="0"
         id="stop2321" />
      <stop
         style="stop-color:#ffffff;stop-opacity:0;"
         offset="1"
         id="stop2323" />
    </linearGradient>
    <linearGradient
       inkscape:collect="always"
       xlink:href="#linearGradient2319"
       id="linearGradient18517"
       gradientUnits="userSpaceOnUse"
       gradientTransform="matrix(0.4012926,0,0,0.4012926,45.582758,36.91226)"
       x1="20.484835"
       y1="35"
       x2="27.375"
       y2="42.125" />
    <linearGradient
       inkscape:collect="always"
       xlink:href="#linearGradient2356"
       id="linearGradient18515"
       gradientUnits="userSpaceOnUse"
       gradientTransform="matrix(0.4012926,0,0,0.4012926,45.582758,36.91226)"
       x1="10"
       y1="27.996471"
       x2="31"
       y2="42" />
    <linearGradient
       inkscape:collect="always"
       id="linearGradient2294">
      <stop
         style="stop-color:#3465a4"
         offset="0"
         id="stop2296" />
      <stop
         style="stop-color:#3465a4;stop-opacity:0"
         offset="1"
         id="stop2298" />
    </linearGradient>
    <linearGradient
       inkscape:collect="always"
       xlink:href="#linearGradient2294"
       id="linearGradient18513"
       gradientUnits="userSpaceOnUse"
       gradientTransform="matrix(0.4012926,0,0,0.4012926,45.582758,36.91226)"
       x1="18.75"
       y1="27.654568"
       x2="18.826717"
       y2="36.774681" />
    <linearGradient
       inkscape:collect="always"
       id="linearGradient2238">
      <stop
         style="stop-color:#ffffff;stop-opacity:1;"
         offset="0"
         id="stop2240" />
      <stop
         style="stop-color:#ffffff;stop-opacity:0;"
         offset="1"
         id="stop2242" />
    </linearGradient>
    <linearGradient
       inkscape:collect="always"
       xlink:href="#linearGradient2238"
       id="linearGradient18511"
       gradientUnits="userSpaceOnUse"
       gradientTransform="matrix(0.4012926,0,0,0.4012926,45.582758,36.91226)"
       x1="34.840229"
       y1="38.464149"
       x2="30.685976"
       y2="29" />
    <linearGradient
       inkscape:collect="always"
       id="linearGradient2207">
      <stop
         style="stop-color:#ffffff;stop-opacity:1;"
         offset="0"
         id="stop2209" />
      <stop
         style="stop-color:#ffffff;stop-opacity:0;"
         offset="1"
         id="stop2211" />
    </linearGradient>
    <linearGradient
       inkscape:collect="always"
       xlink:href="#linearGradient2207"
       id="linearGradient18509"
       gradientUnits="userSpaceOnUse"
       gradientTransform="matrix(0.4012926,0,0,0.4012926,45.582758,36.91226)"
       x1="10.875"
       y1="11.5"
       x2="47"
       y2="47.375" />
    <linearGradient
       id="linearGradient2388"
       inkscape:collect="always">
      <stop
         id="stop2390"
         offset="0"
         style="stop-color:#204a87" />
      <stop
         id="stop2392"
         offset="1"
         style="stop-color:#204a87;stop-opacity:0.3984375" />
    </linearGradient>
    <linearGradient
       inkscape:collect="always"
       xlink:href="#linearGradient2388"
       id="linearGradient18507"
       gradientUnits="userSpaceOnUse"
       gradientTransform="matrix(0.4012926,0,0,0.4012926,45.582758,36.91226)"
       x1="33.349056"
       y1="28.69302"
       x2="35.974056"
       y2="33.049397" />
    <linearGradient
       inkscape:collect="always"
       id="linearGradient2223">
      <stop
         style="stop-color:#3465a4"
         offset="0"
         id="stop2225" />
      <stop
         style="stop-color:#729fcf"
         offset="1"
         id="stop2227" />
    </linearGradient>
    <linearGradient
       inkscape:collect="always"
       xlink:href="#linearGradient2223"
       id="linearGradient18505"
       gradientUnits="userSpaceOnUse"
       gradientTransform="matrix(0.4012926,0,0,0.4012926,45.582758,36.91226)"
       x1="43.375"
       y1="-9.375"
       x2="21.125"
       y2="31.75" />
    <linearGradient
       inkscape:collect="always"
       id="linearGradient6210">
      <stop
         style="stop-color: white; stop-opacity: 1;"
         offset="0"
         id="stop6212" />
      <stop
         style="stop-color: white; stop-opacity: 0;"
         offset="1"
         id="stop6214" />
    </linearGradient>
    <linearGradient
       inkscape:collect="always"
       xlink:href="#linearGradient6210"
       id="linearGradient6216"
       x1="16.845879"
       y1="8.6784801"
       x2="30.507824"
       y2="78.505272"
       gradientUnits="userSpaceOnUse" />
    <linearGradient
       id="linearGradient6099">
      <stop
         style="stop-color: rgb(238, 238, 236); stop-opacity: 1;"
         offset="0"
         id="stop6101" />
      <stop
         id="stop6107"
         offset="0.8918919"
         style="stop-color: rgb(222, 222, 218); stop-opacity: 1;" />
      <stop
         style="stop-color: rgb(131, 131, 117); stop-opacity: 1;"
         offset="1"
         id="stop6103" />
    </linearGradient>
    <linearGradient
       inkscape:collect="always"
       xlink:href="#linearGradient6099"
       id="linearGradient6105"
       x1="22.797205"
       y1="39.679859"
       x2="22.797205"
       y2="46.635937"
       gradientUnits="userSpaceOnUse"
       gradientTransform="matrix(1,0,0,0.934004,0,1.55798)" />
    <radialGradient
       inkscape:collect="always"
       xlink:href="#linearGradient6151"
       id="radialGradient6157"
       cx="33.45499"
       cy="28.603338"
       fx="33.45499"
       fy="28.603338"
       r="3.8890872"
       gradientUnits="userSpaceOnUse"
       gradientTransform="matrix(3.65724,0,0,3.65724,-88.8979,-76.0059)" />
    <linearGradient
       inkscape:collect="always"
       id="linearGradient6151">
      <stop
         style="stop-color: rgb(46, 52, 54); stop-opacity: 1;"
         offset="0"
         id="stop6153" />
      <stop
         style="stop-color: rgb(46, 52, 54); stop-opacity: 0;"
         offset="1"
         id="stop6155" />
    </linearGradient>
    <radialGradient
       inkscape:collect="always"
       xlink:href="#linearGradient6151"
       id="radialGradient6161"
       gradientUnits="userSpaceOnUse"
       gradientTransform="matrix(8.34215,0,0,8.34215,-227.629,-207.066)"
       cx="29.61227"
       cy="27.974968"
       fx="29.61227"
       fy="27.974968"
       r="3.8890872" />
    <linearGradient
       id="linearGradient6196">
      <stop
         style="stop-color: rgb(237, 212, 0); stop-opacity: 1;"
         offset="0"
         id="stop6198" />
      <stop
         id="stop6204"
         offset="0.5"
         style="stop-color: rgb(195, 175, 7); stop-opacity: 1;" />
      <stop
         style="stop-color: rgb(255, 235, 62); stop-opacity: 1;"
         offset="1"
         id="stop6200" />
    </linearGradient>
    <linearGradient
       inkscape:collect="always"
       xlink:href="#linearGradient6196"
       id="linearGradient6202"
       x1="29.374996"
       y1="21.741114"
       x2="22.101643"
       y2="7.6786127"
       gradientUnits="userSpaceOnUse" />
    <linearGradient
       id="linearGradient6115">
      <stop
         style="stop-color: rgb(85, 87, 83); stop-opacity: 1;"
         offset="0"
         id="stop6117" />
      <stop
         style="stop-color: rgb(62, 63, 60); stop-opacity: 1;"
         offset="1"
         id="stop6119" />
    </linearGradient>
    <linearGradient
       inkscape:collect="always"
       xlink:href="#linearGradient6115"
       id="linearGradient6208"
       gradientUnits="userSpaceOnUse"
       gradientTransform="matrix(1,0,0,0.982516,0,-7.0767e-2)"
       x1="21.617008"
       y1="4.6076145"
       x2="26.443777"
       y2="47.007381" />
    <linearGradient
       id="linearGradient4109">
      <stop
         id="stop4111"
         offset="0"
         style="stop-color:white;stop-opacity:1;" />
      <stop
         id="stop4113"
         offset="1"
         style="stop-color:white;stop-opacity:0;" />
    </linearGradient>
    <linearGradient
       id="linearGradient4097">
      <stop
         style="stop-color:black;stop-opacity:1;"
         offset="0"
         id="stop4099" />
      <stop
         style="stop-color:black;stop-opacity:0;"
         offset="1"
         id="stop4101" />
    </linearGradient>
    <linearGradient
       inkscape:collect="always"
       id="linearGradient4051">
      <stop
         style="stop-color:white;stop-opacity:1;"
         offset="0"
         id="stop4053" />
      <stop
         style="stop-color:white;stop-opacity:0;"
         offset="1"
         id="stop4055" />
    </linearGradient>
    <linearGradient
       inkscape:collect="always"
       xlink:href="#linearGradient4059"
       id="linearGradient4085"
       gradientUnits="userSpaceOnUse"
       gradientTransform="translate(20,0)"
       x1="9.1648445"
       y1="4.4145103"
       x2="9.125"
       y2="11.352011" />
    <linearGradient
       inkscape:collect="always"
       xlink:href="#linearGradient4059"
       id="linearGradient4081"
       gradientUnits="userSpaceOnUse"
       gradientTransform="translate(16,0)"
       x1="9.1648445"
       y1="4.4145103"
       x2="9.125"
       y2="11.352011" />
    <linearGradient
       inkscape:collect="always"
       xlink:href="#linearGradient4059"
       id="linearGradient4077"
       gradientUnits="userSpaceOnUse"
       gradientTransform="translate(12,0)"
       x1="9.1648445"
       y1="4.4145103"
       x2="9.125"
       y2="11.352011" />
    <linearGradient
       inkscape:collect="always"
       xlink:href="#linearGradient4059"
       id="linearGradient4073"
       gradientUnits="userSpaceOnUse"
       gradientTransform="translate(8,0)"
       x1="9.1648445"
       y1="4.4145103"
       x2="9.125"
       y2="11.352011" />
    <linearGradient
       inkscape:collect="always"
       xlink:href="#linearGradient4059"
       id="linearGradient4069"
       gradientUnits="userSpaceOnUse"
       x1="9.1648445"
       y1="4.4145103"
       x2="9.125"
       y2="11.352011"
       gradientTransform="translate(4,0)" />
    <linearGradient
       id="linearGradient4059">
      <stop
         style="stop-color:#edd400;stop-opacity:1;"
         offset="0"
         id="stop4061" />
      <stop
         style="stop-color:#b19e00;stop-opacity:1;"
         offset="1"
         id="stop4063" />
    </linearGradient>
    <linearGradient
       inkscape:collect="always"
       xlink:href="#linearGradient4059"
       id="linearGradient4065"
       x1="9.1648445"
       y1="4.4145103"
       x2="9.125"
       y2="11.352011"
       gradientUnits="userSpaceOnUse" />
    <linearGradient
       inkscape:collect="always"
       id="linearGradient4117">
      <stop
         style="stop-color:white;stop-opacity:1;"
         offset="0"
         id="stop4119" />
      <stop
         style="stop-color:white;stop-opacity:0;"
         offset="1"
         id="stop4121" />
    </linearGradient>
    <linearGradient
       inkscape:collect="always"
       id="linearGradient4125">
      <stop
         style="stop-color:black;stop-opacity:1;"
         offset="0"
         id="stop4127" />
      <stop
         style="stop-color:black;stop-opacity:0;"
         offset="1"
         id="stop4129" />
    </linearGradient>
    <linearGradient
       id="linearGradient4134">
      <stop
         style="stop-color:#3465a4;stop-opacity:1;"
         offset="0"
         id="stop4136" />
      <stop
         style="stop-color:#2d578e;stop-opacity:1;"
         offset="1"
         id="stop4138" />
    </linearGradient>
    <linearGradient
       id="linearGradient3355">
      <stop
         style="stop-color:#6f716c;stop-opacity:1;"
         offset="0"
         id="stop3357" />
      <stop
         style="stop-color:#888a85;stop-opacity:0;"
         offset="1"
         id="stop3359" />
    </linearGradient>
    <linearGradient
       id="linearGradient3671">
      <stop
         style="stop-color:#ffffff;stop-opacity:1;"
         offset="0"
         id="stop3673" />
      <stop
         id="stop3691"
         offset="0.47533694"
         style="stop-color:#ffffff;stop-opacity:1;" />
      <stop
         style="stop-color:#ffffff;stop-opacity:0;"
         offset="1"
         id="stop3675" />
    </linearGradient>
    <linearGradient
       id="linearGradient3683">
      <stop
         id="stop3685"
         offset="0"
         style="stop-color:#f6f6f5;stop-opacity:1;" />
      <stop
         id="stop3689"
         offset="1"
         style="stop-color:#d3d7cf;stop-opacity:1" />
    </linearGradient>
    <linearGradient
       id="linearGradient3702">
      <stop
         style="stop-color:black;stop-opacity:0;"
         offset="0"
         id="stop3704" />
      <stop
         id="stop3710"
         offset="0.5"
         style="stop-color:black;stop-opacity:1;" />
      <stop
         style="stop-color:black;stop-opacity:0;"
         offset="1"
         id="stop3706" />
    </linearGradient>
    <linearGradient
       id="linearGradient2356">
      <stop
         style="stop-color:#8a9580;stop-opacity:1;"
         offset="0"
         id="stop2358" />
      <stop
         id="stop2364"
         offset="0.38488522"
         style="stop-color:#dcded9;stop-opacity:1;" />
      <stop
         style="stop-color:#b8bcb4;stop-opacity:1;"
         offset="0.6339286"
         id="stop2366" />
      <stop
         id="stop2368"
         offset="0.8214286"
         style="stop-color:#d7d9d5;stop-opacity:1;" />
      <stop
         style="stop-color:#babdb6"
         offset="1"
         id="stop2360" />
    </linearGradient>
    <linearGradient
       inkscape:collect="always"
       id="linearGradient3725">
      <stop
         style="stop-color:#eeeeec;stop-opacity:1;"
         offset="0"
         id="stop3727" />
      <stop
         style="stop-color:#eeeeec;stop-opacity:0;"
         offset="1"
         id="stop3729" />
    </linearGradient>
    <linearGradient
       inkscape:collect="always"
       id="linearGradient3709">
      <stop
         style="stop-color:black;stop-opacity:1;"
         offset="0"
         id="stop3711" />
      <stop
         style="stop-color:black;stop-opacity:0;"
         offset="1"
         id="stop3713" />
    </linearGradient>
    <linearGradient
       id="linearGradient2809">
      <stop
         style="stop-color:#d3d7cf;stop-opacity:1;"
         offset="0"
         id="stop2811" />
      <stop
         style="stop-color:#eeeeec;stop-opacity:0;"
         offset="1"
         id="stop2813" />
    </linearGradient>
    <linearGradient
       id="linearGradient3763">
      <stop
         style="stop-color:#888a85;stop-opacity:1;"
         offset="0"
         id="stop3765" />
      <stop
         style="stop-color:#babdb6;stop-opacity:1"
         offset="1"
         id="stop3767" />
    </linearGradient>
    <linearGradient
       id="linearGradient3942">
      <stop
         id="stop3944"
         offset="0"
         style="stop-color:#888a85;stop-opacity:1" />
      <stop
         id="stop3946"
         offset="1"
         style="stop-color:#eeeeec;stop-opacity:1" />
    </linearGradient>
    <linearGradient
       id="linearGradient3877">
      <stop
         style="stop-color:black;stop-opacity:1;"
         offset="0"
         id="stop3879" />
      <stop
         style="stop-color:white;stop-opacity:0.77319586;"
         offset="1"
         id="stop3881" />
    </linearGradient>
    <linearGradient
       id="linearGradient3859">
      <stop
         id="stop3861"
         offset="0"
         style="stop-color:#d3d7cf;stop-opacity:1" />
      <stop
         id="stop3037"
         offset="0.30973485"
         style="stop-color:#eeeeec;stop-opacity:1;" />
      <stop
         style="stop-color:white;stop-opacity:1;"
         offset="0.88648254"
         id="stop3039" />
      <stop
         id="stop3863"
         offset="1"
         style="stop-color:#d3d7cf;stop-opacity:1" />
    </linearGradient>
    <linearGradient
       inkscape:collect="always"
       id="linearGradient5060">
      <stop
         style="stop-color:black;stop-opacity:1;"
         offset="0"
         id="stop5062" />
      <stop
         style="stop-color:black;stop-opacity:0;"
         offset="1"
         id="stop5064" />
    </linearGradient>
    <linearGradient
       id="linearGradient5048">
      <stop
         style="stop-color:black;stop-opacity:0;"
         offset="0"
         id="stop5050" />
      <stop
         id="stop5056"
         offset="0.5"
         style="stop-color:black;stop-opacity:1;" />
      <stop
         style="stop-color:black;stop-opacity:0;"
         offset="1"
         id="stop5052" />
    </linearGradient>
    <linearGradient
       inkscape:collect="always"
       xlink:href="#linearGradient3859"
       id="linearGradient2899"
       gradientUnits="userSpaceOnUse"
       gradientTransform="matrix(1.169513,0,0,1.866794,-4.088508,-5.493268)"
       x1="39.846634"
       y1="17.288595"
       x2="9.0151443"
       y2="17.469774" />
    <linearGradient
       inkscape:collect="always"
       xlink:href="#linearGradient3942"
       id="linearGradient2925"
       gradientUnits="userSpaceOnUse"
       gradientTransform="matrix(1.168352,0,0,0.940121,-5.224048,3.708073)"
       x1="31.259865"
       y1="28.921469"
       x2="31.259865"
       y2="30.105555" />
    <linearGradient
       inkscape:collect="always"
       xlink:href="#linearGradient3877"
       id="linearGradient3883"
       x1="75"
       y1="56.9375"
       x2="75"
       y2="63.920155"
       gradientUnits="userSpaceOnUse"
       gradientTransform="matrix(1.196864,0,0,1.232642,-76.53167,-39.77282)" />
    <linearGradient
       inkscape:collect="always"
       xlink:href="#linearGradient5048"
       id="linearGradient3903"
       gradientUnits="userSpaceOnUse"
       gradientTransform="matrix(2.774389,0,0,1.969706,-1892.179,-872.8854)"
       x1="302.85715"
       y1="366.64789"
       x2="302.85715"
       y2="609.50507" />
    <radialGradient
       inkscape:collect="always"
       xlink:href="#linearGradient5060"
       id="radialGradient3905"
       gradientUnits="userSpaceOnUse"
       gradientTransform="matrix(2.774389,0,0,1.969706,-1891.633,-872.8854)"
       cx="605.71429"
       cy="486.64789"
       fx="605.71429"
       fy="486.64789"
       r="117.14286" />
    <radialGradient
       inkscape:collect="always"
       xlink:href="#linearGradient5060"
       id="radialGradient3907"
       gradientUnits="userSpaceOnUse"
       gradientTransform="matrix(-2.774389,0,0,1.969706,112.7623,-872.8854)"
       cx="605.71429"
       cy="486.64789"
       fx="605.71429"
       fy="486.64789"
       r="117.14286" />
    <linearGradient
       inkscape:collect="always"
       xlink:href="#linearGradient3763"
       id="linearGradient3769"
       x1="36.05172"
       y1="34.193111"
       x2="35.23922"
       y2="32.023624"
       gradientUnits="userSpaceOnUse"
       gradientTransform="translate(1,2)" />
    <linearGradient
       inkscape:collect="always"
       xlink:href="#linearGradient2809"
       id="linearGradient2815"
       x1="22.777416"
       y1="32.072342"
       x2="22.777416"
       y2="34.00016"
       gradientUnits="userSpaceOnUse"
       gradientTransform="matrix(1,0,0,1.166667,0,-2.666667)" />
    <linearGradient
       inkscape:collect="always"
       xlink:href="#linearGradient3709"
       id="linearGradient3715"
       x1="19.5625"
       y1="31.8125"
       x2="19.5625"
       y2="33.65863"
       gradientUnits="userSpaceOnUse"
       gradientTransform="matrix(1,0,0,1.333333,0,-8.33333)" />
    <linearGradient
       inkscape:collect="always"
       xlink:href="#linearGradient3725"
       id="linearGradient3731"
       x1="29.521708"
       y1="32.023651"
       x2="29.521708"
       y2="33.553349"
       gradientUnits="userSpaceOnUse"
       gradientTransform="matrix(1,0,0,1.333333,0,-8.33333)" />
    <linearGradient
       inkscape:collect="always"
       xlink:href="#linearGradient4109"
       id="linearGradient44502"
       gradientUnits="userSpaceOnUse"
       gradientTransform="matrix(0.4659324,0,0,0.4659243,28.103436,23.065175)"
       x1="25.044359"
       y1="20.624216"
       x2="25.791954"
       y2="28.863333" />
    <linearGradient
       inkscape:collect="always"
       xlink:href="#linearGradient4097"
       id="linearGradient44505"
       gradientUnits="userSpaceOnUse"
       x1="22.937496"
       y1="29.93535"
       x2="22.937496"
       y2="40.689152"
       gradientTransform="matrix(0.5066608,0,0,0.5066608,27.207406,21.804888)" />
    <linearGradient
       inkscape:collect="always"
       xlink:href="#linearGradient4051"
       id="linearGradient44508"
       gradientUnits="userSpaceOnUse"
       gradientTransform="matrix(0.5066608,0,0,0.5066608,27.207405,21.804888)"
       x1="22.509596"
       y1="1.9792649"
       x2="31.603951"
       y2="58.909889" />
    <linearGradient
       inkscape:collect="always"
       xlink:href="#linearGradient4125"
       id="linearGradient44518"
       gradientUnits="userSpaceOnUse"
       x1="19.500004"
       y1="10.687498"
       x2="19.500004"
       y2="2.1249981"
       gradientTransform="matrix(0.5066608,0,0,0.5066608,27.207406,21.804888)" />
    <linearGradient
       inkscape:collect="always"
       xlink:href="#linearGradient4117"
       id="linearGradient44520"
       gradientUnits="userSpaceOnUse"
       x1="19.500004"
       y1="10.687498"
       x2="19.500004"
       y2="2.1249981"
       gradientTransform="matrix(0.5066608,0,0,0.5066608,27.207406,21.804888)" />
    <linearGradient
       inkscape:collect="always"
       xlink:href="#linearGradient4134"
       id="linearGradient44523"
       gradientUnits="userSpaceOnUse"
       x1="19.864109"
       y1="17.906694"
       x2="37.166458"
       y2="41.594772"
       gradientTransform="matrix(0.5066608,0,0,0.5066608,27.207406,21.804888)" />
  </defs>
  <sodipodi:namedview
     id="base"
     pagecolor="#ffffff"
     bordercolor="#c5c5c5"
     borderopacity="1"
     inkscape:pageopacity="0.0"
     inkscape:pageshadow="2"
     inkscape:zoom="8"
     inkscape:cx="35.273727"
     inkscape:cy="13.0875"
     inkscape:current-layer="layer1"
     showgrid="false"
     inkscape:grid-bbox="false"
     inkscape:document-units="px"
     stroke="#888a85"
     fill="#babdb6"
     inkscape:window-width="701"
     inkscape:window-height="790"
     inkscape:window-x="407"
     inkscape:window-y="93"
     inkscape:showpageshadow="false"
     inkscape:guide-points="false"
     inkscape:object-points="false"
     inkscape:object-paths="false"
     inkscape:guide-bbox="true"
     gridspacingx="0.5px"
     gridspacingy="0.5px"
     gridempspacing="2"
     inkscape:grid-points="true"
     showguides="false"
     showborder="true"
     inkscape:object-bbox="true">
    <sodipodi:guide
       orientation="horizontal"
       position="2.8125"
       id="guide2906" />
  </sodipodi:namedview>
  <metadata
     id="metadata1311">
    <rdf:RDF>
      <cc:Work
         rdf:about="">
        <dc:format>image/svg+xml</dc:format>
        <dc:type
           rdf:resource="http://purl.org/dc/dcmitype/StillImage" />
        <dc:title>Drive Removable Media</dc:title>
        <dc:creator>
          <cc:Agent>
            <dc:title>Lapo Calamandrei</dc:title>
          </cc:Agent>
        </dc:creator>
        <dc:description />
        <cc:license
           rdf:resource="http://creativecommons.org/licenses/GPL/2.0/" />
        <dc:source>http://www.gnome.org</dc:source>
        <dc:contributor>
          <cc:Agent>
            <dc:title>Jakub Steiner</dc:title>
          </cc:Agent>
        </dc:contributor>
        <dc:date>2006</dc:date>
        <dc:subject>
          <rdf:Bag>
            <rdf:li>drive</rdf:li>
            <rdf:li>removable</rdf:li>
            <rdf:li>media</rdf:li>
          </rdf:Bag>
        </dc:subject>
      </cc:Work>
      <cc:License
         rdf:about="http://creativecommons.org/licenses/GPL/2.0/">
        <cc:permits
           rdf:resource="http://web.resource.org/cc/Reproduction" />
        <cc:permits
           rdf:resource="http://web.resource.org/cc/Distribution" />
        <cc:requires
           rdf:resource="http://web.resource.org/cc/Notice" />
        <cc:permits
           rdf:resource="http://web.resource.org/cc/DerivativeWorks" />
        <cc:requires
           rdf:resource="http://web.resource.org/cc/ShareAlike" />
        <cc:requires
           rdf:resource="http://web.resource.org/cc/SourceCode" />
      </cc:License>
    </rdf:RDF>
  </metadata>
  <g
     id="layer1"
     inkscape:label="Layer 1"
     inkscape:groupmode="layer">
    <g
       transform="matrix(2.364027e-2,0,0,3.669526e-2,45.52649,31.53641)"
       id="g3895">
      <rect
         style="opacity:0.40206185;color:black;fill:url(#linearGradient3903);fill-opacity:1;fill-rule:nonzero;stroke:none;stroke-width:1;stroke-linecap:round;stroke-linejoin:miter;marker:none;marker-start:none;marker-mid:none;marker-end:none;stroke-miterlimit:4;stroke-dasharray:none;stroke-dashoffset:0;stroke-opacity:1;visibility:visible;display:inline;overflow:visible"
         id="rect3897"
         width="1339.6335"
         height="478.35718"
         x="-1559.2523"
         y="-150.69685" />
      <path
         style="opacity:0.40206185;color:black;fill:url(#radialGradient3905);fill-opacity:1;fill-rule:nonzero;stroke:none;stroke-width:1;stroke-linecap:round;stroke-linejoin:miter;marker:none;marker-start:none;marker-mid:none;marker-end:none;stroke-miterlimit:4;stroke-dasharray:none;stroke-dashoffset:0;stroke-opacity:1;visibility:visible;display:inline;overflow:visible"
         d="M -219.61876,-150.68038 C -219.61876,-150.68038 -219.61876,327.65041 -219.61876,327.65041 C -76.744594,328.55086 125.78146,220.48075 125.78138,88.454235 C 125.78138,-43.572302 -33.655436,-150.68036 -219.61876,-150.68038 z "
         id="path3899"
         sodipodi:nodetypes="cccc" />
      <path
         sodipodi:nodetypes="cccc"
         id="path3901"
         d="M -1559.2523,-150.68038 C -1559.2523,-150.68038 -1559.2523,327.65041 -1559.2523,327.65041 C -1702.1265,328.55086 -1904.6525,220.48075 -1904.6525,88.454235 C -1904.6525,-43.572302 -1745.2157,-150.68036 -1559.2523,-150.68038 z "
         style="opacity:0.40206185;color:black;fill:url(#radialGradient3907);fill-opacity:1;fill-rule:nonzero;stroke:none;stroke-width:1;stroke-linecap:round;stroke-linejoin:miter;marker:none;marker-start:none;marker-mid:none;marker-end:none;stroke-miterlimit:4;stroke-dasharray:none;stroke-dashoffset:0;stroke-opacity:1;visibility:visible;display:inline;overflow:visible" />
    </g>
    <path
       style="fill:url(#linearGradient2899);fill-opacity:1;fill-rule:evenodd;stroke:#888a85;stroke-width:1.06704879px;stroke-linecap:butt;stroke-linejoin:round;stroke-opacity:1"
       d="M 12.84375,8.53125 C 10.231846,8.5312502 8.4897001,10.328989 7.53125,13.34375 C 7.5312501,13.34375 3.78125,30.40625 3.78125,30.40625 C 3.5381132,31.422188 3.5313229,32.466344 3.5,33.5 C 3.5,37.372271 6.6277285,40.500001 10.5,40.5 L 38.5,40.5 C 42.372271,40.5 45.500001,37.372271 45.5,33.5 C 45.4683,32.106734 45.393092,30.781091 45.09375,29.40625 L 40.8125,13.03125 C 39.878744,10.453666 38.12813,8.53125 35.625,8.53125 L 12.84375,8.53125 z "
       id="path2897"
       sodipodi:nodetypes="cccsccscccc" />
    <path
       style="opacity:0.4;fill:none;fill-rule:evenodd;stroke:white;stroke-width:0.99999964px;stroke-linecap:round;stroke-linejoin:miter;stroke-opacity:1"
       d="M 39.663187,26.21104 L 36.556647,10.554471"
       id="path3925"
       sodipodi:nodetypes="cc" />
    <path
       style="opacity:0.7;fill:none;fill-opacity:1;fill-rule:evenodd;stroke:white;stroke-width:1;stroke-linecap:butt;stroke-linejoin:round;stroke-miterlimit:4;stroke-dasharray:none;stroke-opacity:1"
       d="M 12.815683,9.6325097 C 10.75685,9.6325097 9.4360576,10.870456 8.6847245,13.436363 C 8.6847245,13.436363 5.0003906,30.503147 5.0003906,30.503147 C 4.5061245,33.442804 5.9863446,38.132348 10.636644,39.196455 L 38.372114,39.196455 C 43.735507,38.991426 45.340775,34.210036 44.122253,30.127393 C 44.122253,30.127393 39.790203,13.654526 39.790203,13.654526 C 38.996151,11.214602 37.453588,9.5109602 35.48279,9.5109602 L 12.815683,9.6325097 z "
       id="path2960"
       sodipodi:nodetypes="ccccccccc" />
    <rect
       style="opacity:1;color:black;fill:#d3d7cf;fill-opacity:1;fill-rule:nonzero;stroke:white;stroke-width:0.99999911;stroke-linecap:round;stroke-linejoin:round;marker:none;marker-start:none;marker-mid:none;marker-end:none;stroke-miterlimit:4;stroke-dasharray:none;stroke-dashoffset:1.20000057;stroke-opacity:1;visibility:visible;display:inline;overflow:visible"
       id="rect2909"
       width="39.993874"
       height="11.979301"
       x="4.5061245"
       y="27.520699"
       rx="5.8864155"
       ry="5.9896455" />
    <rect
       ry="4.9305935"
       rx="4.7874789"
       y="28.5"
       x="5.5"
       height="10"
       width="38"
       id="rect2898"
       style="opacity:0.3;color:black;fill:#babdb6;fill-opacity:1;fill-rule:nonzero;stroke:url(#linearGradient3883);stroke-width:0.99999976;stroke-linecap:round;stroke-linejoin:round;marker:none;marker-start:none;marker-mid:none;marker-end:none;stroke-miterlimit:4;stroke-dasharray:none;stroke-dashoffset:1.20000057;stroke-opacity:1;visibility:visible;display:inline;overflow:visible" />
    <rect
       style="fill:#babdb6;fill-opacity:1;stroke:url(#linearGradient3769);stroke-width:0.99999988;stroke-linecap:round;stroke-linejoin:round;stroke-miterlimit:4;stroke-dasharray:none;stroke-dashoffset:0;stroke-opacity:1"
       id="rect1949"
       width="5.9999943"
       height="1.999993"
       x="34.560654"
       y="34.527767"
       rx="0.99999648"
       ry="0.99999648" />
    <rect
       style="opacity:1;fill:#d3d7cf;fill-opacity:1;stroke:none;stroke-width:1;stroke-linecap:round;stroke-linejoin:miter;stroke-miterlimit:4;stroke-dasharray:none;stroke-dashoffset:0;stroke-opacity:1"
       id="rect1916"
       width="31"
       height="4"
       x="9"
       y="30"
       rx="1.09375"
       ry="1.09375" />
    <rect
       style="opacity:0.8;fill:url(#linearGradient2815);fill-opacity:1;stroke:none;stroke-width:1;stroke-linecap:round;stroke-linejoin:miter;stroke-miterlimit:4;stroke-dasharray:none;stroke-dashoffset:0;stroke-opacity:1"
       id="rect2807"
       width="11"
       height="7"
       x="19"
       y="30"
       rx="0"
       ry="0" />
    <rect
       style="opacity:0.5;fill:url(#linearGradient3731);fill-opacity:1;stroke:none;stroke-width:1;stroke-linecap:round;stroke-linejoin:miter;stroke-miterlimit:4;stroke-dasharray:none;stroke-dashoffset:0;stroke-opacity:1"
       id="rect3704"
       width="1"
       height="4"
       x="29"
       y="33" />
    <rect
       style="opacity:0.1;fill:url(#linearGradient3715);fill-opacity:1;stroke:none;stroke-width:1;stroke-linecap:round;stroke-linejoin:miter;stroke-miterlimit:4;stroke-dasharray:none;stroke-dashoffset:0;stroke-opacity:1"
       id="rect3706"
       width="1"
       height="4"
       x="19"
       y="33" />
    <path
       style="fill:#babdb6;fill-opacity:1;stroke:url(#linearGradient2925);stroke-width:1.00000024;stroke-linecap:round;stroke-linejoin:round;stroke-miterlimit:4;stroke-dashoffset:0;stroke-opacity:1"
       d="M 10.125903,30.500018 L 38.874097,30.500018 C 39.220847,30.500018 39.5,30.72464 39.5,31.003655 L 39.5,31.990388 C 39.5,32.269403 39.220847,32.494025 38.874097,32.494025 L 30,32.494025 L 28.5,33.5 L 20.5,33.5 L 19,32.494025 L 10.125903,32.494025 C 9.7791528,32.494025 9.5,32.269403 9.5,31.990388 L 9.5,31.003655 C 9.5,30.72464 9.7791528,30.500018 10.125903,30.500018 z "
       id="rect1951"
       sodipodi:nodetypes="ccccccccccccc" />
    <g
       id="g1933"
       transform="translate(-1,3)">
      <rect
         ry="0.5"
         rx="0.51535469"
         y="32.532925"
         x="9.5883884"
         height="1"
         width="3"
         id="rect1965"
         style="fill:#eeeeec;fill-opacity:1;stroke:#eeeeec;stroke-width:0.99999934;stroke-linecap:round;stroke-linejoin:round;stroke-miterlimit:4;stroke-dasharray:none;stroke-dashoffset:0;stroke-opacity:1" />
      <path
         transform="matrix(1.678725,0,0,2.171835,-111.8336,-100.6562)"
         d="M 73.078125 61.46875 A 0.484375 0.359375 0 1 1  72.109375,61.46875 A 0.484375 0.359375 0 1 1  73.078125 61.46875 z"
         sodipodi:ry="0.359375"
         sodipodi:rx="0.484375"
         sodipodi:cy="61.46875"
         sodipodi:cx="72.59375"
         id="path3893"
         style="color:black;fill:white;fill-opacity:1;fill-rule:nonzero;stroke:none;stroke-width:1;stroke-linecap:round;stroke-linejoin:round;marker:none;marker-start:none;marker-mid:none;marker-end:none;stroke-miterlimit:4;stroke-dasharray:none;stroke-dashoffset:1.20000057;stroke-opacity:1;visibility:visible;display:inline;overflow:visible"
         sodipodi:type="arc" />
    </g>
    <path
       style="opacity:1;fill:none;fill-rule:evenodd;stroke:white;stroke-width:0.99999964px;stroke-linecap:round;stroke-linejoin:miter;stroke-opacity:1"
       d="M 8.4628116,26.476205 L 11.677347,10.856247"
       id="path3921"
       sodipodi:nodetypes="cc" />
    <path
       style="opacity:0.7;fill:none;fill-rule:evenodd;stroke:white;stroke-width:1.15657115px;stroke-linecap:round;stroke-linejoin:miter;stroke-opacity:1"
       d="M 12.541942,26.343134 L 13.88327,10.410708"
       id="path3923"
       sodipodi:nodetypes="cc" />
    <path
       style="opacity:0.4;fill:none;fill-rule:evenodd;stroke:#ffffff;stroke-width:1.15657115px;stroke-linecap:round;stroke-linejoin:miter;stroke-opacity:1"
       d="M 36.467941,26.254746 L 34.357005,10.406266"
       id="path3927"
       sodipodi:nodetypes="cc" />
    <g
       id="g6035"
       transform="matrix(0.9572952,0,0,0.9572952,22.432189,15.785119)">
      <path
         id="path243"
         d="M 0.5,1.334 C 0.5,0.874 0.873,0.5 1.334,0.5 L 21.759,0.5 L 25.028,3.739 L 25.028,29.953 C 25.028,30.414 24.654,30.787 24.194,30.787 L 1.334,30.787 C 0.873,30.787 0.5,30.414 0.5,29.953 L 0.5,1.334 L 0.5,1.334 z "
         style="fill:url(#SVGID_1_)" />
      <path
         d="M 0.5,1.334 C 0.5,0.874 0.873,0.5 1.334,0.5 L 21.759,0.5 L 25.028,3.739 L 25.028,29.953 C 25.028,30.414 24.654,30.787 24.194,30.787 L 1.334,30.787 C 0.873,30.787 0.5,30.414 0.5,29.953 L 0.5,1.334 L 0.5,1.334 z M 1.75,29.537 L 23.777,29.537 L 23.777,4.261 L 21.244,1.75 L 1.75,1.75 L 1.75,29.537 L 1.75,29.537 z "
         id="white_line_4_"
         style="opacity:0.51000001;fill:url(#white_line_1_)" />
      <path
         id="path256"
         d="M 22.266,30.787 L 3.35,30.787 L 3.35,24.027 C 3.35,23.567 3.724,23.193 4.184,23.193 L 21.432,23.193 C 21.892,23.193 22.266,23.567 22.266,24.027 L 22.266,30.787 L 22.266,30.787 z "
         style="fill:url(#SVGID_2_)" />
      <path
         id="path258"
         d="M 15.923,19.305 C 15.923,17.652 17.264,16.311 18.917,16.311 C 20.57,16.311 21.911,17.652 21.911,19.305 C 21.911,20.958 20.57,22.299 18.917,22.299 C 17.264,22.299 15.923,20.958 15.923,19.305 L 15.923,19.305 z "
         style="opacity:0.75;fill:#343346" />
      <polygon
         id="polygon260"
         points="4.911,15.287 4.981,15.306 4.911,15.284 4.911,15.287 " />
      <path
         id="path262"
         d="M 5.658,15.4 C 5.414,15.4 5.209,15.363 4.981,15.305 C 5.196,15.367 5.424,15.4 5.658,15.4 L 5.658,15.4 z " />
      <polygon
         id="polygon264"
         points="4.911,3.59 4.98,3.571 4.911,3.59 " />
      <path
         id="path271"
         d="M 5.637,3.158 L 19.926,3.158 C 21.496,3.158 22.389,4.464 22.389,5.62 L 22.389,12.618 C 22.389,13.774 21.458,15.081 19.926,15.081 L 5.719,15.081 C 4.068,15.081 3.197,13.718 3.197,12.618 L 3.197,5.62 C 3.196,4.087 4.471,3.158 5.637,3.158 L 5.637,3.158 z "
         stroke-miterlimit="3.8637"
         style="fill:url(#SVGID_3_);stroke:#f6f7f5;stroke-width:0.5;stroke-miterlimit:3.86369991;stroke-opacity:0.7" />
      <path
         id="path273"
         d="M 18.792,14.773 L 19.926,14.773 C 20.023,14.773 20.116,14.766 20.21,14.754 L 20.21,11.395 C 19.792,11.522 19.32,11.631 18.792,11.704 L 18.792,14.773 L 18.792,14.773 z M 17.124,14.773 L 18.484,14.773 L 18.484,11.743 C 17.725,11.877 17.124,11.807 17.124,11.807 L 17.124,14.773 L 17.124,14.773 z M 15.398,14.773 L 16.816,14.773 L 16.816,11.797 C 16.363,11.776 15.948,11.721 15.553,11.636 L 15.398,11.602 L 15.398,14.773 L 15.398,14.773 z M 13.73,14.773 L 15.09,14.773 L 15.09,11.522 C 14.63,11.393 14.189,11.224 13.73,11.026 L 13.73,14.773 L 13.73,14.773 z M 12.005,14.773 L 13.423,14.773 L 13.423,10.892 C 13.262,10.817 12.212,10.316 12.005,10.221 L 12.005,14.773 L 12.005,14.773 z M 10.337,14.773 L 11.697,14.773 L 11.697,10.086 C 11.273,9.902 10.828,9.734 10.337,9.596 L 10.337,14.773 L 10.337,14.773 z M 8.612,14.773 L 10.029,14.773 L 10.029,9.517 C 9.596,9.411 9.129,9.329 8.612,9.284 L 8.612,14.773 L 8.612,14.773 z M 6.944,14.773 L 8.303,14.773 L 8.303,9.261 C 8.088,9.247 7.864,9.241 7.631,9.241 C 7.391,9.241 7.161,9.247 6.943,9.261 L 6.943,14.773 L 6.944,14.773 z M 5.658,14.773 L 6.637,14.773 L 6.637,9.282 C 6.089,9.329 5.619,9.411 5.219,9.511 L 5.219,14.729 C 5.36,14.758 5.508,14.773 5.658,14.773 L 5.658,14.773 z M 12.005,7.317 C 12.26,7.43 12.507,7.547 12.75,7.665 C 12.976,7.772 13.198,7.881 13.423,7.985 L 13.423,3.465 L 12.005,3.465 L 12.005,7.317 L 12.005,7.317 z M 10.337,6.71 C 10.829,6.845 11.275,7.007 11.697,7.185 L 11.697,3.466 L 10.337,3.466 L 10.337,6.71 L 10.337,6.71 z M 10.029,3.466 L 8.612,3.466 L 8.612,6.407 C 9.128,6.452 9.595,6.53 10.029,6.632 L 10.029,3.466 L 10.029,3.466 z M 15.091,3.466 L 13.731,3.466 L 13.731,8.122 C 14.192,8.327 14.633,8.501 15.091,8.636 L 15.091,3.466 L 15.091,3.466 z M 16.816,3.466 L 15.398,3.466 L 15.398,8.718 C 15.838,8.827 16.301,8.898 16.816,8.923 L 16.816,3.466 L 16.816,3.466 z M 18.484,3.466 L 17.124,3.466 L 17.124,8.933 L 17.245,8.933 C 17.688,8.933 18.1,8.91 18.484,8.867 L 18.484,3.466 L 18.484,3.466 z M 20.21,3.484 C 20.116,3.471 20.022,3.465 19.926,3.465 L 18.792,3.465 L 18.792,8.826 C 19.325,8.749 19.797,8.637 20.21,8.505 L 20.21,3.484 L 20.21,3.484 z M 6.637,6.405 L 6.637,3.466 L 5.658,3.466 C 5.508,3.466 5.36,3.482 5.219,3.511 L 5.219,6.626 C 5.623,6.53 6.095,6.45 6.637,6.405 L 6.637,6.405 z M 20.518,8.714 C 19.462,9.095 18.299,9.245 17.246,9.245 C 15.455,9.245 14.314,8.725 12.751,7.975 C 11.405,7.33 9.96,6.677 7.633,6.677 C 6.49,6.677 5.594,6.83 4.912,7.023 L 4.912,3.599 C 4.09,3.903 3.504,4.693 3.504,5.62 L 3.504,8.575 C 4.088,8.223 5.383,7.649 7.632,7.649 C 9.959,7.649 11.404,8.303 12.75,8.948 C 14.313,9.698 15.454,10.217 17.245,10.217 C 18.861,10.217 20.734,9.864 22.081,8.868 L 22.081,5.62 C 22.081,4.636 21.42,3.806 20.518,3.548 L 20.518,8.714 L 20.518,8.714 z M 20.518,10.972 L 20.518,14.692 C 21.42,14.435 22.081,13.604 22.081,12.619 L 22.081,9.245 C 20.697,10.183 18.86,10.524 17.245,10.524 C 15.402,10.524 14.224,9.997 12.617,9.225 C 11.284,8.586 9.888,7.957 7.632,7.957 C 6.611,7.957 4.517,8.182 3.504,8.93 L 3.504,12.618 C 3.504,13.546 4.09,14.336 4.911,14.639 L 4.911,9.272 C 5.87,9.009 6.978,8.916 7.632,8.916 C 9.889,8.916 11.284,9.546 12.617,10.185 C 14.224,10.956 15.402,11.484 17.245,11.484 C 18.3,11.483 19.462,11.333 20.518,10.972 L 20.518,10.972 z M 5.637,3.158 L 19.926,3.158 C 21.496,3.158 22.389,4.464 22.389,5.62 L 22.389,12.618 C 22.389,13.774 21.458,15.081 19.926,15.081 L 5.719,15.081 C 4.068,15.081 3.197,13.718 3.197,12.618 L 3.197,5.62 C 3.196,4.087 4.471,3.158 5.637,3.158 L 5.637,3.158 z M 8.304,6.385 L 8.304,3.466 L 6.944,3.466 L 6.944,6.384 C 7.163,6.372 7.391,6.366 7.632,6.366 C 7.864,6.366 8.088,6.372 8.304,6.385 L 8.304,6.385 z "
         clip-rule="evenodd"
         style="fill:#f6f7f5;fill-rule:evenodd" />
      <g
         id="g275">
        <path
           id="path277"
           d="M 16.319,25.299 L 16.319,25.678 L 15.303,25.678 L 15.303,25.23 C 15.303,25.095 15.284,25.001 15.245,24.946 C 15.206,24.891 15.139,24.864 15.043,24.864 C 14.95,24.864 14.885,24.89 14.849,24.944 C 14.813,24.998 14.794,25.093 14.794,25.23 L 14.794,25.558 C 14.794,25.685 14.825,25.798 14.888,25.898 C 14.95,25.997 15.071,26.113 15.248,26.245 L 15.676,26.566 C 15.698,26.582 15.733,26.607 15.779,26.641 C 15.984,26.791 16.124,26.929 16.2,27.054 C 16.257,27.148 16.298,27.252 16.323,27.367 C 16.347,27.482 16.36,27.62 16.36,27.782 L 16.36,28.09 C 16.36,28.48 16.24,28.779 16,28.989 C 15.76,29.198 15.416,29.303 14.97,29.303 C 14.514,29.303 14.186,29.204 13.987,29.008 C 13.788,28.813 13.688,28.487 13.688,28.034 L 13.688,27.662 L 14.73,27.662 L 14.73,28.089 C 14.73,28.244 14.753,28.354 14.798,28.419 C 14.844,28.483 14.921,28.516 15.03,28.516 C 15.139,28.516 15.217,28.487 15.259,28.426 C 15.301,28.365 15.324,28.253 15.324,28.089 L 15.324,27.895 C 15.324,27.753 15.293,27.63 15.231,27.527 C 15.169,27.424 15.024,27.288 14.793,27.119 L 14.366,26.794 C 14.161,26.642 14.013,26.478 13.925,26.302 C 13.836,26.127 13.792,25.918 13.792,25.677 L 13.792,25.236 C 13.792,24.897 13.914,24.623 14.159,24.415 C 14.404,24.206 14.731,24.102 15.141,24.102 C 15.529,24.102 15.821,24.204 16.02,24.405 C 16.22,24.606 16.319,24.904 16.319,25.299 z "
           style="fill:#ffffff" />
        <path
           id="path279"
           d="M 16.976,24.178 L 18.398,24.178 L 18.853,27.797 L 18.904,27.797 L 19.42,24.178 L 20.822,24.178 L 20.822,29.219 L 19.96,29.219 L 19.96,25.083 L 19.895,25.083 L 19.307,29.219 L 18.377,29.219 L 17.857,25.083 L 17.789,25.083 L 17.789,29.219 L 16.976,29.219 L 16.976,24.178 L 16.976,24.178 z "
           style="fill:#ffffff" />
      </g>
      <polygon
         id="polygon281"
         points="4.311,17.542 13.924,17.542 13.924,20.848 4.311,20.848 4.311,17.542 "
         stroke-miterlimit="3.8637"
         style="opacity:0.6;fill:none;stroke:#d4d4cd;stroke-width:0.5;stroke-miterlimit:3.86369991" />
      <path
         id="path283"
         d="M 22.266,30.787 L 3.35,30.787 L 3.35,24.027 C 3.35,23.567 3.724,23.193 4.184,23.193 L 21.432,23.193 C 21.892,23.193 22.266,23.567 22.266,24.027 L 22.266,30.787 L 22.266,30.787 z "
         stroke-miterlimit="3.8637"
         style="fill:none;stroke:#d4d4cd;stroke-width:0.5;stroke-miterlimit:3.86369991" />
      <path
         id="path285"
         d="M 0.5,1.334 C 0.5,0.874 0.873,0.5 1.334,0.5 L 21.759,0.5 L 25.028,3.739 L 25.028,29.953 C 25.028,30.414 24.654,30.787 24.194,30.787 L 1.334,30.787 C 0.873,30.787 0.5,30.414 0.5,29.953 L 0.5,1.334 L 0.5,1.334 z "
         stroke-miterlimit="3.8637"
         style="fill:none;stroke:#343346;stroke-miterlimit:3.86369991" />
    </g>
  </g>
</svg>
