<?xml version="1.0" encoding="UTF-8" standalone="no"?>
<!-- Created with Inkscape (http://www.inkscape.org/) -->
<svg
   xmlns:dc="http://purl.org/dc/elements/1.1/"
   xmlns:cc="http://web.resource.org/cc/"
   xmlns:rdf="http://www.w3.org/1999/02/22-rdf-syntax-ns#"
   xmlns:svg="http://www.w3.org/2000/svg"
   xmlns="http://www.w3.org/2000/svg"
   xmlns:xlink="http://www.w3.org/1999/xlink"
   xmlns:sodipodi="http://sodipodi.sourceforge.net/DTD/sodipodi-0.dtd"
   xmlns:inkscape="http://www.inkscape.org/namespaces/inkscape"
   width="48px"
   height="48px"
   id="svg1306"
   sodipodi:version="0.32"
   inkscape:version="0.45.1"
   sodipodi:docbase="/Users/mlanglie/Desktop/Red Hat Work/GNOME icons/new gnome icons/SVG"
   sodipodi:docname="drive-removable-media-flash-sd.svg"
   inkscape:export-filename="/home/jimmac/Desktop/drive-optical.png"
   inkscape:export-xdpi="90"
   inkscape:export-ydpi="90"
   inkscape:output_extension="org.inkscape.output.svg.inkscape">
  <defs
     id="defs1308">
    <linearGradient
       id="SVGID_3_"
       gradientUnits="userSpaceOnUse"
       x1="11.8232"
       y1="4.4839"
       x2="11.8232"
       y2="11.7339">
	<stop
   offset="0"
   style="stop-color:#D55627"
   id="stop1171" />

	<stop
   offset="1"
   style="stop-color:#F69F37"
   id="stop1173" />

</linearGradient>
    <linearGradient
       id="SVGID_2_"
       gradientUnits="userSpaceOnUse"
       x1="11.8232"
       y1="11.2339"
       x2="11.8232"
       y2="37.9839">
	<stop
   offset="0"
   style="stop-color:#D1D3D4"
   id="stop1156" />

	<stop
   offset="1"
   style="stop-color:#574F8A"
   id="stop1158" />

</linearGradient>
    <linearGradient
       id="white_line_1_"
       gradientUnits="userSpaceOnUse"
       x1="11.7822"
       y1="-0.0161"
       x2="11.7822"
       y2="31.4839">
	<stop
   offset="0"
   style="stop-color:#D1D3D4"
   id="stop1150" />

	<stop
   offset="1"
   style="stop-color:#574F8A"
   id="stop1152" />

</linearGradient>
    <linearGradient
       id="SVGID_1_"
       gradientUnits="userSpaceOnUse"
       x1="11.7822"
       y1="-2.7661"
       x2="11.7822"
       y2="28.4839">
	<stop
   offset="0"
   style="stop-color:#F6F7F5"
   id="stop1141" />

	<stop
   offset="0.2857"
   style="stop-color:#574F8A"
   id="stop1143" />

	<stop
   offset="1"
   style="stop-color:#414A6B"
   id="stop1145" />

</linearGradient>
    <linearGradient
       inkscape:collect="always"
       id="linearGradient2268">
      <stop
         style="stop-color:#eeeeec"
         offset="0"
         id="stop2270" />
      <stop
         style="stop-color:#ffffff;stop-opacity:1"
         offset="1"
         id="stop2272" />
    </linearGradient>
    <linearGradient
       inkscape:collect="always"
       xlink:href="#linearGradient2268"
       id="linearGradient18521"
       gradientUnits="userSpaceOnUse"
       gradientTransform="matrix(0.4012926,0,0,0.4012926,45.582758,36.91226)"
       x1="21.875"
       y1="7.6059465"
       x2="21.875"
       y2="18.51421" />
    <linearGradient
       inkscape:collect="always"
       id="linearGradient2249">
      <stop
         style="stop-color:#204a87;stop-opacity:1;"
         offset="0"
         id="stop2251" />
      <stop
         style="stop-color:#204a87;stop-opacity:0;"
         offset="1"
         id="stop2253" />
    </linearGradient>
    <linearGradient
       inkscape:collect="always"
       xlink:href="#linearGradient2249"
       id="linearGradient18519"
       gradientUnits="userSpaceOnUse"
       gradientTransform="matrix(0.4012926,0,0,0.4012926,45.582758,36.91226)"
       x1="37.625"
       y1="7.625"
       x2="37.625"
       y2="3.4829895" />
    <linearGradient
       inkscape:collect="always"
       id="linearGradient2319">
      <stop
         style="stop-color:#ffffff;stop-opacity:1;"
         offset="0"
         id="stop2321" />
      <stop
         style="stop-color:#ffffff;stop-opacity:0;"
         offset="1"
         id="stop2323" />
    </linearGradient>
    <linearGradient
       inkscape:collect="always"
       xlink:href="#linearGradient2319"
       id="linearGradient18517"
       gradientUnits="userSpaceOnUse"
       gradientTransform="matrix(0.4012926,0,0,0.4012926,45.582758,36.91226)"
       x1="20.484835"
       y1="35"
       x2="27.375"
       y2="42.125" />
    <linearGradient
       inkscape:collect="always"
       xlink:href="#linearGradient2356"
       id="linearGradient18515"
       gradientUnits="userSpaceOnUse"
       gradientTransform="matrix(0.4012926,0,0,0.4012926,45.582758,36.91226)"
       x1="10"
       y1="27.996471"
       x2="31"
       y2="42" />
    <linearGradient
       inkscape:collect="always"
       id="linearGradient2294">
      <stop
         style="stop-color:#3465a4"
         offset="0"
         id="stop2296" />
      <stop
         style="stop-color:#3465a4;stop-opacity:0"
         offset="1"
         id="stop2298" />
    </linearGradient>
    <linearGradient
       inkscape:collect="always"
       xlink:href="#linearGradient2294"
       id="linearGradient18513"
       gradientUnits="userSpaceOnUse"
       gradientTransform="matrix(0.4012926,0,0,0.4012926,45.582758,36.91226)"
       x1="18.75"
       y1="27.654568"
       x2="18.826717"
       y2="36.774681" />
    <linearGradient
       inkscape:collect="always"
       id="linearGradient2238">
      <stop
         style="stop-color:#ffffff;stop-opacity:1;"
         offset="0"
         id="stop2240" />
      <stop
         style="stop-color:#ffffff;stop-opacity:0;"
         offset="1"
         id="stop2242" />
    </linearGradient>
    <linearGradient
       inkscape:collect="always"
       xlink:href="#linearGradient2238"
       id="linearGradient18511"
       gradientUnits="userSpaceOnUse"
       gradientTransform="matrix(0.4012926,0,0,0.4012926,45.582758,36.91226)"
       x1="34.840229"
       y1="38.464149"
       x2="30.685976"
       y2="29" />
    <linearGradient
       inkscape:collect="always"
       id="linearGradient2207">
      <stop
         style="stop-color:#ffffff;stop-opacity:1;"
         offset="0"
         id="stop2209" />
      <stop
         style="stop-color:#ffffff;stop-opacity:0;"
         offset="1"
         id="stop2211" />
    </linearGradient>
    <linearGradient
       inkscape:collect="always"
       xlink:href="#linearGradient2207"
       id="linearGradient18509"
       gradientUnits="userSpaceOnUse"
       gradientTransform="matrix(0.4012926,0,0,0.4012926,45.582758,36.91226)"
       x1="10.875"
       y1="11.5"
       x2="47"
       y2="47.375" />
    <linearGradient
       id="linearGradient2388"
       inkscape:collect="always">
      <stop
         id="stop2390"
         offset="0"
         style="stop-color:#204a87" />
      <stop
         id="stop2392"
         offset="1"
         style="stop-color:#204a87;stop-opacity:0.3984375" />
    </linearGradient>
    <linearGradient
       inkscape:collect="always"
       xlink:href="#linearGradient2388"
       id="linearGradient18507"
       gradientUnits="userSpaceOnUse"
       gradientTransform="matrix(0.4012926,0,0,0.4012926,45.582758,36.91226)"
       x1="33.349056"
       y1="28.69302"
       x2="35.974056"
       y2="33.049397" />
    <linearGradient
       inkscape:collect="always"
       id="linearGradient2223">
      <stop
         style="stop-color:#3465a4"
         offset="0"
         id="stop2225" />
      <stop
         style="stop-color:#729fcf"
         offset="1"
         id="stop2227" />
    </linearGradient>
    <linearGradient
       inkscape:collect="always"
       xlink:href="#linearGradient2223"
       id="linearGradient18505"
       gradientUnits="userSpaceOnUse"
       gradientTransform="matrix(0.4012926,0,0,0.4012926,45.582758,36.91226)"
       x1="43.375"
       y1="-9.375"
       x2="21.125"
       y2="31.75" />
    <linearGradient
       id="linearGradient6259">
      <stop
         style="stop-color: rgb(23, 55, 100); stop-opacity: 1;"
         offset="0"
         id="stop6261" />
      <stop
         style="stop-color: rgb(45, 105, 192); stop-opacity: 1;"
         offset="1"
         id="stop6263" />
    </linearGradient>
    <linearGradient
       inkscape:collect="always"
       xlink:href="#linearGradient6259"
       id="linearGradient6265"
       x1="24.8125"
       y1="41.000004"
       x2="24.8125"
       y2="43.375004"
       gradientUnits="userSpaceOnUse" />
    <linearGradient
       id="linearGradient6292">
      <stop
         style="stop-color: rgb(245, 121, 0); stop-opacity: 1;"
         offset="0"
         id="stop6294" />
      <stop
         id="stop6300"
         offset="0.27027026"
         style="stop-color: rgb(255, 159, 67); stop-opacity: 1;" />
      <stop
         style="stop-color: rgb(203, 100, 0); stop-opacity: 1;"
         offset="1"
         id="stop6296" />
    </linearGradient>
    <linearGradient
       inkscape:collect="always"
       xlink:href="#linearGradient6292"
       id="linearGradient6298"
       x1="24.508614"
       y1="12.495212"
       x2="24.508614"
       y2="39.508614"
       gradientUnits="userSpaceOnUse" />
    <linearGradient
       inkscape:collect="always"
       id="linearGradient6247">
      <stop
         style="stop-color: white; stop-opacity: 1;"
         offset="0"
         id="stop6249" />
      <stop
         style="stop-color: white; stop-opacity: 0;"
         offset="1"
         id="stop6251" />
    </linearGradient>
    <linearGradient
       inkscape:collect="always"
       xlink:href="#linearGradient6247"
       id="linearGradient6253"
       x1="20.40625"
       y1="7.515625"
       x2="34.09375"
       y2="62.265625"
       gradientUnits="userSpaceOnUse" />
    <linearGradient
       id="linearGradient6235">
      <stop
         style="stop-color: rgb(52, 101, 164); stop-opacity: 1;"
         offset="0"
         id="stop6237" />
      <stop
         style="stop-color: rgb(45, 88, 143); stop-opacity: 1;"
         offset="1"
         id="stop6239" />
    </linearGradient>
    <linearGradient
       inkscape:collect="always"
       xlink:href="#linearGradient6235"
       id="linearGradient6245"
       gradientUnits="userSpaceOnUse"
       x1="22.15266"
       y1="6.2555637"
       x2="28.841305"
       y2="44.992451" />
    <linearGradient
       inkscape:collect="always"
       id="linearGradient6210">
      <stop
         style="stop-color: white; stop-opacity: 1;"
         offset="0"
         id="stop6212" />
      <stop
         style="stop-color: white; stop-opacity: 0;"
         offset="1"
         id="stop6214" />
    </linearGradient>
    <linearGradient
       inkscape:collect="always"
       xlink:href="#linearGradient6210"
       id="linearGradient6216"
       x1="16.845879"
       y1="8.6784801"
       x2="30.507824"
       y2="78.505272"
       gradientUnits="userSpaceOnUse" />
    <linearGradient
       id="linearGradient6099">
      <stop
         style="stop-color: rgb(238, 238, 236); stop-opacity: 1;"
         offset="0"
         id="stop6101" />
      <stop
         id="stop6107"
         offset="0.8918919"
         style="stop-color: rgb(222, 222, 218); stop-opacity: 1;" />
      <stop
         style="stop-color: rgb(131, 131, 117); stop-opacity: 1;"
         offset="1"
         id="stop6103" />
    </linearGradient>
    <linearGradient
       inkscape:collect="always"
       xlink:href="#linearGradient6099"
       id="linearGradient6105"
       x1="22.797205"
       y1="39.679859"
       x2="22.797205"
       y2="46.635937"
       gradientUnits="userSpaceOnUse"
       gradientTransform="matrix(1,0,0,0.934004,0,1.55798)" />
    <radialGradient
       inkscape:collect="always"
       xlink:href="#linearGradient6151"
       id="radialGradient6157"
       cx="33.45499"
       cy="28.603338"
       fx="33.45499"
       fy="28.603338"
       r="3.8890872"
       gradientUnits="userSpaceOnUse"
       gradientTransform="matrix(3.65724,0,0,3.65724,-88.8979,-76.0059)" />
    <linearGradient
       inkscape:collect="always"
       id="linearGradient6151">
      <stop
         style="stop-color: rgb(46, 52, 54); stop-opacity: 1;"
         offset="0"
         id="stop6153" />
      <stop
         style="stop-color: rgb(46, 52, 54); stop-opacity: 0;"
         offset="1"
         id="stop6155" />
    </linearGradient>
    <radialGradient
       inkscape:collect="always"
       xlink:href="#linearGradient6151"
       id="radialGradient6161"
       gradientUnits="userSpaceOnUse"
       gradientTransform="matrix(8.34215,0,0,8.34215,-227.629,-207.066)"
       cx="29.61227"
       cy="27.974968"
       fx="29.61227"
       fy="27.974968"
       r="3.8890872" />
    <linearGradient
       id="linearGradient6196">
      <stop
         style="stop-color: rgb(237, 212, 0); stop-opacity: 1;"
         offset="0"
         id="stop6198" />
      <stop
         id="stop6204"
         offset="0.5"
         style="stop-color: rgb(195, 175, 7); stop-opacity: 1;" />
      <stop
         style="stop-color: rgb(255, 235, 62); stop-opacity: 1;"
         offset="1"
         id="stop6200" />
    </linearGradient>
    <linearGradient
       inkscape:collect="always"
       xlink:href="#linearGradient6196"
       id="linearGradient6202"
       x1="29.374996"
       y1="21.741114"
       x2="22.101643"
       y2="7.6786127"
       gradientUnits="userSpaceOnUse" />
    <linearGradient
       id="linearGradient6115">
      <stop
         style="stop-color: rgb(85, 87, 83); stop-opacity: 1;"
         offset="0"
         id="stop6117" />
      <stop
         style="stop-color: rgb(62, 63, 60); stop-opacity: 1;"
         offset="1"
         id="stop6119" />
    </linearGradient>
    <linearGradient
       inkscape:collect="always"
       xlink:href="#linearGradient6115"
       id="linearGradient6208"
       gradientUnits="userSpaceOnUse"
       gradientTransform="matrix(1,0,0,0.982516,0,-7.0767e-2)"
       x1="21.617008"
       y1="4.6076145"
       x2="26.443777"
       y2="47.007381" />
    <linearGradient
       id="linearGradient4109">
      <stop
         id="stop4111"
         offset="0"
         style="stop-color:white;stop-opacity:1;" />
      <stop
         id="stop4113"
         offset="1"
         style="stop-color:white;stop-opacity:0;" />
    </linearGradient>
    <linearGradient
       id="linearGradient4097">
      <stop
         style="stop-color:black;stop-opacity:1;"
         offset="0"
         id="stop4099" />
      <stop
         style="stop-color:black;stop-opacity:0;"
         offset="1"
         id="stop4101" />
    </linearGradient>
    <linearGradient
       id="linearGradient4059">
      <stop
         style="stop-color:#edd400;stop-opacity:1;"
         offset="0"
         id="stop4061" />
      <stop
         style="stop-color:#b19e00;stop-opacity:1;"
         offset="1"
         id="stop4063" />
    </linearGradient>
    <linearGradient
       id="linearGradient4134">
      <stop
         style="stop-color:#3465a4;stop-opacity:1;"
         offset="0"
         id="stop4136" />
      <stop
         style="stop-color:#2d578e;stop-opacity:1;"
         offset="1"
         id="stop4138" />
    </linearGradient>
    <linearGradient
       id="linearGradient3355">
      <stop
         style="stop-color:#6f716c;stop-opacity:1;"
         offset="0"
         id="stop3357" />
      <stop
         style="stop-color:#888a85;stop-opacity:0;"
         offset="1"
         id="stop3359" />
    </linearGradient>
    <linearGradient
       id="linearGradient3671">
      <stop
         style="stop-color:#ffffff;stop-opacity:1;"
         offset="0"
         id="stop3673" />
      <stop
         id="stop3691"
         offset="0.47533694"
         style="stop-color:#ffffff;stop-opacity:1;" />
      <stop
         style="stop-color:#ffffff;stop-opacity:0;"
         offset="1"
         id="stop3675" />
    </linearGradient>
    <linearGradient
       id="linearGradient3683">
      <stop
         id="stop3685"
         offset="0"
         style="stop-color:#f6f6f5;stop-opacity:1;" />
      <stop
         id="stop3689"
         offset="1"
         style="stop-color:#d3d7cf;stop-opacity:1" />
    </linearGradient>
    <linearGradient
       id="linearGradient3702">
      <stop
         style="stop-color:black;stop-opacity:0;"
         offset="0"
         id="stop3704" />
      <stop
         id="stop3710"
         offset="0.5"
         style="stop-color:black;stop-opacity:1;" />
      <stop
         style="stop-color:black;stop-opacity:0;"
         offset="1"
         id="stop3706" />
    </linearGradient>
    <linearGradient
       id="linearGradient2356">
      <stop
         style="stop-color:#8a9580;stop-opacity:1;"
         offset="0"
         id="stop2358" />
      <stop
         id="stop2364"
         offset="0.38488522"
         style="stop-color:#dcded9;stop-opacity:1;" />
      <stop
         style="stop-color:#b8bcb4;stop-opacity:1;"
         offset="0.6339286"
         id="stop2366" />
      <stop
         id="stop2368"
         offset="0.8214286"
         style="stop-color:#d7d9d5;stop-opacity:1;" />
      <stop
         style="stop-color:#babdb6"
         offset="1"
         id="stop2360" />
    </linearGradient>
    <linearGradient
       inkscape:collect="always"
       id="linearGradient3725">
      <stop
         style="stop-color:#eeeeec;stop-opacity:1;"
         offset="0"
         id="stop3727" />
      <stop
         style="stop-color:#eeeeec;stop-opacity:0;"
         offset="1"
         id="stop3729" />
    </linearGradient>
    <linearGradient
       inkscape:collect="always"
       id="linearGradient3709">
      <stop
         style="stop-color:black;stop-opacity:1;"
         offset="0"
         id="stop3711" />
      <stop
         style="stop-color:black;stop-opacity:0;"
         offset="1"
         id="stop3713" />
    </linearGradient>
    <linearGradient
       id="linearGradient2809">
      <stop
         style="stop-color:#d3d7cf;stop-opacity:1;"
         offset="0"
         id="stop2811" />
      <stop
         style="stop-color:#eeeeec;stop-opacity:0;"
         offset="1"
         id="stop2813" />
    </linearGradient>
    <linearGradient
       id="linearGradient3763">
      <stop
         style="stop-color:#888a85;stop-opacity:1;"
         offset="0"
         id="stop3765" />
      <stop
         style="stop-color:#babdb6;stop-opacity:1"
         offset="1"
         id="stop3767" />
    </linearGradient>
    <linearGradient
       id="linearGradient3942">
      <stop
         id="stop3944"
         offset="0"
         style="stop-color:#888a85;stop-opacity:1" />
      <stop
         id="stop3946"
         offset="1"
         style="stop-color:#eeeeec;stop-opacity:1" />
    </linearGradient>
    <linearGradient
       id="linearGradient3877">
      <stop
         style="stop-color:black;stop-opacity:1;"
         offset="0"
         id="stop3879" />
      <stop
         style="stop-color:white;stop-opacity:0.77319586;"
         offset="1"
         id="stop3881" />
    </linearGradient>
    <linearGradient
       id="linearGradient3859">
      <stop
         id="stop3861"
         offset="0"
         style="stop-color:#d3d7cf;stop-opacity:1" />
      <stop
         id="stop3037"
         offset="0.30973485"
         style="stop-color:#eeeeec;stop-opacity:1;" />
      <stop
         style="stop-color:white;stop-opacity:1;"
         offset="0.88648254"
         id="stop3039" />
      <stop
         id="stop3863"
         offset="1"
         style="stop-color:#d3d7cf;stop-opacity:1" />
    </linearGradient>
    <linearGradient
       inkscape:collect="always"
       id="linearGradient5060">
      <stop
         style="stop-color:black;stop-opacity:1;"
         offset="0"
         id="stop5062" />
      <stop
         style="stop-color:black;stop-opacity:0;"
         offset="1"
         id="stop5064" />
    </linearGradient>
    <linearGradient
       id="linearGradient5048">
      <stop
         style="stop-color:black;stop-opacity:0;"
         offset="0"
         id="stop5050" />
      <stop
         id="stop5056"
         offset="0.5"
         style="stop-color:black;stop-opacity:1;" />
      <stop
         style="stop-color:black;stop-opacity:0;"
         offset="1"
         id="stop5052" />
    </linearGradient>
    <linearGradient
       inkscape:collect="always"
       xlink:href="#linearGradient3859"
       id="linearGradient2899"
       gradientUnits="userSpaceOnUse"
       gradientTransform="matrix(1.169513,0,0,1.866794,-4.088508,-5.493268)"
       x1="39.846634"
       y1="17.288595"
       x2="9.0151443"
       y2="17.469774" />
    <linearGradient
       inkscape:collect="always"
       xlink:href="#linearGradient3942"
       id="linearGradient2925"
       gradientUnits="userSpaceOnUse"
       gradientTransform="matrix(1.168352,0,0,0.940121,-5.224048,3.708073)"
       x1="31.259865"
       y1="28.921469"
       x2="31.259865"
       y2="30.105555" />
    <linearGradient
       inkscape:collect="always"
       xlink:href="#linearGradient3877"
       id="linearGradient3883"
       x1="75"
       y1="56.9375"
       x2="75"
       y2="63.920155"
       gradientUnits="userSpaceOnUse"
       gradientTransform="matrix(1.196864,0,0,1.232642,-76.53167,-39.77282)" />
    <linearGradient
       inkscape:collect="always"
       xlink:href="#linearGradient5048"
       id="linearGradient3903"
       gradientUnits="userSpaceOnUse"
       gradientTransform="matrix(2.774389,0,0,1.969706,-1892.179,-872.8854)"
       x1="302.85715"
       y1="366.64789"
       x2="302.85715"
       y2="609.50507" />
    <radialGradient
       inkscape:collect="always"
       xlink:href="#linearGradient5060"
       id="radialGradient3905"
       gradientUnits="userSpaceOnUse"
       gradientTransform="matrix(2.774389,0,0,1.969706,-1891.633,-872.8854)"
       cx="605.71429"
       cy="486.64789"
       fx="605.71429"
       fy="486.64789"
       r="117.14286" />
    <radialGradient
       inkscape:collect="always"
       xlink:href="#linearGradient5060"
       id="radialGradient3907"
       gradientUnits="userSpaceOnUse"
       gradientTransform="matrix(-2.774389,0,0,1.969706,112.7623,-872.8854)"
       cx="605.71429"
       cy="486.64789"
       fx="605.71429"
       fy="486.64789"
       r="117.14286" />
    <linearGradient
       inkscape:collect="always"
       xlink:href="#linearGradient3763"
       id="linearGradient3769"
       x1="36.05172"
       y1="34.193111"
       x2="35.23922"
       y2="32.023624"
       gradientUnits="userSpaceOnUse"
       gradientTransform="translate(1,2)" />
    <linearGradient
       inkscape:collect="always"
       xlink:href="#linearGradient2809"
       id="linearGradient2815"
       x1="22.777416"
       y1="32.072342"
       x2="22.777416"
       y2="34.00016"
       gradientUnits="userSpaceOnUse"
       gradientTransform="matrix(1,0,0,1.166667,0,-2.666667)" />
    <linearGradient
       inkscape:collect="always"
       xlink:href="#linearGradient3709"
       id="linearGradient3715"
       x1="19.5625"
       y1="31.8125"
       x2="19.5625"
       y2="33.65863"
       gradientUnits="userSpaceOnUse"
       gradientTransform="matrix(1,0,0,1.333333,0,-8.33333)" />
    <linearGradient
       inkscape:collect="always"
       xlink:href="#linearGradient3725"
       id="linearGradient3731"
       x1="29.521708"
       y1="32.023651"
       x2="29.521708"
       y2="33.553349"
       gradientUnits="userSpaceOnUse"
       gradientTransform="matrix(1,0,0,1.333333,0,-8.33333)" />
  </defs>
  <sodipodi:namedview
     id="base"
     pagecolor="#ffffff"
     bordercolor="#c5c5c5"
     borderopacity="1"
     inkscape:pageopacity="0.0"
     inkscape:pageshadow="2"
     inkscape:zoom="8"
     inkscape:cx="35.273727"
     inkscape:cy="13.0875"
     inkscape:current-layer="layer1"
     showgrid="false"
     inkscape:grid-bbox="false"
     inkscape:document-units="px"
     stroke="#888a85"
     fill="#babdb6"
     inkscape:window-width="701"
     inkscape:window-height="790"
     inkscape:window-x="250"
     inkscape:window-y="108"
     inkscape:showpageshadow="false"
     inkscape:guide-points="false"
     inkscape:object-points="false"
     inkscape:object-paths="false"
     inkscape:guide-bbox="true"
     gridspacingx="0.5px"
     gridspacingy="0.5px"
     gridempspacing="2"
     inkscape:grid-points="true"
     showguides="false"
     showborder="true"
     inkscape:object-bbox="true">
    <sodipodi:guide
       orientation="horizontal"
       position="2.8125"
       id="guide2906" />
  </sodipodi:namedview>
  <metadata
     id="metadata1311">
    <rdf:RDF>
      <cc:Work
         rdf:about="">
        <dc:format>image/svg+xml</dc:format>
        <dc:type
           rdf:resource="http://purl.org/dc/dcmitype/StillImage" />
        <dc:title>Drive Removable Media</dc:title>
        <dc:creator>
          <cc:Agent>
            <dc:title>Lapo Calamandrei</dc:title>
          </cc:Agent>
        </dc:creator>
        <dc:description />
        <cc:license
           rdf:resource="http://creativecommons.org/licenses/GPL/2.0/" />
        <dc:source>http://www.gnome.org</dc:source>
        <dc:contributor>
          <cc:Agent>
            <dc:title>Jakub Steiner</dc:title>
          </cc:Agent>
        </dc:contributor>
        <dc:date>2006</dc:date>
        <dc:subject>
          <rdf:Bag>
            <rdf:li>drive</rdf:li>
            <rdf:li>removable</rdf:li>
            <rdf:li>media</rdf:li>
          </rdf:Bag>
        </dc:subject>
      </cc:Work>
      <cc:License
         rdf:about="http://creativecommons.org/licenses/GPL/2.0/">
        <cc:permits
           rdf:resource="http://web.resource.org/cc/Reproduction" />
        <cc:permits
           rdf:resource="http://web.resource.org/cc/Distribution" />
        <cc:requires
           rdf:resource="http://web.resource.org/cc/Notice" />
        <cc:permits
           rdf:resource="http://web.resource.org/cc/DerivativeWorks" />
        <cc:requires
           rdf:resource="http://web.resource.org/cc/ShareAlike" />
        <cc:requires
           rdf:resource="http://web.resource.org/cc/SourceCode" />
      </cc:License>
    </rdf:RDF>
  </metadata>
  <g
     id="layer1"
     inkscape:label="Layer 1"
     inkscape:groupmode="layer">
    <g
       transform="matrix(2.364027e-2,0,0,3.669526e-2,45.52649,31.53641)"
       id="g3895">
      <rect
         style="opacity:0.40206185;color:black;fill:url(#linearGradient3903);fill-opacity:1;fill-rule:nonzero;stroke:none;stroke-width:1;stroke-linecap:round;stroke-linejoin:miter;marker:none;marker-start:none;marker-mid:none;marker-end:none;stroke-miterlimit:4;stroke-dasharray:none;stroke-dashoffset:0;stroke-opacity:1;visibility:visible;display:inline;overflow:visible"
         id="rect3897"
         width="1339.6335"
         height="478.35718"
         x="-1559.2523"
         y="-150.69685" />
      <path
         style="opacity:0.40206185;color:black;fill:url(#radialGradient3905);fill-opacity:1;fill-rule:nonzero;stroke:none;stroke-width:1;stroke-linecap:round;stroke-linejoin:miter;marker:none;marker-start:none;marker-mid:none;marker-end:none;stroke-miterlimit:4;stroke-dasharray:none;stroke-dashoffset:0;stroke-opacity:1;visibility:visible;display:inline;overflow:visible"
         d="M -219.61876,-150.68038 C -219.61876,-150.68038 -219.61876,327.65041 -219.61876,327.65041 C -76.744594,328.55086 125.78146,220.48075 125.78138,88.454235 C 125.78138,-43.572302 -33.655436,-150.68036 -219.61876,-150.68038 z "
         id="path3899"
         sodipodi:nodetypes="cccc" />
      <path
         sodipodi:nodetypes="cccc"
         id="path3901"
         d="M -1559.2523,-150.68038 C -1559.2523,-150.68038 -1559.2523,327.65041 -1559.2523,327.65041 C -1702.1265,328.55086 -1904.6525,220.48075 -1904.6525,88.454235 C -1904.6525,-43.572302 -1745.2157,-150.68036 -1559.2523,-150.68038 z "
         style="opacity:0.40206185;color:black;fill:url(#radialGradient3907);fill-opacity:1;fill-rule:nonzero;stroke:none;stroke-width:1;stroke-linecap:round;stroke-linejoin:miter;marker:none;marker-start:none;marker-mid:none;marker-end:none;stroke-miterlimit:4;stroke-dasharray:none;stroke-dashoffset:0;stroke-opacity:1;visibility:visible;display:inline;overflow:visible" />
    </g>
    <path
       style="fill:url(#linearGradient2899);fill-opacity:1;fill-rule:evenodd;stroke:#888a85;stroke-width:1.06704879px;stroke-linecap:butt;stroke-linejoin:round;stroke-opacity:1"
       d="M 12.84375,8.53125 C 10.231846,8.5312502 8.4897001,10.328989 7.53125,13.34375 C 7.5312501,13.34375 3.78125,30.40625 3.78125,30.40625 C 3.5381132,31.422188 3.5313229,32.466344 3.5,33.5 C 3.5,37.372271 6.6277285,40.500001 10.5,40.5 L 38.5,40.5 C 42.372271,40.5 45.500001,37.372271 45.5,33.5 C 45.4683,32.106734 45.393092,30.781091 45.09375,29.40625 L 40.8125,13.03125 C 39.878744,10.453666 38.12813,8.53125 35.625,8.53125 L 12.84375,8.53125 z "
       id="path2897"
       sodipodi:nodetypes="cccsccscccc" />
    <path
       style="opacity:0.4;fill:none;fill-rule:evenodd;stroke:white;stroke-width:0.99999964px;stroke-linecap:round;stroke-linejoin:miter;stroke-opacity:1"
       d="M 39.663187,26.21104 L 36.556647,10.554471"
       id="path3925"
       sodipodi:nodetypes="cc" />
    <path
       style="opacity:0.7;fill:none;fill-opacity:1;fill-rule:evenodd;stroke:white;stroke-width:1;stroke-linecap:butt;stroke-linejoin:round;stroke-miterlimit:4;stroke-dasharray:none;stroke-opacity:1"
       d="M 12.815683,9.6325097 C 10.75685,9.6325097 9.4360576,10.870456 8.6847245,13.436363 C 8.6847245,13.436363 5.0003906,30.503147 5.0003906,30.503147 C 4.5061245,33.442804 5.9863446,38.132348 10.636644,39.196455 L 38.372114,39.196455 C 43.735507,38.991426 45.340775,34.210036 44.122253,30.127393 C 44.122253,30.127393 39.790203,13.654526 39.790203,13.654526 C 38.996151,11.214602 37.453588,9.5109602 35.48279,9.5109602 L 12.815683,9.6325097 z "
       id="path2960"
       sodipodi:nodetypes="ccccccccc" />
    <rect
       style="opacity:1;color:black;fill:#d3d7cf;fill-opacity:1;fill-rule:nonzero;stroke:white;stroke-width:0.99999911;stroke-linecap:round;stroke-linejoin:round;marker:none;marker-start:none;marker-mid:none;marker-end:none;stroke-miterlimit:4;stroke-dasharray:none;stroke-dashoffset:1.20000057;stroke-opacity:1;visibility:visible;display:inline;overflow:visible"
       id="rect2909"
       width="39.993874"
       height="11.979301"
       x="4.5061245"
       y="27.520699"
       rx="5.8864155"
       ry="5.9896455" />
    <rect
       ry="4.9305935"
       rx="4.7874789"
       y="28.5"
       x="5.5"
       height="10"
       width="38"
       id="rect2898"
       style="opacity:0.3;color:black;fill:#babdb6;fill-opacity:1;fill-rule:nonzero;stroke:url(#linearGradient3883);stroke-width:0.99999976;stroke-linecap:round;stroke-linejoin:round;marker:none;marker-start:none;marker-mid:none;marker-end:none;stroke-miterlimit:4;stroke-dasharray:none;stroke-dashoffset:1.20000057;stroke-opacity:1;visibility:visible;display:inline;overflow:visible" />
    <rect
       style="fill:#babdb6;fill-opacity:1;stroke:url(#linearGradient3769);stroke-width:0.99999988;stroke-linecap:round;stroke-linejoin:round;stroke-miterlimit:4;stroke-dasharray:none;stroke-dashoffset:0;stroke-opacity:1"
       id="rect1949"
       width="5.9999943"
       height="1.999993"
       x="34.560654"
       y="34.527767"
       rx="0.99999648"
       ry="0.99999648" />
    <rect
       style="opacity:1;fill:#d3d7cf;fill-opacity:1;stroke:none;stroke-width:1;stroke-linecap:round;stroke-linejoin:miter;stroke-miterlimit:4;stroke-dasharray:none;stroke-dashoffset:0;stroke-opacity:1"
       id="rect1916"
       width="31"
       height="4"
       x="9"
       y="30"
       rx="1.09375"
       ry="1.09375" />
    <rect
       style="opacity:0.8;fill:url(#linearGradient2815);fill-opacity:1;stroke:none;stroke-width:1;stroke-linecap:round;stroke-linejoin:miter;stroke-miterlimit:4;stroke-dasharray:none;stroke-dashoffset:0;stroke-opacity:1"
       id="rect2807"
       width="11"
       height="7"
       x="19"
       y="30"
       rx="0"
       ry="0" />
    <rect
       style="opacity:0.5;fill:url(#linearGradient3731);fill-opacity:1;stroke:none;stroke-width:1;stroke-linecap:round;stroke-linejoin:miter;stroke-miterlimit:4;stroke-dasharray:none;stroke-dashoffset:0;stroke-opacity:1"
       id="rect3704"
       width="1"
       height="4"
       x="29"
       y="33" />
    <rect
       style="opacity:0.1;fill:url(#linearGradient3715);fill-opacity:1;stroke:none;stroke-width:1;stroke-linecap:round;stroke-linejoin:miter;stroke-miterlimit:4;stroke-dasharray:none;stroke-dashoffset:0;stroke-opacity:1"
       id="rect3706"
       width="1"
       height="4"
       x="19"
       y="33" />
    <path
       style="fill:#babdb6;fill-opacity:1;stroke:url(#linearGradient2925);stroke-width:1.00000024;stroke-linecap:round;stroke-linejoin:round;stroke-miterlimit:4;stroke-dashoffset:0;stroke-opacity:1"
       d="M 10.125903,30.500018 L 38.874097,30.500018 C 39.220847,30.500018 39.5,30.72464 39.5,31.003655 L 39.5,31.990388 C 39.5,32.269403 39.220847,32.494025 38.874097,32.494025 L 30,32.494025 L 28.5,33.5 L 20.5,33.5 L 19,32.494025 L 10.125903,32.494025 C 9.7791528,32.494025 9.5,32.269403 9.5,31.990388 L 9.5,31.003655 C 9.5,30.72464 9.7791528,30.500018 10.125903,30.500018 z "
       id="rect1951"
       sodipodi:nodetypes="ccccccccccccc" />
    <g
       id="g1933"
       transform="translate(-1,3)">
      <rect
         ry="0.5"
         rx="0.51535469"
         y="32.532925"
         x="9.5883884"
         height="1"
         width="3"
         id="rect1965"
         style="fill:#eeeeec;fill-opacity:1;stroke:#eeeeec;stroke-width:0.99999934;stroke-linecap:round;stroke-linejoin:round;stroke-miterlimit:4;stroke-dasharray:none;stroke-dashoffset:0;stroke-opacity:1" />
      <path
         transform="matrix(1.678725,0,0,2.171835,-111.8336,-100.6562)"
         d="M 73.078125 61.46875 A 0.484375 0.359375 0 1 1  72.109375,61.46875 A 0.484375 0.359375 0 1 1  73.078125 61.46875 z"
         sodipodi:ry="0.359375"
         sodipodi:rx="0.484375"
         sodipodi:cy="61.46875"
         sodipodi:cx="72.59375"
         id="path3893"
         style="color:black;fill:white;fill-opacity:1;fill-rule:nonzero;stroke:none;stroke-width:1;stroke-linecap:round;stroke-linejoin:round;marker:none;marker-start:none;marker-mid:none;marker-end:none;stroke-miterlimit:4;stroke-dasharray:none;stroke-dashoffset:1.20000057;stroke-opacity:1;visibility:visible;display:inline;overflow:visible"
         sodipodi:type="arc" />
    </g>
    <path
       style="opacity:1;fill:none;fill-rule:evenodd;stroke:white;stroke-width:0.99999964px;stroke-linecap:round;stroke-linejoin:miter;stroke-opacity:1"
       d="M 8.4628116,26.476205 L 11.677347,10.856247"
       id="path3921"
       sodipodi:nodetypes="cc" />
    <path
       style="opacity:0.7;fill:none;fill-rule:evenodd;stroke:white;stroke-width:1.15657115px;stroke-linecap:round;stroke-linejoin:miter;stroke-opacity:1"
       d="M 12.541942,26.343134 L 13.88327,10.410708"
       id="path3923"
       sodipodi:nodetypes="cc" />
    <path
       style="opacity:0.4;fill:none;fill-rule:evenodd;stroke:#ffffff;stroke-width:1.15657115px;stroke-linecap:round;stroke-linejoin:miter;stroke-opacity:1"
       d="M 36.467941,26.254746 L 34.357005,10.406266"
       id="path3927"
       sodipodi:nodetypes="cc" />
    <g
       id="g7219"
       transform="matrix(1.0160775,0,0,1.0160775,22.971992,14.989289)">
      <path
         id="path1138"
         d="M 0.34,8.232 C 0.34,7.957 0.564,7.733 0.84,7.733 L 1.55,7.733 C 1.826,7.733 2.05,7.957 2.05,8.232 L 2.05,10.052 C 2.05,10.328 1.826,10.552 1.55,10.552 L 0.84,10.552 C 0.564,10.552 0.34,10.328 0.34,10.052 L 0.34,8.232 L 0.34,8.232 z "
         stroke-miterlimit="3.8637"
         style="fill:#e7e8e9;stroke:#343346;stroke-width:0.5;stroke-miterlimit:3.86369991" />
      <path
         id="path1147"
         d="M 0.4,1.173 C 0.4,0.746 0.747,0.4 1.174,0.4 L 19.367,0.4 L 23.165,4.197 L 23.165,8.926 L 22.773,8.926 C 22.559,8.926 22.386,9.1 22.386,9.313 L 22.386,10.776 C 22.386,10.991 22.559,11.164 22.773,11.164 L 23.165,11.164 L 23.164,28.881 C 23.164,29.309 22.818,29.655 22.391,29.655 L 1.174,29.655 C 0.746,29.655 0.4,29.308 0.4,28.881 L 0.4,14.093 L 0.946,14.093 C 1.161,14.093 1.334,13.919 1.334,13.705 L 1.334,7.82 C 1.334,7.606 1.161,7.433 0.946,7.433 L 0.4,7.433 L 0.4,1.173 L 0.4,1.173 z "
         style="fill:url(#SVGID_1_)" />
      <path
         d="M 0.4,1.173 C 0.4,0.746 0.747,0.4 1.174,0.4 L 19.367,0.4 L 23.165,4.197 L 23.165,8.926 L 22.773,8.926 C 22.559,8.926 22.386,9.1 22.386,9.313 L 22.386,10.776 C 22.386,10.991 22.559,11.164 22.773,11.164 L 23.165,11.164 L 23.164,19.536 L 23.164,28.881 C 23.164,29.008 23.134,29.128 23.08,29.234 C 22.952,29.485 22.691,29.656 22.391,29.656 L 1.174,29.656 C 0.746,29.656 0.4,29.309 0.4,28.882 L 0.4,14.093 L 0.946,14.093 C 1.161,14.093 1.334,13.919 1.334,13.705 L 1.334,7.82 C 1.334,7.606 1.161,7.433 0.946,7.433 L 0.4,7.433 L 0.4,1.173 L 0.4,1.173 z M 1.65,6.208 C 2.415,6.346 2.995,7.015 2.995,7.82 L 2.995,13.706 C 2.995,14.511 2.415,15.18 1.65,15.317 L 1.65,28.404 L 21.915,28.404 L 21.915,28.18 L 20.523,26.924 L 20.523,20.83 L 21.915,20.148 L 21.915,12.17 C 21.448,11.881 21.138,11.364 21.138,10.774 L 21.138,9.312 C 21.138,8.724 21.449,8.207 21.915,7.919 L 21.915,4.714 L 18.85,1.65 L 1.65,1.65 L 1.65,6.208 L 1.65,6.208 z "
         id="white_line_2_"
         style="opacity:0.51000001;fill:url(#white_line_1_)" />
      <path
         id="path1160"
         d="M 3.331,5.025 C 3.331,4.597 3.678,4.252 4.105,4.252 L 19.542,4.252 C 19.97,4.252 20.316,4.598 20.316,5.025 L 20.316,26.094 C 20.316,26.522 19.969,26.868 19.542,26.868 L 4.105,26.868 C 3.677,26.868 3.331,26.521 3.331,26.094 L 3.331,5.025 L 3.331,5.025 z "
         style="fill:url(#SVGID_2_)" />
      <polygon
         id="polygon1162"
         points="23.166,27.96 21.524,26.479 21.524,21.454 23.166,20.648 23.166,27.96 "
         stroke-miterlimit="3.8637"
         style="fill:#d1d3d4;stroke:#343346;stroke-width:0.5;stroke-miterlimit:3.86369991" />
      <g
         id="g1164">
	<path
   id="path1166"
   d="M 11.767,23.907 L 12.84,23.907 L 12.84,24.04 C 12.84,24.3 12.884,24.485 12.972,24.596 C 13.059,24.706 13.205,24.761 13.41,24.761 C 13.572,24.761 13.701,24.712 13.795,24.613 C 13.89,24.514 13.938,24.379 13.938,24.209 C 13.938,23.969 13.714,23.704 13.268,23.412 C 13.238,23.393 13.216,23.38 13.203,23.371 C 12.968,23.219 12.781,23.093 12.641,22.995 C 12.501,22.897 12.397,22.816 12.329,22.752 C 12.144,22.584 12.017,22.425 11.949,22.275 C 11.881,22.125 11.847,21.942 11.847,21.723 C 11.847,21.301 11.991,20.965 12.279,20.714 C 12.568,20.464 12.955,20.339 13.443,20.339 C 13.947,20.339 14.326,20.454 14.58,20.687 C 14.834,20.92 14.961,21.265 14.961,21.723 L 14.961,21.857 L 13.918,21.857 L 13.918,21.83 C 13.918,21.593 13.876,21.414 13.79,21.295 C 13.705,21.175 13.576,21.115 13.406,21.115 C 13.251,21.115 13.127,21.162 13.035,21.256 C 12.942,21.349 12.896,21.476 12.896,21.635 C 12.896,21.906 13.187,22.215 13.771,22.561 C 13.921,22.653 14.038,22.724 14.12,22.777 C 14.451,22.987 14.68,23.188 14.808,23.381 C 14.936,23.574 15,23.8 15,24.067 C 15,24.557 14.856,24.926 14.569,25.174 C 14.282,25.422 13.857,25.547 13.295,25.547 C 12.766,25.547 12.378,25.429 12.131,25.193 C 11.883,24.958 11.76,24.588 11.76,24.085 C 11.76,24.066 11.761,24.038 11.763,23.999 C 11.765,23.96 11.767,23.929 11.767,23.907 z "
   style="fill:#ffffff" />

	<path
   id="path1168"
   d="M 15.463,20.42 L 17.128,20.42 C 17.777,20.42 18.234,20.606 18.497,20.977 C 18.761,21.348 18.892,22.003 18.892,22.942 C 18.892,23.88 18.761,24.533 18.497,24.905 C 18.234,25.276 17.777,25.462 17.128,25.462 L 15.463,25.462 L 15.463,20.42 z M 16.534,21.186 L 16.534,24.672 L 16.989,24.672 C 17.323,24.672 17.553,24.561 17.68,24.338 C 17.807,24.116 17.869,23.647 17.869,22.928 C 17.869,22.211 17.807,21.74 17.68,21.519 C 17.553,21.296 17.323,21.186 16.989,21.186 L 16.534,21.186 L 16.534,21.186 z "
   style="fill:#ffffff" />

</g>
      <path
         id="path1175"
         d="M 20.316,12.194 C 19.032,12.932 17.419,13.203 16.001,13.203 C 14.211,13.203 13.069,12.683 11.507,11.934 C 10.161,11.289 8.715,10.634 6.388,10.634 C 5.048,10.634 4.046,10.839 3.331,11.078 L 3.331,5.025 C 3.331,4.597 3.678,4.252 4.105,4.252 L 19.542,4.252 C 19.97,4.252 20.316,4.598 20.316,5.025 L 20.316,12.194 L 20.316,12.194 z "
         style="fill:url(#SVGID_3_)" />
      <path
         id="path1177"
         d="M 3.331,5.025 C 3.331,4.597 3.678,4.252 4.105,4.252 L 19.542,4.252 C 19.97,4.252 20.316,4.598 20.316,5.025 L 20.316,26.094 C 20.316,26.522 19.969,26.868 19.542,26.868 L 4.105,26.868 C 3.677,26.868 3.331,26.521 3.331,26.094 L 3.331,5.025 L 3.331,5.025 z "
         stroke-miterlimit="3.8637"
         style="fill:none;stroke:#d4d4cd;stroke-width:0.5;stroke-miterlimit:3.86369991" />
      <path
         id="path1179"
         d="M 0.4,1.173 C 0.4,0.746 0.747,0.4 1.174,0.4 L 19.367,0.4 L 23.165,4.197 L 23.165,8.926 L 22.773,8.926 C 22.559,8.926 22.386,9.1 22.386,9.313 L 22.386,10.776 C 22.386,10.991 22.559,11.164 22.773,11.164 L 23.165,11.164 L 23.164,28.881 C 23.164,29.309 22.818,29.655 22.391,29.655 L 1.174,29.655 C 0.746,29.655 0.4,29.308 0.4,28.881 L 0.4,14.093 L 1.358,14.093 C 1.572,14.093 1.745,13.919 1.745,13.705 L 1.745,7.82 C 1.745,7.606 1.572,7.433 1.358,7.433 L 0.4,7.433 L 0.4,1.173 L 0.4,1.173 z "
         stroke-miterlimit="3.8637"
         style="fill:none;stroke:#343346;stroke-width:0.80000001;stroke-miterlimit:3.86369991" />
    </g>
  </g>
</svg>
