<?xml version="1.0" encoding="UTF-8" standalone="no"?>
<!-- Created with Inkscape (http://www.inkscape.org/) -->
<svg
   xmlns:dc="http://purl.org/dc/elements/1.1/"
   xmlns:cc="http://web.resource.org/cc/"
   xmlns:rdf="http://www.w3.org/1999/02/22-rdf-syntax-ns#"
   xmlns:svg="http://www.w3.org/2000/svg"
   xmlns="http://www.w3.org/2000/svg"
   xmlns:xlink="http://www.w3.org/1999/xlink"
   xmlns:sodipodi="http://sodipodi.sourceforge.net/DTD/sodipodi-0.dtd"
   xmlns:inkscape="http://www.inkscape.org/namespaces/inkscape"
   width="48px"
   height="48px"
   id="svg1306"
   sodipodi:version="0.32"
   inkscape:version="0.45.1"
   sodipodi:docbase="/Users/mlanglie/Desktop"
   sodipodi:docname="media-optical-hddvd.svg"
   inkscape:output_extension="org.inkscape.output.svg.inkscape">
  <defs
     id="defs1308">
    <linearGradient
       inkscape:collect="always"
       id="linearGradient4409">
      <stop
         style="stop-color:#ffffff;stop-opacity:1;"
         offset="0"
         id="stop4411" />
      <stop
         style="stop-color:#ffffff;stop-opacity:0;"
         offset="1"
         id="stop4413" />
    </linearGradient>
    <linearGradient
       inkscape:collect="always"
       id="linearGradient6028">
      <stop
         style="stop-color:#ffffff;stop-opacity:1;"
         offset="0"
         id="stop6030" />
      <stop
         style="stop-color:#ffffff;stop-opacity:0;"
         offset="1"
         id="stop6032" />
    </linearGradient>
    <linearGradient
       inkscape:collect="always"
       id="linearGradient6036">
      <stop
         style="stop-color:#ffffff;stop-opacity:1;"
         offset="0"
         id="stop6038" />
      <stop
         style="stop-color:#ffffff;stop-opacity:0;"
         offset="1"
         id="stop6040" />
    </linearGradient>
    <linearGradient
       id="aigrd2"
       gradientUnits="userSpaceOnUse"
       x1="12.2744"
       y1="32.4165"
       x2="35.3912"
       y2="14.2033">
      <stop
         offset="0"
         style="stop-color:#FBFBFB"
         id="stop3043" />
      <stop
         offset="0.5"
         style="stop-color:#B6B6B6"
         id="stop3045" />
      <stop
         offset="1"
         style="stop-color:#E4E4E4"
         id="stop3047" />
    </linearGradient>
    <linearGradient
       id="aigrd1"
       gradientUnits="userSpaceOnUse"
       x1="14.9966"
       y1="11.1885"
       x2="32.511"
       y2="34.3075">
      <stop
         offset="0"
         style="stop-color:#EBEBEB"
         id="stop3034" />
      <stop
         offset="0.5"
         style="stop-color:#FFFFFF"
         id="stop3036" />
      <stop
         offset="1"
         style="stop-color:#EBEBEB"
         id="stop3038" />
    </linearGradient>
    <linearGradient
       inkscape:collect="always"
       id="linearGradient23419">
      <stop
         style="stop-color:#000000;stop-opacity:1;"
         offset="0"
         id="stop23421" />
      <stop
         style="stop-color:#000000;stop-opacity:0;"
         offset="1"
         id="stop23423" />
    </linearGradient>
    <radialGradient
       inkscape:collect="always"
       xlink:href="#linearGradient23419"
       id="radialGradient3507"
       gradientUnits="userSpaceOnUse"
       gradientTransform="matrix(1,0,0,0.25,0,31.22703)"
       cx="23.334524"
       cy="41.63604"
       fx="23.334524"
       fy="41.63604"
       r="22.627417" />
    <linearGradient
       inkscape:collect="always"
       xlink:href="#linearGradient6028"
       id="linearGradient3515"
       gradientUnits="userSpaceOnUse"
       x1="28.702885"
       y1="31.494707"
       x2="17.742729"
       y2="18.366575" />
    <linearGradient
       inkscape:collect="always"
       xlink:href="#linearGradient6036"
       id="linearGradient3519"
       gradientUnits="userSpaceOnUse"
       x1="10.501720"
       y1="3.6100161"
       x2="48.798885"
       y2="54.698483"
       gradientTransform="translate(-8.452e-2,-1.333323)" />
    <linearGradient
       inkscape:collect="always"
       xlink:href="#aigrd2"
       id="linearGradient3523"
       gradientUnits="userSpaceOnUse"
       gradientTransform="matrix(1.190476,0,0,1.190476,-4.308944,-3.833324)"
       x1="12.2744"
       y1="32.4165"
       x2="35.3912"
       y2="14.2033" />
    <linearGradient
       inkscape:collect="always"
       xlink:href="#aigrd1"
       id="linearGradient3526"
       gradientUnits="userSpaceOnUse"
       gradientTransform="matrix(1.190476,0,0,1.190476,-4.308944,-3.833323)"
       x1="14.9966"
       y1="11.1885"
       x2="32.511"
       y2="34.3075" />
    <linearGradient
       inkscape:collect="always"
       xlink:href="#linearGradient4409"
       id="linearGradient4415"
       x1="25.985928"
       y1="24.919628"
       x2="15.889072"
       y2="11.669628"
       gradientUnits="userSpaceOnUse"
       gradientTransform="translate(0.5,-0.353553)" />
  </defs>
  <sodipodi:namedview
     id="base"
     pagecolor="#ffffff"
     bordercolor="#666666"
     borderopacity="0.22745098"
     inkscape:pageopacity="0.0"
     inkscape:pageshadow="2"
     inkscape:zoom="8.276955"
     inkscape:cx="22.203768"
     inkscape:cy="23.090675"
     inkscape:current-layer="layer1"
     showgrid="false"
     inkscape:grid-bbox="true"
     inkscape:document-units="px"
     stroke="#888a85"
     fill="#eeeeec"
     inkscape:window-width="701"
     inkscape:window-height="696"
     inkscape:window-x="377"
     inkscape:window-y="99"
     inkscape:showpageshadow="false" />
  <metadata
     id="metadata1311">
    <rdf:RDF>
      <cc:Work
         rdf:about="">
        <dc:format>image/svg+xml</dc:format>
        <dc:type
           rdf:resource="http://purl.org/dc/dcmitype/StillImage" />
        <dc:title>Removable drive</dc:title>
        <dc:creator>
          <cc:Agent>
            <dc:title>Andreas Nilsson</dc:title>
          </cc:Agent>
        </dc:creator>
        <dc:description />
        <cc:license
           rdf:resource="http://creativecommons.org/licenses/GPL/2.0/" />
        <dc:source>http://www.gnome.org</dc:source>
        <dc:contributor>
          <cc:Agent>
            <dc:title>Jakub Steiner</dc:title>
          </cc:Agent>
        </dc:contributor>
      </cc:Work>
      <cc:License
         rdf:about="http://creativecommons.org/licenses/GPL/2.0/">
        <cc:permits
           rdf:resource="http://web.resource.org/cc/Reproduction" />
        <cc:permits
           rdf:resource="http://web.resource.org/cc/Distribution" />
        <cc:requires
           rdf:resource="http://web.resource.org/cc/Notice" />
        <cc:permits
           rdf:resource="http://web.resource.org/cc/DerivativeWorks" />
        <cc:requires
           rdf:resource="http://web.resource.org/cc/ShareAlike" />
        <cc:requires
           rdf:resource="http://web.resource.org/cc/SourceCode" />
      </cc:License>
    </rdf:RDF>
  </metadata>
  <g
     id="layer1"
     inkscape:label="Layer 1"
     inkscape:groupmode="layer">
    <path
       sodipodi:type="arc"
       style="opacity:0.55;color:#000000;fill:url(#radialGradient3507);fill-opacity:1;fill-rule:evenodd;stroke:none;stroke-width:2;stroke-linecap:butt;stroke-linejoin:miter;marker:none;marker-start:none;marker-mid:none;marker-end:none;stroke-miterlimit:4;stroke-dasharray:none;stroke-dashoffset:0;stroke-opacity:1;visibility:visible;display:inline;overflow:visible"
       id="path23417"
       sodipodi:cx="23.334524"
       sodipodi:cy="41.63604"
       sodipodi:rx="22.627417"
       sodipodi:ry="5.6568542"
       d="M 45.961941 41.63604 A 22.627417 5.6568542 0 1 1  0.70710754,41.63604 A 22.627417 5.6568542 0 1 1  45.961941 41.63604 z"
       inkscape:r_cx="true"
       inkscape:r_cy="true"
       transform="matrix(1,0,0,1.066291,0.91548,-4.218429)" />
    <path
       inkscape:r_cy="true"
       inkscape:r_cx="true"
       id="path3040"
       d="M 24.262486,2.8333435 C 12.714866,2.8333435 3.4291519,12.119058 3.4291519,23.666677 C 3.4291519,35.214297 12.714866,44.500012 24.262486,44.500012 C 35.810106,44.500012 45.095821,35.214297 45.095821,23.666677 C 45.095821,12.119058 35.810106,2.8333435 24.262486,2.8333435 L 24.262486,2.8333435 z M 24.262486,28.666678 C 21.524391,28.666678 19.262486,26.404773 19.262486,23.666677 C 19.262486,20.928582 21.524391,18.666677 24.262486,18.666677 C 27.000581,18.666677 29.262486,20.928582 29.262486,23.666677 C 29.262486,26.404773 27.000581,28.666678 24.262486,28.666678 z "
       style="fill:url(#linearGradient3526);fill-rule:nonzero;stroke:none;stroke-miterlimit:4" />
    <path
       inkscape:r_cy="true"
       inkscape:r_cx="true"
       id="path3049"
       d="M 24.262486,2.8333431 C 12.714866,2.8333431 3.429152,12.119058 3.429152,23.666677 C 3.429152,35.214297 12.714866,44.500012 24.262486,44.500012 C 35.810106,44.500012 45.095821,35.214297 45.095821,23.666677 C 45.095821,12.119058 35.810106,2.8333431 24.262486,2.8333431 L 24.262486,2.8333431 z M 24.262486,28.666678 C 21.524391,28.666678 19.262486,26.404773 19.262486,23.666677 C 19.262486,20.928582 21.524391,18.666677 24.262486,18.666677 C 27.000581,18.666677 29.262486,20.928582 29.262486,23.666677 C 29.262486,26.404773 27.000581,28.666678 24.262486,28.666678 z "
       style="fill:url(#linearGradient3523);fill-rule:nonzero;stroke:#808080;stroke-miterlimit:4;stroke-opacity:1" />
    <path
       style="fill:url(#linearGradient4415);fill-opacity:1;fill-rule:nonzero;stroke:none;stroke-miterlimit:4;stroke-opacity:1"
       d="M 23.410538,3.4587825 C 12.648847,3.864693 4.1109275,12.676135 4.1109275,23.541217 C 4.1109275,28.466722 5.858051,32.943607 8.7777601,36.427697 L 19.895113,27.017403 C 19.173772,26.174062 18.845878,24.974235 18.845878,23.791217 C 18.845878,20.400827 21.150167,18.223842 24.413253,18.223842 C 25.897178,18.223842 27.38434,18.897269 28.271719,19.97014 L 39.639072,10.684846 C 35.963901,6.2606919 30.394797,3.4587825 24.163253,3.4587825 C 23.902492,3.4587825 23.668819,3.4490406 23.410538,3.4587825 z "
       id="path3531"
       sodipodi:nodetypes="csccssccsc" />
    <path
       inkscape:r_cy="true"
       inkscape:r_cx="true"
       id="path3051"
       d="M 24.262486,13.562512 C 18.6199,13.562512 14.15832,18.155315 14.15832,23.666677 C 14.15832,29.309265 18.751124,33.770843 24.262486,33.770843 C 29.905072,33.770843 34.366652,29.178041 34.366652,23.666677 C 34.366652,18.024091 29.773848,13.562512 24.262486,13.562512 L 24.262486,13.562512 z M 24.262486,29.178041 C 21.244359,29.178041 18.751124,26.684806 18.751124,23.666677 C 18.751124,20.64855 21.244359,18.155315 24.262486,18.155315 C 27.280613,18.155315 29.773848,20.64855 29.773848,23.666677 C 29.773848,26.684806 27.280613,29.178041 24.262486,29.178041 z "
       style="opacity:0.51098902;fill:#eeeeec;fill-rule:nonzero;stroke:none;stroke-miterlimit:4" />
    <path
       inkscape:r_cy="true"
       inkscape:r_cx="true"
       style="opacity:0.54644811;fill:none;fill-rule:nonzero;stroke:url(#linearGradient3519);stroke-miterlimit:4;stroke-opacity:1"
       d="M 24.262482,3.8690421 C 13.288938,3.8690421 4.4648511,12.693131 4.4648511,23.666674 C 4.4648511,34.640218 13.288938,43.464305 24.262482,43.464305 C 35.236026,43.464305 44.060113,34.640218 44.060113,23.666674 C 44.060113,12.693131 35.236026,3.8690421 24.262482,3.8690421 L 24.262482,3.8690421 z "
       id="path5264"
       sodipodi:nodetypes="cccccc" />
    <path
       inkscape:r_cy="true"
       inkscape:r_cx="true"
       sodipodi:type="arc"
       style="opacity:0.67213111;color:#000000;fill:none;fill-opacity:0.31638417;fill-rule:nonzero;stroke:url(#linearGradient3515);stroke-width:0.93053865;stroke-linecap:butt;stroke-linejoin:miter;marker:none;marker-start:none;marker-mid:none;marker-end:none;stroke-miterlimit:4;stroke-dashoffset:0;stroke-opacity:1;visibility:visible;display:inline;overflow:visible"
       id="path6026"
       sodipodi:cx="24.306795"
       sodipodi:cy="24.930641"
       sodipodi:rx="6.0987959"
       sodipodi:ry="6.0987959"
       d="M 30.405591 24.930641 A 6.0987959 6.0987959 0 1 1  18.207999,24.930641 A 6.0987959 6.0987959 0 1 1  30.405591 24.930641 z"
       transform="translate(3.868e-3,-1.244934)" />
    <g
       id="g3885">
      <g
         id="g3881">
        <path
           style="font-size:8.5626812px;font-style:normal;font-weight:normal;fill:#ffffff;fill-opacity:1;stroke:none;stroke-width:1.75;stroke-linecap:butt;stroke-linejoin:miter;stroke-miterlimit:4;stroke-opacity:1;font-family:Bitstream Vera Sans"
           d="M 13.6875,32.03125 L 13.6875,39.125 L 22.78125,39.125 C 23.35651,39.125 23.881649,39.06586 24.375,38.90625 L 24.40625,38.90625 C 24.892766,38.744077 25.323359,38.480802 25.6875,38.15625 C 26.049833,37.832458 26.345616,37.448599 26.53125,37 C 26.715054,36.548134 26.781242,36.039474 26.78125,35.53125 C 26.781243,35.035836 26.711212,34.563189 26.53125,34.125 C 26.352431,33.681863 26.074541,33.285021 25.71875,32.96875 C 25.362042,32.643762 24.9436,32.40829 24.46875,32.25 C 23.987995,32.087291 23.466949,32.031257 22.90625,32.03125 L 13.6875,32.03125 z "
           id="path3879"
           sodipodi:nodetypes="cccccsssssscc" />
        <path
           style="font-size:8.5626812px;font-style:normal;font-weight:normal;fill:#ffffff;fill-opacity:1;stroke:none;stroke-width:1.75;stroke-linecap:butt;stroke-linejoin:miter;stroke-miterlimit:4;stroke-opacity:1;font-family:Bitstream Vera Sans"
           d="M 27.375,32.03125 L 27.375,32.90625 L 27.375,38.25 L 27.375,39.125 L 28.25,39.125 L 30.34375,39.125 C 30.91901,39.125 31.4754,39.06586 31.96875,38.90625 C 32.455266,38.744077 32.885857,38.480806 33.25,38.15625 C 33.583836,37.857923 33.845881,37.500103 34.03125,37.09375 L 34.71875,39.125 L 41.90625,39.125 C 42.48151,39.125 43.006649,39.065861 43.5,38.90625 C 43.986515,38.744077 44.448358,38.480804 44.8125,38.15625 C 45.174831,37.83246 45.439367,37.448606 45.625,37 C 45.808802,36.548136 45.906244,36.039478 45.90625,35.53125 C 45.906244,35.035834 45.836211,34.563187 45.65625,34.125 C 45.477431,33.681865 45.199546,33.285022 44.84375,32.96875 C 44.487043,32.643762 44.068599,32.40829 43.59375,32.25 C 43.112995,32.087291 42.591948,32.031257 42.03125,32.03125 L 36.8125,32.03125 L 36.4375,33.46875 L 36.03125,32.03125 L 32.40625,32.03125 L 32.59375,32.5625 C 32.403679,32.460738 32.243137,32.320632 32.03125,32.25 C 31.550495,32.087291 31.029449,32.031257 30.46875,32.03125 L 28.25,32.03125 L 27.375,32.03125 z "
           id="path3877"
           sodipodi:nodetypes="ccccccsscccsssssssccccccsccc" />
      </g>
      <path
         id="text2638"
         d="M 17.995819,38.24976 L 17.995819,36.254655 L 16.249032,36.254655 L 16.249032,38.24976 L 14.562184,38.24976 L 14.562184,32.898084 L 16.249032,32.898084 L 16.249032,34.850375 L 17.995819,34.850375 L 17.995819,32.898084 L 19.682667,32.898084 L 19.682667,38.24976 L 17.995819,38.24976 M 25.914962,35.53539 C 25.914956,35.946401 25.846455,36.320304 25.709457,36.657101 C 25.572449,36.988193 25.369799,37.273615 25.101507,37.513369 C 24.838913,37.747416 24.510678,37.930087 24.116799,38.061381 C 23.72862,38.186967 23.283361,38.24976 22.78102,38.24976 L 20.683163,38.24976 L 20.683163,32.898084 L 22.900898,32.898084 C 23.386113,32.898089 23.814247,32.960882 24.1853,33.086463 C 24.562054,33.212054 24.878873,33.39187 25.135758,33.625912 C 25.392633,33.854254 25.58672,34.131114 25.71802,34.456492 C 25.849309,34.776169 25.914956,35.135801 25.914962,35.53539 M 24.219551,35.586766 C 24.219547,35.090133 24.102524,34.733355 23.868481,34.516431 C 23.640139,34.299513 23.280507,34.191053 22.789583,34.191049 L 22.370012,34.191049 L 22.370012,36.956795 L 22.87521,36.956795 C 23.297632,36.956796 23.625868,36.848336 23.859918,36.631413 C 24.099669,36.414494 24.219547,36.066278 24.219551,35.586766 M 33.490928,35.53539 C 33.490922,35.946401 33.42242,36.320304 33.285423,36.657101 C 33.148415,36.988193 32.945765,37.273615 32.677473,37.513369 C 32.414879,37.747416 32.086644,37.930087 31.692764,38.061381 C 31.304586,38.186967 30.859327,38.24976 30.356986,38.24976 L 28.259129,38.24976 L 28.259129,32.898084 L 30.476864,32.898084 C 30.962079,32.898089 31.390213,32.960882 31.761266,33.086463 C 32.13802,33.212054 32.454838,33.39187 32.711724,33.625912 C 32.968599,33.854254 33.162686,34.131114 33.293986,34.456492 C 33.425275,34.776169 33.490922,35.135801 33.490928,35.53539 M 31.795517,35.586766 C 31.795513,35.090133 31.678489,34.733355 31.444447,34.516431 C 31.216105,34.299513 30.856473,34.191053 30.365549,34.191049 L 29.945978,34.191049 L 29.945978,36.956795 L 30.451176,36.956795 C 30.873598,36.956796 31.201834,36.848336 31.435884,36.631413 C 31.675635,36.414494 31.795513,36.066278 31.795517,35.586766 M 37.482661,38.24976 L 35.34199,38.24976 L 33.612329,32.898084 L 35.359116,32.898084 L 36.420888,36.648538 L 37.482661,32.898084 L 39.23801,32.898084 L 37.482661,38.24976 M 45.033875,35.53539 C 45.03387,35.946401 44.965368,36.320304 44.828371,36.657101 C 44.691363,36.988193 44.488713,37.273615 44.220421,37.513369 C 43.957827,37.747416 43.629591,37.930087 43.235712,38.061381 C 42.847534,38.186967 42.402275,38.24976 41.899934,38.24976 L 39.802077,38.24976 L 39.802077,32.898084 L 42.019812,32.898084 C 42.505027,32.898089 42.933161,32.960882 43.304214,33.086463 C 43.680967,33.212054 43.997786,33.39187 44.254671,33.625912 C 44.511547,33.854254 44.705634,34.131114 44.836934,34.456492 C 44.968222,34.776169 45.03387,35.135801 45.033875,35.53539 M 43.338464,35.586766 C 43.33846,35.090133 43.221437,34.733355 42.987395,34.516431 C 42.759053,34.299513 42.399421,34.191053 41.908497,34.191049 L 41.488925,34.191049 L 41.488925,36.956795 L 41.994123,36.956795 C 42.416546,36.956796 42.744782,36.848336 42.978832,36.631413 C 43.218583,36.414494 43.33846,36.066278 43.338464,35.586766"
         style="font-size:8.5626812px;font-style:normal;font-weight:normal;fill:#4b4b4b;fill-opacity:1;stroke:none;stroke-width:1px;stroke-linecap:butt;stroke-linejoin:miter;stroke-opacity:1;font-family:Bitstream Vera Sans" />
    </g>
  </g>
</svg>
