<?xml version="1.0" encoding="UTF-8" standalone="no"?>
<!-- Created with Inkscape (http://www.inkscape.org/) -->
<svg
   xmlns:dc="http://purl.org/dc/elements/1.1/"
   xmlns:cc="http://web.resource.org/cc/"
   xmlns:rdf="http://www.w3.org/1999/02/22-rdf-syntax-ns#"
   xmlns:svg="http://www.w3.org/2000/svg"
   xmlns="http://www.w3.org/2000/svg"
   xmlns:xlink="http://www.w3.org/1999/xlink"
   xmlns:sodipodi="http://sodipodi.sourceforge.net/DTD/sodipodi-0.dtd"
   xmlns:inkscape="http://www.inkscape.org/namespaces/inkscape"
   inkscape:export-ydpi="90.000000"
   inkscape:export-xdpi="90.000000"
   inkscape:export-filename="/home/jimmac/Desktop/wi-fi.png"
   width="48px"
   height="48px"
   id="svg11300"
   sodipodi:version="0.32"
   inkscape:version="0.45.1"
   sodipodi:docbase="/Users/mlanglie/Desktop/Red Hat Work/GNOME icons/new gnome icons/SVG"
   sodipodi:docname="media-flash-ms.svg"
   inkscape:output_extension="org.inkscape.output.svg.inkscape">
  <defs
     id="defs3">
    <radialGradient
       inkscape:collect="always"
       xlink:href="#linearGradient5060"
       id="radialGradient5031"
       gradientUnits="userSpaceOnUse"
       gradientTransform="matrix(-2.774389,0,0,1.969706,112.7623,-872.8854)"
       cx="605.71429"
       cy="486.64789"
       fx="605.71429"
       fy="486.64789"
       r="117.14286" />
    <linearGradient
       inkscape:collect="always"
       id="linearGradient5060">
      <stop
         style="stop-color:black;stop-opacity:1;"
         offset="0"
         id="stop5062" />
      <stop
         style="stop-color:black;stop-opacity:0;"
         offset="1"
         id="stop5064" />
    </linearGradient>
    <radialGradient
       inkscape:collect="always"
       xlink:href="#linearGradient5060"
       id="radialGradient5029"
       gradientUnits="userSpaceOnUse"
       gradientTransform="matrix(2.774389,0,0,1.969706,-1891.633,-872.8854)"
       cx="605.71429"
       cy="486.64789"
       fx="605.71429"
       fy="486.64789"
       r="117.14286" />
    <linearGradient
       id="linearGradient5048">
      <stop
         style="stop-color:black;stop-opacity:0;"
         offset="0"
         id="stop5050" />
      <stop
         id="stop5056"
         offset="0.5"
         style="stop-color:black;stop-opacity:1;" />
      <stop
         style="stop-color:black;stop-opacity:0;"
         offset="1"
         id="stop5052" />
    </linearGradient>
    <linearGradient
       inkscape:collect="always"
       xlink:href="#linearGradient5048"
       id="linearGradient5027"
       gradientUnits="userSpaceOnUse"
       gradientTransform="matrix(2.774389,0,0,1.969706,-1892.179,-872.8854)"
       x1="302.85715"
       y1="366.64789"
       x2="302.85715"
       y2="609.50507" />
    <linearGradient
       id="SVGID_3_"
       gradientUnits="userSpaceOnUse"
       x1="10.5825"
       y1="11.9995"
       x2="10.5825"
       y2="22.2495">
	<stop
   offset="0"
   style="stop-color:#D55627"
   id="stop1443" />

	<stop
   offset="1"
   style="stop-color:#F69F37"
   id="stop1445" />

</linearGradient>
    <linearGradient
       id="SVGID_2_"
       gradientUnits="userSpaceOnUse"
       x1="10.5825"
       y1="18.4995"
       x2="10.5825"
       y2="45.2495">
	<stop
   offset="0"
   style="stop-color:#D1D3D4"
   id="stop1436" />

	<stop
   offset="1"
   style="stop-color:#574F8A"
   id="stop1438" />

</linearGradient>
    <linearGradient
       id="white_line_1_"
       gradientUnits="userSpaceOnUse"
       x1="10.3853"
       y1="7.2495"
       x2="10.3853"
       y2="38.7495">
	<stop
   offset="0"
   style="stop-color:#D1D3D4"
   id="stop1430" />

	<stop
   offset="1"
   style="stop-color:#574F8A"
   id="stop1432" />

</linearGradient>
    <linearGradient
       id="SVGID_1_"
       gradientUnits="userSpaceOnUse"
       x1="10.3853"
       y1="-6.0005"
       x2="10.3853"
       y2="43.2495">
	<stop
   offset="0.0055"
   style="stop-color:#FFFFFF"
   id="stop1421" />

	<stop
   offset="0.3297"
   style="stop-color:#574F8A"
   id="stop1423" />

	<stop
   offset="1"
   style="stop-color:#414A6B"
   id="stop1425" />

</linearGradient>
    <linearGradient
       id="linearGradient6368">
      <stop
         style="stop-color: rgb(80, 133, 200); stop-opacity: 1;"
         offset="0"
         id="stop6370" />
      <stop
         style="stop-color: rgb(207, 223, 239); stop-opacity: 0.601942;"
         offset="1"
         id="stop6372" />
    </linearGradient>
    <linearGradient
       inkscape:collect="always"
       id="linearGradient6334">
      <stop
         style="stop-color: white; stop-opacity: 1;"
         offset="0"
         id="stop6336" />
      <stop
         style="stop-color: white; stop-opacity: 0;"
         offset="1"
         id="stop6338" />
    </linearGradient>
    <linearGradient
       id="linearGradient6324">
      <stop
         style="stop-color: rgb(57, 111, 181); stop-opacity: 1;"
         offset="0"
         id="stop6326" />
      <stop
         style="stop-color: rgb(52, 101, 164); stop-opacity: 0;"
         offset="1"
         id="stop6328" />
    </linearGradient>
    <linearGradient
       id="linearGradient6292">
      <stop
         style="stop-color: rgb(245, 121, 0); stop-opacity: 1;"
         offset="0"
         id="stop6294" />
      <stop
         id="stop6300"
         offset="0.27027026"
         style="stop-color: rgb(255, 159, 67); stop-opacity: 1;" />
      <stop
         style="stop-color: rgb(203, 100, 0); stop-opacity: 1;"
         offset="1"
         id="stop6296" />
    </linearGradient>
    <linearGradient
       id="linearGradient6259">
      <stop
         style="stop-color: rgb(23, 55, 100); stop-opacity: 1;"
         offset="0"
         id="stop6261" />
      <stop
         style="stop-color: rgb(45, 105, 192); stop-opacity: 1;"
         offset="1"
         id="stop6263" />
    </linearGradient>
    <linearGradient
       inkscape:collect="always"
       id="linearGradient6247">
      <stop
         style="stop-color: white; stop-opacity: 1;"
         offset="0"
         id="stop6249" />
      <stop
         style="stop-color: white; stop-opacity: 0;"
         offset="1"
         id="stop6251" />
    </linearGradient>
    <linearGradient
       id="linearGradient6235">
      <stop
         style="stop-color: rgb(52, 101, 164); stop-opacity: 1;"
         offset="0"
         id="stop6237" />
      <stop
         style="stop-color: rgb(45, 88, 143); stop-opacity: 1;"
         offset="1"
         id="stop6239" />
    </linearGradient>
    <linearGradient
       inkscape:collect="always"
       id="linearGradient6210">
      <stop
         style="stop-color: white; stop-opacity: 1;"
         offset="0"
         id="stop6212" />
      <stop
         style="stop-color: white; stop-opacity: 0;"
         offset="1"
         id="stop6214" />
    </linearGradient>
    <linearGradient
       id="linearGradient6196">
      <stop
         style="stop-color: rgb(237, 212, 0); stop-opacity: 1;"
         offset="0"
         id="stop6198" />
      <stop
         id="stop6204"
         offset="0.5"
         style="stop-color: rgb(195, 175, 7); stop-opacity: 1;" />
      <stop
         style="stop-color: rgb(255, 235, 62); stop-opacity: 1;"
         offset="1"
         id="stop6200" />
    </linearGradient>
    <linearGradient
       inkscape:collect="always"
       id="linearGradient6151">
      <stop
         style="stop-color: rgb(46, 52, 54); stop-opacity: 1;"
         offset="0"
         id="stop6153" />
      <stop
         style="stop-color: rgb(46, 52, 54); stop-opacity: 0;"
         offset="1"
         id="stop6155" />
    </linearGradient>
    <linearGradient
       inkscape:collect="always"
       id="linearGradient6125">
      <stop
         style="stop-color: black; stop-opacity: 1;"
         offset="0"
         id="stop6127" />
      <stop
         style="stop-color: black; stop-opacity: 0;"
         offset="1"
         id="stop6129" />
    </linearGradient>
    <linearGradient
       id="linearGradient6115">
      <stop
         style="stop-color: rgb(85, 87, 83); stop-opacity: 1;"
         offset="0"
         id="stop6117" />
      <stop
         style="stop-color: rgb(62, 63, 60); stop-opacity: 1;"
         offset="1"
         id="stop6119" />
    </linearGradient>
    <linearGradient
       id="linearGradient6099">
      <stop
         style="stop-color: rgb(238, 238, 236); stop-opacity: 1;"
         offset="0"
         id="stop6101" />
      <stop
         id="stop6107"
         offset="0.8918919"
         style="stop-color: rgb(222, 222, 218); stop-opacity: 1;" />
      <stop
         style="stop-color: rgb(131, 131, 117); stop-opacity: 1;"
         offset="1"
         id="stop6103" />
    </linearGradient>
    <linearGradient
       inkscape:collect="always"
       xlink:href="#linearGradient6099"
       id="linearGradient6105"
       x1="22.797205"
       y1="39.679859"
       x2="22.797205"
       y2="46.635937"
       gradientUnits="userSpaceOnUse"
       gradientTransform="matrix(1, 0, 0, 0.934004, 74, 1.55798)" />
    <radialGradient
       inkscape:collect="always"
       xlink:href="#linearGradient6125"
       id="radialGradient6131"
       cx="24.218407"
       cy="45.25996"
       fx="24.218407"
       fy="45.25996"
       r="21.38998"
       gradientTransform="matrix(1, 0, 0, 0.128099, 1.01004e-15, 39.4622)"
       gradientUnits="userSpaceOnUse" />
    <radialGradient
       inkscape:collect="always"
       xlink:href="#linearGradient6151"
       id="radialGradient6161"
       gradientUnits="userSpaceOnUse"
       gradientTransform="matrix(8.34215, -3.74696e-16, 3.74696e-16, 8.34215, -153.629, -207.066)"
       cx="29.61227"
       cy="27.974968"
       fx="29.61227"
       fy="27.974968"
       r="3.8890872" />
    <linearGradient
       inkscape:collect="always"
       xlink:href="#linearGradient6196"
       id="linearGradient6202"
       x1="29.374996"
       y1="21.741114"
       x2="22.101643"
       y2="7.6786127"
       gradientUnits="userSpaceOnUse"
       gradientTransform="translate(74)" />
    <linearGradient
       inkscape:collect="always"
       xlink:href="#linearGradient6115"
       id="linearGradient6208"
       gradientUnits="userSpaceOnUse"
       gradientTransform="matrix(1, 0, 0, 0.982516, 74, -0.070767)"
       x1="21.617008"
       y1="4.6076145"
       x2="26.443777"
       y2="47.007381" />
    <linearGradient
       inkscape:collect="always"
       xlink:href="#linearGradient6210"
       id="linearGradient6216"
       x1="16.845879"
       y1="8.6784801"
       x2="30.507824"
       y2="78.505272"
       gradientUnits="userSpaceOnUse" />
    <radialGradient
       inkscape:collect="always"
       xlink:href="#linearGradient6151"
       id="radialGradient6218"
       gradientUnits="userSpaceOnUse"
       gradientTransform="matrix(3.65724, 1.23282e-15, -1.23282e-15, 3.65724, -88.8979, -76.0059)"
       cx="33.45499"
       cy="28.603338"
       fx="33.45499"
       fy="28.603338"
       r="3.8890872" />
    <linearGradient
       inkscape:collect="always"
       xlink:href="#linearGradient6235"
       id="linearGradient6245"
       gradientUnits="userSpaceOnUse"
       x1="22.15266"
       y1="6.2555637"
       x2="28.841305"
       y2="44.992451"
       gradientTransform="translate(58.2862)" />
    <linearGradient
       inkscape:collect="always"
       xlink:href="#linearGradient6247"
       id="linearGradient6253"
       x1="20.40625"
       y1="7.515625"
       x2="34.09375"
       y2="62.265625"
       gradientUnits="userSpaceOnUse" />
    <linearGradient
       inkscape:collect="always"
       xlink:href="#linearGradient6259"
       id="linearGradient6265"
       x1="24.8125"
       y1="41.000004"
       x2="24.8125"
       y2="43.375004"
       gradientUnits="userSpaceOnUse"
       gradientTransform="translate(58.2862)" />
    <linearGradient
       inkscape:collect="always"
       xlink:href="#linearGradient6292"
       id="linearGradient6298"
       x1="24.508614"
       y1="12.495212"
       x2="24.508614"
       y2="39.508614"
       gradientUnits="userSpaceOnUse"
       gradientTransform="translate(58.2862)" />
    <radialGradient
       inkscape:collect="always"
       xlink:href="#linearGradient6125"
       id="radialGradient6304"
       gradientUnits="userSpaceOnUse"
       gradientTransform="matrix(1, 0, 0, 0.128099, 4.13128e-16, 39.4622)"
       cx="24.218407"
       cy="45.25996"
       fx="24.218407"
       fy="45.25996"
       r="21.38998" />
    <radialGradient
       inkscape:collect="always"
       xlink:href="#linearGradient6125"
       id="radialGradient6320"
       gradientUnits="userSpaceOnUse"
       gradientTransform="matrix(1, 0, 0, 0.128099, -4.46914e-15, 39.4622)"
       cx="24.218407"
       cy="45.25996"
       fx="24.218407"
       fy="45.25996"
       r="21.38998" />
    <linearGradient
       inkscape:collect="always"
       xlink:href="#linearGradient6324"
       id="linearGradient6330"
       x1="24.500002"
       y1="22.633415"
       x2="24.500002"
       y2="46.188908"
       gradientUnits="userSpaceOnUse" />
    <linearGradient
       inkscape:collect="always"
       xlink:href="#linearGradient6334"
       id="linearGradient6340"
       x1="14.058199"
       y1="24.046875"
       x2="14.058199"
       y2="85.546875"
       gradientUnits="userSpaceOnUse" />
    <linearGradient
       inkscape:collect="always"
       xlink:href="#linearGradient6368"
       id="linearGradient6374"
       x1="41.606606"
       y1="19.358751"
       x2="19.011932"
       y2="19.889082"
       gradientUnits="userSpaceOnUse" />
  </defs>
  <sodipodi:namedview
     stroke="#ef2929"
     fill="#eeeeec"
     id="base"
     pagecolor="#ffffff"
     bordercolor="#666666"
     borderopacity="0.25490196"
     inkscape:pageopacity="0.0"
     inkscape:pageshadow="2"
     inkscape:zoom="5.6568542"
     inkscape:cx="32.60993"
     inkscape:cy="19.638246"
     inkscape:current-layer="layer1"
     showgrid="false"
     inkscape:grid-bbox="true"
     inkscape:document-units="px"
     inkscape:showpageshadow="false"
     inkscape:window-width="926"
     inkscape:window-height="739"
     inkscape:window-x="214"
     inkscape:window-y="148" />
  <metadata
     id="metadata4">
    <rdf:RDF>
      <cc:Work
         rdf:about="">
        <dc:format>image/svg+xml</dc:format>
        <dc:type
           rdf:resource="http://purl.org/dc/dcmitype/StillImage" />
        <dc:creator>
          <cc:Agent>
            <dc:title>Jakub Steiner</dc:title>
          </cc:Agent>
        </dc:creator>
        <dc:source>http://jimmac.musichall.cz</dc:source>
        <cc:license
           rdf:resource="http://creativecommons.org/licenses/by-sa/2.0/" />
        <dc:title>Memory Stick</dc:title>
        <dc:subject>
          <rdf:Bag>
            <rdf:li>flash</rdf:li>
            <rdf:li>memory</rdf:li>
            <rdf:li>removable</rdf:li>
            <rdf:li>photo</rdf:li>
          </rdf:Bag>
        </dc:subject>
      </cc:Work>
      <cc:License
         rdf:about="http://creativecommons.org/licenses/by-sa/2.0/">
        <cc:permits
           rdf:resource="http://web.resource.org/cc/Reproduction" />
        <cc:permits
           rdf:resource="http://web.resource.org/cc/Distribution" />
        <cc:requires
           rdf:resource="http://web.resource.org/cc/Notice" />
        <cc:requires
           rdf:resource="http://web.resource.org/cc/Attribution" />
        <cc:permits
           rdf:resource="http://web.resource.org/cc/DerivativeWorks" />
        <cc:requires
           rdf:resource="http://web.resource.org/cc/ShareAlike" />
      </cc:License>
    </rdf:RDF>
  </metadata>
  <g
     id="layer1"
     inkscape:label="Layer 1"
     inkscape:groupmode="layer">
    <g
       id="g6841"
       transform="translate(14.363237,0.5709859)">
      <path
         id="path1427"
         d="M 19.162,0.4 C 19.83,0.4 20.371,0.941 20.371,1.608 L 20.371,43.399 C 20.371,44.066 19.83,44.607 19.162,44.607 L 17.396,44.607 L 17.396,43.749 L 3.74,43.749 L 3.74,44.607 L 1.607,44.607 C 0.941,44.607 0.4,44.066 0.4,43.399 L 0.4,7.275 C 0.4,3.263 5.056,0.4 5.056,0.4 C 3.601,0.4 19.162,0.4 19.162,0.4 L 19.162,0.4 z "
         style="fill:url(#SVGID_1_)" />
      <path
         d="M 19.162,0.4 C 19.83,0.4 20.371,0.941 20.371,1.608 L 20.371,43.399 C 20.371,44.066 19.83,44.607 19.162,44.607 L 17.396,44.607 L 17.396,43.749 L 3.74,43.749 L 3.74,44.607 L 1.607,44.607 C 0.941,44.607 0.4,44.066 0.4,43.399 L 0.4,7.275 C 0.4,3.263 5.056,0.4 5.056,0.4 L 19.162,0.4 L 19.162,0.4 z M 18.645,43.387 L 19.121,43.399 L 19.162,1.65 L 5.373,1.65 L 5.017,1.871 C 3.042,3.175 1.65,5.23 1.65,7.697 L 1.607,43.357 L 2.49,43.357 L 2.49,42.499 L 18.646,42.499 L 18.645,43.387 L 18.645,43.387 z "
         id="white_line"
         style="fill:url(#white_line_1_);fill-opacity:0.51000001" />
      <path
         id="path1440"
         d="M 3.64,13.299 C 3.64,12.609 4.2,12.049 4.89,12.049 L 16.275,12.049 C 16.965,12.049 17.525,12.609 17.525,13.299 L 17.525,43.748 L 3.64,43.748 L 3.64,13.299 L 3.64,13.299 z "
         style="fill:url(#SVGID_2_)" />
      <path
         id="path1447"
         d="M 17.525,23.226 C 16.545,23.539 15.489,23.664 14.524,23.664 C 12.734,23.664 11.592,23.144 10.029,22.395 C 8.683,21.75 7.238,21.096 4.912,21.096 C 4.447,21.096 4.025,21.119 3.641,21.162 L 3.641,13.298 C 3.641,12.608 4.201,12.048 4.891,12.048 L 16.276,12.048 C 16.966,12.048 17.526,12.608 17.526,13.298 L 17.526,23.226 L 17.525,23.226 z "
         style="fill:url(#SVGID_3_)" />
      <path
         id="path1449"
         d="M 3.64,13.299 C 3.64,12.609 4.2,12.049 4.89,12.049 L 16.275,12.049 C 16.965,12.049 17.525,12.609 17.525,13.299 L 17.525,43.748 L 3.64,43.748 L 3.64,13.299 L 3.64,13.299 z "
         stroke-miterlimit="3.8637"
         style="fill:none;stroke:#d4d4cd;stroke-width:0.5;stroke-miterlimit:3.86369991" />
      <g
         id="g1451">
	<path
   id="path1453"
   d="M 8.735,36.577 L 10.157,36.577 L 10.611,40.196 L 10.663,40.196 L 11.18,36.577 L 12.58,36.577 L 12.58,41.618 L 11.719,41.618 L 11.719,37.482 L 11.655,37.482 L 11.067,41.618 L 10.137,41.618 L 9.617,37.482 L 9.548,37.482 L 9.548,41.618 L 8.735,41.618 L 8.735,36.577 z "
   style="fill:#ffffff" />

	<path
   id="path1455"
   d="M 15.841,37.698 L 15.841,38.077 L 14.825,38.077 L 14.825,37.63 C 14.825,37.495 14.805,37.401 14.766,37.346 C 14.728,37.291 14.661,37.264 14.565,37.264 C 14.471,37.264 14.407,37.29 14.37,37.344 C 14.334,37.398 14.315,37.493 14.315,37.63 L 14.315,37.958 C 14.315,38.085 14.346,38.198 14.409,38.298 C 14.472,38.397 14.593,38.513 14.77,38.645 L 15.198,38.966 C 15.22,38.982 15.255,39.007 15.3,39.041 C 15.505,39.191 15.646,39.329 15.721,39.454 C 15.779,39.548 15.82,39.652 15.844,39.767 C 15.868,39.882 15.882,40.02 15.882,40.182 L 15.882,40.49 C 15.882,40.88 15.761,41.179 15.521,41.389 C 15.281,41.598 14.937,41.703 14.491,41.703 C 14.035,41.703 13.708,41.604 13.508,41.408 C 13.309,41.213 13.209,40.887 13.209,40.434 L 13.209,40.062 L 14.252,40.062 L 14.252,40.489 C 14.252,40.644 14.275,40.754 14.32,40.819 C 14.365,40.883 14.443,40.916 14.552,40.916 C 14.661,40.916 14.738,40.887 14.781,40.826 C 14.825,40.765 14.846,40.653 14.846,40.489 L 14.846,40.295 C 14.846,40.153 14.816,40.03 14.753,39.927 C 14.692,39.823 14.546,39.688 14.315,39.519 L 13.888,39.194 C 13.683,39.042 13.535,38.878 13.448,38.702 C 13.358,38.527 13.314,38.318 13.314,38.077 L 13.314,37.636 C 13.314,37.297 13.436,37.023 13.682,36.815 C 13.926,36.606 14.254,36.502 14.664,36.502 C 15.051,36.502 15.344,36.604 15.542,36.805 C 15.742,37.005 15.841,37.303 15.841,37.698 z "
   style="fill:#ffffff" />

</g>
      <path
         id="path1457"
         d="M 19.162,0.4 C 19.83,0.4 20.371,0.941 20.371,1.608 L 20.371,43.399 C 20.371,44.066 19.83,44.607 19.162,44.607 L 17.396,44.607 L 17.396,43.749 L 3.74,43.749 L 3.74,44.607 L 1.607,44.607 C 0.941,44.607 0.4,44.066 0.4,43.399 L 0.4,7.697 C 0.4,2.63 5.056,0.4 5.056,0.4 C 3.39,0.4 19.162,0.4 19.162,0.4 L 19.162,0.4 z "
         stroke-miterlimit="3.8637"
         style="fill:none;stroke:#343346;stroke-width:0.80000001;stroke-miterlimit:3.86369991" />
    </g>
    <g
       style="opacity:0.58730164;display:inline"
       id="g5022"
       transform="matrix(1.4937489e-2,0,0,1.568626e-2,37.861758,42.48706)">
      <rect
         y="-150.69685"
         x="-1559.2523"
         height="478.35718"
         width="1339.6335"
         id="rect4173"
         style="opacity:0.40206185;color:#000000;fill:url(#linearGradient5027);fill-opacity:1;fill-rule:nonzero;stroke:none;stroke-width:1;stroke-linecap:round;stroke-linejoin:miter;marker:none;marker-start:none;marker-mid:none;marker-end:none;stroke-miterlimit:4;stroke-dasharray:none;stroke-dashoffset:0;stroke-opacity:1;visibility:visible;display:inline;overflow:visible" />
      <path
         sodipodi:nodetypes="cccc"
         id="path5058"
         d="M -219.61876,-150.68038 C -219.61876,-150.68038 -219.61876,327.65041 -219.61876,327.65041 C -76.744594,328.55086 125.78146,220.48075 125.78138,88.454235 C 125.78138,-43.572302 -33.655436,-150.68036 -219.61876,-150.68038 z "
         style="opacity:0.40206185;color:#000000;fill:url(#radialGradient5029);fill-opacity:1;fill-rule:nonzero;stroke:none;stroke-width:1;stroke-linecap:round;stroke-linejoin:miter;marker:none;marker-start:none;marker-mid:none;marker-end:none;stroke-miterlimit:4;stroke-dasharray:none;stroke-dashoffset:0;stroke-opacity:1;visibility:visible;display:inline;overflow:visible" />
      <path
         style="opacity:0.40206185;color:#000000;fill:url(#radialGradient5031);fill-opacity:1;fill-rule:nonzero;stroke:none;stroke-width:1;stroke-linecap:round;stroke-linejoin:miter;marker:none;marker-start:none;marker-mid:none;marker-end:none;stroke-miterlimit:4;stroke-dasharray:none;stroke-dashoffset:0;stroke-opacity:1;visibility:visible;display:inline;overflow:visible"
         d="M -1559.2523,-150.68038 C -1559.2523,-150.68038 -1559.2523,327.65041 -1559.2523,327.65041 C -1702.1265,328.55086 -1904.6525,220.48075 -1904.6525,88.454235 C -1904.6525,-43.572302 -1745.2157,-150.68036 -1559.2523,-150.68038 z "
         id="path5018"
         sodipodi:nodetypes="cccc" />
    </g>
  </g>
</svg>
