<?xml version="1.0" encoding="UTF-8" standalone="no"?>
<!DOCTYPE svg PUBLIC "-//W3C//DTD SVG 20010904//EN"
"http://www.w3.org/TR/2001/REC-SVG-20010904/DTD/svg10.dtd">
<!-- Created with Sodipodi ("http://www.sodipodi.com/") -->
<svg
   xml:space="preserve"
   width="30mm"
   height="30mm"
   shape-rendering="geometricPrecision"
   text-rendering="geometricPrecision"
   image-rendering="optimizeQuality"
   fill-rule="evenodd"
   viewBox="0 0 30000 30000"
   id="svg1217"
   sodipodi:version="0.34-pre"
   sodipodi:docname="/home/david/.themes/eXperience/icons/book-yellow.svg"
   sodipodi:docbase="/home/david/.themes/eXperience/icons/"
   xmlns="http://www.w3.org/2000/svg"
   xmlns:sodipodi="http://sodipodi.sourceforge.net/DTD/sodipodi-0.dtd"
   xmlns:xml="http://www.w3.org/XML/1998/namespace"
   xmlns:xlink="http://www.w3.org/1999/xlink"><defs
   id="defs1355" />

<sodipodi:namedview
   id="base" />


 <g
   id="Layer1">
  <g
   id="g1221">
   <defs
   id="defs1223">
    <linearGradient
   id="id0"
   gradientUnits="userSpaceOnUse"
   x1="19755"
   y1="21164"
   x2="21637"
   y2="23489">
     <stop
   offset="0"
   stop-color="#A3A3A3"
   id="stop1227" />


     <stop
   offset="1"
   stop-color="#FFFFFF"
   id="stop1229" />


    </linearGradient>


    <linearGradient
   id="id1"
   gradientUnits="userSpaceOnUse"
   x1="25602"
   y1="25842"
   x2="32994"
   y2="11194">
     <stop
   offset="0"
   stop-color="#BABABA"
   id="stop1234" />


     <stop
   offset="1"
   stop-color="#FFFFFF"
   id="stop1236" />


    </linearGradient>


    <linearGradient
   id="id2"
   gradientUnits="userSpaceOnUse"
   x1="16711"
   y1="21040"
   x2="-5346"
   y2="8797">
     <stop
   offset="0"
   stop-color="#998200"
   id="stop1241" />


     <stop
   offset="0.619608"
   stop-color="#FFD817"
   id="stop1243" />


     <stop
   offset="1"
   stop-color="#FFFFFF"
   id="stop1245" />


    </linearGradient>


    <linearGradient
   id="id3"
   gradientUnits="userSpaceOnUse"
   x1="14468"
   y1="22207"
   x2="18410"
   y2="28730">
     <stop
   offset="0"
   stop-color="#FFFE91"
   id="stop1250" />


     <stop
   offset="0.45098"
   stop-color="#CCC049"
   id="stop1252" />


     <stop
   offset="1"
   stop-color="#998200"
   id="stop1254" />


    </linearGradient>


    <linearGradient
   id="id4"
   gradientUnits="userSpaceOnUse"
   x1="25319"
   y1="16095"
   x2="-10773"
   y2="3653">
     <stop
   offset="0"
   stop-color="#998200"
   id="stop1259" />


     <stop
   offset="1"
   stop-color="#FFFFFF"
   id="stop1261" />


    </linearGradient>


    <linearGradient
   id="id5"
   gradientUnits="userSpaceOnUse"
   x1="1333"
   y1="9299"
   x2="29408"
   y2="17320">
     <stop
   offset="0"
   stop-color="#998200"
   id="stop1266" />


     <stop
   offset="1"
   stop-color="#FFE14A"
   id="stop1268" />


    </linearGradient>


    <linearGradient
   id="id6"
   gradientUnits="userSpaceOnUse"
   x1="27249"
   y1="16212"
   x2="-2910"
   y2="4171">
     <stop
   offset="0"
   stop-color="#998200"
   id="stop1273" />


     <stop
   offset="0.709804"
   stop-color="#FFD817"
   id="stop1275" />


     <stop
   offset="1"
   stop-color="#FFFFFF"
   id="stop1277" />


    </linearGradient>


    <linearGradient
   id="id7"
   gradientUnits="userSpaceOnUse"
   x1="238"
   y1="14377"
   x2="26113"
   y2="32297">
     <stop
   offset="0"
   stop-color="#FFFE91"
   id="stop1282" />


     <stop
   offset="0.45098"
   stop-color="#CCC049"
   id="stop1284" />


     <stop
   offset="1"
   stop-color="#998200"
   id="stop1286" />


    </linearGradient>


    <linearGradient
   id="id8"
   gradientUnits="userSpaceOnUse"
   x1="6525"
   y1="8706"
   x2="19455"
   y2="9716">
     <stop
   offset="0"
   stop-color="#998200"
   id="stop1291" />


     <stop
   offset="0.811765"
   stop-color="#CCC07F"
   id="stop1293" />


     <stop
   offset="1"
   stop-color="#FFFFFF"
   id="stop1295" />


    </linearGradient>


    <linearGradient
   id="id9"
   gradientUnits="userSpaceOnUse"
   x1="17558"
   y1="11338"
   x2="3498"
   y2="7295">
     <stop
   offset="0"
   stop-color="#333333"
   id="stop1300" />


     <stop
   offset="0.4"
   stop-color="#E8E8E8"
   id="stop1302" />


     <stop
   offset="1"
   stop-color="#616161"
   id="stop1304" />


    </linearGradient>


   </defs>


   <path
   fill="#998200"
   d="M245 13241l14020 -5320 15489 10806c648,453 255,748 -24,885l-12393 6093 -1825 -115 -15141 -11121c-403,-295 -339,-460 -235,-632 72,-120 778,-19 109,-596z"
   id="path1308" />


   <path
   fill="url(#id0)"
   d="M28994 15301l-12866 6364 -145 3907 12987 -6497 24 -3774z"
   id="path1310" />


   <path
   fill="url(#id1)"
   d="M28994 15301l-1696 839c472,24 1207,-464 1679,-439 -604,274 -1111,857 -1714,1131 530,-38 1227,-611 1684,-507 -677,360 -1147,790 -2103,1183 691,-103 1292,-521 1983,-624 -592,515 -1438,820 -2491,1311 679,-90 1522,-434 2012,-388 -1234,626 -1770,940 -2743,1321 1069,-300 1485,-521 2479,-692 -8205,3600 -2813,2255 -9081,5593l9967 -4954 24 -3774z"
   id="path1312" />


   <path
   fill="url(#id2)"
   d="M179 10393c-226,-463 -106,-873 840,-1199l16509 11969c-559,69 -974,312 -1069,938 -274,882 -279,1765 -76,2624 122,273 46,527 790,278l164 702c-581,359 -977,560 -1617,73l-15173 -11549c-227,-173 -604,-271 -609,-439 -9,-303 190,-86 196,-444l45 -2953z"
   id="path1314" />


   <path
   fill="#FFFE91"
   d="M735 9471c22,-11 -124,248 -132,419 -9,171 -129,237 -137,282 -214,1236 -249,2472 39,3708 20,89 -41,165 -91,165l-245 0c-49,0 -75,-76 -90,-165 -210,-1238 -274,-2487 -18,-3760 82,-409 307,-483 674,-649z"
   id="path1316" />


   <path
   fill="#998200"
   d="M554 10172c-137,40 -329,3364 133,4015 18,25 -291,-132 -324,-132 -35,0 -66,-254 -81,-347 -179,-1104 -179,-2225 0,-3364 18,-111 496,-239 272,-172z"
   id="path1318" />


   <path
   fill="url(#id3)"
   d="M16232 21346l0 0c117,0 241,171 212,374 -172,1228 -172,2375 0,3441 33,202 -95,374 -212,374l0 0c-118,0 -303,-160 -325,-364 -121,-1147 -87,-2354 43,-3501 23,-203 164,-324 282,-324z"
   id="path1320" />


   <path
   fill="#998200"
   d="M16321 21449l77 -38c36,-18 100,-29 125,58 20,67 -42,335 -52,427 -125,1192 -126,2385 0,3577 22,212 -56,389 -125,389l0 0c-68,0 -98,-178 -124,-389 -132,-1059 -165,-2224 0,-3577 25,-210 34,-414 99,-447z"
   id="path1322" />


   <path
   fill="url(#id4)"
   d="M1019 9194l11405 -4824c1107,-468 1629,-696 2652,26l14389 10152c648,457 256,748 -23,884l-11910 5855c-935,435 -1311,301 -2166,-314l-14362 -10335c-81,-58 -753,-476 -915,-766 -112,-199 60,-271 215,-343l532 -243c72,-33 137,-65 183,-92z"
   id="path1324" />


   <path
   fill="url(#id5)"
   d="M14865 4698l14382 10146c159,112 208,171 29,259l-11902 5851c-779,353 -1119,200 -1793,-281l-14361 -10333 -60 -44c-616,-405 -666,-488 28,-774l11380 -4813c908,-384 1430,-607 2297,-11z"
   id="path1326" />


   <path
   fill="url(#id6)"
   d="M1358 9850l11353 -4801c792,-335 1194,-564 1943,-49l14101 9949 -11538 5672c-652,295 -850,160 -1422,-248l-14358 -10332c-108,-79 -225,-100 -79,-191z"
   id="path1328" />


   <path
   fill="url(#id7)"
   d="M25 13679l16196 11856c76,56 139,203 139,327l0 0c0,124 -63,179 -139,124l-16147 -11824c-76,-56 -139,-203 -139,-327l0 0c0,-124 14,-212 90,-156z"
   id="path1330" />


   <path
   fill="#FFFE91"
   d="M1243 10965l0 0c117,0 241,139 213,303 -172,995 -172,1924 0,2788 33,164 -96,303 -213,303l0 0c-117,0 -191,-137 -213,-303 -121,-929 -129,-1859 0,-2788 23,-165 96,-303 213,-303z"
   id="path1332" />


   <path
   fill="#998200"
   d="M1358 11096l0 0c69,0 147,130 125,285 -126,875 -126,1750 0,2625 22,155 -56,285 -125,285l0 0c-68,0 -98,-131 -125,-285 -132,-778 -165,-1632 0,-2625 26,-154 57,-285 125,-285z"
   id="path1334" />


   <path
   fill="#FFFE91"
   d="M2313 11779l0 0c116,0 241,138 212,302 -172,996 -172,1925 0,2789 33,163 -96,303 -212,303l0 0c-118,0 -192,-138 -213,-303 -122,-929 -130,-1859 0,-2789 23,-164 95,-302 213,-302z"
   id="path1336" />


   <path
   fill="#998200"
   d="M2427 11910l0 0c69,0 147,130 125,285 -126,875 -126,1749 0,2624 22,155 -56,285 -125,285l0 0c-68,0 -98,-130 -124,-285 -133,-777 -166,-1632 0,-2624 26,-155 56,-285 124,-285z"
   id="path1338" />


   <path
   fill="#FFFE91"
   d="M3475 12639l0 0c117,0 241,138 212,303 -172,995 -172,1924 0,2788 33,164 -95,303 -212,303l0 0c-118,0 -192,-138 -213,-303 -122,-930 -130,-1859 0,-2788 23,-165 95,-303 213,-303z"
   id="path1340" />


   <path
   fill="#998200"
   d="M3590 12770l0 0c68,0 147,130 124,285 -125,875 -125,1750 0,2624 23,156 -56,286 -124,286l0 0c-69,0 -99,-131 -125,-286 -132,-777 -165,-1632 0,-2624 26,-155 56,-285 125,-285z"
   id="path1342" />


   <path
   fill="#FFFE91"
   d="M4637 13475l0 0c117,0 241,139 213,303 -172,995 -172,1925 0,2789 32,163 -96,303 -213,303l0 0c-117,0 -191,-138 -213,-303 -122,-930 -130,-1859 0,-2789 23,-165 96,-303 213,-303z"
   id="path1344" />


   <path
   fill="#998200"
   d="M4752 13607l0 0c68,0 147,130 124,285 -125,875 -125,1749 0,2624 23,155 -56,285 -124,285l0 0c-69,0 -99,-130 -125,-285 -132,-777 -165,-1632 0,-2624 26,-155 56,-285 125,-285z"
   id="path1346" />


   <path
   fill="url(#id8)"
   d="M10340 10374l-3 -11c441,131 1332,72 1226,-594 417,148 1171,108 1240,-451l227 156c109,-62 654,-288 695,-367l29 22c304,-164 562,-270 890,-404l-554 -377c-316,158 -789,-142 -1081,-231l-1 -35 329 -140 -548 -374c-216,120 -425,218 -656,304l-973 -666c-211,317 -269,352 -597,583l526 361 85 -97 410 281c-372,-39 -1102,85 -971,631 -421,-92 -1526,-78 -1226,672 -64,-9 -127,-17 -191,-18 -115,-457 -600,-624 -960,-640 -642,-26 -1303,431 -1716,597l547 382c176,-74 169,-100 318,1l1332 929 -180 97 527 367c391,-223 1315,-443 1276,-978zm-871 109c-60,0 -184,-115 -217,-139 82,40 158,82 231,136l-14 3z"
   id="path1348" />


   <path
   fill="url(#id9)"
   d="M9077 11069c66,-38 149,-81 253,-129 138,-64 295,-133 468,-211 65,-29 116,-58 158,-85 40,-25 73,-50 98,-75 46,-46 64,-100 54,-157 -18,-107 -107,-223 -275,-338 -327,-225 -655,-275 -982,-161 -2,-2 -4,-3 -5,-4 185,-162 158,-330 -85,-500 -105,-75 -207,-128 -304,-160 -96,-31 -190,-44 -281,-46 -87,-2 -168,5 -243,24 -73,20 -141,44 -202,73 -139,67 -277,136 -418,202 -86,40 -186,83 -299,128 27,19 56,39 84,59 76,-35 145,-47 207,-34 64,14 136,52 216,109 474,329 948,660 1425,992 81,56 130,103 141,141 11,38 -22,76 -95,113 28,20 57,40 85,59zm-545 -936c10,-5 19,-9 30,-14 329,-146 670,-101 1023,142 252,173 269,312 51,415 -72,33 -136,49 -192,44 -54,-5 -114,-31 -182,-79 -243,-170 -487,-339 -730,-508zm-940 -655c33,-16 68,-32 103,-47 253,-113 536,-61 847,157 261,183 269,331 25,443 -36,16 -72,34 -108,51 -290,-202 -579,-403 -867,-604zm2423 181c-48,-33 -91,-67 -131,-102 -40,-33 -71,-66 -95,-100 -24,-33 -31,-65 -23,-96 8,-30 38,-58 90,-81 65,-28 144,-33 236,-13 96,20 196,56 302,106 51,24 103,46 156,74 51,27 100,55 147,84 96,58 174,111 240,155 92,62 159,124 201,185 45,66 24,121 -64,164 -61,30 -142,31 -244,10 -95,-20 -194,-49 -297,-95 -104,-47 -201,-98 -293,-151 -92,-53 -167,-100 -225,-140zm-57 269c158,111 346,188 561,238 224,52 431,42 615,-44 168,-80 231,-190 198,-322 -33,-127 -135,-252 -308,-370 -247,-168 -479,-265 -697,-292 -216,-27 -394,-7 -533,57 -140,65 -204,159 -201,285 3,128 123,278 365,448zm1301 -850c-48,-32 -91,-66 -132,-100 -39,-33 -71,-65 -95,-99 -24,-33 -32,-65 -23,-95 8,-30 38,-58 89,-81 64,-28 142,-31 234,-12 96,20 195,56 300,105 51,24 102,46 155,73 51,27 99,55 147,84 94,57 172,109 238,154 91,62 159,122 201,182 45,66 25,121 -63,163 -60,30 -140,31 -241,10 -94,-20 -192,-49 -295,-95 -102,-46 -200,-97 -291,-149 -92,-53 -165,-99 -224,-140zm-55 267c158,110 345,187 558,236 224,52 427,43 609,-43 165,-78 228,-187 193,-317 -34,-127 -136,-251 -308,-367 -246,-167 -477,-264 -693,-290 -214,-27 -390,-8 -527,56 -137,63 -201,157 -197,281 5,126 124,276 365,444zm1834 -144c79,-44 161,-85 243,-124 81,-38 166,-76 256,-112 -28,-19 -56,-39 -84,-57 -6,3 -11,5 -17,7 -71,34 -153,19 -243,-43 -129,-88 -258,-176 -386,-264 -1,-30 -3,-60 -3,-90 243,76 485,152 728,227 58,18 101,32 129,45 32,16 67,39 104,67 102,-54 164,-87 189,-99 30,-13 99,-43 209,-88 -28,-19 -56,-39 -85,-58 -26,15 -60,21 -99,20 -39,-1 -106,-16 -202,-44 -331,-100 -660,-201 -990,-301 -3,-75 -7,-149 -8,-223 -1,-96 29,-154 86,-172 -29,-19 -57,-38 -84,-57 -71,40 -142,76 -212,108 -69,33 -145,64 -229,96 28,19 56,38 84,58 35,-17 64,-28 87,-31 24,-2 53,9 84,30 16,11 32,29 46,54 16,28 26,70 30,125 8,86 17,173 26,259 -247,-169 -493,-337 -738,-505 -245,-168 -490,-336 -734,-504 -66,101 -152,189 -261,263 28,19 56,38 84,57 11,-13 27,-25 50,-36 50,-23 112,-6 190,47 274,189 550,377 825,566 275,189 553,378 829,568 91,63 99,111 30,144 -6,3 -13,6 -19,9 29,19 57,39 85,58z"
   id="path1350" />


  </g>


 </g>


</svg>
