<?xml version="1.0" encoding="UTF-8" standalone="no"?>
<!DOCTYPE svg PUBLIC "-//W3C//DTD SVG 20010904//EN"
"http://www.w3.org/TR/2001/REC-SVG-20010904/DTD/svg10.dtd">
<!-- Created with Sodipodi ("http://www.sodipodi.com/") -->
<svg
   xml:space="preserve"
   width="30mm"
   height="30mm"
   shape-rendering="geometricPrecision"
   text-rendering="geometricPrecision"
   image-rendering="optimizeQuality"
   fill-rule="evenodd"
   viewBox="0 0 30000 30000"
   xmlns="http://www.w3.org/2000/svg"
   xmlns:xml="http://www.w3.org/XML/1998/namespace"
   xmlns:sodipodi="http://sodipodi.sourceforge.net/DTD/sodipodi-0.dtd"
   xmlns:xlink="http://www.w3.org/1999/xlink"
   id="svg829"
   sodipodi:version="0.34-pre"
   sodipodi:docname="/home/david/.themes/eXperience/icons/book-red.svg"
   sodipodi:docbase="/home/david/.themes/eXperience/icons/"><defs
   id="defs970" />
<sodipodi:namedview
   id="base" />

 <g
   id="Layer1">
  <g
   id="g833">
   <defs
   id="defs835">
    <linearGradient
   id="id0"
   gradientUnits="userSpaceOnUse"
   x1="19758"
   y1="21168"
   x2="21641"
   y2="23494">
     <stop
   offset="0"
   stop-color="#999999"
   id="stop839" />

     <stop
   offset="1"
   stop-color="#FFFFFF"
   id="stop841" />

    </linearGradient>

    <linearGradient
   id="id1"
   gradientUnits="userSpaceOnUse"
   x1="25608"
   y1="25849"
   x2="33005"
   y2="11191">
     <stop
   offset="0"
   stop-color="#B2B2B2"
   id="stop846" />

     <stop
   offset="1"
   stop-color="#FFFFFF"
   id="stop848" />

    </linearGradient>

    <linearGradient
   id="id2"
   gradientUnits="userSpaceOnUse"
   x1="16712"
   y1="21044"
   x2="-5358"
   y2="8793">
     <stop
   offset="0"
   stop-color="#6E1000"
   id="stop853" />

     <stop
   offset="0.619608"
   stop-color="#ED2C0E"
   id="stop855" />

     <stop
   offset="1"
   stop-color="#FFFFFF"
   id="stop857" />

    </linearGradient>

    <linearGradient
   id="id3"
   gradientUnits="userSpaceOnUse"
   x1="14467"
   y1="22212"
   x2="18412"
   y2="28739">
     <stop
   offset="0"
   stop-color="#FAAA89"
   id="stop862" />

     <stop
   offset="0.45098"
   stop-color="#B45D45"
   id="stop864" />

     <stop
   offset="1"
   stop-color="#6E1000"
   id="stop866" />

    </linearGradient>

    <linearGradient
   id="id4"
   gradientUnits="userSpaceOnUse"
   x1="25325"
   y1="16095"
   x2="-10788"
   y2="3646">
     <stop
   offset="0"
   stop-color="#6E1000"
   id="stop871" />

     <stop
   offset="1"
   stop-color="#FFFFFF"
   id="stop873" />

    </linearGradient>

    <linearGradient
   id="id5"
   gradientUnits="userSpaceOnUse"
   x1="1325"
   y1="9295"
   x2="29416"
   y2="17321">
     <stop
   offset="0"
   stop-color="#6E1000"
   id="stop878" />

     <stop
   offset="1"
   stop-color="#F35941"
   id="stop880" />

    </linearGradient>

    <linearGradient
   id="id6"
   gradientUnits="userSpaceOnUse"
   x1="27256"
   y1="16213"
   x2="-2920"
   y2="4165">
     <stop
   offset="0"
   stop-color="#6E1000"
   id="stop885" />

     <stop
   offset="0.709804"
   stop-color="#ED2C0E"
   id="stop887" />

     <stop
   offset="1"
   stop-color="#FFFFFF"
   id="stop889" />

    </linearGradient>

    <linearGradient
   id="id7"
   gradientUnits="userSpaceOnUse"
   x1="229"
   y1="14376"
   x2="26119"
   y2="32307">
     <stop
   offset="0"
   stop-color="#FAAA89"
   id="stop894" />

     <stop
   offset="0.45098"
   stop-color="#B45D45"
   id="stop896" />

     <stop
   offset="1"
   stop-color="#6E1000"
   id="stop898" />

    </linearGradient>

    <linearGradient
   id="id8"
   gradientUnits="userSpaceOnUse"
   x1="6520"
   y1="8702"
   x2="19458"
   y2="9713">
     <stop
   offset="0"
   stop-color="#6E1000"
   id="stop903" />

     <stop
   offset="0.811765"
   stop-color="#B6877F"
   id="stop905" />

     <stop
   offset="1"
   stop-color="#FFFFFF"
   id="stop907" />

    </linearGradient>

    <linearGradient
   id="id9"
   gradientUnits="userSpaceOnUse"
   x1="14387"
   y1="10635"
   x2="6784"
   y2="7952">
     <stop
   offset="0"
   stop-color="#1C1C1C"
   id="stop912" />

     <stop
   offset="0.4"
   stop-color="#E5E5E5"
   id="stop914" />

     <stop
   offset="1"
   stop-color="#4F4F4F"
   id="stop916" />

    </linearGradient>

   </defs>

   <path
   fill="#6E1000"
   d="M236 13240l14029 -5323 15497 10813c650,452 256,748 -23,885l-12401 6096 -1826 -115 -15150 -11128c-403,-294 -339,-459 -235,-631 73,-121 779,-19 109,-597z"
   id="path920" />

   <path
   fill="url(#id0)"
   d="M29002 15301l-12874 6368 -144 3909 12994 -6501 24 -3776z"
   id="path922" />

   <path
   fill="url(#id1)"
   d="M29002 15301l-1696 839c471,25 1207,-463 1679,-439 -604,274 -1111,858 -1715,1132 530,-38 1228,-611 1686,-508 -679,361 -1148,791 -2105,1185 691,-103 1292,-522 1984,-625 -592,516 -1439,820 -2493,1312 680,-90 1524,-434 2014,-388 -1235,626 -1771,940 -2745,1322 1070,-301 1486,-522 2480,-693 -8209,3603 -2814,2256 -9086,5596l9973 -4957 24 -3776z"
   id="path924" />

   <path
   fill="url(#id2)"
   d="M170 10390c-226,-463 -106,-873 840,-1200l16519 11976c-559,70 -974,313 -1069,939 -275,883 -279,1766 -76,2625 122,274 46,528 791,279l163 702c-581,359 -977,561 -1618,73l-15181 -11555c-228,-173 -604,-271 -610,-439 -9,-304 191,-86 196,-445l45 -2955z"
   id="path926" />

   <path
   fill="#FAAA89"
   d="M726 9467c23,-10 -124,249 -132,420 -8,171 -128,237 -136,282 -215,1237 -249,2473 38,3711 21,88 -41,164 -90,164l-245 0c-50,0 -76,-75 -91,-164 -210,-1239 -274,-2489 -18,-3763 83,-409 308,-483 674,-650z"
   id="path928" />

   <path
   fill="#6E1000"
   d="M545 10169c-137,40 -328,3366 134,4017 18,26 -292,-131 -324,-131 -36,0 -66,-254 -82,-348 -179,-1104 -179,-2226 0,-3365 18,-112 497,-240 272,-173z"
   id="path930" />

   <path
   fill="url(#id3)"
   d="M16232 21349l0 0c117,0 242,172 213,375 -172,1228 -172,2376 0,3443 33,202 -96,374 -213,374l0 0c-117,0 -303,-160 -324,-364 -122,-1147 -87,-2355 42,-3503 23,-203 165,-325 282,-325z"
   id="path932" />

   <path
   fill="#6E1000"
   d="M16322 21453l77 -39c36,-18 100,-28 125,59 19,67 -42,335 -52,427 -126,1193 -126,2386 0,3579 22,212 -56,389 -125,389l0 0c-68,0 -98,-178 -124,-389 -133,-1060 -166,-2225 0,-3579 25,-210 34,-415 99,-447z"
   id="path934" />

   <path
   fill="url(#id4)"
   d="M1010 9190l11413 -4827c1107,-468 1629,-696 2653,26l14398 10158c648,458 255,749 -23,886l-11918 5858c-936,435 -1311,301 -2167,-315l-14371 -10341c-81,-58 -752,-475 -915,-766 -112,-200 60,-272 216,-343l532 -243c72,-33 137,-65 182,-93z"
   id="path936" />

   <path
   fill="url(#id5)"
   d="M14865 4692l14391 10153c158,111 208,170 29,258l-11909 5855c-780,353 -1120,200 -1795,-282l-14369 -10339 -60 -44c-617,-405 -667,-488 28,-774l11386 -4816c909,-384 1431,-608 2299,-11z"
   id="path938" />

   <path
   fill="url(#id6)"
   d="M1350 9847l11360 -4804c792,-335 1195,-564 1944,-49l14110 9955 -11546 5675c-652,296 -850,161 -1422,-247l-14368 -10339c-107,-79 -225,-100 -78,-191z"
   id="path940" />

   <path
   fill="url(#id7)"
   d="M16 13678l16206 11863c76,56 138,203 138,327l0 0c0,124 -62,180 -138,124l-16157 -11830c-76,-56 -139,-203 -139,-327l0 -1c0,-123 14,-212 90,-156z"
   id="path942" />

   <path
   fill="#FAAA89"
   d="M1235 10963l0 0c117,0 242,139 213,303 -172,995 -172,1926 0,2790 33,163 -96,303 -213,303l0 0c-117,0 -191,-138 -213,-303 -122,-930 -129,-1860 0,-2790 23,-165 96,-303 213,-303z"
   id="path944" />

   <path
   fill="#6E1000"
   d="M1350 11094l0 0c69,0 147,130 125,285 -126,876 -126,1751 0,2626 22,155 -56,285 -125,285l0 0c-69,0 -98,-130 -125,-285 -132,-778 -165,-1633 0,-2626 26,-155 56,-285 125,-285z"
   id="path946" />

   <path
   fill="#FAAA89"
   d="M2305 11777l0 0c117,0 241,139 213,303 -172,996 -172,1925 0,2790 33,163 -96,303 -213,303l0 0c-117,0 -191,-138 -213,-303 -122,-930 -130,-1860 0,-2790 23,-165 96,-303 213,-303z"
   id="path948" />

   <path
   fill="#6E1000"
   d="M2420 11908l0 0c69,0 147,130 125,285 -126,876 -126,1751 0,2626 22,155 -56,286 -125,286l0 0c-69,0 -99,-131 -125,-286 -132,-778 -165,-1633 0,-2626 26,-154 56,-285 125,-285z"
   id="path950" />

   <path
   fill="#FAAA89"
   d="M3468 12637l0 0c117,0 241,139 213,303 -172,996 -172,1926 0,2790 32,164 -96,304 -213,304l0 0c-117,0 -192,-138 -213,-304 -122,-930 -130,-1860 0,-2790 23,-165 96,-303 213,-303z"
   id="path952" />

   <path
   fill="#6E1000"
   d="M3583 12769l0 0c68,0 147,130 125,285 -126,875 -126,1750 0,2626 22,155 -57,285 -125,285l0 0c-69,0 -98,-131 -125,-285 -132,-778 -165,-1633 0,-2626 26,-155 56,-285 125,-285z"
   id="path954" />

   <path
   fill="#FAAA89"
   d="M4631 13474l0 0c117,0 241,139 213,304 -173,995 -173,1925 0,2790 32,163 -96,303 -213,303l0 0c-117,0 -192,-138 -213,-303 -122,-930 -130,-1860 0,-2790 23,-165 96,-304 213,-304z"
   id="path956" />

   <path
   fill="#6E1000"
   d="M4746 13606l0 0c68,0 147,130 125,285 -126,875 -126,1751 0,2626 22,155 -57,285 -125,285l0 0c-69,0 -99,-130 -125,-285 -132,-778 -165,-1633 0,-2626 26,-154 56,-285 125,-285z"
   id="path958" />

   <path
   fill="url(#id8)"
   d="M10337 10371l-3 -11c442,132 1333,73 1226,-594 418,148 1173,108 1242,-452l227 156c108,-61 655,-288 695,-366l30 21c304,-164 562,-270 889,-404l-554 -377c-316,158 -789,-142 -1081,-231l-1 -36 329 -139 -548 -374c-217,119 -425,217 -657,304l-973 -666c-211,317 -269,352 -597,582l525 361 85 -96 411 281c-372,-39 -1103,85 -972,632 -421,-93 -1526,-79 -1226,672 -64,-9 -127,-17 -192,-18 -868,-1218 -2032,-303 -2677,-43l547 382c176,-74 170,-100 319,1l1332 929 -179 98 526 367c392,-224 1317,-443 1277,-979z"
   id="path960" />

   <path
   fill="url(#id9)"
   d="M9074 11067c66,-38 149,-81 252,-129 138,-64 296,-133 469,-211 65,-30 117,-59 158,-85 39,-25 73,-50 98,-75 46,-47 64,-100 54,-158 -18,-107 -107,-223 -275,-338 -328,-225 -656,-275 -983,-161 -2,-2 -3,-3 -5,-4 186,-162 158,-330 -84,-501 -105,-74 -207,-127 -305,-159 -96,-31 -190,-45 -280,-46 -88,-2 -169,4 -244,24 -73,19 -141,44 -202,73 -139,67 -277,135 -418,202 -86,40 -187,83 -299,128 27,19 55,39 83,58 76,-34 145,-47 208,-33 63,14 136,52 216,108 474,330 949,661 1425,993 81,57 130,103 141,141 11,39 -22,77 -94,114 27,19 56,39 85,59zm-546 -937c10,-4 20,-9 30,-14 329,-146 671,-101 1024,142 252,173 269,313 51,416 -72,33 -136,48 -192,43 -55,-4 -114,-31 -182,-78 -244,-171 -487,-339 -731,-509zm-940 -655c33,-16 68,-33 102,-48 253,-113 537,-60 848,157 262,184 270,332 26,443 -37,17 -73,35 -109,52 -290,-202 -579,-403 -867,-604zm2424 181c-48,-33 -91,-68 -131,-102 -40,-34 -71,-66 -95,-100 -24,-33 -32,-65 -23,-96 8,-31 38,-58 90,-81 65,-29 144,-33 237,-14 96,20 196,57 302,107 51,24 103,46 155,74 51,27 100,55 148,84 95,57 174,110 240,155 91,62 158,123 200,185 46,66 25,121 -63,164 -61,30 -143,31 -245,10 -94,-19 -193,-49 -296,-95 -105,-47 -201,-98 -294,-151 -92,-53 -166,-100 -225,-140zm-57 269c158,111 346,188 562,238 224,52 431,43 615,-44 168,-79 232,-190 198,-321 -33,-128 -135,-253 -308,-371 -247,-168 -480,-265 -698,-292 -216,-27 -393,-8 -533,57 -140,65 -204,159 -201,284 3,129 123,279 365,449zm1302 -850c-48,-33 -92,-66 -132,-101 -39,-33 -71,-65 -95,-98 -24,-33 -32,-65 -23,-96 8,-30 37,-57 89,-80 64,-29 142,-32 234,-13 95,20 195,57 300,106 51,23 102,46 155,73 51,26 99,55 147,83 95,57 172,110 239,155 91,61 158,121 200,182 46,66 26,121 -62,163 -61,29 -141,31 -242,10 -93,-20 -191,-49 -295,-95 -102,-47 -200,-97 -291,-150 -92,-52 -166,-99 -224,-139zm-55 266c157,111 345,187 558,237 224,52 428,43 609,-43 166,-78 228,-187 193,-318 -33,-126 -135,-250 -307,-367 -247,-167 -478,-263 -694,-290 -214,-27 -390,-8 -528,56 -137,64 -201,157 -196,281 4,127 124,276 365,444zm1834 -144c80,-44 162,-84 244,-123 81,-38 166,-76 256,-112 -28,-19 -56,-39 -84,-58 -5,3 -12,5 -17,8 -72,33 -153,19 -244,-43 -128,-88 -257,-176 -385,-264 -2,-30 -3,-61 -3,-91 243,76 485,152 728,227 58,18 102,32 129,46 32,16 67,38 105,67 101,-54 163,-87 189,-99 29,-14 98,-44 208,-89 -28,-19 -56,-38 -84,-57 -27,15 -61,21 -100,19 -38,-1 -106,-15 -201,-44 -332,-100 -661,-201 -991,-301 -4,-75 -7,-149 -8,-223 -2,-96 29,-154 85,-172 -28,-19 -56,-38 -83,-57 -72,39 -143,76 -212,108 -70,33 -146,64 -230,96 28,19 56,38 85,58 34,-17 63,-28 87,-31 24,-3 52,9 84,30 15,11 31,29 46,54 15,28 25,70 30,125 8,86 17,173 25,259 -246,-168 -493,-337 -738,-505 -245,-168 -490,-336 -734,-504 -67,101 -153,189 -261,262 27,20 55,39 83,58 11,-13 28,-25 51,-36 50,-23 112,-7 190,47 274,189 550,377 825,566 276,189 554,378 830,568 90,63 99,112 30,145 -7,2 -13,5 -19,8 28,20 57,39 84,58z"
   id="path962" />

  </g>

  <g
   id="g965">
  </g>

 </g>

</svg>
