<?xml version="1.0" encoding="UTF-8" standalone="no"?>
<!DOCTYPE svg PUBLIC "-//W3C//DTD SVG 20010904//EN"
"http://www.w3.org/TR/2001/REC-SVG-20010904/DTD/svg10.dtd">
<!-- Created with Sodipodi ("http://www.sodipodi.com/") -->
<svg
   xml:space="preserve"
   width="30mm"
   height="30mm"
   shape-rendering="geometricPrecision"
   text-rendering="geometricPrecision"
   image-rendering="optimizeQuality"
   fill-rule="evenodd"
   viewBox="0 0 30000 30000"
   xmlns="http://www.w3.org/2000/svg"
   xmlns:xml="http://www.w3.org/XML/1998/namespace"
   xmlns:sodipodi="http://sodipodi.sourceforge.net/DTD/sodipodi-0.dtd"
   xmlns:xlink="http://www.w3.org/1999/xlink"
   id="svg697"
   sodipodi:version="0.34-pre"
   sodipodi:docname="/home/david/.themes/eXperience/icons/book-green.svg"
   sodipodi:docbase="/home/david/.themes/eXperience/icons/"><defs
   id="defs828" />
<sodipodi:namedview
   id="base" />

 <g
   id="Layer1">
  <g
   id="g701">
  </g>

  <g
   id="g704">
  </g>

  <g
   id="g707">
   <defs
   id="defs709">
    <linearGradient
   id="id0"
   gradientUnits="userSpaceOnUse"
   x1="19721"
   y1="21121"
   x2="21590"
   y2="23429">
     <stop
   offset="0"
   stop-color="#87827A"
   id="stop713" />

     <stop
   offset="1"
   stop-color="#DEDED4"
   id="stop715" />

    </linearGradient>

    <linearGradient
   id="id1"
   gradientUnits="userSpaceOnUse"
   x1="25527"
   y1="25766"
   x2="32868"
   y2="11220">
     <stop
   offset="0"
   stop-color="#9E9991"
   id="stop720" />

     <stop
   offset="1"
   stop-color="#DEDED4"
   id="stop722" />

    </linearGradient>

    <linearGradient
   id="id2"
   gradientUnits="userSpaceOnUse"
   x1="12491"
   y1="20295"
   x2="-6751"
   y2="5417">
     <stop
   offset="0"
   stop-color="#3A9A12"
   id="stop727" />

     <stop
   offset="1"
   stop-color="#EEF813"
   id="stop729" />

    </linearGradient>

    <linearGradient
   id="id3"
   gradientUnits="userSpaceOnUse"
   x1="34626"
   y1="18540"
   x2="-1971"
   y2="2831">
     <stop
   offset="0"
   stop-color="#004B00"
   id="stop734" />

     <stop
   offset="0.368627"
   stop-color="#3A9A12"
   id="stop736" />

     <stop
   offset="1"
   stop-color="#FFFFFF"
   id="stop738" />

    </linearGradient>

    <linearGradient
   id="id4"
   gradientUnits="userSpaceOnUse"
   x1="8985"
   y1="10202"
   x2="43621"
   y2="15994">
     <stop
   offset="0"
   stop-color="#004B00"
   id="stop743" />

     <stop
   offset="1"
   stop-color="#FFFFFF"
   id="stop745" />

    </linearGradient>

    <linearGradient
   id="id5"
   gradientUnits="userSpaceOnUse"
   x1="20555"
   y1="16859"
   x2="-5546"
   y2="-922">
     <stop
   offset="0"
   stop-color="#3A9A12"
   id="stop750" />

     <stop
   offset="1"
   stop-color="#EEF813"
   id="stop752" />

    </linearGradient>

    <linearGradient
   id="id6"
   gradientUnits="userSpaceOnUse"
   x1="17228"
   y1="26302"
   x2="-3654"
   y2="10179">
     <stop
   offset="0"
   stop-color="#004B00"
   id="stop757" />

     <stop
   offset="0.329412"
   stop-color="#7FA57F"
   id="stop759" />

     <stop
   offset="1"
   stop-color="#FFFFFF"
   id="stop761" />

    </linearGradient>

    <linearGradient
   id="id7"
   gradientUnits="userSpaceOnUse"
   x1="9488"
   y1="10476"
   x2="9326"
   y2="10415">
     <stop
   offset="0"
   stop-color="#004B00"
   id="stop766" />

     <stop
   offset="1"
   stop-color="#FFFFFF"
   id="stop768" />

    </linearGradient>

    <linearGradient
   id="id8"
   gradientUnits="userSpaceOnUse"
   x1="8073"
   y1="9304"
   x2="18810"
   y2="9413">
     <stop
   offset="0"
   stop-color="#004B00"
   id="stop773" />

     <stop
   offset="1"
   stop-color="#FFFFFF"
   id="stop775" />

    </linearGradient>

   </defs>

   <path
   fill="#3A9A12"
   d="M348 13253l13922 -5282 15380 10730c644,450 254,743 -23,879l-12307 6050 -1812 -115 -15035 -11043c-400,-292 -336,-456 -233,-627 72,-119 773,-19 108,-592z"
   id="path779" />

   <path
   fill="url(#id0)"
   d="M28896 15299l-12776 6319 -144 3879 12896 -6451 24 -3747z"
   id="path781" />

   <path
   fill="url(#id1)"
   d="M28896 15299l-1684 833c468,24 1199,-460 1667,-436 -599,272 -1103,851 -1702,1123 526,-38 1218,-607 1673,-504 -673,358 -1139,785 -2089,1176 686,-103 1282,-518 1969,-620 -588,511 -1428,814 -2474,1302 675,-90 1512,-431 1999,-385 -1226,621 -1758,933 -2725,1311 1062,-298 1475,-517 2462,-687 -8147,3575 -2793,2239 -9017,5554l9897 -4920 24 -3747z"
   id="path783" />

   <path
   fill="url(#id2)"
   d="M283 10425c-225,-459 -106,-867 833,-1191l16394 11885c-555,69 -966,311 -1061,932 -272,876 -277,1753 -76,2605 122,272 46,524 785,277l162 697c-577,356 -970,556 -1605,72l-15066 -11467c-226,-172 -600,-269 -605,-436 -10,-302 189,-86 194,-441l45 -2933z"
   id="path785" />

   <path
   fill="#BFC9BF"
   d="M835 9509c22,-10 -123,247 -131,417 -9,170 -128,235 -136,279 -213,1228 -247,2456 38,3683 21,88 -40,164 -89,164l-244 0c-49,0 -74,-75 -89,-164 -209,-1229 -273,-2469 -18,-3734 81,-406 305,-479 669,-645z"
   id="path787" />

   <path
   fill="#004B00"
   d="M655 10205c-136,41 -326,3341 133,3988 17,25 -290,-131 -322,-131 -35,0 -66,-252 -81,-345 -178,-1096 -178,-2209 0,-3340 18,-110 493,-237 270,-172z"
   id="path789" />

   <path
   fill="#80BD80"
   d="M16223 21301l0 0c116,0 239,170 211,371 -171,1220 -171,2359 0,3418 33,200 -95,371 -211,371l0 0c-116,0 -301,-159 -322,-361 -121,-1139 -86,-2337 42,-3476 23,-203 164,-323 280,-323z"
   id="path791" />

   <path
   fill="#004B00"
   d="M16311 21404l77 -38c36,-18 99,-28 124,58 20,67 -42,332 -51,424 -125,1184 -125,2368 0,3552 22,210 -56,386 -124,386l0 0c-68,0 -98,-177 -124,-386 -131,-1052 -164,-2209 0,-3552 26,-209 35,-412 98,-444z"
   id="path793" />

   <path
   fill="url(#id3)"
   d="M1116 9234l11326 -4790c1099,-465 1617,-691 2633,26l14289 10081c643,454 254,742 -23,878l-11827 5814c-929,432 -1301,299 -2150,-312l-14262 -10263c-81,-58 -747,-472 -909,-760 -111,-198 60,-270 214,-340l528 -242c72,-32 136,-64 181,-92z"
   id="path795" />

   <path
   fill="url(#id4)"
   d="M14866 4770l14281 10076c158,111 207,169 29,257l-11818 5809c-774,351 -1111,199 -1781,-279l-14260 -10261 -60 -43c-612,-402 -661,-485 28,-769l11300 -4779c901,-381 1420,-603 2281,-11z"
   id="path797" />

   <path
   fill="url(#id5)"
   d="M1453 9886l11274 -4768c786,-332 1186,-559 1930,-48l14002 9879 -11458 5633c-647,293 -844,159 -1411,-246l-14259 -10260c-107,-78 -223,-100 -78,-190z"
   id="path799" />

   <path
   fill="url(#id6)"
   d="M130 13688l16082 11773c76,55 138,202 138,325l0 0c0,123 -62,178 -138,122l-16034 -11740c-75,-55 -137,-201 -137,-325l0 0c0,-123 13,-210 89,-155z"
   id="path801" />

   <path
   fill="#BFC9BF"
   d="M1340 10993l0 0c116,0 239,138 211,301 -171,988 -171,1911 0,2769 32,162 -95,301 -211,301l0 0c-117,0 -190,-137 -212,-301 -121,-923 -128,-1846 0,-2769 23,-164 95,-301 212,-301z"
   id="path803" />

   <path
   fill="#004B00"
   d="M1454 11124l0 0c68,0 146,129 124,283 -125,868 -125,1737 0,2606 22,154 -56,283 -124,283l0 0c-68,0 -98,-130 -124,-283 -131,-772 -164,-1621 0,-2606 26,-154 56,-283 124,-283z"
   id="path805" />

   <path
   fill="#BFC9BF"
   d="M2402 11801l0 0c116,0 239,138 211,301 -171,988 -171,1911 0,2769 32,162 -95,301 -211,301l0 0c-117,0 -190,-137 -212,-301 -121,-923 -129,-1846 0,-2769 23,-164 95,-301 212,-301z"
   id="path807" />

   <path
   fill="#004B00"
   d="M2516 11931l0 0c68,0 145,129 123,284 -125,868 -125,1737 0,2605 22,155 -55,284 -123,284l0 0c-69,0 -98,-130 -124,-284 -132,-771 -164,-1620 0,-2605 25,-154 55,-284 124,-284z"
   id="path809" />

   <path
   fill="#BFC9BF"
   d="M3555 12655l0 0c117,0 240,138 212,301 -171,988 -171,1911 0,2769 32,162 -95,301 -212,301l0 0c-116,0 -189,-137 -211,-301 -121,-923 -129,-1846 0,-2769 23,-164 95,-301 211,-301z"
   id="path811" />

   <path
   fill="#004B00"
   d="M3670 12785l0 0c68,0 145,129 123,284 -124,868 -124,1737 0,2605 22,155 -55,284 -123,284l0 0c-69,0 -98,-130 -124,-284 -131,-771 -164,-1620 0,-2605 25,-154 55,-284 124,-284z"
   id="path813" />

   <path
   fill="#BFC9BF"
   d="M4710 13486l0 0c116,0 239,138 211,301 -171,988 -171,1911 0,2769 32,162 -95,301 -211,301l0 0c-117,0 -190,-137 -212,-301 -121,-923 -129,-1846 0,-2769 23,-164 95,-301 212,-301z"
   id="path815" />

   <path
   fill="#004B00"
   d="M4824 13616l0 0c68,0 146,129 123,284 -124,868 -124,1737 0,2605 23,155 -55,284 -123,284l0 0c-69,0 -98,-130 -124,-284 -132,-771 -164,-1620 0,-2605 25,-154 55,-284 124,-284z"
   id="path817" />

   <path
   fill="url(#id7)"
   d="M9508 10514c-2,0 -3,0 -3,0 -1,0 -2,0 -2,0 -1,0 -1,0 -1,0 -1,0 -2,0 -2,-1 -1,0 -3,0 -4,-1 -2,0 -4,-1 -6,-3 -3,-1 -7,-3 -9,-4 -4,-2 -9,-4 -12,-6 -5,-3 -10,-6 -14,-8 -6,-5 -13,-10 -19,-14 -48,-33 -97,-66 -144,-100 2,1 5,1 7,3 8,4 17,8 26,12 8,5 18,9 27,13 9,6 19,11 28,15 9,5 18,11 28,16 9,6 18,11 27,17 9,5 19,12 29,18 8,6 17,12 26,18 10,7 21,15 32,23 -1,0 -1,0 -1,0 -3,0 -6,1 -8,1 -2,1 -4,1 -5,1z"
   id="path819" />

   <path
   fill="url(#id8)"
   d="M10373 10407l-3 -12c438,130 1323,73 1217,-589 415,142 1163,110 1231,-448l226 154c108,-61 649,-285 690,-363l29 21c302,-163 558,-268 883,-401l-550 -375c-314,157 -782,-140 -1072,-229l-2 -35 327 -139 -544 -371c-216,119 -422,216 -652,302l-966 -661c-210,314 -267,349 -593,578l522 359 84 -97 408 280c-367,-39 -1097,84 -965,627 -424,-94 -1504,-81 -1217,666 -63,-10 -126,-16 -190,-17 -316,-1263 -2017,-301 -2656,-43l543 379c174,-74 167,-99 316,1l1322 923 -178 96 522 364c387,-221 1309,-440 1268,-970z"
   id="path821" />

   <path
   fill="#FFFFFF"
   d="M9119 11097c66,-38 148,-81 250,-128 137,-64 294,-132 466,-210 64,-29 115,-58 156,-84 40,-25 73,-50 98,-75 45,-46 63,-99 54,-156 -18,-106 -108,-221 -274,-335 -325,-224 -650,-274 -975,-161 -2,-1 -4,-2 -5,-3 184,-162 157,-328 -84,-497 -104,-74 -205,-127 -303,-158 -95,-31 -188,-45 -278,-46 -87,-2 -167,4 -241,24 -73,19 -140,43 -201,72 -138,66 -275,135 -415,200 -85,40 -185,83 -297,127 27,20 56,40 83,59 76,-34 144,-47 206,-33 63,13 135,51 215,107 470,328 941,656 1414,985 81,57 129,103 140,141 11,38 -22,75 -94,112 28,20 57,39 85,59zm-542 -930c10,-5 20,-9 30,-14 327,-145 666,-100 1016,141 250,172 267,311 50,412 -71,34 -134,48 -190,44 -54,-5 -113,-31 -180,-78 -242,-169 -484,-337 -726,-505zm-933 -650c33,-16 68,-32 102,-48 251,-111 532,-60 841,156 260,182 268,330 26,440 -36,17 -72,34 -108,51 -288,-200 -575,-400 -861,-599zm2406 180c-48,-34 -90,-67 -130,-102 -40,-33 -71,-65 -95,-99 -24,-32 -31,-65 -22,-95 8,-30 38,-58 89,-81 65,-28 143,-32 235,-13 95,20 194,56 300,106 50,23 102,46 154,73 51,27 99,54 147,83 94,58 172,110 238,155 91,61 157,122 199,182 45,66 24,121 -64,164 -60,30 -141,31 -242,10 -94,-20 -192,-49 -295,-95 -103,-46 -199,-97 -290,-149 -92,-53 -166,-100 -224,-139zm-57 266c157,110 344,187 558,237 222,52 428,42 610,-44 167,-79 230,-188 197,-319 -33,-127 -134,-251 -306,-368 -245,-167 -476,-263 -692,-290 -215,-27 -391,-7 -529,57 -139,64 -203,158 -200,282 3,127 122,277 362,445zm1292 -843c-48,-33 -91,-66 -131,-100 -38,-33 -70,-65 -94,-98 -24,-32 -32,-64 -23,-95 8,-29 37,-57 89,-80 63,-28 141,-31 232,-12 95,20 193,56 298,105 50,23 101,45 153,72 51,27 99,55 146,83 94,57 171,109 237,154 90,61 157,120 199,180 45,66 25,120 -62,162 -60,29 -140,31 -239,10 -93,-19 -191,-49 -293,-95 -102,-46 -199,-96 -290,-148 -90,-52 -164,-98 -222,-138zm-55 265c157,109 343,185 555,234 222,52 424,43 604,-42 165,-78 226,-186 192,-316 -33,-126 -135,-248 -306,-364 -244,-166 -473,-262 -688,-288 -213,-27 -387,-8 -524,55 -136,63 -199,156 -195,279 5,126 123,275 362,442zm1821 -144c79,-43 160,-84 242,-122 80,-38 165,-76 254,-112 -27,-18 -56,-38 -83,-57 -6,3 -11,5 -17,8 -71,33 -152,19 -242,-43 -127,-87 -255,-175 -383,-262 -1,-30 -2,-60 -3,-89 241,75 482,150 724,225 57,18 100,31 127,45 32,16 66,38 104,66 101,-53 162,-86 188,-98 29,-14 97,-43 207,-88 -28,-18 -56,-38 -84,-57 -27,15 -60,21 -99,20 -38,-2 -105,-16 -200,-44 -329,-99 -656,-199 -984,-299 -3,-74 -6,-148 -7,-222 -2,-95 28,-153 85,-170 -28,-19 -57,-38 -83,-57 -71,40 -142,75 -211,108 -69,32 -144,63 -228,95 28,19 56,38 84,57 34,-16 63,-28 87,-30 24,-3 52,8 83,29 16,11 32,29 46,54 15,28 25,69 30,124 7,86 16,172 25,257 -245,-167 -490,-334 -733,-501 -243,-167 -486,-334 -729,-500 -65,100 -151,187 -258,260 27,19 55,38 82,57 11,-13 28,-25 51,-35 49,-23 111,-7 188,46 272,188 546,374 819,562 273,188 549,375 823,564 90,62 99,111 30,143 -6,3 -12,6 -19,9 29,19 57,38 84,57z"
   id="path823" />

  </g>

 </g>

</svg>
