<?xml version="1.0" encoding="UTF-8" standalone="no"?>
<!DOCTYPE svg PUBLIC "-//W3C//DTD SVG 20010904//EN"
"http://www.w3.org/TR/2001/REC-SVG-20010904/DTD/svg10.dtd">
<!-- Created with Sodipodi ("http://www.sodipodi.com/") -->
<svg
   xml:space="preserve"
   width="30mm"
   height="30mm"
   style="shape-rendering:geometricPrecision; text-rendering:geometricPrecision; image-rendering:optimizeQuality; fill-rule:evenodd"
   viewBox="0 0 30000 30000"
   id="svg619"
   sodipodi:version="0.34-pre"
   sodipodi:docname="/home/david/.themes/eXperience 0.6/icons/help.svg"
   sodipodi:docbase="/home/david/.themes/eXperience 0.6/icons/"
   xmlns="http://www.w3.org/2000/svg"
   xmlns:sodipodi="http://sodipodi.sourceforge.net/DTD/sodipodi-0.dtd"
   xmlns:xml="http://www.w3.org/XML/1998/namespace"
   xmlns:xlink="http://www.w3.org/1999/xlink"><sodipodi:namedview
   id="base" />


 <defs
   id="defs621"><linearGradient
   id="linearGradient781"
   gradientUnits="userSpaceOnUse"
   x1="5722"
   y1="4162"
   x2="33477"
   y2="32065">
   <stop
   offset="0"
   style="stop-color:#c7c7c7;stop-opacity:1.0000;"
   id="stop783" />









   <stop
   offset="1"
   style="stop-color:#fffff3;stop-opacity:1.0000;"
   id="stop785" />


  </linearGradient>


  <linearGradient
   id="id0"
   gradientUnits="userSpaceOnUse"
   x1="5722"
   y1="4162"
   x2="33477"
   y2="32065">
   <stop
   offset="0"
   style="stop-color:#ffffff;stop-opacity:0.7294;"
   id="stop625" />


   <stop
   offset="1"
   style="stop-color:#ffffff;stop-opacity:0;"
   id="stop627" />


  </linearGradient>


  <linearGradient
   id="id1"
   gradientUnits="userSpaceOnUse"
   x1="7240"
   y1="5592"
   x2="22640"
   y2="23892">
   <stop
   offset="0"
   style="stop-color:#FFFFFF"
   id="stop636" />


   <stop
   offset="0.129412"
   style="stop-color:#A5B2F3"
   id="stop638" />


   <stop
   offset="0.490196"
   style="stop-color:#345DE4"
   id="stop640" />


   <stop
   offset="1"
   style="stop-color:#001F66"
   id="stop642" />


  </linearGradient>


  <radialGradient
   id="id2"
   gradientUnits="userSpaceOnUse"
   cx="7441"
   cy="7872"
   r="30000"
   fx="7441"
   fy="7872">
   <stop
   offset="0"
   style="stop-color:#CCCCFF"
   id="stop647" />


   <stop
   offset="0.25098"
   style="stop-color:#8E9EE1"
   id="stop649" />


   <stop
   offset="0.6"
   style="stop-color:#345DE4"
   id="stop651" />


   <stop
   offset="1"
   style="stop-color:#000066"
   id="stop653" />


  </radialGradient>


  <radialGradient
   id="id3"
   gradientUnits="userSpaceOnUse"
   cx="10622"
   cy="7120"
   r="25000"
   fx="10622"
   fy="7120">
   <stop
   offset="0"
   style="stop-color:#ffffff;stop-opacity:1.0000;"
   id="stop658" />


   <stop
   offset="1"
   style="stop-color:#cacaca;stop-opacity:1.0000;"
   id="stop660" />


  </radialGradient>


 <radialGradient
   xlink:href="#id2"
   id="radialGradient722"
   cx="19305.8008"
   cy="24429.6270"
   r="30583.5059"
   fx="19305.8008"
   fy="24429.6270" />


<radialGradient
   xlink:href="#id0"
   id="radialGradient724"
   cx="5444.53516"
   cy="345.079071"
   r="21867.6152"
   fx="5444.53516"
   fy="345.079071" />


<linearGradient
   xlink:href="#id1"
   id="linearGradient778"
   x1="24758.0098"
   y1="26590.5000"
   x2="11105.9570"
   y2="6799.60449" />


<radialGradient
   xlink:href="#id3"
   id="radialGradient711"
   cx="7019.45312"
   cy="4739.29736"
   r="57728.9492"
   fx="7019.45312"
   fy="4739.29736" />


<linearGradient
   xlink:href="#linearGradient781"
   id="linearGradient1917"
   x1="35340.7656"
   y1="15013.1562"
   x2="23129.0234"
   y2="4324.69336"
   gradientUnits="userSpaceOnUse"
   gradientTransform="scale(0.787108,1.270474)" />
</defs>


  <path
   style="font-size:12.000;fill-opacity:0.588235;"
   d="M15000 0c8262,0 15000,6738 15000,15000 0,8262 -6738,15000 -15000,15000 -8262,0 -15000,-6738 -15000,-15000 0,-8262 6738,-15000 15000,-15000z"
   id="path668" />


  <circle
   style="font-size:12.000;fill:url(#radialGradient711);"
   cx="15000"
   cy="15000"
   r="14593"
   id="circle670" />


   <circle
   style="font-size:12.000;fill:url(#linearGradient778);"
   cx="15000"
   cy="15000"
   r="11957"
   id="circle674" />


   <circle
   style="font-size:12.000;fill:url(#radialGradient722);"
   cx="14991"
   cy="14991"
   r="10787"
   id="circle678" />


  <path
   class="fil5"
   d="M13099 18082l3542 0 0 -714c0,-268 65,-552 191,-844 142,-264 394,-540 747,-836 1160,-897 1955,-1704 2393,-2423 418,-697 629,-1493 629,-2385 -16,-1587 -535,-2776 -1558,-3567 -1006,-815 -2252,-1221 -3745,-1221 -1651,0 -2998,446 -4045,1339 -1051,892 -1668,2207 -1854,3940l3627 235c49,-617 276,-1128 682,-1534 377,-401 929,-612 1659,-629 499,0 905,146 1222,443 312,292 470,714 470,1261 -16,528 -308,1055 -876,1591 -564,540 -1307,1233 -2232,2073 -584,540 -868,1274 -852,2199l0 1072zm-377 3599c0,628 219,1148 657,1550 390,438 893,661 1505,677 629,-16 1145,-239 1554,-677 390,-402 593,-922 609,-1550 -16,-650 -219,-1185 -609,-1603 -409,-402 -925,-617 -1554,-641 -612,24 -1115,239 -1505,641 -438,418 -657,953 -657,1603z"
   id="path855"
   style="font-size:12.000;fill:#000000;fill-opacity:0.4916;" />


 <path
   class="fil1"
   d="M 16572.00 16682.00 L 16592.00 16624.00 L 16613.00 16566.00 L 16636.00 16508.00 L 16664.00 16441.00 L 16699.00 16379 L 16732.00 16324 L 16769.00 16269 L 16808.00 16214 L 16849.00 16158 L 16893.00 16103 L 16939.00 16048 L 16987.00 15993 L 17038.00 15938 L 17091.00 15882 L 17146.00 15827 L 17204.00 15771 L 17264.00 15715 L 17327.00 15658 L 17391.00 15602 L 17460.00 15543 L 17571.00 15457 L 17676.00 15374 L 17778.00 15292 L 17878.00 15211 L 17976.00 15130 L 18072.00 15050 L 18166.00 14970 L 18258.00 14891 L 18347.00 14812 L 18435.00 14734 L 18520.00 14657 L 18603.00 14580 L 18684.00 14504 L 18762.00 14428 L 18839.00 14353 L 18913.00 14278 L 18986.00 14204 L 19056.00 14131 L 19124.00 14058 L 19190.00 13986 L 19253.00 13914 L 19315.00 13843 L 19374.00 13773 L 19431.00 13703 L 19487.00 13634 L 19539.00 13566 L 19590.00 13498 L 19639.00 13431 L 19686.00 13364 L 19730.00 13298 L 19773.00 13233 L 19812.00 13169 L 19849.00 13106 L 19885.00 13043 L 19919.00 12979 L 19953.00 12915 L 19985.00 12850 L 20016.00 12784 L 20046.00 12718 L 20075.00 12651 L 20102.00 12584 L 20129.00 12516 L 20154.00 12448 L 20178.00 12379 L 20201.00 12310 L 20223.00 12240 L 20243.00 12169 L 20263.00 12098 L 20281.00 12026 L 20298.00 11954 L 20314.00 11881 L 20329.00 11808 L 20343.00 11733 L 20355.00 11659 L 20366.00 11584 L 20376.00 11508 L 20385.00 11431 L 20393.00 11354 L 20399.00 11277 L 20405.00 11199 L 20409.00 11120 L 20412.00 11040 L 20414.00 10960 L 20414.00 10881 L 20412.00 10738 L 20406.00 10597 L 20397.00 10458 L 20386.00 10321 L 20371.00 10187 L 20354.00 10056 L 20334.00 9926.999 L 20311.00 9799.999 L 20286.00 9675.999 L 20257.00 9553.999 L 20226.00 9433.999 L 20192.00 9316.999 L 20155.00 9202.999 L 20116.00 9090.999 L 20073.00 8980.999 L 20028.00 8872.999 L 19981.00 8767.999 L 19930.00 8664.999 L 19877.00 8564.999 L 19820.00 8465.999 L 19762.00 8369.999 L 19700.00 8276.999 L 19636.00 8184.999 L 19568.00 8095.999 L 19498.00 8008.999 L 19426.00 7923.999 L 19350.00 7841.999 L 19271.00 7760.999 L 19190.00 7682.999 L 19106.00 7606.999 L 19019.00 7532.999 L 18927.00 7459.999 L 18834.00 7385.999 L 18741.00 7315.999 L 18646.00 7247.999 L 18551.00 7181.999 L 18454.00 7118.999 L 18355.00 7057.999 L 18256.00 6998.999 L 18154.00 6942.999 L 18052.00 6888.999 L 17948.00 6836.999 L 17843.00 6787.999 L 17736.00 6739.999 L 17628.00 6695.999 L 17519.00 6652.999 L 17408.00 6612.999 L 17295.00 6574.999 L 17182.00 6538.999 L 17066.00 6505.999 L 16950.00 6473.999 L 16832.00 6444.999 L 16712.00 6418.999 L 16591.00 6394.999 L 16468.00 6372.999 L 16345 6352.999 L 16219 6335.999 L 16092 6320.999 L 15963 6307.999 L 15833 6297.999 L 15702 6288.999 L 15569 6283.999 L 15434 6279.999 L 15298 6278.999 L 15148 6279.999 L 14999 6283.999 L 14852 6290.999 L 14707 6298.999 L 14563 6310.999 L 14422 6324.999 L 14282 6341.999 L 14144 6360.999 L 14008 6381.999 L 13874 6405.999 L 13742 6432.999 L 13612 6461.999 L 13483 6493.999 L 13356 6527.999 L 13231 6564.999 L 13108 6603.999 L 12986 6645.999 L 12867 6689.999 L 12749 6736.999 L 12633 6785.999 L 12518 6837.999 L 12406 6891.999 L 12295 6948.999 L 12186 7007.999 L 12079 7069.999 L 11973 7133.999 L 11869 7200.999 L 11767 7270.999 L 11666 7342.999 L 11567 7416.999 L 11470 7493.999 L 11374 7572.999 L 11281 7654.999 L 11190 7738.999 L 11101 7824.999 L 11015 7913.999 L 10932 8004.999 L 10851 8097.999 L 10772 8193.999 L 10695 8291.999 L 10622 8392.999 L 10550 8495.999 L 10481 8600.999 L 10414 8708.999 L 10350 8819.999 L 10288 8931.999 L 10228 9047.999 L 10171 9164.999 L 10116 9285.999 L 10064 9407.999 L 10014 9533.999 L 9966 9660.999 L 9921 9791.999 L 9879 9923.999 L 9838 10060 L 9800 10197 L 9765 10338 L 9732 10481 L 9701 10626 L 9673 10774 L 9647 10924 L 9624 11077 L 9608 11197 L 12860 11408 L 12868 11350 L 12878 11292 L 12889 11233 L 12901 11176 L 12914 11119 L 12929 11062 L 12945 11006 L 12961 10951 L 12979 10897 L 12998 10843 L 13018 10789 L 13040 10736 L 13062 10684 L 13086 10633 L 13111 10582 L 13137 10532 L 13163 10482 L 13192 10433 L 13221 10385 L 13251 10337 L 13283 10290 L 13316 10244 L 13350 10198 L 13385 10154 L 13421 10109 L 13458 10066 L 13496 10023 L 13535 9980.999 L 13574 9941.999 L 13611 9902.999 L 13652 9862.999 L 13694 9824.999 L 13737 9786.999 L 13781 9750.999 L 13827 9715.999 L 13873 9682.999 L 13921 9650.999 L 13969 9619.999 L 14019 9589.999 L 14070 9561.999 L 14122 9533.999 L 14174 9507.999 L 14228 9483.999 L 14283 9460.999 L 14339 9437.999 L 14396 9417.999 L 14453 9397.999 L 14512 9379.999 L 14572 9362.999 L 14633 9346.999 L 14694 9332.999 L 14757 9319.999 L 14820 9307.999 L 14885 9296.999 L 14950 9287.999 L 15017 9279.999 L 15084 9271.999 L 15153 9266.999 L 15222 9261.999 L 15292 9258.999 L 15366 9255.999 L 15467 9257.999 L 15565 9263.999 L 15660 9272.999 L 15754 9285.999 L 15846 9302.999 L 15936 9323.999 L 16024 9348.999 L 16110 9376.999 L 16194 9409.999 L 16276 9446.999 L 16355 9487.999 L 16432.00 9531.999 L 16507.00 9580.999 L 16579.00 9632.999 L 16649.00 9688.999 L 16717.00 9748.999 L 16781.00 9812.999 L 16842.00 9880.999 L 16898.00 9951.999 L 16950.00 10026 L 16998.00 10104 L 17042.00 10185 L 17081.00 10269 L 17116.00 10355 L 17147.00 10445 L 17174.00 10537 L 17196.00 10633 L 17214.00 10730 L 17228.00 10831 L 17238.00 10934 L 17244.00 11039 L 17246.00 11150 L 17244.00 11209 L 17239.00 11264 L 17233.00 11320 L 17225.00 11375 L 17215.00 11431 L 17203.00 11486 L 17190.00 11541 L 17175.00 11596 L 17158.00 11650 L 17139.00 11705 L 17119.00 11760 L 17097.00 11814 L 17073.00 11868 L 17048.00 11923 L 17021.00 11977 L 16992.00 12030 L 16961.00 12084 L 16929.00 12137 L 16896.00 12191 L 16860.00 12244 L 16823.00 12297 L 16785.00 12350 L 16744.00 12403 L 16703.00 12455 L 16659.00 12508 L 16614.00 12560 L 16568.00 12613 L 16519.00 12665 L 16470.00 12718 L 16419.00 12770 L 16366 12822 L 16312 12873 L 16259 12924 L 16204 12976 L 16148 13029 L 16092 13083 L 16034 13138 L 15975 13194 L 15915 13250 L 15855 13308 L 15793 13366 L 15730 13425 L 15666 13485 L 15601 13546 L 15535 13608 L 15467 13671 L 15399 13735 L 15330 13799 L 15260 13864 L 15188 13931 L 15116 13998 L 15042 14066 L 14968 14135 L 14892 14205 L 14815 14275 L 14737 14347 L 14659 14419 L 14579 14492 L 14498 14567 L 14416 14641 L 14333 14717 L 14248 14794 L 14163 14872 L 14079 14948 L 14028 14996 L 13980 15045 L 13933 15095 L 13888 15145 L 13844 15197 L 13802 15250 L 13762 15303 L 13724 15358 L 13687 15414 L 13652 15471 L 13618 15529 L 13586 15587 L 13556 15647 L 13527 15708 L 13500 15771 L 13474 15834 L 13451 15898 L 13428 15964 L 13407 16031 L 13388 16099 L 13371 16168 L 13355 16238 L 13341 16310 L 13328 16382 L 13317 16456.00 L 13308 16531.00 L 13300 16608.00 L 13294 16685.00 L 13289 16764.00 L 13287 16844.00 L 13286 16925.00 L 13286 17010.00 L 13286 17895.00 L 16454.00 17895.00 L 16454.00 17366.00 L 16455.00 17311.00 L 16458.00 17255.00 L 16462.00 17199.00 L 16468.00 17142.00 L 16475.00 17085.00 L 16484.00 17028.00 L 16495.00 16971.00 L 16507.00 16913.00 L 16521.00 16856.00 L 16536.00 16798.00 L 16553.00 16740.00 L 16572.00 16682.00 z M 12909 21681.00 L 12909 21735.00 L 12911 21789.00 L 12914 21842.00 L 12918 21894.00 L 12924 21946.00 L 12930 21997.00 L 12938 22047.00 L 12947 22096.00 L 12957 22145.00 L 12968 22193.00 L 12980 22241.00 L 12993 22288.00 L 13008 22333.00 L 13024 22379.00 L 13040 22424.00 L 13058 22468.00 L 13077 22511.00 L 13098 22554.00 L 13119 22596.00 L 13142 22638.00 L 13166 22679.00 L 13191 22719.00 L 13217 22759.00 L 13244 22799.00 L 13272 22837.00 L 13302 22875.00 L 13333 22913.00 L 13365 22950.00 L 13398 22986.00 L 13433 23023.00 L 13469 23058.00 L 13512 23099.00 L 13553 23143.00 L 13587 23179.00 L 13622 23214.00 L 13657 23247.00 L 13693 23279.00 L 13730 23310.00 L 13767 23340.00 L 13804 23369.00 L 13842 23396.00 L 13881 23423.00 L 13920 23448.00 L 13960 23472.00 L 14000 23495.00 L 14041 23517.00 L 14083 23537.00 L 14125 23557.00 L 14167 23575.00 L 14211 23593.00 L 14255 23609.00 L 14300 23624.00 L 14345 23638.00 L 14391 23651.00 L 14438 23663.00 L 14485 23674.00 L 14533 23684.00 L 14582 23693.00 L 14631 23700.00 L 14682 23707.00 L 14732 23712.00 L 14784 23716.00 L 14837 23719.00 L 14885 23721.00 L 14934 23719.00 L 14988 23716.00 L 15042 23712.00 L 15094 23706.00 L 15146 23700.00 L 15197 23692.00 L 15247 23684.00 L 15296 23674.00 L 15345 23663.00 L 15394 23651.00 L 15441 23638.00 L 15488 23624.00 L 15534 23608.00 L 15580 23592.00 L 15625 23575.00 L 15669 23556.00 L 15713 23536.00 L 15756 23515.00 L 15798 23494.00 L 15840 23470.00 L 15882 23446.00 L 15922 23421.00 L 15963 23394.00 L 16002 23367.00 L 16042 23338.00 L 16080 23308.00 L 16119 23277.00 L 16156 23244.00 L 16193 23211.00 L 16230 23176.00 L 16266 23140.00 L 16303 23102.00 L 16337 23066.00 L 16369 23030.00 L 16400.00 22994.00 L 16429.00 22958.00 L 16458.00 22921.00 L 16486.00 22883.00 L 16513.00 22845.00 L 16538.00 22806.00 L 16563.00 22766.00 L 16587.00 22726.00 L 16610.00 22686.00 L 16631.00 22644.00 L 16652.00 22602.00 L 16672.00 22560.00 L 16691.00 22516.00 L 16709.00 22472.00 L 16726.00 22428.00 L 16741.00 22382.00 L 16756.00 22336.00 L 16770.00 22290.00 L 16783.00 22242.00 L 16795.00 22195.00 L 16806.00 22146.00 L 16816.00 22096.00 L 16825.00 22046.00 L 16833.00 21995.00 L 16840.00 21944.00 L 16846.00 21892.00 L 16851.00 21839.00 L 16855.00 21785.00 L 16858.00 21731.00 L 16860.00 21680.00 L 16858.00 21628.00 L 16855.00 21572.00 L 16851.00 21516.00 L 16846.00 21461.00 L 16840.00 21407.00 L 16833.00 21354.00 L 16825.00 21301.00 L 16816.00 21249.00 L 16806.00 21198.00 L 16795.00 21147.00 L 16783.00 21097.00 L 16770.00 21048.00 L 16756.00 21000.00 L 16741.00 20952.00 L 16725.00 20905.00 L 16708.00 20859.00 L 16690.00 20813.00 L 16671.00 20768.00 L 16651.00 20724.00 L 16630.00 20680.00 L 16608.00 20637.00 L 16586.00 20595.00 L 16562.00 20553.00 L 16537.00 20512.00 L 16511.00 20471.00 L 16484.00 20432.00 L 16456.00 20392.00 L 16427.00 20354.00 L 16397.00 20316.00 L 16367 20279.00 L 16335 20242.00 L 16304 20209.00 L 16272 20177.00 L 16236 20144.00 L 16199 20112.00 L 16162 20081.00 L 16124 20051.00 L 16086 20022.00 L 16047 19994.00 L 16008 19967.00 L 15968 19942.00 L 15927 19917.00 L 15886 19893.00 L 15844 19870.00 L 15802 19848.00 L 15759 19827.00 L 15716 19808.00 L 15672 19789.00 L 15628 19771.00 L 15582 19754.00 L 15536 19738.00 L 15490 19723.00 L 15443 19710.00 L 15394 19697.00 L 15346 19685.00 L 15297 19674.00 L 15247 19664.00 L 15196 19655.00 L 15145 19647.00 L 15093 19641.00 L 15040 19635.00 L 14987 19630.00 L 14932 19626.00 L 14885 19624.00 L 14839 19626.00 L 14786 19630.00 L 14734 19635.00 L 14683 19641.00 L 14632 19647.00 L 14582 19655.00 L 14533 19664.00 L 14485 19674.00 L 14437 19684.00 L 14390 19696.00 L 14343 19709.00 L 14298 19723.00 L 14253 19738.00 L 14208 19753.00 L 14164 19770.00 L 14121 19788.00 L 14079 19807.00 L 14037 19826.00 L 13996 19847.00 L 13955 19869.00 L 13915 19892.00 L 13876 19915.00 L 13837 19940.00 L 13799 19966.00 L 13761 19992.00 L 13724 20020.00 L 13688 20049.00 L 13652 20079.00 L 13616 20109.00 L 13581 20141.00 L 13547 20174.00 L 13511 20211.00 L 13471 20250.00 L 13435 20286.00 L 13401 20324.00 L 13367 20362.00 L 13335 20400.00 L 13304 20439.00 L 13274 20479.00 L 13246 20519.00 L 13218 20560.00 L 13192 20602.00 L 13167 20644.00 L 13143 20687.00 L 13120 20730.00 L 13099 20774.00 L 13078 20818.00 L 13059 20863.00 L 13041 20909.00 L 13024 20956.00 L 13009 21003.00 L 12994 21051.00 L 12980 21099.00 L 12968 21148.00 L 12957 21198.00 L 12947 21249.00 L 12938 21300.00 L 12930 21352.00 L 12924 21405.00 L 12918 21459.00 L 12914 21513.00 L 12911 21568.00 L 12909 21624.00 L 12909 21681.00 z "
   id="path857"
   style="font-size:12.000;fill:url(#linearGradient1917);" />


<path
   style="font-size:12.000;fill:url(#radialGradient724);"
   d="M 15095.23 3328.708 C 18985.23 3328.708 22451.23 5201.709 24636.23 8093.709 C 22448.23 5708.709 21280.79 16439.58 12635.13 12643.88 C 7717.733 10430.83 4774.237 21354.69 6289.237 23358.69 C 4334.237 21228.69 3138.237 18392.69 3138.237 15285.69 C 3138.237 8699.709 8509.237 3328.708 15095.23 3328.708 z "
   id="path676"
   sodipodi:nodetypes="ccsccc" />


<path
   style="font-size:12.000;fill:#00008f;fill-rule:evenodd;stroke-width:1;fill-opacity:1.0000;"
   d="M 26572.55 14958.09 C 26572.55 21372.59 21372.59 26572.56 14958.09 26572.56 C 8543.583 26572.56 3343.605 21372.59 3343.605 14958.09 C 3343.605 8543.584 8543.583 3343.603 14958.09 3343.603 C 21372.59 3343.603 26572.55 8543.584 26572.55 14958.09 z M 27048.56 14958.09 C 27048.56 21635.47 21635.46 27048.56 14958.09 27048.56 C 8280.692 27048.56 2867.602 21635.47 2867.602 14958.09 C 2867.602 8280.693 8280.692 2867.600 14958.09 2867.600 C 21635.46 2867.600 27048.56 8280.693 27048.56 14958.09 z "
   id="path847" />


</svg>
