<?xml version="1.0" encoding="UTF-8" standalone="no"?>
<!DOCTYPE svg PUBLIC "-//W3C//DTD SVG 20010904//EN"
"http://www.w3.org/TR/2001/REC-SVG-20010904/DTD/svg10.dtd">
<!-- Created with Sodipodi ("http://www.sodipodi.com/") -->
<svg
   version="1.0"
   x="0"
   y="0"
   width="106.299210"
   height="106.299210"
   viewBox="0 0 30000 30000"
   id="svg548"
   xml:space="preserve"
   xmlns="http://www.w3.org/2000/svg"
   xmlns:xml="http://www.w3.org/XML/1998/namespace"
   xmlns:xlink="http://www.w3.org/1999/xlink"
   xmlns:sodipodi="http://sodipodi.sourceforge.net/DTD/sodipodi-0.dtd"
   sodipodi:version="0.34-pre"
   sodipodi:docname="/home/david/.themes/eXperience 0.6/icons/cd_forward.svg"
   sodipodi:docbase="/home/david/.themes/eXperience 0.6/icons/"><sodipodi:namedview
   id="base" />

  <text
   style="font-size:12.000;"
   id="text598"
   x="11619.0498"
   y="-1.17077492e-3" />

  <text
   style="font-size:12.000;"
   id="text600"
   x="11619.0498"
   y="-1.17077492e-3" />

  <defs
   id="defs549">
    <text
   id="text602" />

    <linearGradient
   x1="19681"
   y1="21628"
   x2="-2598.00000"
   y2="26610"
   id="linearGradient581"
   gradientUnits="userSpaceOnUse">
      <text
   id="text604" />

      <stop
   style="stop-color:#178500;stop-opacity:1.0000;"
   offset="0"
   id="stop582" />

      <text
   id="text606" />

      <stop
   style="stop-color:#004200;stop-opacity:1.0000;"
   offset="1"
   id="stop583" />

      <text
   id="text608" />

    </linearGradient>

    <text
   id="text609" />

    <linearGradient
   x1="19681"
   y1="21628"
   x2="-2598.00000"
   y2="26610"
   id="linearGradient577"
   gradientUnits="userSpaceOnUse">
      <text
   id="text611" />

      <stop
   style="stop-color:#ffffff;stop-opacity:1.0000;"
   offset="0"
   id="stop578" />

      <text
   id="text613" />

      <stop
   style="stop-color:#ffffff;stop-opacity:0;"
   offset="1"
   id="stop579" />

      <text
   id="text615" />

    </linearGradient>

    <text
   id="text616" />

    <linearGradient
   x1="19681"
   y1="21628"
   x2="-2598.00000"
   y2="26610"
   id="linearGradient574"
   gradientUnits="userSpaceOnUse">
      <text
   id="text618" />

      <stop
   style="stop-color:#ffffff;stop-opacity:0.7725;"
   offset="0"
   id="stop575" />

      <text
   id="text620" />

      <stop
   style="stop-color:#ffffff;stop-opacity:0;"
   offset="1"
   id="stop576" />

      <text
   id="text622" />

    </linearGradient>

    <text
   id="text623" />

    <linearGradient
   x1="19681"
   y1="21628"
   x2="-2598.00000"
   y2="26610"
   id="linearGradient570"
   gradientUnits="userSpaceOnUse">
      <text
   id="text625" />

      <stop
   style="stop-color:#ffffff;stop-opacity:0.6667;"
   offset="0"
   id="stop571" />

      <text
   id="text627" />

      <stop
   style="stop-color:#caff7a;stop-opacity:0.5294;"
   offset="1"
   id="stop572" />

      <text
   id="text629" />

    </linearGradient>

    <text
   id="text630" />

    <linearGradient
   x1="19681"
   y1="21628"
   x2="-2598.00000"
   y2="26610"
   id="linearGradient565"
   gradientUnits="userSpaceOnUse">
      <text
   id="text632" />

      <stop
   style="stop-color:#c7ff3d;stop-opacity:1.0000;"
   offset="0"
   id="stop566" />

      <text
   id="text634" />

      <stop
   style="stop-color:#1fa300;stop-opacity:1.0000;"
   offset="1"
   id="stop567" />

      <text
   id="text636" />

    </linearGradient>

    <text
   id="text637" />

    <style
   type="text/css"
   id="style550" />

    <text
   id="text639" />

    <linearGradient
   x1="19681"
   y1="21628"
   x2="-2598.00000"
   y2="26610"
   id="id0"
   gradientUnits="userSpaceOnUse">
      <text
   id="text641" />

      <stop
   style="stop-color:#3a9a12;stop-opacity:1.0000;"
   offset="0"
   id="stop552" />

      <text
   id="text643" />

      <stop
   style="stop-color:#eef813;stop-opacity:1.0000;"
   offset="1"
   id="stop553" />

      <text
   id="text645" />

    </linearGradient>

    <text
   id="text646" />

    <linearGradient
   x1="29562"
   y1="14690"
   x2="35556.0000"
   y2="25390"
   id="id1"
   gradientUnits="userSpaceOnUse">
      <text
   id="text648" />

      <stop
   style="stop-color:#3a9a12;stop-opacity:1.0000;"
   offset="0"
   id="stop555" />

      <text
   id="text650" />

      <stop
   style="stop-color:#004b00;stop-opacity:1.0000;"
   offset="1"
   id="stop556" />

      <text
   id="text652" />

    </linearGradient>

    <text
   id="text653" />

    <linearGradient
   x1="12555.7783"
   y1="2902.19775"
   x2="20791.7773"
   y2="16492.4297"
   id="linearGradient564"
   xlink:href="#linearGradient577"
   gradientTransform="scale(1.227479,0.814678)"
   gradientUnits="userSpaceOnUse" />

    <text
   id="text655" />

    <radialGradient
   cx="43107.7500"
   cy="16930.5293"
   r="15655.8896"
   fx="43107.7500"
   fy="16930.5293"
   id="radialGradient568"
   xlink:href="#linearGradient565"
   gradientTransform="scale(0.637974,1.567462)"
   gradientUnits="userSpaceOnUse" />

    <text
   id="text657" />

    <radialGradient
   cx="10315.5020"
   cy="5574.58691"
   r="23346.0449"
   fx="10315.5020"
   fy="5574.58691"
   id="radialGradient569"
   xlink:href="#linearGradient574"
   gradientTransform="scale(1.550208,0.645075)"
   gradientUnits="userSpaceOnUse" />

    <text
   id="text659" />

    <linearGradient
   x1="0.37061301"
   y1="7.64760002e-2"
   x2="0.44188300"
   y2="0.31227800"
   id="linearGradient573"
   xlink:href="#linearGradient570"
   gradientTransform="scale(0.815747,1.225870)" />

    <text
   id="text661" />

    <linearGradient
   x1="0.95228702"
   y1="0.84119701"
   x2="0.70219100"
   y2="0.61639398"
   id="linearGradient580"
   xlink:href="#linearGradient581"
   gradientTransform="scale(0.928217,1.077334)" />

    <text
   id="text663" />

  <radialGradient
   xlink:href="#linearGradient565"
   id="radialGradient876"
   cx="21312.5664"
   cy="17432.3066"
   r="16311.6660"
   fx="21312.5664"
   fy="17432.3066"
   gradientUnits="userSpaceOnUse"
   gradientTransform="scale(0.637974,1.567462)" />
<linearGradient
   xlink:href="#linearGradient577"
   id="linearGradient877"
   x1="587.300415"
   y1="3872.92798"
   x2="8457.25488"
   y2="15799.0518"
   gradientUnits="userSpaceOnUse"
   gradientTransform="scale(1.227479,0.814678)" />
</defs>

  <text
   style="font-size:12.000;"
   id="text664"
   x="11619.0498"
   y="-1.17077492e-3" />

  <path
   d="M 28743.99 95.23267 L 28642.93 30039.40 L 13973.53 15067.30 L 28743.99 95.23267 z "
   style="font-size:12.000;fill:url(#linearGradient580);"
   id="path559"
   sodipodi:nodetypes="cccc" />

  <text
   style="font-size:12.000;"
   id="text666"
   x="11619.0498"
   y="-1.17077492e-3" />

  <path
   d="M 15434.97 15066.30 L 27700.39 2453.855 L 27700.39 27717.74 L 15434.97 15066.30 z "
   style="font-size:12.000;fill:url(#radialGradient568);"
   id="path561"
   sodipodi:nodetypes="cccc" />

  <text
   style="font-size:12.000;"
   id="text668"
   x="11619.0498"
   y="-1.17077492e-3" />

  <path
   d="M 15375.33 15096.20 L 21473.31 21315.20 C 20395.15 18476.90 17201.71 16060 17357.10 14963.60 C 17559.72 13599 27540.43 5455.661 27871.63 3637.132 L 27943.30 2349.635 L 15375.33 15096.20 z "
   style="font-size:12.000;fill:url(#linearGradient573);"
   id="path562" />

  <text
   style="font-size:12.000;"
   id="text670"
   x="11619.0498"
   y="-1.17077492e-3" />

  <path
   d="M 27712.37 8312.062 L 27949.86 2434.385 L 15531.22 15045.90 C 18716.65 17296.23 22004.94 18239.64 24582.96 16106.42 C 27701.41 13729.04 26732.72 11195.90 27712.37 8312.062 z "
   style="font-size:12.000;fill:url(#radialGradient569);"
   id="path560"
   sodipodi:nodetypes="cccsc" />

  <text
   style="font-size:12.000;"
   id="text672"
   x="11619.0498"
   y="-1.17077492e-3" />

  <path
   d="M 27632.81 10518.40 L 27689.88 2364.356 L 15299.63 15091.70 C 20008.87 18770.60 19363.02 15796.80 21663.21 13504.80 C 23409.21 11568 25937.41 11051.70 27632.81 10518.40 z "
   style="font-size:12.000;fill:url(#linearGradient564);"
   id="path602"
   sodipodi:nodetypes="ccccc" />

  <text
   style="font-size:12.000;"
   id="text674"
   x="11619.0498"
   y="-1.17077492e-3" />

  <path
   d="M 26678.10 24960.60 C 27691.10 24003.50 26409.92 13858.78 27785.22 12920.77 L 27692.95 27698.23 L 23868.28 23820.01 C 25711.64 23984.71 25890.40 25755.40 26678.10 24960.60 z "
   style="font-size:12.000;fill:#00a700;fill-opacity:0.5512;"
   id="path563"
   sodipodi:nodetypes="ccccc" />

  <text
   style="font-size:12.000;"
   id="text676"
   x="11619.0498"
   y="-1.17077492e-3" />


  <text
   style="font-size:12.000;"
   id="text845"
   x="-2285.71289"
   y="-2.34154984e-3" />

  <text
   style="font-size:12.000;"
   id="text847"
   x="-2285.71289"
   y="-2.34154984e-3" />

  
  <text
   style="font-size:12.000;"
   id="text850"
   x="-2285.71289"
   y="-2.34154984e-3" />

  <path
   d="M 14934.47 95.22998 L 14790.16 12343.17 L 12550.61 14972.08 L 14787.25 17505.73 L 14738.17 30039.40 L 68.76730 15067.30 L 14934.47 95.22998 z "
   style="font-size:12.000;fill:url(#linearGradient580);"
   id="path852"
   sodipodi:nodetypes="ccccccc" />

  <text
   style="font-size:12.000;"
   id="text854"
   x="-2285.71289"
   y="-2.34154984e-3" />

  <path
   d="M 1530.207 15066.30 L 13986.11 2549.094 L 13843.25 11698.39 L 11033.73 14942.95 L 13748.01 17901.77 L 13795.63 27717.74 L 1530.207 15066.30 z "
   style="font-size:12.000;fill:url(#radialGradient876);"
   id="path856"
   sodipodi:nodetypes="ccccccc" />

  <text
   style="font-size:12.000;"
   id="text858"
   x="-2285.71289"
   y="-2.34154984e-3" />

  <path
   d="M 1470.567 15096.20 L 7568.547 21315.20 C 6490.387 18476.90 3296.947 16060 3452.337 14963.60 C 3654.957 13599 13635.67 5455.660 13966.87 3637.131 L 14038.54 2349.634 L 1470.567 15096.20 z "
   style="font-size:12.000;fill:url(#linearGradient573);"
   id="path860" />

  <text
   style="font-size:12.000;"
   id="text862"
   x="-2285.71289"
   y="-2.34154984e-3" />

  <path
   d="M 13902.85 8216.823 L 14045.10 2434.383 L 1626.457 15045.90 C 4811.887 17296.23 8692.279 18339.01 9630.580 15154.04 C 11122.50 9994.610 12923.20 11100.66 13902.85 8216.823 z "
   style="font-size:12.000;fill:url(#radialGradient569);"
   id="path864"
   sodipodi:nodetypes="cccsc" />

  <text
   style="font-size:12.000;"
   id="text866"
   x="-2285.71289"
   y="-2.34154984e-3" />

  <path
   d="M 13728.05 10518.40 L 13975.60 2364.356 L 1394.867 15091.70 C 6104.107 18770.60 5458.257 15796.80 7758.447 13504.80 C 9504.447 11568 12032.65 11051.70 13728.05 10518.40 z "
   style="font-size:12.000;fill:url(#linearGradient877);"
   id="path868"
   sodipodi:nodetypes="ccccc" />

  <text
   style="font-size:12.000;"
   id="text870"
   x="-2285.71289"
   y="-2.34154984e-3" />

  <path
   d="M 12773.34 24960.60 C 13786.34 24003.50 12409.92 19001.64 13785.22 18063.63 L 13788.19 27698.23 L 9963.518 23820.01 C 11806.88 23984.71 11985.64 25755.40 12773.34 24960.60 z "
   style="font-size:12.000;fill:#00a700;fill-opacity:0.5118;"
   id="path872"
   sodipodi:nodetypes="ccccc" />

  <text
   style="font-size:12.000;"
   id="text874"
   x="-2285.71289"
   y="-2.34154984e-3" />

</svg>
