<?xml version="1.0" encoding="UTF-8" standalone="no"?>
<!DOCTYPE svg PUBLIC "-//W3C//DTD SVG 20010904//EN"
"http://www.w3.org/TR/2001/REC-SVG-20010904/DTD/svg10.dtd">
<!-- Created with Sodipodi ("http://www.sodipodi.com/") -->
<svg
   xml:space="preserve"
   width="30mm"
   height="30mm"
   style="shape-rendering:geometricPrecision; text-rendering:geometricPrecision; image-rendering:optimizeQuality; fill-rule:evenodd"
   viewBox="0 0 30000 30000"
   id="svg619"
   sodipodi:version="0.34-pre"
   sodipodi:docname="/home/david/.themes/eXperience 0.6/icons/question.svg"
   sodipodi:docbase="/home/david/.themes/eXperience 0.6/icons"
   xmlns="http://www.w3.org/2000/svg"
   xmlns:sodipodi="http://sodipodi.sourceforge.net/DTD/sodipodi-0.dtd"
   xmlns:xml="http://www.w3.org/XML/1998/namespace"
   xmlns:xlink="http://www.w3.org/1999/xlink"><sodipodi:namedview
   id="base" />



 <defs
   id="defs621"><linearGradient
   id="linearGradient781"
   gradientUnits="userSpaceOnUse"
   x1="5722"
   y1="4162"
   x2="33477"
   y2="32065">
   <stop
   offset="0"
   style="stop-color:#c7c7c7;stop-opacity:1.0000;"
   id="stop783" />










   <stop
   offset="1"
   style="stop-color:#fffff3;stop-opacity:1.0000;"
   id="stop785" />



  </linearGradient>



  <linearGradient
   id="id0"
   gradientUnits="userSpaceOnUse"
   x1="5722"
   y1="4162"
   x2="33477"
   y2="32065">
   <stop
   offset="0"
   style="stop-color:#ffffff;stop-opacity:0.7294;"
   id="stop625" />



   <stop
   offset="1"
   style="stop-color:#ffffff;stop-opacity:0;"
   id="stop627" />



  </linearGradient>



  <linearGradient
   id="id1"
   gradientUnits="userSpaceOnUse"
   x1="7240"
   y1="5592"
   x2="22640"
   y2="23892">
   <stop
   offset="0"
   style="stop-color:#FFFFFF"
   id="stop636" />



   <stop
   offset="0.129412"
   style="stop-color:#A5B2F3"
   id="stop638" />



   <stop
   offset="0.490196"
   style="stop-color:#345DE4"
   id="stop640" />



   <stop
   offset="1"
   style="stop-color:#001F66"
   id="stop642" />



  </linearGradient>



  <radialGradient
   id="id2"
   gradientUnits="userSpaceOnUse"
   cx="7441"
   cy="7872"
   r="30000"
   fx="7441"
   fy="7872">
   <stop
   offset="0"
   style="stop-color:#CCCCFF"
   id="stop647" />



   <stop
   offset="0.25098"
   style="stop-color:#8E9EE1"
   id="stop649" />



   <stop
   offset="0.6"
   style="stop-color:#345DE4"
   id="stop651" />



   <stop
   offset="1"
   style="stop-color:#000066"
   id="stop653" />



  </radialGradient>



  <radialGradient
   id="id3"
   gradientUnits="userSpaceOnUse"
   cx="10622"
   cy="7120"
   r="25000"
   fx="10622"
   fy="7120">
   <stop
   offset="0"
   style="stop-color:#ffffff;stop-opacity:1.0000;"
   id="stop658" />



   <stop
   offset="1"
   style="stop-color:#cacaca;stop-opacity:1.0000;"
   id="stop660" />



  </radialGradient>



 <radialGradient
   xlink:href="#id2"
   id="radialGradient722"
   cx="19305.8008"
   cy="24429.6270"
   r="30583.5059"
   fx="19305.8008"
   fy="24429.6270" />



<radialGradient
   xlink:href="#id0"
   id="radialGradient724"
   cx="5444.53516"
   cy="345.079071"
   r="21867.6152"
   fx="5444.53516"
   fy="345.079071" />



<linearGradient
   xlink:href="#id1"
   id="linearGradient778"
   x1="24758.0098"
   y1="26590.5000"
   x2="11105.9570"
   y2="6799.60449" />



<radialGradient
   xlink:href="#id3"
   id="radialGradient711"
   cx="7019.45312"
   cy="4739.29736"
   r="57728.9492"
   fx="7019.45312"
   fy="4739.29736" />



<linearGradient
   xlink:href="#linearGradient781"
   id="linearGradient1917"
   x1="35340.7656"
   y1="15013.1562"
   x2="23129.0234"
   y2="4324.69336"
   gradientUnits="userSpaceOnUse"
   gradientTransform="scale(0.787108,1.270474)" />

</defs>



  


  


   <circle
   style="font-size:12.000;fill:url(#linearGradient778);"
   cx="15000"
   cy="15000"
   r="11957"
   id="circle674"
   transform="matrix(1.220559,0,0,1.220559,-3299.141,-3299.143)" />



   <circle
   style="font-size:12.000;fill:url(#radialGradient722);"
   cx="14991"
   cy="14991"
   r="10787"
   id="circle678"
   transform="matrix(1.220559,0,0,1.220559,-3299.141,-3299.143)" />



  <path
   class="fil5"
   d="M 12688.96 18771.01 L 17012.18 18771.01 L 17012.18 17899.53 C 17012.18 17572.42 17091.52 17225.78 17245.31 16869.38 C 17418.63 16547.15 17726.21 16210.27 18157.07 15848.99 C 19572.92 14754.15 20543.26 13769.16 21077.87 12891.57 C 21588.06 12040.84 21845.60 11069.28 21845.60 9980.540 C 21826.07 8043.513 21192.60 6592.268 19943.97 5626.806 C 18716.08 4632.050 17195.27 4136.503 15372.97 4136.503 C 13357.83 4136.503 11713.74 4680.872 10435.81 5770.832 C 9153.003 6859.570 8399.918 8464.605 8172.894 10579.83 L 12599.86 10866.67 C 12659.67 10113.58 12936.74 9489.875 13432.28 8994.328 C 13892.43 8504.884 14566.18 8247.346 15457.19 8226.596 C 16066.25 8226.596 16561.80 8404.798 16948.71 8767.304 C 17329.53 9123.707 17522.38 9638.783 17522.38 10306.43 C 17502.85 10950.88 17146.44 11594.12 16453.17 12248.34 C 15764.77 12907.44 14857.90 13753.29 13728.88 14778.56 C 13016.07 15437.66 12669.43 16333.55 12688.96 17462.57 L 12688.96 18771.01 z M 12228.81 23163.80 C 12228.81 23930.31 12496.11 24565.00 13030.72 25055.67 C 13506.74 25590.27 14120.68 25862.46 14867.66 25881.98 C 15635.39 25862.46 16265.20 25590.27 16764.41 25055.67 C 17240.43 24565.00 17488.20 23930.31 17507.73 23163.80 C 17488.20 22370.44 17240.43 21717.44 16764.41 21207.24 C 16265.20 20716.58 15635.39 20454.16 14867.66 20424.86 C 14120.68 20454.16 13506.74 20716.58 13030.72 21207.24 C 12496.11 21717.44 12228.81 22370.44 12228.81 23163.80 z "
   id="path855"
   style="font-size:12.000;fill:#000000;fill-opacity:0.4916;" />



 <path
   class="fil1"
   d="M 16927.96 17062.22 L 16952.38 16991.43 L 16978.01 16920.64 L 17006.08 16849.85 L 17040.26 16768.07 L 17082.98 16692.39 L 17123.25 16625.26 L 17168.41 16558.13 L 17216.02 16491.00 L 17266.06 16422.65 L 17319.76 16355.52 L 17375.91 16288.39 L 17434.50 16221.26 L 17496.75 16154.13 L 17561.43 16085.78 L 17628.57 16018.65 L 17699.36 15950.29 L 17772.59 15881.94 L 17849.49 15812.37 L 17927.60 15744.02 L 18011.82 15672.01 L 18147.30 15567.04 L 18275.46 15465.73 L 18399.96 15365.65 L 18522.01 15266.78 L 18641.63 15167.92 L 18758.80 15070.27 L 18873.54 14972.63 L 18985.83 14876.20 L 19094.46 14779.78 L 19201.87 14684.57 L 19305.61 14590.59 L 19406.92 14496.61 L 19505.79 14403.85 L 19600.99 14311.08 L 19694.97 14219.54 L 19785.29 14128 L 19874.39 14037.68 L 19959.83 13948.58 L 20042.83 13859.48 L 20123.39 13771.60 L 20200.28 13683.72 L 20275.96 13597.06 L 20347.97 13511.62 L 20417.54 13426.18 L 20485.89 13341.96 L 20549.36 13258.96 L 20611.61 13175.96 L 20671.42 13094.19 L 20728.79 13012.41 L 20782.49 12931.85 L 20834.97 12852.52 L 20882.58 12774.40 L 20927.74 12697.50 L 20971.68 12620.61 L 21013.18 12542.49 L 21054.68 12464.38 L 21093.73 12385.04 L 21131.57 12304.48 L 21168.19 12223.93 L 21203.58 12142.15 L 21236.54 12060.37 L 21269.49 11977.37 L 21300.01 11894.38 L 21329.30 11810.16 L 21357.37 11725.94 L 21384.23 11640.50 L 21408.64 11553.84 L 21433.05 11467.18 L 21455.02 11379.30 L 21475.77 11291.42 L 21495.30 11202.32 L 21513.61 11113.22 L 21530.69 11021.68 L 21545.34 10931.36 L 21558.77 10839.81 L 21570.97 10747.05 L 21581.96 10653.07 L 21591.72 10559.08 L 21599.04 10465.10 L 21606.37 10369.90 L 21611.25 10273.47 L 21614.91 10175.83 L 21617.35 10078.18 L 21617.35 9981.760 L 21614.91 9807.221 L 21607.59 9635.122 L 21596.60 9465.464 L 21583.18 9298.247 L 21564.87 9134.692 L 21544.12 8974.799 L 21519.71 8817.346 L 21491.64 8662.335 L 21461.12 8510.986 L 21425.72 8362.077 L 21387.89 8215.610 L 21346.39 8072.805 L 21301.23 7933.661 L 21253.63 7796.958 L 21201.14 7662.697 L 21146.22 7530.877 L 21088.85 7402.718 L 21026.60 7277.000 L 20961.91 7154.944 L 20892.34 7034.109 L 20821.55 6916.935 L 20745.87 6803.423 L 20667.76 6691.132 L 20584.76 6582.502 L 20499.32 6476.313 L 20411.44 6372.566 L 20318.68 6272.480 L 20222.25 6173.615 L 20123.39 6078.411 L 20020.86 5985.649 L 19914.67 5895.327 L 19802.38 5806.227 L 19688.87 5715.905 L 19575.36 5630.466 L 19459.40 5547.468 L 19343.45 5466.911 L 19225.06 5390.016 L 19104.22 5315.562 L 18983.39 5243.549 L 18858.89 5175.197 L 18734.39 5109.287 L 18607.45 5045.818 L 18479.3 4986.011 L 18348.7 4927.424 L 18216.88 4873.719 L 18083.83 4821.235 L 17948.35 4772.413 L 17810.43 4726.032 L 17672.51 4682.092 L 17530.92 4641.813 L 17389.34 4602.755 L 17245.31 4567.359 L 17098.84 4535.624 L 16951.16 4506.331 L 16801.03 4479.479 L 16650.90 4455.068 L 16497.11 4434.318 L 16342.10 4416.010 L 16184.64 4400.142 L 16025.97 4387.937 L 15866.08 4376.952 L 15703.74 4370.849 L 15538.97 4365.967 L 15372.97 4364.746 L 15189.89 4365.967 L 15008.03 4370.849 L 14828.60 4379.393 L 14651.62 4389.157 L 14475.86 4403.804 L 14303.76 4420.892 L 14132.88 4441.641 L 13964.45 4464.832 L 13798.45 4490.464 L 13634.90 4519.757 L 13473.78 4552.712 L 13315.11 4588.109 L 13157.66 4627.166 L 13002.65 4668.665 L 12850.08 4713.826 L 12699.95 4761.428 L 12551.04 4812.691 L 12405.79 4866.396 L 12261.77 4923.762 L 12120.18 4983.570 L 11979.82 5047.039 L 11843.12 5112.949 L 11707.63 5182.521 L 11574.59 5254.534 L 11443.99 5330.208 L 11314.61 5408.324 L 11187.68 5490.102 L 11063.18 5575.541 L 10939.90 5663.421 L 10819.07 5753.742 L 10700.67 5847.726 L 10583.50 5944.150 L 10469.99 6044.236 L 10358.92 6146.762 L 10250.29 6251.731 L 10145.32 6360.360 L 10044.01 6471.431 L 9945.146 6584.943 L 9848.722 6702.117 L 9754.739 6821.732 L 9665.638 6945.008 L 9577.758 7070.726 L 9493.539 7198.884 L 9411.762 7330.705 L 9333.646 7466.187 L 9257.971 7602.890 L 9184.738 7744.474 L 9115.166 7887.280 L 9048.035 8034.967 L 8984.566 8183.876 L 8923.538 8337.666 L 8864.951 8492.677 L 8810.026 8652.570 L 8758.762 8813.684 L 8708.720 8979.681 L 8662.338 9146.898 L 8619.619 9318.997 L 8579.340 9493.537 L 8541.503 9670.518 L 8507.327 9851.161 L 8475.593 10034.24 L 8447.520 10220.99 L 8427.991 10367.46 L 12397.25 10625 L 12407.01 10554.20 L 12419.22 10483.41 L 12432.65 10411.40 L 12447.29 10341.83 L 12463.16 10272.25 L 12481.47 10202.68 L 12501 10134.33 L 12520.53 10067.20 L 12542.50 10001.29 L 12565.69 9935.379 L 12590.10 9869.469 L 12616.95 9804.779 L 12643.80 9741.310 L 12673.10 9679.062 L 12703.61 9616.813 L 12735.34 9555.785 L 12767.08 9494.757 L 12802.47 9434.950 L 12837.87 9376.363 L 12874.49 9317.776 L 12913.55 9260.410 L 12953.82 9204.264 L 12995.32 9148.119 L 13038.04 9094.414 L 13081.98 9039.489 L 13127.14 8987.005 L 13173.52 8934.521 L 13221.13 8883.256 L 13268.73 8835.654 L 13313.89 8788.052 L 13363.93 8739.230 L 13415.2 8692.849 L 13467.68 8646.468 L 13521.38 8602.527 L 13577.53 8559.808 L 13633.68 8519.529 L 13692.26 8480.472 L 13750.85 8442.634 L 13811.88 8406.017 L 13874.13 8371.842 L 13937.59 8337.666 L 14001.06 8305.932 L 14066.97 8276.638 L 14134.10 8248.565 L 14202.46 8220.492 L 14272.03 8196.081 L 14341.60 8171.670 L 14413.61 8149.700 L 14486.85 8128.951 L 14561.30 8109.422 L 14635.75 8092.334 L 14712.65 8076.466 L 14789.55 8061.820 L 14868.88 8048.394 L 14948.22 8037.409 L 15030 8027.644 L 15111.77 8017.880 L 15195.99 8011.777 L 15280.21 8005.674 L 15365.65 8002.012 L 15455.97 7998.351 L 15579.25 8000.792 L 15698.86 8008.115 L 15814.81 8019.100 L 15929.55 8034.967 L 16041.84 8055.717 L 16151.69 8081.349 L 16259.10 8111.863 L 16364.07 8146.038 L 16466.59 8186.317 L 16566.68 8231.477 L 16663.10 8281.520 L 16757.09 8335.225 L 16848.63 8395.032 L 16936.51 8458.501 L 17021.95 8526.853 L 17104.95 8600.086 L 17183.06 8678.202 L 17257.52 8761.200 L 17325.87 8847.860 L 17389.34 8938.182 L 17447.92 9033.386 L 17501.63 9132.251 L 17549.23 9234.778 L 17591.95 9339.746 L 17629.79 9449.597 L 17662.74 9561.888 L 17689.59 9679.062 L 17711.56 9797.456 L 17728.65 9920.733 L 17740.86 10046.45 L 17748.18 10174.61 L 17750.62 10310.09 L 17748.18 10382.10 L 17742.08 10449.23 L 17734.75 10517.59 L 17724.99 10584.72 L 17712.78 10653.07 L 17698.14 10720.20 L 17682.27 10787.33 L 17663.96 10854.46 L 17643.21 10920.37 L 17620.02 10987.50 L 17595.61 11054.63 L 17568.76 11120.54 L 17539.46 11186.45 L 17508.95 11253.58 L 17476 11319.49 L 17440.60 11384.18 L 17402.76 11450.09 L 17363.70 11514.78 L 17323.43 11580.69 L 17279.49 11645.38 L 17234.32 11710.07 L 17187.94 11774.76 L 17137.90 11839.45 L 17087.86 11902.92 L 17034.15 11967.61 L 16979.23 12031.08 L 16923.08 12095.77 L 16863.27 12159.24 L 16803.47 12223.93 L 16741.22 12287.40 L 16676.53 12350.87 L 16610.62 12413.11 L 16545.93 12475.36 L 16478.80 12538.83 L 16410.45 12603.52 L 16342.10 12669.43 L 16271.30 12736.56 L 16199.29 12804.91 L 16126.06 12873.27 L 16052.82 12944.06 L 15977.15 13014.85 L 15900.25 13086.86 L 15822.14 13160.10 L 15742.80 13234.55 L 15662.24 13310.23 L 15579.25 13387.12 L 15496.25 13465.24 L 15412.03 13543.35 L 15326.59 13622.69 L 15238.71 13704.47 L 15150.83 13786.24 L 15060.51 13869.24 L 14970.19 13953.46 L 14877.43 14038.90 L 14783.44 14124.34 L 14688.24 14212.22 L 14593.04 14300.10 L 14495.39 14389.20 L 14396.53 14480.74 L 14296.44 14571.06 L 14195.13 14663.83 L 14091.39 14757.81 L 13987.64 14853.01 L 13885.11 14945.77 L 13822.86 15004.36 L 13764.28 15064.17 L 13706.91 15125.20 L 13651.98 15186.22 L 13598.28 15249.69 L 13547.02 15314.38 L 13498.19 15379.07 L 13451.81 15446.20 L 13406.65 15514.55 L 13363.93 15584.13 L 13322.43 15654.92 L 13283.38 15725.71 L 13246.76 15798.95 L 13211.36 15873.40 L 13178.41 15950.29 L 13146.67 16027.19 L 13118.60 16105.31 L 13090.53 16185.86 L 13064.9 16267.64 L 13041.70 16350.64 L 13020.95 16434.86 L 13001.43 16520.30 L 12984.34 16608.18 L 12968.47 16696.06 L 12955.04 16786.38 L 12944.06 16877.92 L 12934.3 16971.90 L 12926.97 17065.89 L 12920.87 17162.31 L 12918.43 17259.95 L 12917.21 17358.82 L 12917.21 17462.57 L 12917.21 18542.76 L 16783.94 18542.76 L 16783.94 17897.09 L 16785.16 17829.96 L 16788.82 17761.60 L 16793.70 17693.25 L 16801.03 17623.68 L 16809.57 17554.11 L 16820.56 17484.54 L 16833.98 17414.97 L 16848.63 17344.17 L 16865.72 17274.60 L 16884.02 17203.81 L 16904.77 17133.02 L 16927.96 17062.22 z M 12457.06 23163.80 L 12457.06 23229.71 L 12459.50 23295.62 L 12463.16 23360.31 L 12468.04 23423.78 L 12475.36 23487.25 L 12482.69 23549.50 L 12492.45 23610.52 L 12503.44 23670.33 L 12515.64 23730.14 L 12529.07 23788.73 L 12543.72 23847.31 L 12559.58 23904.68 L 12577.89 23959.60 L 12597.42 24015.75 L 12616.95 24070.67 L 12638.92 24124.38 L 12662.11 24176.86 L 12687.74 24229.35 L 12713.37 24280.61 L 12741.45 24331.87 L 12770.74 24381.92 L 12801.25 24430.74 L 12832.99 24479.56 L 12865.94 24528.38 L 12900.12 24574.77 L 12936.74 24621.15 L 12974.57 24667.53 L 13013.63 24712.69 L 13053.91 24756.63 L 13096.63 24801.79 L 13140.57 24844.51 L 13193.05 24894.55 L 13243.10 24948.26 L 13284.60 24992.20 L 13327.32 25034.92 L 13370.03 25075.19 L 13413.97 25114.25 L 13459.14 25152.09 L 13504.30 25188.71 L 13549.46 25224.10 L 13595.84 25257.06 L 13643.44 25290.01 L 13691.04 25320.53 L 13739.86 25349.82 L 13788.69 25377.89 L 13838.73 25404.75 L 13889.99 25429.16 L 13941.26 25453.57 L 13992.52 25475.54 L 14046.22 25497.51 L 14099.93 25517.04 L 14154.85 25535.35 L 14209.78 25552.43 L 14265.93 25568.30 L 14323.29 25582.95 L 14380.66 25596.37 L 14439.24 25608.58 L 14499.05 25619.56 L 14558.86 25628.11 L 14621.11 25636.65 L 14682.14 25642.75 L 14745.60 25647.64 L 14810.29 25651.30 L 14868.88 25653.74 L 14928.69 25651.30 L 14994.60 25647.64 L 15060.51 25642.75 L 15123.98 25635.43 L 15187.45 25628.11 L 15249.70 25618.34 L 15310.72 25608.58 L 15370.53 25596.37 L 15430.34 25582.95 L 15490.15 25568.30 L 15547.51 25552.43 L 15604.88 25535.35 L 15661.02 25515.82 L 15717.17 25496.29 L 15772.1 25475.54 L 15825.80 25452.35 L 15879.50 25427.94 L 15931.99 25402.30 L 15983.25 25376.67 L 16034.52 25347.38 L 16085.78 25318.09 L 16134.60 25287.57 L 16184.64 25254.62 L 16232.25 25221.66 L 16281.07 25186.27 L 16327.45 25149.65 L 16375.05 25111.81 L 16420.21 25071.53 L 16465.37 25031.25 L 16510.53 24988.53 L 16554.47 24944.59 L 16599.63 24898.21 L 16641.13 24854.27 L 16680.19 24810.33 L 16718.03 24766.39 L 16753.42 24722.45 L 16788.82 24677.29 L 16823 24630.91 L 16855.95 24584.53 L 16886.47 24536.93 L 16916.98 24488.11 L 16946.27 24439.28 L 16974.35 24390.46 L 16999.98 24339.20 L 17025.61 24287.93 L 17050.02 24236.67 L 17073.21 24182.97 L 17095.18 24129.26 L 17115.93 24075.56 L 17134.24 24019.41 L 17152.55 23963.27 L 17169.64 23907.12 L 17185.50 23848.53 L 17200.15 23791.17 L 17213.58 23731.36 L 17225.78 23670.33 L 17236.77 23609.30 L 17246.53 23547.05 L 17255.07 23484.81 L 17262.40 23421.34 L 17268.50 23356.65 L 17273.38 23290.74 L 17277.04 23224.83 L 17279.49 23162.58 L 17277.04 23099.11 L 17273.38 23030.76 L 17268.50 22962.41 L 17262.40 22895.28 L 17255.07 22829.37 L 17246.53 22764.68 L 17236.77 22699.99 L 17225.78 22636.52 L 17213.58 22574.27 L 17200.15 22512.02 L 17185.50 22450.99 L 17169.64 22391.19 L 17152.55 22332.60 L 17134.24 22274.01 L 17114.71 22216.65 L 17093.96 22160.50 L 17071.99 22104.35 L 17048.80 22049.43 L 17024.39 21995.72 L 16998.76 21942.02 L 16971.90 21889.54 L 16945.05 21838.27 L 16915.76 21787.01 L 16885.25 21736.97 L 16853.51 21686.92 L 16820.56 21639.32 L 16786.38 21590.50 L 16750.98 21544.12 L 16714.37 21497.74 L 16677.75 21452.58 L 16638.69 21407.41 L 16600.85 21367.14 L 16561.80 21328.08 L 16517.86 21287.80 L 16472.70 21248.74 L 16427.54 21210.90 L 16381.15 21174.29 L 16334.77 21138.89 L 16287.17 21104.72 L 16239.57 21071.76 L 16190.75 21041.25 L 16140.70 21010.73 L 16090.66 20981.44 L 16039.40 20953.37 L 15988.13 20926.51 L 15935.65 20900.88 L 15883.17 20877.69 L 15829.46 20854.50 L 15775.76 20832.53 L 15719.61 20811.78 L 15663.47 20792.25 L 15607.32 20773.94 L 15549.95 20758.08 L 15490.15 20742.21 L 15431.56 20727.56 L 15371.75 20714.14 L 15310.72 20701.93 L 15248.48 20690.95 L 15186.23 20681.18 L 15122.76 20673.86 L 15058.07 20666.54 L 14993.38 20660.43 L 14926.25 20655.55 L 14868.88 20653.11 L 14812.74 20655.55 L 14748.05 20660.43 L 14684.58 20666.54 L 14622.33 20673.86 L 14560.08 20681.18 L 14499.05 20690.95 L 14439.24 20701.93 L 14380.66 20714.14 L 14322.07 20726.34 L 14264.70 20740.99 L 14207.34 20756.86 L 14152.41 20773.94 L 14097.49 20792.25 L 14042.56 20810.56 L 13988.86 20831.31 L 13936.37 20853.28 L 13885.11 20876.47 L 13833.85 20899.66 L 13783.80 20925.29 L 13733.76 20952.15 L 13684.94 20980.22 L 13637.34 21008.29 L 13589.74 21038.81 L 13543.35 21070.54 L 13496.97 21102.27 L 13451.81 21136.45 L 13407.87 21171.85 L 13363.93 21208.46 L 13319.99 21245.08 L 13277.27 21284.14 L 13235.77 21324.42 L 13191.83 21369.58 L 13143.01 21417.18 L 13099.07 21461.12 L 13057.57 21507.50 L 13016.07 21553.88 L 12977.01 21600.26 L 12939.18 21647.86 L 12902.56 21696.69 L 12868.38 21745.51 L 12834.21 21795.55 L 12802.47 21846.82 L 12771.96 21898.08 L 12742.67 21950.56 L 12714.59 22003.05 L 12688.96 22056.75 L 12663.33 22110.46 L 12640.14 22165.38 L 12618.17 22221.53 L 12597.42 22278.89 L 12579.11 22336.26 L 12560.80 22394.85 L 12543.72 22453.43 L 12529.07 22513.24 L 12515.64 22574.27 L 12503.44 22636.52 L 12492.45 22698.77 L 12482.69 22762.24 L 12475.36 22826.92 L 12468.04 22892.83 L 12463.16 22958.75 L 12459.50 23025.88 L 12457.06 23094.23 L 12457.06 23163.80 z "
   id="path857"
   style="font-size:12.000;fill:url(#linearGradient1917);" />



<path
   style="font-size:12.000;fill:url(#radialGradient724);"
   d="M 15125.48 763.7416 C 19873.45 763.7416 24103.91 3049.850 26770.83 6579.707 C 24100.25 3668.674 22675.32 16766.34 12122.78 12133.46 C 6120.808 9432.301 2528.097 22765.52 4377.244 25211.52 C 1991.051 22611.73 531.2627 19150.22 531.2627 15357.95 C 531.2627 7319.366 7086.886 763.7416 15125.48 763.7416 z "
   id="path676"
   sodipodi:nodetypes="ccsccc" />



<path
   style="font-size:12.000;fill:#00008f;fill-rule:evenodd;stroke-width:1;fill-opacity:1.0000;"
   d="M 29134.23 14958.09 C 29134.23 22787.37 22787.37 29134.24 14958.09 29134.24 C 7128.807 29134.24 781.9265 22787.37 781.9265 14958.09 C 781.9265 7128.806 7128.807 781.9218 14958.09 781.9218 C 22787.37 781.9218 29134.23 7128.806 29134.23 14958.09 z M 29715.23 14958.09 C 29715.23 23108.23 23108.22 29715.22 14958.09 29715.22 C 6807.933 29715.22 200.9367 23108.23 200.9367 14958.09 C 200.9367 6807.932 6807.933 200.9320 14958.09 200.9320 C 23108.22 200.9320 29715.23 6807.932 29715.23 14958.09 z "
   id="path847" />



</svg>
