<?xml version="1.0" encoding="UTF-8" standalone="no"?>
<!DOCTYPE svg PUBLIC "-//W3C//DTD SVG 20010904//EN"
"http://www.w3.org/TR/2001/REC-SVG-20010904/DTD/svg10.dtd">
<!-- Created with Sodipodi ("http://www.sodipodi.com/") -->
<svg
   xml:space="preserve"
   width="30mm"
   height="30mm"
   style="shape-rendering:geometricPrecision; text-rendering:geometricPrecision; image-rendering:optimizeQuality; fill-rule:evenodd"
   viewBox="0 0 30000 30000"
   id="svg619"
   sodipodi:version="0.34-pre"
   sodipodi:docname="/home/david/.themes/eXperience 0.6/icons/info.svg"
   sodipodi:docbase="/home/david/.themes/eXperience 0.6/icons/"
   xmlns="http://www.w3.org/2000/svg"
   xmlns:sodipodi="http://sodipodi.sourceforge.net/DTD/sodipodi-0.dtd"
   xmlns:xml="http://www.w3.org/XML/1998/namespace"
   xmlns:xlink="http://www.w3.org/1999/xlink"><sodipodi:namedview
   id="base" />



 <defs
   id="defs621"><linearGradient
   id="linearGradient781"
   gradientUnits="userSpaceOnUse"
   x1="5722"
   y1="4162"
   x2="33477"
   y2="32065">
   <stop
   offset="0"
   style="stop-color:#c7c7c7;stop-opacity:1.0000;"
   id="stop783" />










   <stop
   offset="1"
   style="stop-color:#fffff3;stop-opacity:1.0000;"
   id="stop785" />



  </linearGradient>



  <linearGradient
   id="id0"
   gradientUnits="userSpaceOnUse"
   x1="5722"
   y1="4162"
   x2="33477"
   y2="32065">
   <stop
   offset="0"
   style="stop-color:#ffffff;stop-opacity:0.7294;"
   id="stop625" />



   <stop
   offset="1"
   style="stop-color:#ffffff;stop-opacity:0;"
   id="stop627" />



  </linearGradient>



  <linearGradient
   id="id1"
   gradientUnits="userSpaceOnUse"
   x1="7240"
   y1="5592"
   x2="22640"
   y2="23892">
   <stop
   offset="0"
   style="stop-color:#FFFFFF"
   id="stop636" />



   <stop
   offset="0.129412"
   style="stop-color:#A5B2F3"
   id="stop638" />



   <stop
   offset="0.490196"
   style="stop-color:#345DE4"
   id="stop640" />



   <stop
   offset="1"
   style="stop-color:#001F66"
   id="stop642" />



  </linearGradient>



  <radialGradient
   id="id2"
   gradientUnits="userSpaceOnUse"
   cx="7441"
   cy="7872"
   r="30000"
   fx="7441"
   fy="7872">
   <stop
   offset="0"
   style="stop-color:#CCCCFF"
   id="stop647" />



   <stop
   offset="0.25098"
   style="stop-color:#8E9EE1"
   id="stop649" />



   <stop
   offset="0.6"
   style="stop-color:#345DE4"
   id="stop651" />



   <stop
   offset="1"
   style="stop-color:#000066"
   id="stop653" />



  </radialGradient>



  <radialGradient
   id="id3"
   gradientUnits="userSpaceOnUse"
   cx="10622"
   cy="7120"
   r="25000"
   fx="10622"
   fy="7120">
   <stop
   offset="0"
   style="stop-color:#ffffff;stop-opacity:1.0000;"
   id="stop658" />



   <stop
   offset="1"
   style="stop-color:#cacaca;stop-opacity:1.0000;"
   id="stop660" />



  </radialGradient>



 <radialGradient
   xlink:href="#id2"
   id="radialGradient722"
   cx="19305.8008"
   cy="24429.6270"
   r="30583.5059"
   fx="19305.8008"
   fy="24429.6270" />



<radialGradient
   xlink:href="#id0"
   id="radialGradient724"
   cx="5444.53516"
   cy="345.079071"
   r="21867.6152"
   fx="5444.53516"
   fy="345.079071" />



<linearGradient
   xlink:href="#id1"
   id="linearGradient778"
   x1="24758.0098"
   y1="26590.5000"
   x2="11105.9570"
   y2="6799.60449" />



<radialGradient
   xlink:href="#id3"
   id="radialGradient711"
   cx="7019.45312"
   cy="4739.29736"
   r="57728.9492"
   fx="7019.45312"
   fy="4739.29736" />



<linearGradient
   xlink:href="#linearGradient781"
   id="linearGradient1917"
   x1="30249.2969"
   y1="24130.2656"
   x2="21755.7930"
   y2="9540.91406" />

</defs>



  


  


   <circle
   style="font-size:12.000;fill:url(#linearGradient778);"
   cx="15000"
   cy="15000"
   r="11957"
   id="circle674"
   transform="matrix(1.220559,0,0,1.220559,-3299.141,-3299.143)" />



   <circle
   style="font-size:12.000;fill:url(#radialGradient722);"
   cx="14991"
   cy="14991"
   r="10787"
   id="circle678"
   transform="matrix(1.220559,0,0,1.220559,-3299.141,-3299.143)" />



  


 





<path
   style="font-size:12.000;fill:#00008f;fill-rule:evenodd;stroke-width:1;fill-opacity:1.0000;"
   d="M 29134.23 14958.09 C 29134.23 22787.37 22787.37 29134.24 14958.09 29134.24 C 7128.807 29134.24 781.9265 22787.37 781.9265 14958.09 C 781.9265 7128.806 7128.807 781.9218 14958.09 781.9218 C 22787.37 781.9218 29134.23 7128.806 29134.23 14958.09 z M 29715.23 14958.09 C 29715.23 23108.23 23108.22 29715.22 14958.09 29715.22 C 6807.933 29715.22 200.9367 23108.23 200.9367 14958.09 C 200.9367 6807.932 6807.933 200.9320 14958.09 200.9320 C 23108.22 200.9320 29715.23 6807.932 29715.23 14958.09 z "
   id="path847" />




 
 
  <g
   id="g2041"
   style="font-size:12.000;shape-rendering:geometricPrecision;text-rendering:geometricPrecision;image-rendering:optimizeQuality;fill-rule:evenodd;">
   <g
   id="g2043">
   </g>

  </g>

  <g
   id="g2047"
   style="font-size:12.000;shape-rendering:geometricPrecision;text-rendering:geometricPrecision;image-rendering:optimizeQuality;fill-rule:evenodd;">
  </g>

  
  
  
  
  
  <path
   class="fil5"
   d="M17223 15956l0 -246 1 -241 1 -236 3 -230 3 -225 3 -221 5 -215 5 -210 5 -204 7 -200 7 -194 8 -190 9 -183 9 -179 10 -173 17 -254 -102 -140 -68 -73 -78 -63 -85 -51 -92 -39 -95 -27 -99 -16 -157 -7 -162 89 -104 55 -105 55 -107 55 -108 54 -109 54 -111 54 -113 53 -114 53 -115 52 -117 52 -118 52 -119 51 -121 50 -123 51 -124 50 -125 49 -127 49 -128 49 -129 48 -132 49 -132 47 -134 47 -135 47 -137 46 -138 46 -139 46 -142 45 -142 44 -144 45 -145 44 -219 64 -85 108 -41 64 -34 69 -27 73 -20 76 -15 77 -8 80 -3 83 3 82 8 80 15 77 20 75 27 72 34 68 40 65 64 82 422 265 89 56 69 52 58 52 45 52 37 51 27 52 20 53 13 58 10 90 9 113 9 127 7 141 6 154 4 167 2 181 1 195 0 4220 0 170 -2 162 -3 155 -4 146 -5 139 -7 130 -8 123 -9 115 -10 106 -11 98 -12 90 -13 81 -14 72 -15 63 -15 54 -12 35 -35 69 -41 56 -52 48 -66 43 -82 37 -102 31 -121 21 -153 13 -604 65 -111 113 -54 75 -41 81 -31 85 -20 89 -11 92 -3 94 4 86 3 88 10 94 17 90 23 87 32 83 40 79 49 73 123 142 295 -16 183 -10 187 -9 190 -8 195 -8 198 -6 202 -7 205 -5 210 -5 214 -4 217 -4 221 -3 225 -2 228 -1 232 -2 236 0 233 0 230 2 227 1 223 2 220 3 216 4 213 4 210 5 206 5 202 7 199 6 196 8 192 8 188 9 185 10 287 15 129 -126 58 -74 47 -80 38 -84 29 -91 20 -93 11 -96 4 -99 -4 -97 -9 -92 -17 -89 -24 -85 -33 -82 -41 -76 -52 -71 -109 -115 -658 -65 -155 -13 -125 -22 -108 -31 -89 -38 -73 -45 -59 -52 -48 -58 -46 -80 -24 -45 -21 -50 -20 -58 -20 -69 -19 -78 -17 -87 -16 -95 -14 -104 -12 -113 -10 -121 -8 -128 -6 -137 -4 -145 -2 -153 0 -161 3 -172 0 -5140zm-1901 -10630l-120 3 -114 7 -113 12 -111 17 -109 22 -107 26 -105 32 -103 36 -101 42 -98 47 -96 51 -94 56 -92 61 -89 65 -86 71 -83 73 -89 84 -86 89 -81 93 -75 96 -69 100 -63 104 -57 107 -51 109 -45 114 -39 115 -33 119 -26 122 -21 124 -15 126 -8 129 -4 131 3 120 7 117 11 115 17 113 21 110 26 109 30 106 36 104 40 101 45 99 49 97 55 93 59 92 63 88 68 86 72 82 77 82 82 77 86 73 89 67 92 63 96 57 100 51 102 46 105 41 108 35 111 29 114 24 117 19 118 13 122 8 124 2 114 -2 114 -7 112 -12 111 -17 109 -22 108 -26 106 -32 105 -36 102 -41 102 -46 99 -51 97 -56 95 -60 94 -64 91 -70 93 -76 86 -82 80 -85 74 -89 70 -94 64 -97 58 -102 54 -105 48 -109 42 -113 37 -116 32 -119 27 -123 21 -126 16 -130 11 -133 7 -139 -3 -123 -7 -117 -11 -115 -17 -114 -21 -111 -26 -109 -30 -107 -35 -105 -41 -103 -44 -100 -49 -99 -55 -95 -58 -93 -63 -91 -68 -88 -76 -90 -82 -80 -82 -72 -86 -67 -88 -63 -92 -57 -95 -53 -98 -49 -102 -43 -104 -39 -107 -34 -109 -29 -113 -25 -115 -19 -117 -15 -120 -11 -127 -6z"
   id="path2060"
   style="font-size:12.000;shape-rendering:geometricPrecision;text-rendering:geometricPrecision;image-rendering:optimizeQuality;fill-rule:evenodd;fill:#000000;fill-opacity:0.5433;" />

  <path
   class="fil6"
   d="M16987 15956c0,-1328 28,-2442 88,-3331 -107,-168 -265,-247 -480,-247 -1104,610 -2450,1146 -4034,1612 -89,97 -135,242 -135,423 0,182 46,322 135,424l387 243c274,158 428,354 465,587 33,265 52,666 52,1206l0 4221c0,936 -52,1547 -159,1831 -116,289 -396,442 -848,461l-517 56c-111,98 -158,261 -139,480 0,223 55,396 163,503 950,-56 2063,-84 3335,-84 1258,0 2371,28 3336,84 126,-107 191,-280 191,-503 0,-219 -56,-382 -163,-480l-569 -56c-456,-19 -754,-172 -889,-461 -163,-284 -238,-895 -219,-1831l0 -5138zm-1668 -10394c-573,0 -1058,187 -1458,559 -457,406 -685,937 -685,1589 0,591 182,1081 540,1472 364,405 853,610 1468,610 563,0 1062,-186 1495,-559 415,-373 629,-899 648,-1588 0,-592 -182,-1090 -541,-1496 -363,-372 -852,-568 -1467,-587z"
   id="path2062"
   style="font-size:12.000;shape-rendering:geometricPrecision;text-rendering:geometricPrecision;image-rendering:optimizeQuality;fill-rule:evenodd;fill:url(#linearGradient1917);" />

 
<path
   style="font-size:12.000;fill:url(#radialGradient724);"
   d="M 15125.48 763.7416 C 19873.45 763.7416 24103.91 3049.850 26770.83 6579.707 C 24100.25 3668.674 22675.32 16766.34 12122.78 12133.46 C 6120.808 9432.301 2528.097 22765.52 4377.244 25211.52 C 1991.051 22611.73 531.2627 19150.22 531.2627 15357.95 C 531.2627 7319.366 7086.886 763.7416 15125.48 763.7416 z "
   id="path676"
   sodipodi:nodetypes="ccsccc" />
</svg>
