<?xml version="1.0" encoding="UTF-8" standalone="no"?>
<!DOCTYPE svg PUBLIC "-//W3C//DTD SVG 20010904//EN"
"http://www.w3.org/TR/2001/REC-SVG-20010904/DTD/svg10.dtd">
<!-- Created with Sodipodi ("http://www.sodipodi.com/") -->
<svg
   xml:space="preserve"
   width="30mm"
   height="30mm"
   style="shape-rendering:geometricPrecision; text-rendering:geometricPrecision; image-rendering:optimizeQuality; fill-rule:evenodd"
   viewBox="0 0 30000 30000"
   id="svg1683"
   sodipodi:version="0.34-pre"
   sodipodi:docname="/home/david/.themes/eXperience/icons/replace.svg"
   sodipodi:docbase="/home/david/.themes/eXperience/icons/"
   xmlns="http://www.w3.org/2000/svg"
   xmlns:sodipodi="http://sodipodi.sourceforge.net/DTD/sodipodi-0.dtd"
   xmlns:xml="http://www.w3.org/XML/1998/namespace"
   xmlns:xlink="http://www.w3.org/1999/xlink">
  <sodipodi:namedview
     id="base" />
  <defs
     id="defs561">
   
   
   <linearGradient
   id="linearGradient1108">
  <stop
   offset="0"
   style="stop-color:#ffffff;stop-opacity:1.0000;"
   id="stop1110" />




  <stop
   offset="1"
   style="stop-color:#ffb500;stop-opacity:1.0000;"
   id="stop1109" />




</linearGradient>



<linearGradient
   id="linearGradient890">
  <stop
   offset="0"
   style="stop-color:#000000;stop-opacity:0.3843;"
   id="stop892" />



  <stop
   offset="1"
   style="stop-color:#000000;stop-opacity:0;"
   id="stop891" />



</linearGradient>



<linearGradient
   id="linearGradient887">
  <stop
   offset="0"
   style="stop-color:#ffffff;stop-opacity:1.0000;"
   id="stop889" />



  <stop
   offset="1"
   style="stop-color:#ffffff;stop-opacity:0.0078;"
   id="stop888" />



</linearGradient>



<linearGradient
   id="linearGradient835">
  <stop
   offset="0"
   style="stop-color:#ffffa5;stop-opacity:1.0000;"
   id="stop837" />



  <stop
   offset="1"
   style="stop-color:#ca9200;stop-opacity:1.0000;"
   id="stop836" />



</linearGradient>



<linearGradient
   id="linearGradient831">
  <stop
   offset="0"
   style="stop-color:#a6a5a5;stop-opacity:1.0000;"
   id="stop833" />



  <stop
   offset="1"
   style="stop-color:#353535;stop-opacity:1.0000;"
   id="stop832" />



</linearGradient>



<linearGradient
   xlink:href="#linearGradient831"
   id="linearGradient834"
   x1="-0.41665778"
   y1="7.03366622e-2"
   x2="-0.11666648"
   y2="0.31250095" />



<radialGradient
   xlink:href="#linearGradient835"
   id="radialGradient838"
   cx="7.03087971e-2"
   cy="0.19531383"
   r="0.60217243"
   fx="7.03087971e-2"
   fy="0.19531383" />



<linearGradient
   xlink:href="#linearGradient831"
   id="linearGradient2292"
   x1="20047.8105"
   y1="22973.2031"
   x2="17509.0859"
   y2="21348.1816"
   gradientUnits="userSpaceOnUse"
   gradientTransform="matrix(0.829748,0,0,1.205186,3.848563e-4,1.918681e-4)" />



<radialGradient
   xlink:href="#linearGradient1108"
   id="radialGradient937"
   cx="0.88750011"
   cy="0.97656262"
   r="1.17267072"
   fx="0.88750011"
   fy="0.97656262" />



<radialGradient
   xlink:href="#linearGradient890"
   id="radialGradient679"
   cx="2.77789198e-2"
   cy="0.83593732"
   r="1.09597242"
   fx="2.77789198e-2"
   fy="0.83593732" />




<radialGradient
   xlink:href="#linearGradient835"
   id="radialGradient681"
   cx="1.32950103"
   cy="0.88280505"
   r="1.61921060"
   fx="1.32950103"
   fy="0.88280505" />




<radialGradient
   xlink:href="#linearGradient887"
   id="radialGradient682"
   cx="3.45479918"
   cy="-6.58699417"
   r="18.3178711"
   fx="3.45479918"
   fy="-6.58699417"
   gradientTransform="scale(-0.129368,-8.376352e-2)"
   gradientUnits="objectBoundingBox" />




<radialGradient
   xlink:href="#linearGradient887"
   id="radialGradient683"
   cx="18358.2187"
   cy="18167.5449"
   r="5153.19922"
   fx="18358.2187"
   fy="18167.5449"
   gradientUnits="userSpaceOnUse"
   gradientTransform="matrix(0.705398,0,0,1.417639,3.848563e-4,1.918681e-4)" />




<radialGradient
   xlink:href="#linearGradient887"
   id="radialGradient687"
   cx="-0.11222153"
   cy="4.68781702e-2"
   r="1.23527098"
   fx="-0.11222153"
   fy="4.68781702e-2" />



<radialGradient
   xlink:href="#linearGradient1108"
   id="radialGradient688"
   cx="0.81521893"
   cy="0.98437500"
   r="0.71037096"
   fx="0.81521893"
   fy="0.98437500" />



<radialGradient
   xlink:href="#linearGradient1108"
   id="radialGradient689"
   cx="0.87501079"
   cy="0.98437512"
   r="1.19089305"
   fx="0.87501079"
   fy="0.98437512" />



<radialGradient
   xlink:href="#linearGradient887"
   id="radialGradient699"
   cx="2.87039995"
   cy="-7.33336687"
   r="18.3178711"
   fx="2.87039995"
   fy="-7.33336687"
   gradientTransform="matrix(-0.159894,0,0,-8.464603e-2,-1.305420e-7,1.859704e-10)"
   gradientUnits="objectBoundingBox" />



    <linearGradient
   x1="10100"
   y1="14100"
   x2="15000"
   y2="19500"
   id="linearGradient660"
   gradientUnits="userSpaceOnUse">

      <stop
   style="stop-color:#f5ffff;stop-opacity:0.4902;"
   offset="0"
   id="stop662" />








      <stop
   style="stop-color:#ffffff;stop-opacity:0;"
   offset="1.20000005"
   id="stop664" />







    </linearGradient>







    <linearGradient
   x1="10100"
   y1="14100"
   x2="15000"
   y2="19500"
   id="linearGradient644"
   gradientUnits="userSpaceOnUse">

      <stop
   style="stop-color:#f5ffff;stop-opacity:1.0000;"
   offset="0"
   id="stop648" />







      <stop
   style="stop-color:#ffffff;stop-opacity:0;"
   offset="1.20000005"
   id="stop652" />








    </linearGradient>







    <linearGradient
   x1="10100"
   y1="14100"
   x2="15000"
   y2="19500"
   id="linearGradient629"
   gradientUnits="userSpaceOnUse">

      <stop
   style="stop-color:#ffffff;stop-opacity:0.6980;"
   offset="0"
   id="stop633" />







      <stop
   style="stop-color:#5db7ff;stop-opacity:0.6980;"
   offset="1.20000005"
   id="stop637" />







    </linearGradient>







    <linearGradient
   x1="10100"
   y1="14100"
   x2="15000"
   y2="19500"
   id="id0"
   gradientUnits="userSpaceOnUse">

      <stop
   style="stop-color:#f5fffa;stop-opacity:1.0000;"
   offset="0"
   id="stop565" />







      <stop
   style="stop-color:#6f6d7f;stop-opacity:1.0000;"
   offset="1.20000005"
   id="stop567" />








    </linearGradient>







    <linearGradient
   x1="20158"
   y1="20912"
   x2="10575"
   y2="9295"
   id="id1"
   gradientUnits="userSpaceOnUse">

      <stop
   style="stop-color:#eda700;stop-opacity:1.0000;"
   offset="0"
   id="stop580" />







      <stop
   style="stop-color:#ffffff;stop-opacity:1.0000;"
   offset="0.38823500"
   id="stop582" />








      <stop
   style="stop-color:#ffcb50;stop-opacity:1.0000;"
   offset="0.69999999"
   id="stop584" />







      <stop
   style="stop-color:#ed8700;stop-opacity:1.0000;"
   offset="1"
   id="stop618" />







    </linearGradient>







    <radialGradient
   cx="2458.00000"
   cy="21915"
   r="8500"
   fx="2458.00000"
   fy="21915"
   id="id3"
   gradientUnits="userSpaceOnUse">

      <stop
   style="stop-color:#a66500;stop-opacity:1.0000;"
   offset="0"
   id="stop598" />







      <stop
   style="stop-color:#da8f00;stop-opacity:1.0000;"
   offset="1"
   id="stop600" />







    </radialGradient>







    

    

    

    

    

    

    

    

    

    

    

    

    

    

    <radialGradient
   cx="21356.5625"
   cy="28070.5410"
   r="6803.48145"
   fx="21356.5625"
   fy="28070.5410"
   id="radialGradient671"
   xlink:href="#id0"
   gradientUnits="userSpaceOnUse"
   gradientTransform="translate(-9.619829e-5,-5.638979e-4)" />







    

    

   id=&quot;defs833&quot;&gt;<linearGradient
   id="linearGradient903"
   gradientUnits="userSpaceOnUse"
   x1="6403"
   y1="2904"
   x2="39722"
   y2="45594">
  <stop
   offset="0"
   style="stop-color:#ffffff;stop-opacity:1.0000;"
   id="stop905" />







  <stop
   offset="1"
   style="stop-color:#e5e5e5;stop-opacity:1.0000;"
   id="stop907" />







</linearGradient>







<linearGradient
   id="linearGradient940"
   gradientUnits="userSpaceOnUse"
   x1="6403"
   y1="2904"
   x2="39722"
   y2="45594">
  <stop
   offset="0"
   style="stop-color:#ffffff;stop-opacity:1.0000;"
   id="stop680" />







  <stop
   offset="1"
   style="stop-color:#ffffff;stop-opacity:0;"
   id="stop839" />







</linearGradient>







<linearGradient
   id="linearGradient947"
   gradientUnits="userSpaceOnUse"
   x1="25175"
   y1="27294"
   x2="5077"
   y2="206">
  <stop
   offset="0"
   style="stop-color:#666767;stop-opacity:1.0000;"
   id="stop844" />







  <stop
   offset="1"
   style="stop-color:#aaa5a7;stop-opacity:1.0000;"
   id="stop846" />







</linearGradient>







<linearGradient
   id="id2"
   gradientUnits="userSpaceOnUse"
   x1="18330"
   y1="1651"
   x2="19169"
   y2="6266">
  <stop
   offset="0"
   style="stop-color:#b8d2ff;stop-opacity:1.0000;"
   id="stop851" />







  <stop
   offset="1"
   style="stop-color:#4287d1;stop-opacity:1.0000;"
   id="stop853" />







</linearGradient>








<linearGradient
   xlink:href="#linearGradient947"
   id="linearGradient602"
   x1="27849.6738"
   y1="24808.5254"
   x2="-2528.53711"
   y2="-673.194763"
   gradientUnits="userSpaceOnUse"
   gradientTransform="scale(0.962520,1.038939)" />







<radialGradient
   xlink:href="#linearGradient903"
   id="radialGradient603"
   cx="26944.3320"
   cy="25714.6582"
   r="33888.0352"
   fx="26944.3320"
   fy="25714.6582"
   gradientUnits="userSpaceOnUse"
   gradientTransform="scale(0.959430,1.042285)" />







<radialGradient
   xlink:href="#linearGradient940"
   id="radialGradient604"
   cx="2249.91138"
   cy="1322.41357"
   r="31434.1953"
   fx="2249.91138"
   fy="1322.41357"
   gradientUnits="userSpaceOnUse"
   gradientTransform="scale(1.105942,0.904207)" />







<radialGradient
   xlink:href="#id1"
   id="radialGradient605"
   cx="0.50000000"
   cy="0.50000000"
   r="0.50000000"
   fx="0.50000000"
   fy="0.50000000" />







<linearGradient
   xlink:href="#id2"
   id="linearGradient606"
   x1="942.657410"
   y1="4156.71484"
   x2="9775.70605"
   y2="4156.71484"
   gradientUnits="userSpaceOnUse"
   gradientTransform="scale(2.727851,0.366589)" />







<radialGradient
   cx="22733.5195"
   cy="22150.2910"
   r="24835.0234"
   fx="22733.5195"
   fy="22150.2910"
   id="radialGradient647"
   xlink:href="#linearGradient629"
   gradientUnits="userSpaceOnUse"
   gradientTransform="translate(1.397285e-4,2.040894e-4)" />





<radialGradient
   cx="18969.1191"
   cy="17830.8164"
   r="23165.9414"
   fx="18969.1191"
   fy="17830.8164"
   id="radialGradient628"
   xlink:href="#linearGradient629"
   gradientUnits="userSpaceOnUse"
   gradientTransform="translate(-4.102770e-4,-2.989994e-4)" />





<radialGradient
   cx="25537.7461"
   cy="27369.5566"
   r="3682.17725"
   fx="25537.7461"
   fy="27369.5566"
   id="radialGradient672"
   xlink:href="#id0"
   gradientUnits="userSpaceOnUse"
   gradientTransform="translate(-2.564414e-5,-4.021495e-5)" />





<radialGradient
   cx="18401.3555"
   cy="17398.3379"
   r="11887.5078"
   fx="18401.3555"
   fy="17398.3379"
   id="radialGradient656"
   xlink:href="#linearGradient644"
   gradientUnits="userSpaceOnUse"
   gradientTransform="translate(4.592806e-5,-2.989994e-4)" />





<radialGradient
   cx="21471.1465"
   cy="20928.9824"
   r="1888.88696"
   fx="21471.1465"
   fy="20928.9824"
   id="radialGradient673"
   xlink:href="#id0"
   gradientUnits="userSpaceOnUse"
   gradientTransform="matrix(0.993291,0,0,1.006754,1.397285e-4,2.040894e-4)" />





<radialGradient
   cx="22528.4590"
   cy="22290.4297"
   r="17576.8262"
   fx="22528.4590"
   fy="22290.4297"
   id="radialGradient662"
   xlink:href="#linearGradient629"
   gradientUnits="userSpaceOnUse"
   gradientTransform="translate(1.397285e-4,2.040894e-4)" />





<radialGradient
   cx="-1391.13367"
   cy="47501.7422"
   r="7134.53809"
   fx="-1391.13367"
   fy="47501.7422"
   id="radialGradient676"
   xlink:href="#id0"
   gradientUnits="userSpaceOnUse"
   gradientTransform="matrix(1.697750,0,0,0.589015,4.156958e-6,1.654277e-4)" />





<radialGradient
   cx="21630.8984"
   cy="22951.7285"
   r="2308.89868"
   fx="21630.8984"
   fy="22951.7285"
   id="radialGradient678"
   xlink:href="#id0"
   gradientUnits="userSpaceOnUse"
   gradientTransform="matrix(1.012393,0,0,0.987759,1.397285e-4,2.040894e-4)" />





<linearGradient
   x1="-711.693054"
   y1="51504.1445"
   x2="1388.03992"
   y2="51385.3320"
   id="linearGradient778"
   xlink:href="#linearGradient644"
   gradientUnits="userSpaceOnUse"
   gradientTransform="matrix(1.697750,0,0,0.589015,4.156958e-6,1.654277e-4)" />





<radialGradient
   cx="13189.8477"
   cy="11245.8770"
   r="16247.8682"
   fx="13189.8477"
   fy="11245.8770"
   id="radialGradient669"
   xlink:href="#linearGradient629"
   gradientUnits="userSpaceOnUse"
   gradientTransform="translate(-2.494761e-4,-2.492027e-4)" />





<linearGradient
   x1="10405.7812"
   y1="11262.0293"
   x2="18947.7695"
   y2="23030.8320"
   id="linearGradient793"
   xlink:href="#id0"
   gradientUnits="userSpaceOnUse"
   gradientTransform="translate(1.397285e-4,2.040894e-4)" />





<radialGradient
   cx="26631.0430"
   cy="29167.0762"
   r="4284.19775"
   fx="26631.0430"
   fy="29167.0762"
   id="radialGradient794"
   xlink:href="#id0"
   gradientUnits="userSpaceOnUse"
   gradientTransform="translate(-3.658095e-5,2.539787e-4)" />





<linearGradient
   x1="423.251190"
   y1="27912.2949"
   x2="4072.78394"
   y2="23662.5312"
   id="linearGradient627"
   xlink:href="#id3"
   gradientUnits="userSpaceOnUse"
   gradientTransform="matrix(0.690467,0,0,1.448296,4.156958e-6,1.654277e-4)" />





<linearGradient
   x1="-2259.07813"
   y1="23555.1309"
   x2="2204.68066"
   y2="23555.1035"
   id="linearGradient630"
   xlink:href="#id1"
   gradientUnits="userSpaceOnUse"
   gradientTransform="matrix(0.653498,0,0,1.530227,4.156958e-6,1.654277e-4)" />





<linearGradient
   x1="11455.3711"
   y1="11565.0820"
   x2="26417.0410"
   y2="29625.9570"
   id="linearGradient621"
   xlink:href="#id0"
   gradientUnits="userSpaceOnUse"
   gradientTransform="translate(1.397285e-4,2.040894e-4)" />





<radialGradient
   cx="18457.4902"
   cy="17771.8887"
   r="9355.05371"
   fx="18457.4902"
   fy="17771.8887"
   id="radialGradient670"
   xlink:href="#linearGradient660"
   gradientUnits="userSpaceOnUse"
   gradientTransform="matrix(1.000003,0,0,0.999997,1.397285e-4,2.040894e-4)" />





<linearGradient
   xlink:href="#id2"
   id="linearGradient1609"
   x1="942.657410"
   y1="4156.71484"
   x2="9775.70605"
   y2="4156.71484"
   gradientUnits="userSpaceOnUse"
   gradientTransform="scale(2.727851,0.366589)" />
</defs>
  <path
     style="font-size:12.000;fill:#000000;shape-rendering:geometricPrecision;text-rendering:geometricPrecision;image-rendering:optimizeQuality;fill-rule:evenodd;fill-opacity:1.0000;opacity:0.1656;"
     d="M 2952.048 29904.77 L 22001.35 29809.53 L 29047.95 22440.81 L 29047.94 1333.325 L 2952.048 1428.563 L 2952.048 29904.77 z "
     id="path913"
     nodetypes="cccccc"
     sodipodi:nodetypes="cccccc" />
  <path
     style="font-size:12.000;fill:url(#linearGradient602);opacity:1.0000;"
     d="M 1618.713 28666.67 L 20953.74 28666.67 L 28000.34 21297.95 L 28000.33 190.4714 L 1618.713 190.4714 L 1618.713 28666.67 z "
     id="path861"
     nodetypes="cccccc"
     sodipodi:nodetypes="cccccc" />
  <path
     style="font-size:12.000;fill:url(#radialGradient603);"
     d="M 2071.761 28119.38 L 20369.05 28119.38 L 20369.05 21035.38 L 27452.05 21035.38 L 27452.05 642.5150 L 2071.761 547.2850 L 2071.761 28119.38 z M 20821.10 28083.33 L 27226.53 21393.18 L 20821.10 21393.18 L 20821.10 28083.33 z "
     id="path863"
     nodetypes="ccccccccccc"
     sodipodi:nodetypes="ccccccccccc" />
  <path
     style="font-size:12.000;fill:url(#radialGradient604);shape-rendering:geometricPrecision;text-rendering:geometricPrecision;image-rendering:optimizeQuality;fill-rule:evenodd;fill-opacity:1.0000;"
     d="M 2167.001 15357.47 C 6012.129 16583.44 14080.33 17576.77 18559.53 14654.43 C 23656.48 11743.89 26233.91 7535.377 27547.29 547.2769 L 2167.001 547.2869 L 2167.001 15357.47 z M 27321.77 21297.94 L 27321.77 21297.94 z "
     id="path911"
     nodetypes="cccsccc"
     sodipodi:nodetypes="ccccccc" />
  <path
     style="font-size:12.000;fill:url(#linearGradient606);"
     d="M 2571.429 1523.806 L 2571.429 4761.903 L 8258.521 4761.903 L 9164.227 3145.657 L 19146.19 3010.970 L 20710.20 4761.903 L 26666.67 4761.903 L 26666.67 1523.806 L 2571.429 1523.806 z "
     id="path1610"
     sodipodi:nodetypes="ccccccccc" />
  <g
     id="g1657"
     transform="matrix(1.039585,0,0,1.039585,-304.1550,-8983.282)">
  
  
  
  
  
  <g
   transform="matrix(-0.718111,0,0,0.718111,22047.40,9030.353)"
   style="font-size:12.000;opacity:0.184700;"
   id="g701">
    <ellipse
   cx="27238.0977"
   cy="27523.8086"
   rx="2285.71484"
   ry="2285.71484"
   transform="matrix(1.036611,0,0,1.036611,-8223.773,-8828.788)"
   style="fill-rule:evenodd;stroke-width:1;"
   id="path695" />






    <path
   d="M 19682.64 17385.35 C 19218.72 16813.27 19039.73 17202.01 18796.97 17009.07 C 18610.66 16842.07 18923.69 16578.55 18518.34 16140.13 L 16540.40 18107.42 C 16878.39 18440.92 17063.99 18199.10 17271.00 18482.54 C 17426.23 18708.14 17253.89 19001.78 17753.71 19324.95 L 19682.64 17385.35 z "
   style="fill-rule:evenodd;"
   id="path696" />






    <rect
   width="4666.67383"
   height="1619.05005"
   x="-2063.94995"
   y="23097.4238"
   transform="matrix(0.707107,-0.707107,0.707107,0.707107,0,0)"
   style="fill-rule:evenodd;"
   id="rect697" />






    <path
   d="M 19648.88 9700.274 C 19648.88 14758.31 15548.54 18858.65 10490.51 18858.65 C 5432.487 18858.65 1332.146 14758.31 1332.146 9700.274 C 1332.146 4642.248 5432.487 541.9021 10490.51 541.9021 C 15548.54 541.9021 19648.88 4642.248 19648.88 9700.274 z M 18741.67 9700.265 C 18741.67 14257.25 15047.50 17951.42 10490.52 17951.42 C 5933.544 17951.42 2239.376 14257.25 2239.376 9700.265 C 2239.376 5143.279 5933.544 1449.114 10490.52 1449.114 C 15047.50 1449.114 18741.67 5143.279 18741.67 9700.265 z "
   style="fill-rule:evenodd;"
   id="path698" />






    <ellipse
   cx="27238.0977"
   cy="27523.8086"
   rx="2285.71484"
   ry="2285.71484"
   transform="matrix(0.958333,0,0,0.958333,944.4438,99.20413)"
   style="fill-rule:evenodd;stroke-width:1;"
   id="path699" />






    <rect
   width="5522.18066"
   height="11583.1084"
   x="-2374.95190"
   y="26814.2031"
   transform="matrix(0.707107,-0.707107,0.707107,0.707107,0,0)"
   id="rect700" />






  </g>






  <path
   d="M 22318.42 18076.28 C 22318.42 20235.88 20567.73 21986.56 18408.13 21986.56 C 16248.55 21986.56 14497.86 20235.88 14497.86 18076.28 C 14497.86 15916.69 16248.55 14166 18408.13 14166 C 20567.73 14166 22318.42 15916.69 22318.42 18076.28 z M 22911.07 17306.04 C 22911.07 20188.57 20574.32 22525.35 17691.78 22525.35 C 14809.24 22525.35 12472.48 20188.57 12472.48 17306.04 C 12472.48 14423.51 14809.24 12086.75 17691.78 12086.75 C 20574.32 12086.75 22911.07 14423.51 22911.07 17306.04 z "
   style="font-size:12.000;opacity:0.293000;fill:url(#radialGradient647);fill-rule:evenodd;"
   id="path667"
   transform="matrix(-1.161533,0,0,1.161533,34587.59,-4597.097)" />






  <ellipse
   cx="10168.8730"
   cy="9325.53613"
   rx="9226.06445"
   ry="9226.06348"
   transform="matrix(-0.669383,0,0,0.669383,20663.11,9171.831)"
   style="font-size:12.000;opacity:0.687900;fill:url(#radialGradient628);fill-rule:evenodd;"
   id="path643" />






  <ellipse
   cx="27238.0977"
   cy="27523.8086"
   rx="2285.71484"
   ry="2285.71484"
   transform="matrix(-0.744401,0,0,0.744401,27467.01,2205.212)"
   style="font-size:12.000;fill:#717386;fill-rule:evenodd;"
   id="path669" />






  <ellipse
   cx="27238.0977"
   cy="27523.8086"
   rx="2285.71484"
   ry="2285.71484"
   transform="matrix(-0.679328,0,0,0.679328,25694.52,3996.299)"
   style="font-size:12.000;fill:url(#radialGradient672);fill-rule:evenodd;"
   id="path666" />






  <ellipse
   cx="10168.8730"
   cy="9325.53613"
   rx="9226.06445"
   ry="9226.06348"
   transform="matrix(-0.669383,0,0,0.669383,20731.50,9171.831)"
   style="font-size:12.000;fill:url(#radialGradient656);fill-rule:evenodd;"
   id="path622" />






  <path
   d="M 23383.31 22063.05 C 23096.49 21709.37 22985.83 21949.71 22835.75 21830.42 C 22720.56 21727.18 22914.09 21564.25 22663.48 21293.20 L 21440.64 22509.47 C 21649.60 22715.65 21764.34 22566.15 21892.33 22741.38 C 21988.30 22880.86 21881.74 23062.40 22190.75 23262.20 L 23383.31 22063.05 z "
   style="font-size:12.000;fill:url(#radialGradient673);fill-rule:evenodd;"
   id="path675"
   transform="matrix(-1.161533,0,0,1.161533,34587.59,-4597.097)" />






  <path
   d="M 22751.25 17426.03 C 22751.25 20109.68 20591.48 22285.21 17927.28 22285.21 C 15263.09 22285.21 13103.32 20109.68 13103.32 17426.03 C 13103.32 14742.39 15263.09 12566.87 17927.28 12566.87 C 20591.48 12566.87 22751.25 14742.39 22751.25 17426.03 z M 23146.34 17229.07 C 23146.34 20240.35 20705.22 22681.47 17693.94 22681.47 C 14682.66 22681.47 12241.54 20240.35 12241.54 17229.07 C 12241.54 14217.79 14682.66 11776.67 17693.94 11776.67 C 20705.22 11776.67 23146.34 14217.79 23146.34 17229.07 z "
   style="font-size:12.000;fill:url(#radialGradient662);fill-rule:evenodd;"
   id="path661"
   transform="matrix(-1.161533,0,0,1.161533,34587.59,-4597.097)" />






  <rect
   width="2885.14652"
   height="1000.96915"
   x="-1346.76291"
   y="30210.4814"
   transform="matrix(-0.821328,-0.821328,-0.821328,0.821328,34587.59,-4597.097)"
   style="font-size:12.000;opacity:0.955400;fill:url(#radialGradient676);fill-rule:evenodd;"
   id="rect982" />






  <path
   d="M 23309.70 22166.10 C 23022.89 21812.41 22912.23 22052.75 22762.14 21933.47 C 22646.96 21830.22 22825.77 21578.98 22501.57 21263.76 L 21367.03 22376.99 C 21620.16 22627.34 21867.38 22463.11 21995.37 22638.35 C 22091.33 22777.82 21984.79 22959.36 22293.80 23159.16 L 23309.70 22166.10 z "
   style="font-size:12.000;fill:url(#radialGradient678);fill-rule:evenodd;"
   id="path677"
   transform="matrix(-1.161533,0,0,1.161533,34587.59,-4597.097)" />






  <rect
   width="2390.58000"
   height="829.384871"
   x="-1099.47627"
   y="30129.7584"
   transform="matrix(-0.821328,-0.821328,-0.821328,0.821328,34587.59,-4597.097)"
   style="font-size:12.000;fill:url(#linearGradient778);fill-rule:evenodd;"
   id="rect983" />






  <ellipse
   cx="9899.49609"
   cy="7843.98633"
   rx="3569.20630"
   ry="3569.20630"
   transform="matrix(-0.606234,0,0,0.606234,21954.58,7909.106)"
   style="font-size:12.000;opacity:0.210200;fill:url(#radialGradient669);fill-rule:evenodd;"
   id="path668" />






  <path
   d="M 23362.44 17311.80 C 23362.44 20438.91 20827.43 22973.91 17700.33 22973.91 C 14573.23 22973.91 12038.22 20438.91 12038.22 17311.80 C 12038.22 14184.70 14573.23 11649.69 17700.33 11649.69 C 20827.43 11649.69 23362.44 14184.70 23362.44 17311.80 z M 22801.56 17311.80 C 22801.56 20129.13 20517.66 22413.02 17700.34 22413.02 C 14883.01 22413.02 12599.11 20129.13 12599.11 17311.80 C 12599.11 14494.46 14883.01 12210.57 17700.34 12210.57 C 20517.66 12210.57 22801.56 14494.46 22801.56 17311.80 z "
   style="font-size:12.000;fill:url(#linearGradient793);fill-rule:evenodd;"
   id="path792"
   transform="matrix(-1.161533,0,0,1.161533,34587.59,-4597.097)" />






  <ellipse
   cx="27238.0977"
   cy="27523.8086"
   rx="2285.71484"
   ry="2285.71484"
   transform="matrix(-0.688190,0,0,0.688189,20883.21,8616.502)"
   style="font-size:12.000;fill:#808080;fill-rule:evenodd;"
   id="path619" />






  <ellipse
   cx="27238.0977"
   cy="27523.8086"
   rx="2285.71484"
   ry="2285.71484"
   transform="matrix(-0.624717,0,0,0.624717,19214.43,10355.21)"
   style="font-size:12.000;fill:url(#radialGradient794);fill-rule:evenodd;"
   id="path620" />






  <rect
   width="3414.05810"
   height="7161.19377"
   x="-1539.03771"
   y="32508.3553"
   transform="matrix(-0.821328,-0.821328,-0.821328,0.821328,34587.59,-4597.097)"
   style="font-size:12.000;fill:url(#linearGradient627);"
   id="rect624" />






  <rect
   width="2729.76338"
   height="6392.00510"
   x="-1196.83550"
   y="32892.9943"
   transform="matrix(-0.821328,-0.821328,-0.821328,0.821328,34587.59,-4597.097)"
   style="font-size:12.000;fill:url(#linearGradient630);"
   id="rect629" />






  <path
   d="M 22912.25 17267.63 C 22912.25 20128.52 20593.02 22447.74 17732.13 22447.74 C 14871.24 22447.74 12552.02 20128.52 12552.02 17267.63 C 12552.02 14406.73 14871.24 12087.52 17732.13 12087.52 C 20593.02 12087.52 22912.25 14406.73 22912.25 17267.63 z M 22757.62 17267.63 C 22757.62 20043.13 20507.62 22293.12 17732.13 22293.12 C 14956.63 22293.12 12706.65 20043.13 12706.65 17267.63 C 12706.65 14492.14 14956.63 12242.15 17732.13 12242.15 C 20507.62 12242.15 22757.62 14492.14 22757.62 17267.63 z "
   style="font-size:12.000;fill:url(#linearGradient621);fill-rule:evenodd;"
   id="path646"
   transform="matrix(-1.161533,0,0,1.161533,34587.59,-4597.097)" />






  <path
   d="M 18551.31 15682.87 C 18551.31 16841.98 17611.66 17781.63 16452.55 17781.63 C 15293.44 17781.63 14353.79 16841.98 14353.79 15682.87 C 14353.79 14523.76 15293.44 13584.11 16452.55 13584.11 C 17611.66 13584.11 18551.31 14523.76 18551.31 15682.87 z M 18919.51 15461.95 C 18919.51 16946.43 17716.11 18149.84 16231.63 18149.84 C 14747.15 18149.84 13543.74 16946.43 13543.74 15461.95 C 13543.74 13977.48 14747.15 12774.06 16231.63 12774.06 C 17716.11 12774.06 18919.51 13977.48 18919.51 15461.95 z "
   style="font-size:12.000;opacity:0.541400;fill:url(#radialGradient670);fill-rule:evenodd;"
   id="path659"
   transform="matrix(-1.161533,0,0,1.161533,34587.59,-4597.097)" />






  <path
   d="M 22193.12 23087.23 L 22286.34 23163.09 L 23319.59 22168.64 L 23263.18 22078.07 L 22193.12 23087.23 z "
   style="font-size:12.000;fill:#9a9ba9;fill-rule:evenodd;"
   id="path680"
   transform="matrix(-1.161533,0,0,1.161533,34587.59,-4597.097)" />






  <path
   d="M 21384.30 22399.31 L 21470.17 22462.65 L 22589.70 21365.06 L 22522.87 21261.88 L 21384.30 22399.31 z "
   style="font-size:12.000;fill:#8a92a0;fill-rule:evenodd;"
   id="path681"
   transform="matrix(-1.161533,0,0,1.161533,34587.59,-4597.097)" />







</g>
  <path
     fill="#000066"
     fill-opacity="0.788235"
     d="M 29156.81 17829.86 L 28849.74 22403.59 L 21476.82 26391.48 L 21466.76 26377.67 L 14884.78 28078.13 L 18884.47 22761.62 L 29156.81 17829.86 z "
     id="path767"
     style="font-size:12.000;fill:url(#radialGradient679);fill-opacity:0.788235;"
     sodipodi:nodetypes="ccccccc"
     transform="matrix(0.674317,0,0,0.674317,8086.597,7917.921)" />
  <path
     fill="url(#id6)"
     d="M 14890.38 20875.20 L 28973.40 2087.816 L 29861.07 3407.220 L 19642.13 23296.44 L 14890.38 20875.20 z "
     id="path803"
     style="font-size:12.000;fill:url(#radialGradient688);"
     sodipodi:nodetypes="ccccc"
     transform="matrix(0.674317,0,0,0.674317,8086.597,7917.921)" />
  <path
     fill="url(#id6)"
     d="M 14890.38 20875.20 L 25188.36 914.6226 L 26669.63 722.3226 L 16931.51 22091.95 L 14890.38 20875.20 z "
     id="path839"
     style="font-size:12.000;fill:url(#radialGradient689);"
     sodipodi:nodetypes="ccccc"
     transform="matrix(0.674317,0,0,0.674317,8086.597,7917.921)" />
  <path
     fill="url(#id6)"
     d="M 15476.59 21206.67 L 26633.68 746.3504 L 28836.09 2031.833 L 17985.40 22669.10 L 15476.59 21206.67 z "
     id="path982"
     style="font-size:12.000;fill:url(#radialGradient937);"
     sodipodi:nodetypes="ccccc"
     transform="matrix(0.674317,0,0,0.674317,8086.597,7917.921)" />
  <rect
     style="font-size:12.000;fill:#ffa700;"
     id="rect718"
     width="25879.0714"
     height="351.820806"
     x="-13984.1528"
     y="26400.4705"
     transform="matrix(0.311760,-0.597921,0.593323,0.320422,8086.597,7917.921)" />
  <rect
     style="font-size:12.000;fill:#ffffff;"
     id="rect717"
     width="24706.4974"
     height="336.356612"
     x="-13040.2201"
     y="23794.0253"
     transform="matrix(0.319633,-0.593749,0.597507,0.312553,8086.597,7917.921)" />
  <path
     fill="url(#id6)"
     d="M 19423.42 14035.54 L 26040.18 2097.170 C 26040.18 2097.170 28491.10 4539.021 26119.22 6122.796 C 22837.13 8214.519 22039.66 10554.52 19423.42 14035.54 z "
     id="path700"
     style="font-size:12.000;fill:url(#radialGradient682);"
     sodipodi:nodetypes="ccsc"
     transform="matrix(0.674317,0,0,0.674317,8086.597,7917.921)" />
  <path
     fill="url(#id6)"
     d="M 18839.02 13164.70 L 24964.23 1350.797 C 25299.31 2306.130 25078.58 2493.071 23123.01 5668.722 C 21143.60 8979.275 21455.13 9452.108 18839.02 13164.70 z "
     id="path711"
     style="font-size:12.000;fill:url(#radialGradient699);"
     sodipodi:nodetypes="ccsc"
     transform="matrix(0.674317,0,0,0.674317,8086.597,7917.921)" />
  <path
     style="font-size:12.000;fill:#ffa700;"
     d="M 14893.21 20891.22 L 15202.77 21058.39 L 25471.84 1034.946 L 25248.46 769.6923 L 14893.21 20891.22 z "
     id="path828"
     sodipodi:nodetypes="ccccc"
     transform="matrix(0.674317,0,0,0.674317,8086.597,7917.921)" />
  <path
     fill="url(#id7)"
     d="M 14656.24 28079.36 L 19652.85 23260.26 C 18900.04 22828.90 18259.92 22627.78 17777.54 21929.36 C 17295.15 21230.94 16057.19 20651.97 14901.08 20839.02 L 14656.24 28079.36 z "
     id="path805"
     style="font-size:12.000;fill:url(#radialGradient681);"
     sodipodi:nodetypes="ccccc"
     transform="matrix(0.674317,0,0,0.674317,8086.597,7917.921)" />
  <path
     fill="url(#id7)"
     d="M 15055.89 24879.98 C 15549.77 24503.74 15350.49 25489.46 16757.08 23866.42 C 18183.50 22341.17 17928.45 23213.99 17446.06 22515.57 C 17096.27 21582.67 16371.56 21085.34 15215.47 21272.37 L 15055.89 24879.98 z "
     id="path725"
     style="font-size:12.000;fill:url(#radialGradient687);"
     sodipodi:nodetypes="csccc"
     transform="matrix(0.674317,0,0,0.674317,8086.597,7917.921)" />
  <path
     fill="#4C4C4C"
     d="M 14646.48 28025.03 L 16776.82 26028.91 C 16457.18 25845.73 16318.80 25677.08 15941.06 25310.77 C 15562.09 24943.76 15034.20 24846.95 14761.60 25001.50 L 14646.48 28025.03 z "
     id="path807"
     style="font-size:12.000;fill:url(#linearGradient2292);"
     sodipodi:nodetypes="ccccc"
     transform="matrix(0.674317,0,0,0.674317,8086.597,7917.921)" />
  <path
     fill="url(#id7)"
     d="M 15018.54 26733.52 C 15512.41 26357.27 15217.90 25723.94 16624.50 24100.89 C 18050.91 22575.65 17653.14 23290.41 17170.75 22591.99 C 16688.36 21893.57 16334.20 21367.44 15178.12 21554.48 L 15018.54 26733.52 z "
     id="path749"
     style="font-size:12.000;fill:url(#radialGradient683);"
     sodipodi:nodetypes="csccc"
     transform="matrix(0.674317,0,0,0.674317,8086.597,7917.921)" />
  <path
     transform="matrix(0.311760,-0.597921,0.593323,0.320422,8086.597,7917.921)"
     style="font-size:12.000;fill:#ffa700;"
     d="M -11177.58 27831.67 L -11177.58 28183.49 L 11210.07 28033.52 L 12165.48 26577.24 L 12135.47 23961.17 L 11298.20 22745.81 L 11105.66 22981.52 L 11840.41 24049.29 L 11844.55 26500.27 L 11086.03 27709.20 L -11177.58 27831.67 z "
     id="path827"
     sodipodi:nodetypes="ccccccccccc" />
  <path
     fill="url(#id7)"
     d="M 14656.24 28079.36 L 19652.85 23260.26 C 18900.04 22828.90 19847.42 23774.30 19365.04 23075.89 L 14724.69 27585.90 L 14656.24 28079.36 z "
     id="path829"
     style="font-size:12.000;fill:url(#radialGradient838);"
     sodipodi:nodetypes="ccccc"
     transform="matrix(0.674317,0,0,0.674317,8086.597,7917.921)" />
  <path
     fill="#4C4C4C"
     d="M 14646.48 28113.22 L 16776.82 26028.91 C 16457.18 25845.73 16892.07 26206.25 16514.33 25839.94 L 14673.41 27603.24 L 14646.48 28113.22 z "
     id="path830"
     style="font-size:12.000;fill:url(#linearGradient834);"
     sodipodi:nodetypes="ccccc"
     transform="matrix(0.674317,0,0,0.674317,8086.597,7917.921)" />
</svg>
