<?xml version="1.0" encoding="UTF-8" standalone="no"?>
<!DOCTYPE svg PUBLIC "-//W3C//DTD SVG 20010904//EN"
"http://www.w3.org/TR/2001/REC-SVG-20010904/DTD/svg10.dtd">
<!-- Created with Sodipodi ("http://www.sodipodi.com/") -->
<svg
   version="1.0"
   x="0"
   y="0"
   width="106.299210"
   height="106.299210"
   viewBox="0 0 30000 30000"
   id="svg607"
   sodipodi:version="0.34-pre"
   sodipodi:docname="/home/david/.themes/eXperience 0.6/icons/font_underline"
   sodipodi:docbase="/home/david/.themes/eXperience 0.6/icons"
   inkscape:version="0.37cvs"
   xmlns="http://www.w3.org/2000/svg"
   xmlns:inkscape="http://www.inkscape.org/namespaces/inkscape"
   xmlns:sodipodi="http://sodipodi.sourceforge.net/DTD/sodipodi-0.dtd"
   xmlns:xlink="http://www.w3.org/1999/xlink"><sodipodi:namedview
   id="base"
   inkscape:zoom="3.57481492"
   inkscape:cx="42.5196844"
   inkscape:cy="42.5196838"
   inkscape:window-width="400"
   inkscape:window-height="500"
   inkscape:window-x="544"
   inkscape:window-y="112">
  <sodipodi:guide
     orientation="horizontal"
     position="72.6209183"
     id="guide660" />
</sodipodi:namedview>
<defs
   id="defs640">
  <linearGradient
     id="linearGradient774">
    <stop
       offset="0"
       style="stop-color:#000000;stop-opacity:1.0000;"
       id="stop776" />
    <stop
       offset="1"
       style="stop-color:#005dfa;stop-opacity:1.0000;"
       id="stop775" />
  </linearGradient>
  <linearGradient
     id="linearGradient770">
    <stop
       offset="0"
       style="stop-color:#002aff;stop-opacity:1.0000;"
       id="stop772" />
    <stop
       offset="1"
       style="stop-color:#ffffff;stop-opacity:1.0000;"
       id="stop771" />
  </linearGradient>
  <linearGradient
     x1="0"
     y1="0"
     x2="1"
     y2="0"
     id="linearGradient1669"
     gradientUnits="objectBoundingBox"
     spreadMethod="pad">
    <stop
       style="stop-color:#ffffff;stop-opacity:1;"
       offset="0.000000"
       id="stop1670" />
    <stop
       style="stop-color:#ffffff;stop-opacity:0;"
       offset="1.000000"
       id="stop1671" />
  </linearGradient>
  <linearGradient
     x1="0"
     y1="0"
     x2="1"
     y2="0"
     id="linearGradient745"
     gradientUnits="objectBoundingBox"
     spreadMethod="pad">
    <stop
       style="stop-color:#7f7f7f;stop-opacity:0.5294;"
       offset="0"
       id="stop746" />
    <stop
       style="stop-color:#ffffff;stop-opacity:0;"
       offset="1"
       id="stop747" />
  </linearGradient>
  <linearGradient
     x1="0"
     y1="0"
     x2="1"
     y2="0"
     id="linearGradient741"
     gradientUnits="objectBoundingBox"
     spreadMethod="pad">
    <stop
       style="stop-color:#ffffff;stop-opacity:1.0000;"
       offset="0"
       id="stop743" />
    <stop
       style="stop-color:#cacac5;stop-opacity:1.0000;"
       offset="1"
       id="stop742" />
  </linearGradient>
  <linearGradient
     x1="0"
     y1="0"
     x2="1"
     y2="0"
     id="linearGradient736"
     gradientUnits="objectBoundingBox"
     spreadMethod="pad">
    <stop
       style="stop-color:#7f7f7f;stop-opacity:0.4980;"
       offset="0"
       id="stop737" />
    <stop
       style="stop-color:#ffffff;stop-opacity:0;"
       offset="1"
       id="stop738" />
  </linearGradient>
  <defs
     id="defs610">
    <radialGradient
       cx="6867"
       cy="6867"
       r="7640"
       fx="6867"
       fy="6867"
       id="id0"
       xlink:href="#linearGradient741"
       gradientUnits="userSpaceOnUse"
       spreadMethod="pad" />
    <linearGradient
       x1="14911"
       y1="27330"
       x2="14911"
       y2="23440"
       id="id1"
       xlink:href="#linearGradient727"
       gradientUnits="userSpaceOnUse"
       spreadMethod="pad" />
    <linearGradient
       x1="27333"
       y1="14989"
       x2="23917"
       y2="14989"
       id="id2"
       xlink:href="#linearGradient732"
       gradientUnits="userSpaceOnUse"
       spreadMethod="pad" />
    <radialGradient
       cx="23895"
       cy="24036"
       r="2046.00000"
       fx="23895"
       fy="24036"
       id="id3"
       xlink:href="#linearGradient697"
       gradientUnits="userSpaceOnUse"
       spreadMethod="pad" />
  </defs>
  <radialGradient
     id="radialGradient702"
     xlink:href="#linearGradient1669"
     cx="0.089130"
     cy="0.061208"
     r="1.098415"
     fx="0.089130"
     fy="0.061208"
     gradientUnits="objectBoundingBox"
     gradientTransform="scale(0.922824,1.083630)" />
  <linearGradient
     id="linearGradient731"
     xlink:href="#linearGradient770"
     x1="1.56238580"
     y1="1.19233763"
     x2="0.48668587"
     y2="-0.25550109"
     gradientUnits="objectBoundingBox"
     gradientTransform="scale(1.029156,0.971670)" />
  <linearGradient
     id="linearGradient740"
     xlink:href="#linearGradient774"
     x1="21.3859692"
     y1="14.8859396"
     x2="3.58925343"
     y2="0.30379516"
     gradientUnits="objectBoundingBox"
     gradientTransform="scale(5.865461e-2,5.143276e-2)" />
  <radialGradient
     cx="26447.253906"
     cy="26694.275391"
     r="56101.468750"
     fx="26447.253906"
     fy="26694.275391"
     id="radialGradient744"
     xlink:href="#linearGradient741"
     gradientUnits="userSpaceOnUse"
     spreadMethod="pad" />
  <radialGradient
     cx="3325.57886"
     cy="3332.89624"
     r="16801.8867"
     fx="3325.57886"
     fy="3332.89624"
     id="radialGradient1672"
     xlink:href="#linearGradient1669" />
  <linearGradient
     id="linearGradient1673"
     xlink:href="#linearGradient770"
     x1="5.94658566"
     y1="0.18508564"
     x2="1.95887506"
     y2="-5.18217421"
     gradientUnits="objectBoundingBox"
     gradientTransform="scale(0.255249,3.917750)" />
  <linearGradient
     xlink:href="#linearGradient770"
     id="linearGradient773"
     y2="8548.04102"
     x2="17366.4941"
     y1="17584.3379"
     x1="24018.8965"
     gradientTransform="scale(0.816077,1.225375)"
     gradientUnits="userSpaceOnUse" />
  <linearGradient
     xlink:href="#linearGradient774"
     id="linearGradient777"
     y2="7244.16846"
     x2="17028.6445"
     y1="18461.4687"
     x1="33294.9531"
     gradientTransform="scale(0.834860,1.197806)"
     gradientUnits="userSpaceOnUse" />
  <linearGradient
     xlink:href="#linearGradient774"
     id="linearGradient778"
     y2="-4.68750000e-2"
     x2="-6.24999851e-2"
     y1="0.85937512"
     x1="1.07812512" />
</defs>
<path
   d="M 3794 1850 L 26206.00 1850 C 27276.00 1850 28150.00 2724 28150.00 3794 L 28150.00 26206.00 C 28150.00 27276.00 27276.00 28150.00 26206.00 28150.00 L 3794 28150.00 C 2724 28150.00 1850 27276.00 1850 26206.00 L 1850 3794 C 1850 2724 2724 1850 3794 1850 z "
   style="font-size:12.000;fill:#8b8d8d;fill-opacity:1.0000;"
   id="path631" />
<path
   d="M 3975 2676.999 L 26025.00 2676.999 C 26739.00 2676.999 27323.00 3260.999 27323.00 3974.999 L 27323.00 26025 C 27323.00 26739 26739.00 27323 26025.00 27323 L 3975 27323 C 3261 27323 2677 26739 2677 26025 L 2677 3974.999 C 2677 3260.999 3261 2676.999 3975 2676.999 z "
   style="font-size:12.000;fill:url(#radialGradient744);"
   id="path632" />
<defs
   id="defs663">
  <linearGradient
     id="linearGradient758"
     gradientUnits="userSpaceOnUse"
     x1="24177"
     y1="23637"
     x2="5823"
     y2="6363"
     spreadMethod="pad"
     xlink:href="#linearGradient774" />
  <linearGradient
     id="linearGradient761"
     gradientUnits="userSpaceOnUse"
     x1="22954"
     y1="22487"
     x2="7041"
     y2="7510"
     spreadMethod="pad"
     xlink:href="#linearGradient770" />
  <linearGradient
     xlink:href="#id0"
     id="linearGradient693"
     x1="1"
     y1="0.95312500"
     x2="0.30000001"
     y2="0.14062500" />
  <linearGradient
     xlink:href="#id0"
     id="linearGradient694" />
  <linearGradient
     xlink:href="#id1"
     id="linearGradient703"
     x1="31559.0996"
     y1="19793.5215"
     x2="13338.4033"
     y2="4556.09961"
     gradientUnits="userSpaceOnUse"
     gradientTransform="scale(0.816077,1.225375)" />
  <linearGradient
     xlink:href="#id0"
     id="linearGradient709"
     x1="27401.0020"
     y1="21072.3887"
     x2="14193.5186"
     y2="5742.27148"
     gradientUnits="userSpaceOnUse"
     gradientTransform="scale(0.834860,1.197806)" />
</defs>


 

 
  
   <path
   class="fil0"
   d="M 15864.61 20743.77 L 15754.03 20754.12 L 15641.38 20762.99 L 15525.26 20768.17 L 15411.92 20770.39 L 15293.73 20768.17 L 15171.40 20762.99 L 15052.53 20754.86 L 14936.42 20743.77 L 14823.76 20730.47 L 14714.56 20714.94 L 14608.82 20696.46 L 14505.84 20675.02 L 14404.93 20651.36 L 14309.56 20626.23 L 14216.25 20598.14 L 14126.40 20567.09 L 14038.63 20534.56 L 13955 20499.81 L 13873.45 20463.59 L 13794.66 20423.67 L 13718.63 20382.27 L 13646.06 20339.39 L 13575.57 20294.30 L 13507.84 20246.98 L 13442.18 20197.45 L 13379.29 20146.44 L 13318.47 20092.47 L 13259.72 20036.29 L 13202.36 19977.15 L 13147.76 19917.27 L 13094.54 19853.69 L 13042.70 19787.16 L 12992.94 19718.40 L 12945.25 19646.69 L 12898.95 19572.03 L 12847.80 19482.57 L 12795.28 19390.17 L 12748.97 19304.41 L 12704.05 19216.44 L 12659.81 19125.51 L 12616.96 19032.36 L 12576.19 18937.73 L 12536.79 18840.15 L 12498.78 18739.61 L 12461.46 18636.11 L 12426.21 18531.87 L 12392.34 18424.68 L 12359.86 18313.79 L 12328.76 18201.42 L 12299.04 18086.83 L 12271.39 17969.28 L 12245.13 17848.78 L 12220.25 17726.06 L 12196.75 17601.13 L 12175.33 17473.97 L 12155.28 17343.12 L 12137.31 17210.05 L 12120.04 17074.77 L 12105.52 16937.26 L 12091.70 16796.06 L 12079.95 16653.38 L 12070.27 16508.48 L 12061.98 16359.89 L 12055.07 16209.08 L 12050.23 16056.05 L 12046.78 15900.80 L 12046.08 15743.34 L 12046.08 15577.00 L 12046.08 10744.38 L 12044.70 10535.90 L 12044.70 10343.69 L 12046.08 10161.09 L 12048.85 9988.100 L 12053.69 9825.460 L 12060.60 9671.690 L 12068.20 9529.750 L 12077.88 9396.685 L 12088.24 9274.705 L 12099.99 9164.553 L 12113.12 9066.230 L 12126.26 8978.257 L 12140.77 8902.851 L 12153.90 8842.231 L 12166.34 8796.396 L 12175.33 8769.043 L 12175.33 8769.043 L 12189.84 8761.650 L 12213.34 8752.779 L 12245.13 8743.168 L 12285.91 8733.558 L 12334.98 8724.686 L 12393.03 8718.033 L 12458.69 8713.597 L 12579.64 8710.640 L 13362.70 8620.449 L 13603.21 8342.483 L 13675.78 8230.113 L 13731.07 8117.005 L 13771.16 8002.417 L 13797.42 7894.484 L 13814.01 7793.203 L 13823.69 7694.880 L 13827.14 7551.461 L 13807.10 7405.085 L 13784.29 7298.630 L 13750.43 7186.261 L 13699.28 7065.020 L 13626.02 6940.822 L 13528.57 6820.321 L 13405.55 6714.605 L 13145.68 6562.315 L 12771.78 6580.058 L 12604.52 6587.450 L 12438.65 6594.843 L 12274.85 6601.497 L 12113.12 6607.411 L 11953.47 6612.586 L 11795.89 6617.761 L 11639 6622.196 L 11485.57 6625.893 L 11333.52 6628.850 L 11183.55 6631.807 L 11034.95 6634.764 L 10888.43 6636.242 L 10743.98 6637.721 L 10601.61 6638.460 L 10460.62 6638.460 L 10323.08 6638.460 L 10184.16 6637.721 L 10041.79 6636.242 L 9897.341 6634.764 L 9749.438 6631.807 L 9599.462 6628.850 L 9447.412 6625.893 L 9292.597 6622.196 L 9134.327 6617.761 L 8974.674 6612.586 L 8812.257 6607.411 L 8647.076 6601.497 L 8479.130 6594.843 L 8309.110 6587.450 L 8136.326 6580.058 L 7763.803 6563.054 L 7497.025 6713.127 L 7360.180 6834.367 L 7254.436 6977.047 L 7182.558 7121.205 L 7137.634 7257.970 L 7113.444 7381.429 L 7101.695 7493.059 L 7100.313 7532.240 L 7095.475 7572.900 L 7089.946 7687.487 L 7096.166 7811.685 L 7116.209 7941.058 L 7154.221 8078.562 L 7215.732 8216.806 L 7300.051 8349.136 L 7549.551 8622.667 L 8347.123 8710.640 L 8465.307 8713.597 L 8530.965 8718.033 L 8588.329 8724.686 L 8637.400 8733.558 L 8678.177 8743.168 L 8710.660 8752.779 L 8734.850 8762.389 L 8750.746 8769.782 L 8757.657 8773.478 L 8760.422 8783.828 L 8772.862 8832.620 L 8785.994 8894.719 L 8799.126 8970.125 L 8812.257 9058.837 L 8824.698 9158.639 L 8835.756 9271.008 L 8846.123 9392.988 L 8854.417 9526.060 L 8862.019 9669.480 L 8868.239 9823.240 L 8872.386 9986.620 L 8875.151 10160.35 L 8877.224 10342.95 L 8876.533 10535.90 L 8875.151 10745.12 L 8875.151 16022.78 L 8875.151 16269.70 L 8878.606 16517.35 L 8885.518 16759.84 L 8895.885 16998.62 L 8909.707 17232.23 L 8926.986 17461.40 L 8947.029 17687.62 L 8971.219 17907.93 L 8998.864 18124.53 L 9029.965 18337.44 L 9063.831 18545.92 L 9102.535 18749.96 L 9144.694 18949.56 L 9190.309 19145.47 L 9239.379 19336.94 L 9293.288 19523.97 L 9349.961 19706.57 L 9411.472 19885.48 L 9476.439 20059.95 L 9545.553 20229.98 L 9618.813 20395.58 L 9696.912 20557.48 L 9779.157 20714.20 L 9865.549 20866.49 L 9956.088 21013.61 L 10052.16 21157.03 L 10151.68 21295.27 L 10256.04 21427.60 L 10364.55 21555.49 L 10477.90 21678.21 L 10595.39 21794.28 L 10722.56 21910.34 L 10851.11 22013.10 L 10971.37 22104.03 L 11093.01 22191.27 L 11216.72 22274.07 L 11341.82 22353.17 L 11468.29 22427.84 L 11597.54 22498.81 L 11704.66 22552.77 L 11809.72 22612.65 L 11941.72 22681.41 L 12075.80 22744.98 L 12211.96 22804.12 L 12349.49 22858.83 L 12489.79 22909.10 L 12632.17 22954.94 L 12764.17 22992.64 L 12892.73 23029.60 L 13028.88 23066.57 L 13166.42 23101.31 L 13303.26 23132.36 L 13440.11 23161.93 L 13578.33 23188.55 L 13716.56 23212.20 L 13855.48 23233.64 L 13993.71 23252.86 L 14133.32 23269.13 L 14272.93 23282.43 L 14412.53 23293.52 L 14552.84 23302.39 L 14693.14 23309.05 L 14833.44 23312.74 L 14977.88 23313.48 L 15144.45 23310.53 L 15307.56 23303.87 L 15468.59 23293.52 L 15628.93 23280.22 L 15787.20 23263.21 L 15944.09 23242.51 L 16099.60 23218.12 L 16253.03 23190.02 L 16405.08 23158.98 L 16555.06 23124.23 L 16703.65 23085.79 L 16850.86 23042.91 L 16996.00 22997.81 L 17139.07 22947.54 L 17280.75 22895.06 L 17421.05 22838.13 L 17558.59 22777.51 L 17694.74 22713.19 L 17828.82 22645.18 L 17960.83 22574.21 L 18090.76 22498.81 L 18219.31 22419.70 L 18345.10 22337.64 L 18468.81 22251.15 L 18590.45 22162.44 L 18710.02 22069.29 L 18826.82 21972.44 L 18942.24 21872.64 L 19054.90 21769.14 L 19165.48 21661.95 L 19273.30 21552.54 L 19395.63 21421.69 L 19524.87 21256.09 L 19636.14 21104.54 L 19743.96 20948.55 L 19846.94 20788.87 L 19944.39 20626.23 L 20038.38 20459.89 L 20126.85 20289.86 L 20211.17 20116.87 L 20290.65 19940.92 L 20365.29 19760.54 L 20435.10 19577.94 L 20500.75 19391.64 L 20561.57 19202.39 L 20617.56 19010.18 L 20668.70 18815.01 L 20717.77 18606.54 L 20754.40 18405.46 L 20786.19 18218.42 L 20815.91 18032.12 L 20843.56 17845.09 L 20869.13 17656.57 L 20891.94 17468.06 L 20912.67 17279.54 L 20932.02 17089.55 L 20948.61 16898.82 L 20963.12 16708.09 L 20974.87 16517.35 L 20985.24 16325.88 L 20992.84 16132.93 L 20998.37 15940.72 L 21001.83 15747.77 L 21003.21 15555.56 L 21003.21 13020.60 L 21003.21 12889.75 L 21003.90 12755.94 L 21004.59 12619.17 L 21005.98 12479.45 L 21006.67 12336.77 L 21008.74 12191.13 L 21010.81 12041.80 L 21012.89 11889.51 L 21015.65 11734.26 L 21018.42 11576.06 L 21021.18 11414.90 L 21024.64 11250.04 L 21028.78 11082.96 L 21032.24 10912.19 L 21036.39 10738.46 L 21039.84 10599.48 L 21046.06 10552.17 L 21055.74 10461.98 L 21065.41 10371.78 L 21074.40 10280.11 L 21082.00 10189.18 L 21088.91 10098.99 L 21094.44 10008.06 L 21100.66 9902.350 L 21101.35 9811.420 L 21102.73 9748.580 L 21105.50 9687.220 L 21108.95 9628.080 L 21113.79 9570.410 L 21119.32 9514.970 L 21125.54 9462.480 L 21138.67 9370.810 L 21144.20 9279.880 L 21149.04 9234.784 L 21153.88 9191.167 L 21160.10 9149.768 L 21166.32 9112.065 L 21173.23 9077.319 L 21180.83 9044.791 L 21191.89 9001.913 L 21206.40 8947.207 L 21220.23 8891.762 L 21232.67 8836.316 L 21244.42 8783.828 L 21283.12 8769.043 L 21328.04 8755.736 L 21376.42 8743.168 L 21428.26 8732.079 L 21485.62 8723.208 L 21547.13 8715.815 L 21636.29 8708.422 L 22408.29 8619.710 L 22642.59 8342.483 L 22707.55 8247.856 L 22763.53 8145.097 L 22809.15 8036.424 L 22843.02 7926.272 L 22866.51 7816.121 L 22879.65 7705.969 L 22885.87 7547.765 L 22860.98 7390.300 L 22833.34 7277.191 L 22792.56 7160.386 L 22735.20 7041.364 L 22659.86 6926.776 L 22569.33 6822.539 L 22467.04 6733.087 L 22200.95 6557.140 L 21849.85 6581.536 L 21730.29 6588.190 L 21609.34 6595.582 L 21486.31 6601.497 L 21361.91 6607.411 L 21236.81 6612.586 L 21109.65 6617.761 L 20980.40 6622.196 L 20850.47 6625.893 L 20719.15 6628.850 L 20585.76 6631.807 L 20450.99 6634.764 L 20314.84 6636.242 L 20177.30 6637.721 L 20038.38 6638.460 L 19898.08 6638.460 L 19754.33 6638.460 L 19610.57 6637.721 L 19467.51 6636.242 L 19325.13 6634.764 L 19182.76 6631.807 L 19041.07 6628.850 L 18900.08 6625.893 L 18759.09 6622.196 L 18617.41 6617.761 L 18477.11 6612.586 L 18337.50 6607.411 L 18197.89 6601.497 L 18058.28 6594.843 L 17920.05 6588.190 L 17781.82 6580.797 L 17402.39 6557.880 L 17132.16 6749.351 L 17030.56 6846.196 L 16942.09 6959.304 L 16871.60 7082.763 L 16820.45 7211.396 L 16787.28 7339.290 L 16770.00 7461.270 L 16767.93 7519.673 L 16763.09 7572.161 L 16761.02 7674.920 L 16767.24 7784.332 L 16783.82 7893.744 L 16810.09 8004.635 L 16848.10 8115.526 L 16897.17 8222.720 L 17127.32 8613.795 L 17994.69 8708.422 L 18083.85 8717.294 L 18153.66 8726.165 L 18215.86 8737.254 L 18271.15 8748.343 L 18320.22 8761.650 L 18361.69 8773.478 L 18396.24 8786.785 L 18423.20 8797.874 L 18442.55 8808.224 L 18446.70 8810.442 L 18456.37 8834.838 L 18476.42 8898.415 L 18497.15 8970.864 L 18518.58 9052.184 L 18539.31 9142.375 L 18558.66 9241.438 L 18578.70 9347.893 L 18596.67 9462.480 L 18613.95 9585.200 L 18629.85 9715.310 L 18645.74 9853.550 L 18658.88 9998.450 L 18672.01 10150.74 L 18683.07 10311.16 L 18692.74 10467.89 L 18701.04 10809.43 L 18704.49 10983.90 L 18708.64 11155.41 L 18712.09 11325.45 L 18714.86 11491.78 L 18717.62 11655.90 L 18720.39 11817.80 L 18722.46 11976.74 L 18724.53 12134.21 L 18726.61 12288.72 L 18727.30 12440.27 L 18728.68 12588.86 L 18729.37 12735.98 L 18730.06 12879.40 L 18730.75 13021.34 L 18730.75 15599.18 L 18730.75 15755.90 L 18729.37 15904.50 L 18725.92 16052.35 L 18721.08 16197.25 L 18714.17 16339.93 L 18705.87 16481.13 L 18696.20 16620.11 L 18684.45 16756.88 L 18671.32 16890.69 L 18656.11 17023.76 L 18639.52 17153.87 L 18621.55 17282.50 L 18601.51 17408.18 L 18579.40 17533.11 L 18556.59 17655.09 L 18532.40 17774.86 L 18505.44 17893.14 L 18477.80 18008.47 L 18448.08 18122.31 L 18416.98 18234.68 L 18384.50 18344.84 L 18350.63 18452.03 L 18314.69 18557.75 L 18277.37 18661.24 L 18238.67 18763.26 L 18198.58 18863.06 L 18157.11 18960.65 L 18114.26 19056.75 L 18069.34 19150.64 L 18023.72 19243.05 L 17976.03 19333.24 L 17926.27 19423.43 L 17875.13 19511.41 L 17825.37 19591.99 L 17774.91 19668.87 L 17722.39 19742.06 L 17667.79 19813.77 L 17611.80 19881.78 L 17555.13 19946.84 L 17496.38 20008.20 L 17435.56 20068.08 L 17373.36 20125.00 L 17309.78 20179.71 L 17244.12 20230.72 L 17176.39 20280.25 L 17106.58 20327.56 L 17034.71 20372.66 L 16960.75 20414.80 L 16883.35 20455.46 L 16804.56 20493.16 L 16723.00 20529.38 L 16638.68 20563.39 L 16552.29 20594.44 L 16462.44 20623.27 L 16370.52 20649.15 L 16274.46 20673.54 L 16176.31 20694.98 L 16075.41 20713.46 L 15971.74 20729.73 L 15864.61 20743.77 z M 6475.525 23424.37 L 6475.525 26000.00 L 23524.48 26000.00 L 23524.48 23424.37 L 6475.525 23424.37 z "
   id="path770"
   style="font-size:12.000;fill:url(#linearGradient740);shape-rendering:geometricPrecision;text-rendering:geometricPrecision;image-rendering:optimizeQuality;fill-rule:evenodd;" />


   <path
   class="fil1"
   d="M 19459.21 15597.70 C 19473.03 17322.42 19170.32 18734.43 18550.37 19825.60 C 17920.05 20961.86 16875.74 21535.53 15412.61 21550.32 C 13894.18 21535.53 12828.45 20984.04 12226.47 19889.17 C 11606.52 18834.97 11303.80 17397.09 11317.63 15575.52 L 11317.63 10748.07 C 11303.80 9611.809 11362.55 8859.233 11495.25 8487.379 C 11620.34 8118.482 11965.22 7932.185 12532.64 7932.185 L 13013.67 7876.001 C 13068.97 7820.555 13096.61 7727.407 13096.61 7596.556 C 13082.79 7462.748 13041.32 7380.688 12974.97 7351.118 C 12055.76 7395.474 11220.18 7418.391 10460.62 7418.391 C 9722.484 7418.391 8879.989 7395.474 7928.985 7351.118 C 7859.180 7380.688 7828.079 7462.748 7828.079 7596.556 C 7807.345 7727.407 7828.079 7820.555 7887.517 7876.001 L 8392.046 7932.185 C 8956.014 7932.185 9304.346 8118.482 9437.044 8487.379 C 9562.140 8859.233 9618.122 9611.809 9604.299 10748.07 L 9604.299 16022.78 C 9589.786 18615.41 10115.74 20373.40 11178.02 21301.18 C 11449.63 21524.44 11735.07 21710.74 12031.57 21855.64 C 12317.01 22023.45 12623.18 22149.87 12954.24 22239.32 C 13612.20 22436.71 14288.13 22533.55 14973.74 22533.55 C 16586.16 22518.77 17878.58 21971.70 18857.23 20894.58 C 19410.83 20209.28 19793.72 19393.86 20005.90 18436.50 C 20183.52 17497.63 20274.06 16536.58 20274.06 15553.34 L 20274.06 13020.60 C 20274.06 12319.77 20287.88 11496.96 20312.77 10539.60 C 20340.41 10316.34 20361.14 10092.34 20371.51 9876.469 C 20371.51 9664.299 20385.33 9466.919 20413.67 9284.314 C 20424.04 9094.321 20451.68 8930.203 20490.39 8792.698 C 20524.94 8661.847 20545.68 8553.913 20559.50 8464.461 C 20625.85 8297.386 20744.03 8170.231 20914.75 8084.476 C 21106.19 7995.763 21325.97 7946.971 21569.94 7932.185 L 22053.74 7876.001 C 22120.09 7805.031 22154.64 7712.622 22154.64 7596.556 C 22140.82 7477.533 22095.21 7395.474 22015.73 7351.118 C 21370.89 7395.474 20664.55 7418.391 19898.08 7418.391 C 19117.79 7418.391 18352.01 7395.474 17603.51 7351.118 C 17530.25 7395.474 17495.00 7470.140 17495.00 7574.378 C 17481.18 7689.704 17498.46 7790.245 17554.44 7876.001 L 18066.57 7932.185 C 18595.98 7976.542 18929.80 8133.268 19076.32 8401.623 C 19253.94 8800.091 19368.67 9477.999 19421.20 10431.67 C 19445.39 11400.11 19459.21 12264.32 19459.21 13020.60 L 19459.21 15597.70 z "
   id="path772"
   style="font-size:12.000;fill:url(#linearGradient731);shape-rendering:geometricPrecision;text-rendering:geometricPrecision;image-rendering:optimizeQuality;fill-rule:evenodd;" />


   <path
   class="fil1"
   d="M 7204.674 24204.31 L 22795.33 24204.31 L 22795.33 25220.07 L 7204.674 25220.07 L 7204.674 24204.31 z "
   id="path774"
   style="font-size:12.000;fill:url(#linearGradient1673);shape-rendering:geometricPrecision;text-rendering:geometricPrecision;image-rendering:optimizeQuality;fill-rule:evenodd;" />


  
 
<path
   d="M 3975 2677.001 L 26025.00 2677.001 C 26739.00 2677.001 27323.00 3261.001 27323.00 3975 C 25608.71 9308.335 21991.50 8764.117 11213.10 10846.80 C 6842.086 11587.96 8581.764 19977.10 2677 23644.05 L 2677 3975 C 2677 3261.001 3261 2677.001 3975 2677.001 z "
   style="font-size:12.000;fill:url(#radialGradient702);"
   id="path1668" />
</svg>
