<?xml version="1.0" encoding="UTF-8" standalone="no"?>
<!DOCTYPE svg PUBLIC "-//W3C//DTD SVG 1.0//EN"
"http://www.w3.org/TR/2001/REC-SVG-20010904/DTD/svg10.dtd">
<!-- Created with Sodipodi ("http://www.sodipodi.com/") -->
<svg
   xmlns="http://www.w3.org/2000/svg"
   xmlns:xlink="http://www.w3.org/1999/xlink"
   version="1.0"
   x="0"
   y="0"
   width="106.299210"
   height="106.299210"
   viewBox="0 0 30000 30000"
   id="svg607">
  <defs
     id="defs640">
    <linearGradient
       id="linearGradient774">
      <stop
         style="stop-color:#000000;stop-opacity:1.0000;"
         offset="0"
         id="stop776" />
      <stop
         style="stop-color:#005dfa;stop-opacity:1.0000;"
         offset="1"
         id="stop775" />
    </linearGradient>
    <linearGradient
       id="linearGradient770">
      <stop
         style="stop-color:#002aff;stop-opacity:1.0000;"
         offset="0"
         id="stop772" />
      <stop
         style="stop-color:#ffffff;stop-opacity:1.0000;"
         offset="1"
         id="stop771" />
    </linearGradient>
    <linearGradient
       x1="0"
       y1="0"
       x2="1"
       y2="0"
       id="linearGradient1669"
       gradientUnits="objectBoundingBox"
       spreadMethod="pad">
      <stop
         style="stop-color:#ffffff;stop-opacity:1.0000;"
         offset="0"
         id="stop1670" />
      <stop
         style="stop-color:#ffffff;stop-opacity:0;"
         offset="1"
         id="stop1671" />
    </linearGradient>
    <linearGradient
       x1="0"
       y1="0"
       x2="1"
       y2="0"
       id="linearGradient745"
       gradientUnits="objectBoundingBox"
       spreadMethod="pad">
      <stop
         style="stop-color:#7f7f7f;stop-opacity:0.5294;"
         offset="0"
         id="stop746" />
      <stop
         style="stop-color:#ffffff;stop-opacity:0;"
         offset="1"
         id="stop747" />
    </linearGradient>
    <linearGradient
       x1="0"
       y1="0"
       x2="1"
       y2="0"
       id="linearGradient741"
       gradientUnits="objectBoundingBox"
       spreadMethod="pad">
      <stop
         style="stop-color:#ffffff;stop-opacity:1.0000;"
         offset="0"
         id="stop743" />
      <stop
         style="stop-color:#cacac5;stop-opacity:1.0000;"
         offset="1"
         id="stop742" />
    </linearGradient>
    <linearGradient
       x1="0"
       y1="0"
       x2="1"
       y2="0"
       id="linearGradient736"
       gradientUnits="objectBoundingBox"
       spreadMethod="pad">
      <stop
         style="stop-color:#7f7f7f;stop-opacity:0.4980;"
         offset="0"
         id="stop737" />
      <stop
         style="stop-color:#ffffff;stop-opacity:0;"
         offset="1"
         id="stop738" />
    </linearGradient>
    <defs
       id="defs610">
      <radialGradient
         cx="6867"
         cy="6867"
         r="7640"
         fx="6867"
         fy="6867"
         id="id0"
         xlink:href="#linearGradient741"
         gradientUnits="userSpaceOnUse"
         spreadMethod="pad" />
      <linearGradient
         x1="14911"
         y1="27330"
         x2="14911"
         y2="23440"
         id="id1"
         gradientUnits="userSpaceOnUse"
         spreadMethod="pad" />
      <linearGradient
         x1="27333"
         y1="14989"
         x2="23917"
         y2="14989"
         id="id2"
         gradientUnits="userSpaceOnUse"
         spreadMethod="pad" />
      <radialGradient
         cx="23895"
         cy="24036"
         r="2046.00000"
         fx="23895"
         fy="24036"
         id="id3"
         gradientUnits="userSpaceOnUse"
         spreadMethod="pad" />
    </defs>
    <radialGradient
       cx="8.91299993e-2"
       cy="6.12079985e-2"
       r="1.09841502"
       fx="8.91299993e-2"
       fy="6.12079985e-2"
       id="radialGradient702"
       xlink:href="#linearGradient1669"
       gradientUnits="objectBoundingBox"
       gradientTransform="scale(0.922824,1.083630)" />
    <linearGradient
       x1="15370.1465"
       y1="27034.5547"
       x2="15419.5361"
       y2="24030.8848"
       id="linearGradient731"
       xlink:href="#linearGradient745"
       gradientUnits="userSpaceOnUse"
       spreadMethod="pad" />
    <linearGradient
       x1="27539.9707"
       y1="15442.5234"
       x2="24538.9102"
       y2="15337.4307"
       id="linearGradient740"
       xlink:href="#linearGradient736"
       gradientUnits="userSpaceOnUse"
       spreadMethod="pad" />
    <radialGradient
       cx="26447.2539"
       cy="26694.2754"
       r="56101.4688"
       fx="26447.2539"
       fy="26694.2754"
       id="radialGradient744"
       xlink:href="#linearGradient741"
       gradientUnits="userSpaceOnUse"
       spreadMethod="pad" />
    <radialGradient
       cx="3325.57886"
       cy="3332.89624"
       r="16801.8867"
       fx="3325.57886"
       fy="3332.89624"
       id="radialGradient1672"
       xlink:href="#linearGradient1669" />
    <linearGradient
       x1="7.84206316e-2"
       y1="9.37242657e-2"
       x2="1.00520957"
       y2="1.03096747"
       id="linearGradient1673"
       xlink:href="#linearGradient1669"
       gradientTransform="scale(0.922824,1.083630)" />
    <linearGradient
       x1="24018.8965"
       y1="17584.3379"
       x2="17366.4941"
       y2="8548.04102"
       id="linearGradient773"
       xlink:href="#linearGradient770"
       gradientUnits="userSpaceOnUse"
       gradientTransform="scale(0.816077,1.225375)" />
    <linearGradient
       x1="33294.9531"
       y1="18461.4687"
       x2="17028.6445"
       y2="7244.16846"
       id="linearGradient777"
       xlink:href="#linearGradient774"
       gradientUnits="userSpaceOnUse"
       gradientTransform="scale(0.834860,1.197806)" />
    <linearGradient
       x1="1.07812512"
       y1="0.85937512"
       x2="-6.24999851e-2"
       y2="-4.68750000e-2"
       id="linearGradient778"
       xlink:href="#linearGradient774" />
  </defs>
  <path
     d="M 3794 1850 L 26206.00 1850 C 27276.00 1850 28150.00 2724 28150.00 3794 L 28150.00 26206.00 C 28150.00 27276.00 27276.00 28150.00 26206.00 28150.00 L 3794 28150.00 C 2724 28150.00 1850 27276.00 1850 26206.00 L 1850 3794 C 1850 2724 2724 1850 3794 1850 z "
     style="font-size:12.000;fill:#8b8d8d;"
     id="path631" />
  <path
     d="M 3975 2676.999 L 26025.00 2676.999 C 26739.00 2676.999 27323.00 3260.999 27323.00 3974.999 L 27323.00 26025.00 C 27323.00 26739.00 26739.00 27323.00 26025.00 27323.00 L 3975 27323.00 C 3261 27323.00 2677 26739.00 2677 26025.00 L 2677 3974.999 C 2677 3260.999 3261 2676.999 3975 2676.999 z "
     style="font-size:12.000;fill:url(#radialGradient744);"
     id="path632" />
  <defs
     id="defs663">
    <linearGradient
       x1="24177"
       y1="23637"
       x2="5823"
       y2="6363"
       id="linearGradient758"
       xlink:href="#linearGradient774"
       gradientUnits="userSpaceOnUse"
       spreadMethod="pad" />
    <linearGradient
       x1="22954"
       y1="22487"
       x2="7041"
       y2="7510"
       id="linearGradient761"
       xlink:href="#linearGradient770"
       gradientUnits="userSpaceOnUse"
       spreadMethod="pad" />
    <linearGradient
       x1="1"
       y1="0.95312500"
       x2="0.30000001"
       y2="0.14062500"
       id="linearGradient693"
       xlink:href="#id0" />
    <linearGradient
       id="linearGradient694"
       xlink:href="#id0" />
    <linearGradient
       x1="31559.0996"
       y1="19793.5215"
       x2="13338.4033"
       y2="4556.09961"
       id="linearGradient703"
       xlink:href="#id1"
       gradientUnits="userSpaceOnUse"
       gradientTransform="scale(0.816077,1.225375)" />
    <linearGradient
       x1="27401.0020"
       y1="21072.3887"
       x2="14193.5186"
       y2="5742.27148"
       id="linearGradient709"
       xlink:href="#id0"
       gradientUnits="userSpaceOnUse"
       gradientTransform="scale(0.834860,1.197806)" />
  </defs>
  <path
     d="M 10681.78 21198.30 L 9698.470 21294.54 L 9440.332 21540.00 L 9360.503 21633.25 L 9288.881 21736.96 L 9229.196 21848.87 L 9182.194 21967.49 L 9149.367 22090.59 L 9129.969 22212.95 L 9124.001 22333.81 L 9130.715 22463.62 L 9153.843 22596.42 L 9191.893 22729.22 L 9247.847 22856.05 L 9317.231 22974.68 L 9399.298 23082.11 L 9489.572 23175.37 L 9795.458 23430.52 L 10266.22 23408.89 L 10427.37 23401.43 L 10587.78 23394.71 L 10748.18 23388.74 L 10909.33 23383.52 L 11070.48 23377.55 L 11231.63 23373.08 L 11393.53 23368.60 L 11554.68 23364.87 L 11717.32 23361.88 L 11879.21 23358.90 L 12041.86 23356.66 L 12204.50 23354.42 L 12367.89 23353.68 L 12531.27 23352.19 L 12695.41 23352.19 L 12861.04 23352.19 L 13028.90 23353.68 L 13198.26 23354.42 L 13369.10 23356.66 L 13540.70 23358.90 L 13714.53 23361.88 L 13889.86 23364.87 L 14065.93 23368.60 L 14244.24 23373.08 L 14424.04 23377.55 L 14604.59 23383.52 L 14786.63 23388.74 L 14970.16 23395.46 L 15155.18 23401.43 L 15342.44 23408.89 L 15805.75 23427.54 L 16090 23223.12 L 16175.05 23149.26 L 16254.88 23065.70 L 16325.76 22975.42 L 16386.93 22882.17 L 16438.41 22783.69 L 16482.43 22682.22 L 16552.56 22472.58 L 16545.10 22256.22 L 16533.91 22154.01 L 16514.51 22049.56 L 16484.67 21939.14 L 16441.40 21827.98 L 16385.44 21718.31 L 16314.57 21612.36 L 16052.70 21299.76 L 15041.03 21200.54 L 14894.81 21181.89 L 14855.26 21172.93 L 14856.01 21151.30 L 14861.23 21088.63 L 14870.19 21013.28 L 14882.87 20926.73 L 14901.52 20829.00 L 14923.90 20720.07 L 14950.76 20601.45 L 14982.84 20473.12 L 15019.40 20335.85 L 15061.18 20188.87 L 15106.69 20033.69 L 15158.17 19869.56 L 15213.37 19697.22 L 15277.54 19505.48 L 17946.21 10961.55 L 18008.13 10757.88 L 18067.07 10569.13 L 18124.52 10389.32 L 18181.22 10219.22 L 18234.93 10060.31 L 18287.90 9911.096 L 18338.64 9771.582 L 18387.88 9643.259 L 18434.13 9525.381 L 18478.90 9417.948 L 18521.42 9321.705 L 18560.96 9237.400 L 18596.77 9165.032 L 18628.11 9106.093 L 18654.97 9060.583 L 18670.64 9036.709 L 18678.84 9026.264 L 18688.54 9015.819 L 18700.48 9003.882 L 18716.14 8990.453 L 18734.80 8977.024 L 18759.42 8962.102 L 18789.26 8945.689 L 18825.07 8929.276 L 18866.85 8912.862 L 18916.09 8895.703 L 18971.30 8880.035 L 19033.97 8865.114 L 19102.61 8852.431 L 19178.70 8840.494 L 19260.77 8830.795 L 19393.57 8819.604 L 20214.24 8686.059 L 20437.31 8529.385 L 20540.27 8440.604 L 20635.77 8334.663 L 20720.82 8210.816 L 20789.46 8074.286 L 20837.95 7930.296 L 20864.81 7786.306 L 20876.00 7599.790 L 20845.41 7426.703 L 20812.58 7308.079 L 20765.58 7189.454 L 20701.42 7068.592 L 20620.10 6955.190 L 20526.84 6852.233 L 20420.90 6762.706 L 20129.94 6569.475 L 19686.77 6589.619 L 19506.97 6597.826 L 19328.66 6604.540 L 19152.59 6611.255 L 18978.01 6617.223 L 18805.67 6623.192 L 18634.08 6628.414 L 18464.72 6632.145 L 18297.60 6636.621 L 18132.72 6639.605 L 17968.59 6642.589 L 17807.44 6644.828 L 17647.04 6647.066 L 17489.62 6648.558 L 17333.69 6649.304 L 17179.25 6649.304 L 17013.63 6649.304 L 16848.75 6648.558 L 16684.61 6647.066 L 16520.48 6644.828 L 16356.34 6642.589 L 16192.96 6639.605 L 16030.31 6636.621 L 15867.67 6632.145 L 15704.28 6628.414 L 15542.39 6623.192 L 15380.49 6617.223 L 15218.60 6611.255 L 15056.70 6604.540 L 14896.30 6597.826 L 14735.89 6590.365 L 14374.80 6571.713 L 14118.15 6691.830 L 14008.48 6758.229 L 13904.78 6839.550 L 13810.77 6932.062 L 13726.47 7038.003 L 13657.83 7149.167 L 13602.62 7266.299 L 13542.19 7444.608 L 13530.25 7619.933 L 13530.25 7720.652 L 13538.46 7825.101 L 13555.62 7930.296 L 13580.99 8034.745 L 13616.80 8139.194 L 13661.56 8240.659 L 13884.63 8650.248 L 14876.15 8816.620 L 15092.51 8843.478 L 15222.33 8870.337 L 15227.55 8871.829 L 15219.34 8928.530 L 15204.42 9018.803 L 15184.28 9120.268 L 15159.66 9232.178 L 15131.31 9354.532 L 15096.99 9487.331 L 15058.94 9629.084 L 15016.41 9779.789 L 14968.67 9940.192 L 14916.44 10108.80 L 14858.99 10287.11 L 14796.33 10479.60 L 12044.10 19022.78 L 11979.93 19236.15 L 11920.25 19428.64 L 11862.80 19611.42 L 11806.10 19783.02 L 11751.64 19944.91 L 11697.92 20095.62 L 11646.44 20236.62 L 11597.20 20366.44 L 11549.45 20485.06 L 11503.20 20592.50 L 11459.93 20688.74 L 11420.39 20771.55 L 11383.83 20842.43 L 11351.75 20899.13 L 11324.89 20942.40 L 11317.43 20953.59 L 11308.48 20963.29 L 11283.86 20988.66 L 11257.74 21012.53 L 11230.89 21034.17 L 11202.53 21054.31 L 11173.44 21072.96 L 11142.10 21090.87 L 11107.78 21108.03 L 11069.74 21123.69 L 11029.45 21138.61 L 10986.18 21152.04 L 10939.17 21164.73 L 10886.20 21175.17 L 10830.25 21184.87 L 10769.82 21191.58 L 10681.78 21198.30 z "
     style="font-size:12.000;fill:url(#linearGradient777);"
     id="path686" />
  <path
     d="M 12805.83 19260.02 C 12470.84 20396.28 12184.36 21124.44 11947.85 21444.50 C 11669.57 21780.23 11273.41 21963.01 10751.17 21993.60 L 10049.12 22062.24 C 9965.561 22134.61 9923.781 22226.38 9923.781 22333.06 C 9923.781 22450.94 9973.022 22546.44 10068.52 22618.81 C 10933.95 22577.03 11806.85 22553.90 12695.41 22553.90 C 13591.43 22553.90 14548.63 22577.03 15562.53 22618.81 C 15650.57 22562.10 15715.48 22474.07 15749.79 22356.19 C 15749.79 22233.84 15719.21 22134.61 15650.57 22062.24 L 14953 21993.60 C 14388.23 21948.09 14091.29 21733.97 14064.44 21345.27 C 14018.93 20978.96 14171.12 20285.12 14518.04 19260.02 L 17182.98 10726.54 C 17518.71 9612.671 17796.99 8896.450 18018.58 8575.642 C 18246.87 8251.850 18674.37 8069.065 19295.84 8027.285 L 19905.37 7928.059 C 20020.26 7855.690 20073.24 7763.925 20073.24 7645.300 C 20058.31 7527.422 20004.60 7435.656 19905.37 7378.956 C 18922.06 7424.465 18010.37 7447.593 17179.25 7447.593 C 16283.23 7447.593 15402.88 7424.465 14532.96 7378.956 C 14430.01 7420.735 14361.37 7496.834 14331.53 7603.521 C 14319.59 7718.415 14338.99 7825.102 14400.17 7928.059 L 14991.05 8027.285 C 15643.11 8083.986 15990.03 8282.439 16035.54 8618.168 C 16066.13 8968.818 15905.72 9673.848 15555.07 10726.54 L 12805.83 19260.02 z "
     style="font-size:12.000;fill:url(#linearGradient773);"
     id="path688" />
  <path
     d="M 3975 2677.001 L 26025.00 2677.001 C 26739.00 2677.001 27323.00 3261.001 27323.00 3975 C 25608.71 9308.335 21991.50 8764.117 11213.10 10846.80 C 6842.086 11587.96 8581.764 19977.10 2677 23644.05 L 2677 3975 C 2677 3261.001 3261 2677.001 3975 2677.001 z "
     style="font-size:12.000;fill:url(#radialGradient702);"
     id="path1668" />
</svg>
