<?xml version="1.0" encoding="UTF-8" standalone="no"?>
<!DOCTYPE svg PUBLIC "-//W3C//DTD SVG 20010904//EN"
"http://www.w3.org/TR/2001/REC-SVG-20010904/DTD/svg10.dtd">
<!-- Created with Inkscape (http://www.inkscape.org/) -->
<svg
   version="1.0"
   x="0.0000000"
   y="0.0000000"
   width="60.000000"
   height="60.000000"
   viewBox="0 0 282.663 326.846"
   id="svg1635"
   xml:space="preserve"
   sodipodi:version="0.32"
   inkscape:version="0.40"
   sodipodi:docname="exp5.svg"
   sodipodi:docbase="/home/nightd/Desktop/MARKET/ICONS/km_icons/Icons Main SVG v.2"
   xmlns="http://www.w3.org/2000/svg"
   xmlns:cc="http://web.resource.org/cc/"
   xmlns:inkscape="http://www.inkscape.org/namespaces/inkscape"
   xmlns:sodipodi="http://sodipodi.sourceforge.net/DTD/sodipodi-0.dtd"
   xmlns:rdf="http://www.w3.org/1999/02/22-rdf-syntax-ns#"
   xmlns:xml="http://www.w3.org/XML/1998/namespace"
   xmlns:dc="http://purl.org/dc/elements/1.1/"
   xmlns:xlink="http://www.w3.org/1999/xlink"><metadata
   id="metadata191">
  <rdf:RDF
   id="RDF192">
    <cc:Work
   rdf:about=""
   id="Work193">
      <dc:format
   id="format194">image/svg+xml</dc:format>


      <dc:type
   id="type196"
   rdf:resource="http://purl.org/dc/dcmitype/StillImage" />


    </cc:Work>


  </rdf:RDF>


</metadata>


<sodipodi:namedview
   id="base"
   pagecolor="#ffffff"
   bordercolor="#666666"
   borderopacity="1.0"
   inkscape:pageopacity="0.0"
   inkscape:pageshadow="2"
   inkscape:zoom="6.9465337"
   inkscape:cx="29.869803"
   inkscape:cy="26.066586"
   inkscape:window-width="640"
   inkscape:window-height="541"
   inkscape:window-x="335"
   inkscape:window-y="143"
   inkscape:current-layer="svg1635" />



  <defs
   id="defs2139">
    <linearGradient
   x1="-930.16803"
   y1="141.01660"
   x2="-767.77118"
   y2="141.01660"
   id="XMLID_15_"
   gradientUnits="userSpaceOnUse">
							<stop
   style="stop-color:#fdfff1;stop-opacity:1.0000000;"
   offset="0.0000000"
   id="stop1838" />







							<stop
   style="stop-color:#cacdc1;stop-opacity:1.0000000;"
   offset="1.0000000"
   id="stop1840" />







							<midPointStop
   offset="0"
   style="stop-color:#FAFDEF"
   id="midPointStop1842" />







							<midPointStop
   offset="0.5"
   style="stop-color:#FAFDEF"
   id="midPointStop1844" />







							<midPointStop
   offset="1"
   style="stop-color:#EBF0E2"
   id="midPointStop1846" />







						</linearGradient>



    <linearGradient
   x1="-247.64360"
   y1="135.28220"
   x2="-85.255798"
   y2="135.28220"
   id="XMLID_14_"
   gradientUnits="userSpaceOnUse">
								<stop
   style="stop-color:#fbfdef;stop-opacity:1.0000000;"
   offset="0.0000000"
   id="stop1789" />







								<stop
   style="stop-color:#cacdc1;stop-opacity:1.0000000;"
   offset="1.0000000"
   id="stop1791" />







								<midPointStop
   offset="0"
   style="stop-color:#FAFDEF"
   id="midPointStop1793" />







								<midPointStop
   offset="0.5"
   style="stop-color:#FAFDEF"
   id="midPointStop1795" />







								<midPointStop
   offset="1"
   style="stop-color:#EBF0E2"
   id="midPointStop1797" />







							</linearGradient>



    <linearGradient
   id="linearGradient6300">
      <stop
   style="stop-color:#fac936;stop-opacity:1.0000000;"
   offset="0.0000000"
   id="stop6301" />



      <stop
   style="stop-color:#ffff9b;stop-opacity:1.0000000;"
   offset="1.0000000"
   id="stop6302" />



    </linearGradient>



    <linearGradient
   x1="254.62160"
   y1="111.62110"
   x2="37.963799"
   y2="299.36551"
   id="XMLID_17_"
   gradientUnits="userSpaceOnUse">
						<stop
   style="stop-color:#ffff90;stop-opacity:1.0000000;"
   offset="0.0000000"
   id="stop1904" />







						<stop
   style="stop-color:#ffdc47;stop-opacity:1.0000000;"
   offset="1.0000000"
   id="stop1906" />







						<midPointStop
   offset="0"
   style="stop-color:#FFFF90"
   id="midPointStop1908" />







						<midPointStop
   offset="0.5"
   style="stop-color:#FFFF90"
   id="midPointStop1910" />







						<midPointStop
   offset="1"
   style="stop-color:#FFDC47"
   id="midPointStop1912" />







					</linearGradient>



    <linearGradient
   x1="181.93800"
   y1="179.42480"
   x2="97.737701"
   y2="307.10580"
   id="XMLID_18_"
   gradientUnits="userSpaceOnUse">
						<stop
   style="stop-color:#fffd8d;stop-opacity:1.0000000;"
   offset="0.0000000"
   id="stop1919" />







						<stop
   style="stop-color:#ffb900;stop-opacity:1.0000000;"
   offset="1.0000000"
   id="stop1921" />







						<midPointStop
   offset="0"
   style="stop-color:#FFFD8D"
   id="midPointStop1923" />







						<midPointStop
   offset="0.5"
   style="stop-color:#FFFD8D"
   id="midPointStop1925" />







						<midPointStop
   offset="1"
   style="stop-color:#FED000"
   id="midPointStop1927" />







					</linearGradient>



    <linearGradient
   x1="191.02589"
   y1="154.78419"
   x2="106.82560"
   y2="282.46509"
   id="XMLID_19_"
   gradientUnits="userSpaceOnUse">
						<stop
   style="stop-color:#fffd8d;stop-opacity:1.0000000;"
   offset="0.0000000"
   id="stop1934" />







						<stop
   style="stop-color:#ffb900;stop-opacity:1.0000000;"
   offset="1.0000000"
   id="stop1936" />







						<midPointStop
   offset="0"
   style="stop-color:#FFFD8D"
   id="midPointStop1938" />







						<midPointStop
   offset="0.5"
   style="stop-color:#FFFD8D"
   id="midPointStop1940" />







						<midPointStop
   offset="1"
   style="stop-color:#FED000"
   id="midPointStop1942" />







					</linearGradient>



    <linearGradient
   x1="195.54930"
   y1="129.18159"
   x2="111.34670"
   y2="256.86609"
   id="XMLID_20_"
   gradientUnits="userSpaceOnUse">
						<stop
   style="stop-color:#fffd8d;stop-opacity:1.0000000;"
   offset="0.0000000"
   id="stop1949" />







						<stop
   style="stop-color:#ffb900;stop-opacity:1.0000000;"
   offset="1.0000000"
   id="stop1951" />







						<midPointStop
   offset="0"
   style="stop-color:#FFFD8D"
   id="midPointStop1953" />







						<midPointStop
   offset="0.5"
   style="stop-color:#FFFD8D"
   id="midPointStop1955" />







						<midPointStop
   offset="1"
   style="stop-color:#FED000"
   id="midPointStop1957" />







					</linearGradient>



    <linearGradient
   x1="254.62160"
   y1="111.62110"
   x2="37.963799"
   y2="299.36551"
   id="linearGradient2877"
   xlink:href="#XMLID_17_"
   gradientUnits="userSpaceOnUse"
   gradientTransform="matrix(1.116878,0.000000,0.000000,0.978198,-8.568303,4.167892)" />



    <linearGradient
   x1="181.93800"
   y1="179.42480"
   x2="97.737701"
   y2="307.10580"
   id="linearGradient2878"
   xlink:href="#XMLID_18_"
   gradientUnits="userSpaceOnUse" />



    <linearGradient
   x1="191.02589"
   y1="154.78419"
   x2="106.82560"
   y2="282.46509"
   id="linearGradient2879"
   xlink:href="#XMLID_19_"
   gradientUnits="userSpaceOnUse" />



    <linearGradient
   x1="195.54930"
   y1="129.18159"
   x2="111.34670"
   y2="256.86609"
   id="linearGradient2880"
   xlink:href="#XMLID_20_"
   gradientUnits="userSpaceOnUse" />



    <linearGradient
   x1="-50.838581"
   y1="161.20946"
   x2="243.64079"
   y2="269.36429"
   id="linearGradient6303"
   xlink:href="#linearGradient6300"
   gradientUnits="userSpaceOnUse"
   gradientTransform="scale(1.092432,0.915389)" />



    <linearGradient
   x1="198.69469"
   y1="76.751778"
   x2="162.69092"
   y2="114.37867"
   id="linearGradient8191"
   xlink:href="#XMLID_14_"
   gradientUnits="userSpaceOnUse" />



    <linearGradient
   x1="124.67036"
   y1="88.578201"
   x2="121.27327"
   y2="189.56952"
   id="linearGradient8318"
   xlink:href="#XMLID_15_"
   gradientUnits="userSpaceOnUse" />



    <linearGradient
   x1="-50.838581"
   y1="161.20946"
   x2="243.64079"
   y2="269.36429"
   id="linearGradient12561"
   xlink:href="#linearGradient6300"
   gradientUnits="userSpaceOnUse"
   gradientTransform="scale(1.092432,0.915389)" />



    <linearGradient
   x1="254.62160"
   y1="111.62110"
   x2="37.963799"
   y2="299.36551"
   id="linearGradient12562"
   xlink:href="#XMLID_17_"
   gradientUnits="userSpaceOnUse"
   gradientTransform="matrix(1.116878,0.000000,0.000000,0.978198,-8.568303,4.167892)" />



    <linearGradient
   x1="181.93800"
   y1="179.42480"
   x2="97.737701"
   y2="307.10580"
   id="linearGradient12563"
   xlink:href="#XMLID_18_"
   gradientUnits="userSpaceOnUse" />



    <linearGradient
   x1="191.02589"
   y1="154.78419"
   x2="106.82560"
   y2="282.46509"
   id="linearGradient12564"
   xlink:href="#XMLID_19_"
   gradientUnits="userSpaceOnUse" />



    <linearGradient
   x1="195.54930"
   y1="129.18159"
   x2="111.34670"
   y2="256.86609"
   id="linearGradient12565"
   xlink:href="#XMLID_20_"
   gradientUnits="userSpaceOnUse" />



  
    

    

    

    

  
    

    

  </defs>



  <path
   d="M 111.62448,127.73779 C 92.788337,133.77621 100.73716,109.89350 82.004887,115.89475 L 2.7981560,141.28486 C -2.2423130,142.90280 -5.7928670,147.62064 -5.1383770,151.82787 L 20.282875,314.97567 L 269.75537,235.01776 L 246.30876,84.566974 L 111.62448,127.73779 z "
   style="fill:url(#linearGradient12561);fill-opacity:1.0000000;"
   id="path1778"
   transform="matrix(0.872611,0.000000,0.000000,1.000000,11.54762,1.203724)" />

<path
   d="M 245.15614,81.813347 L 110.46628,124.97927 C 103.78959,127.12250 102.43258,124.88830 99.730847,120.43652 C 97.029127,115.98963 92.951407,109.26159 80.853387,113.14014 L 1.6466550,138.52634 C -4.8904300,140.62262 -9.3311350,146.63951 -8.4588540,152.22111 L 16.962398,315.37380 C 17.102008,316.25417 17.689486,317.02891 18.556183,317.49160 C 19.421763,317.95330 20.488381,318.03841 21.433259,317.73028 L 270.90576,237.77725 C 272.39120,237.29989 273.29364,235.98911 273.07473,234.61963 L 249.62812,84.174717 C 249.49521,83.294338 248.91220,82.513736 248.03992,82.052027 C 247.16764,81.595208 246.11442,81.511083 245.15614,81.813347 z M 243.55119,88.578565 C 244.61110,95.360412 265.37944,228.63990 266.07079,233.07603 C 261.18222,234.63626 30.544747,308.56065 23.043797,310.96506 C 21.966010,304.05115 -1.8201330,151.42486 -1.8201330,151.42486 C -1.8491720,151.21259 -1.8670420,150.99934 -1.8670420,150.78805 C -1.8670420,148.08138 0.64146505,145.10081 3.9541240,144.03946 L 83.161967,118.65522 C 89.771657,116.53742 91.116377,118.76087 93.806927,123.19210 C 96.514247,127.65464 100.60425,134.40421 112.77487,130.49924 L 112.77487,130.49924 C 112.77487,130.49826 236.17756,90.945804 243.55119,88.578565 z "
   style="fill:#ffcc00;fill-opacity:1.0000000;"
   id="path1780"
   transform="matrix(0.872611,0.000000,0.000000,1.000000,11.54762,1.203724)" />



  <polygon
   points="205.35700,1.4980000 87.083000,73.653000 93.028000,269.06700 211.29600,196.99300 205.35700,1.4980000 "
   transform="matrix(1.116878,0.000000,0.000000,0.978198,-16.15196,15.75897)"
   style="fill:url(#linearGradient8191);fill-opacity:1.0000000"
   id="polygon1800" />



  <path
   d="M 212.32778,15.972216 L 80.236847,86.554093 C 79.727557,86.829945 79.419297,87.328826 79.437167,87.854118 L 86.077007,279.00771 C 86.089287,279.52713 86.427707,280.00547 86.949287,280.25002 C 87.476457,280.49946 88.113077,280.48283 88.621257,280.21774 L 220.71218,209.71020 C 221.22706,209.44022 221.53644,208.94623 221.51857,208.41605 L 214.87873,17.181269 C 214.85974,16.661846 214.52803,16.183507 214.00086,15.939936 C 213.47258,15.685604 212.84266,15.701256 212.32778,15.972216 z M 211.61298,19.793058 C 211.78163,24.689917 218.07747,205.97936 218.13890,207.65110 C 216.52054,208.51093 94.050397,273.88195 89.337167,276.39201 C 89.167407,271.50493 82.878267,90.289831 82.817957,88.618091 C 84.429607,87.754342 206.90534,22.318765 211.61298,19.793058 z "
   style="fill:#b9bfb6"
   id="path1802" />



  <g
   transform="translate(-11.43538,11.43538)"
   id="g12456">
    <g
   transform="matrix(1.116878,0.000000,0.000000,0.978198,-4.716576,4.323590)"
   id="g1805">
							
								<rect
   width="2.7390001"
   height="103.22500"
   x="141.19501"
   y="25.426001"
   transform="matrix(-0.510900,-0.859600,0.859600,-0.510900,149.1801,238.9506)"
   style="fill:#fafdef"
   id="rect1807" />






 
							<path
   d="M 184.85300,47.253000 L 97.287000,101.91500 C 96.593000,102.34900 96.370000,103.26000 96.793000,103.96000 L 98.192000,106.31900 C 98.398000,106.66600 98.740000,106.91600 99.130000,107.00700 C 99.526000,107.10000 99.938000,107.03400 100.28000,106.82200 L 187.84100,52.161000 C 188.53500,51.726000 188.75800,50.816000 188.33500,50.116000 L 186.93500,47.756000 C 186.73000,47.409000 186.39300,47.160000 185.99700,47.068000 C 185.60700,46.976000 185.18900,47.042000 184.85300,47.253000 z "
   style="fill:#b9bfb6"
   id="path1809" />







						</g>



    <g
   transform="matrix(1.116878,0.000000,0.000000,0.978198,-4.716576,4.323590)"
   id="g1812">
							<polygon
   points="98.540000,122.84200 99.939000,125.19600 187.50500,70.529000 186.10000,68.175000 98.540000,122.84200 "
   style="fill:#fafdef"
   id="polygon1814" />







							<path
   d="M 185.30800,66.900000 L 97.747000,121.56100 C 97.053000,121.99600 96.830000,122.90700 97.248000,123.60600 L 98.653000,125.96600 C 98.859000,126.31300 99.195000,126.56300 99.591000,126.65400 C 99.982000,126.74600 100.39400,126.68100 100.73600,126.46500 L 188.30200,71.809000 C 188.99100,71.374000 189.21400,70.463000 188.79000,69.763000 L 187.39100,67.404000 C 187.18500,67.057000 186.84900,66.807000 186.45800,66.716000 C 186.06200,66.623000 185.65000,66.688000 185.30800,66.900000 z "
   style="fill:#b9bfb6"
   id="path1816" />







						</g>



    <g
   transform="matrix(1.116878,0.000000,0.000000,0.978198,-4.716576,4.323590)"
   id="g1819">
							
								<rect
   width="2.7460001"
   height="103.22500"
   x="140.68401"
   y="65.574997"
   transform="matrix(-0.511600,-0.859200,0.859200,-0.511600,114.0412,299.1982)"
   style="fill:#fafdef"
   id="rect1821" />






 
							<path
   d="M 184.34300,87.404000 L 96.782000,142.06600 C 96.088000,142.50000 95.865000,143.41100 96.283000,144.10500 L 97.688000,146.47000 C 97.894000,146.81700 98.236000,147.06700 98.626000,147.15800 C 99.017000,147.25100 99.429000,147.18500 99.771000,146.96900 L 187.33700,92.307000 C 188.03000,91.879000 188.24700,90.967000 187.83000,90.268000 L 186.42500,87.909000 C 186.22000,87.561000 185.88300,87.312000 185.49200,87.215000 C 185.10200,87.122000 184.68500,87.192000 184.34300,87.404000 z "
   style="fill:#b9bfb6"
   id="path1823" />







						</g>



    <g
   transform="matrix(1.116878,0.000000,0.000000,0.978198,-4.716576,4.323590)"
   id="g1826">
							
								<rect
   width="2.7390001"
   height="103.22200"
   x="140.70599"
   y="88.385002"
   transform="matrix(-0.510900,-0.859600,0.859600,-0.510900,94.32170,333.6564)"
   style="fill:#fafdef"
   id="rect1828" />






 
							<path
   d="M 184.36500,110.21400 L 96.799000,164.87600 C 96.110000,165.30400 95.882000,166.21600 96.305000,166.92100 L 97.704000,169.27500 C 97.910000,169.62300 98.246000,169.87200 98.642000,169.96900 C 99.038000,170.06200 99.450000,169.99100 99.792000,169.78400 L 187.35300,115.11700 C 188.04700,114.68300 188.27000,113.77700 187.84700,113.07800 L 186.44700,110.71300 C 186.24200,110.37100 185.90500,110.12200 185.50900,110.02900 C 185.11900,109.93200 184.70100,109.99700 184.36500,110.21400 z "
   style="fill:#b9bfb6"
   id="path1830" />







						</g>



  </g>



  <polygon
   points="128.92700,16.719000 29.552000,85.109000 111.88900,265.31300 211.29600,196.99300 128.92700,16.719000 "
   transform="matrix(1.116878,0.000000,0.000000,0.978198,-22.89280,21.23841)"
   style="fill:url(#linearGradient8318);fill-opacity:1.0000000"
   id="polygon1849" />



  <path
   d="M 120.14572,36.381899 L 9.1559994,103.28282 C 8.4892234,103.68584 8.2479774,104.44982 8.5863914,105.10227 L 100.55233,281.37749 C 100.75896,281.76974 101.14651,282.06711 101.62454,282.18352 C 102.10256,282.30090 102.61186,282.22656 103.02398,281.97712 L 214.04944,215.14663 C 214.71622,214.74361 214.95858,213.97964 214.62575,213.33207 L 122.62407,36.977621 C 122.41745,36.585364 122.02431,36.287992 121.54628,36.170608 C 121.06714,36.059093 120.55785,36.134415 120.14572,36.381899 z M 120.40037,39.789941 C 122.02431,42.899633 209.84663,211.23090 210.99143,213.42793 C 208.75656,214.77589 105.93345,276.66648 102.77045,278.56614 C 101.14651,275.46721 13.361043,107.19855 12.221828,105.00250 C 14.456700,103.65454 117.24407,41.699384 120.40037,39.789941 z "
   style="fill:#b9bfb6"
   id="path1851" />



  <g
   transform="translate(-11.43538,11.43538)"
   id="g12393">
    <path
   d="M 128.26067,67.693766 L 46.623587,118.34681 C 46.205877,118.61191 45.945647,119.01981 45.915487,119.47076 C 45.890917,119.91682 46.097537,120.35114 46.485097,120.64851 L 49.193527,122.74968 C 49.780997,123.20650 50.640997,123.24856 51.270917,122.85533 L 132.91358,72.197389 C 133.32571,71.937189 133.58594,71.524389 133.61610,71.077353 C 133.63955,70.632273 133.43405,70.196975 133.05319,69.899602 L 130.34476,67.793542 C 129.75729,67.343571 128.89729,67.301508 128.26067,67.693766 z M 129.10950,70.760417 C 129.17651,70.814217 129.18209,70.819108 129.24911,70.871931 C 125.99564,72.892888 52.495017,118.49452 50.423207,119.77792 C 50.362897,119.73586 50.350607,119.72510 50.289177,119.67227 C 53.542647,117.65621 127.04327,72.044791 129.10950,70.760417 z "
   style="fill:#b9bfb6"
   id="path1858" />



    <path
   d="M 137.33642,85.416757 L 55.699337,136.07372 C 55.280507,136.33490 55.026977,136.74770 54.990117,137.19376 C 54.966667,137.63981 55.172167,138.07413 55.559727,138.37248 L 58.273737,140.47854 C 58.855637,140.92949 59.715627,140.97156 60.352247,140.57930 L 141.98933,89.927228 C 142.40146,89.662137 142.66728,89.254228 142.69185,88.803279 C 142.71531,88.357220 142.50980,87.922900 142.13341,87.625528 L 139.41940,85.524359 C 138.83862,85.065584 137.97192,85.023522 137.33642,85.416757 z M 138.18413,88.493190 C 138.25673,88.536231 138.25673,88.546991 138.32933,88.599813 C 135.07028,90.615880 61.569647,136.22240 59.496727,137.50580 C 59.436407,137.45787 59.424127,137.45298 59.363817,137.40016 C 62.625097,135.37920 136.11902,89.778542 138.18413,88.493190 z "
   style="fill:#b9bfb6"
   id="path1865" />



    <path
   d="M 145.07974,103.93405 L 63.435947,154.59688 C 63.023827,154.85219 62.763587,155.26596 62.733437,155.71202 C 62.708867,156.15808 62.915487,156.59240 63.296337,156.88977 L 66.004767,159.00170 C 66.592247,159.44678 67.452247,159.48982 68.088867,159.09757 L 149.72595,108.44549 C 150.14478,108.18040 150.40389,107.77152 150.43517,107.32546 C 150.45862,106.87451 150.25423,106.43921 149.86556,106.14184 L 147.15713,104.04067 C 146.57635,103.58483 145.70966,103.54179 145.07974,103.93405 z M 145.92745,107.01243 C 145.98776,107.06037 146.00004,107.06624 146.06036,107.11808 C 142.80689,109.13512 69.306267,154.74556 67.241157,156.02994 C 67.174147,155.97711 67.168557,155.97124 67.101547,155.92429 C 70.355007,153.89746 143.85564,108.29583 145.92745,107.01243 z "
   style="fill:#b9bfb6"
   id="path1872" />



    <path
   d="M 154.99645,124.52218 L 73.360487,175.17425 C 72.948357,175.43934 72.682537,175.84823 72.657967,176.29918 C 72.627807,176.74426 72.840017,177.17956 73.215287,177.47693 L 75.929307,179.57712 C 76.511197,180.03394 77.377897,180.07698 78.013397,179.68374 L 159.64936,129.02580 C 160.06819,128.76560 160.32284,128.35182 160.35300,127.90577 C 160.38204,127.45971 160.17765,127.02539 159.78897,126.72802 L 157.07496,124.62195 C 156.49307,124.17198 155.63307,124.12992 154.99645,124.52218 z M 155.85086,127.59470 C 155.91229,127.64263 155.92234,127.64850 155.98377,127.69643 C 152.72472,129.72326 79.229677,175.32880 77.157867,176.60829 C 77.090857,176.56525 77.090857,176.55449 77.018257,176.50264 C 80.278427,174.48560 153.77905,128.87418 155.85086,127.59470 z "
   style="fill:#b9bfb6"
   id="path1879" />



  </g>



  <path
   d="M 165.02910,143.98077 C 145.44801,150.24124 161.18816,124.68190 141.71540,130.91693 L 59.382528,157.26177 C 54.136554,158.93840 49.192137,163.96340 48.319855,168.48952 L 20.281759,314.97567 L 269.75425,235.01776 L 295.17551,102.19997 L 165.02910,143.98077 z "
   style="fill:#fff290;fill-opacity:1.0000000;"
   id="path1897"
   transform="matrix(0.872611,0.000000,0.000000,1.000000,11.54762,1.203724)" />

<path
   d="M 294.02289,99.445366 L 163.87760,141.22030 L 163.87760,141.22030 C 160.14501,142.41467 158.83602,141.99013 158.52218,141.83069 C 157.49242,141.30539 157.01887,138.89121 156.63242,136.94361 C 155.99021,133.63828 155.25085,129.88102 151.51936,127.98723 C 148.80534,126.61384 145.22464,126.66568 140.56502,128.15744 L 58.232145,154.50227 C 51.882696,156.53497 46.079399,162.46187 45.012781,168.00140 L 16.973567,314.49244 C 16.780348,315.52248 17.228216,316.56231 18.142938,317.23042 C 19.057661,317.89951 20.317499,318.09025 21.432143,317.73027 L 270.90464,237.77726 C 272.04386,237.41630 272.86142,236.54570 273.06245,235.50685 L 298.48371,102.68320 C 298.68362,101.65414 298.24023,100.60942 297.31991,99.940337 C 296.39961,99.271243 295.14423,99.084418 294.02289,99.445366 z M 166.17949,146.73440 C 166.17949,146.73440 280.97330,109.88861 290.92132,106.69382 C 289.17564,115.79888 267.37866,229.68364 266.77220,232.84713 C 263.24062,233.97696 34.821272,307.18627 24.545998,310.48085 C 26.320717,301.19579 51.626930,168.97667 51.626930,168.97667 C 52.293706,165.50700 56.448491,161.32618 60.532913,160.02028 L 142.86691,133.66958 C 146.55036,132.49183 147.84595,132.91540 148.14974,133.06505 C 149.17391,133.58448 149.64636,135.99965 150.02720,137.93551 C 150.64596,141.08726 151.40878,145.00788 155.15926,146.91341 C 157.88556,148.29463 161.49084,148.24082 166.17949,146.73440 z "
   style="fill:#ffcc00;fill-opacity:1.0000000;"
   id="path1899"
   transform="matrix(0.872611,0.000000,0.000000,1.000000,11.54762,1.203724)" />

<path
   d="M 151.80974,159.66031 C 136.34210,164.60510 148.77407,144.42096 133.39131,149.34423 L 68.359991,170.15050 C 64.216375,171.47694 60.302835,175.44549 59.623774,179.01689 L 36.001812,299.20027 L 259.07802,227.61475 L 280.63376,118.22873 L 151.80974,159.66031 z "
   style="fill:url(#linearGradient12562);"
   id="path1915"
   transform="matrix(0.872611,0.000000,0.000000,1.000000,11.54762,1.203724)" />

<g
   id="g12516"
   transform="matrix(0.872611,0.000000,0.000000,1.000000,11.54762,1.203724)">
      <polygon
   points="51.369000,273.07600 53.029000,277.62200 228.30800,213.45100 226.64200,208.90500 51.369000,273.07600 "
   transform="matrix(1.116878,0.000000,0.000000,0.978198,-8.568303,4.167892)"
   style="fill:url(#linearGradient12563)"
   id="polygon1930" />



      <polygon
   points="60.455000,248.43800 62.120000,252.98400 237.39400,188.81300 235.73400,184.26800 60.455000,248.43800 "
   transform="matrix(1.116878,0.000000,0.000000,0.978198,-8.568303,4.167892)"
   style="fill:url(#linearGradient12564)"
   id="polygon1945" />



      <polygon
   points="64.979000,222.83500 66.644000,227.38700 241.91700,163.21000 240.25700,158.66500 64.979000,222.83500 "
   transform="matrix(1.116878,0.000000,0.000000,0.978198,-8.568303,4.167892)"
   style="fill:url(#linearGradient12565)"
   id="polygon1960" />



    </g>



</svg>
