<?xml version="1.0" encoding="UTF-8" standalone="no"?>
<!DOCTYPE svg PUBLIC "-//W3C//DTD SVG 20010904//EN"
"http://www.w3.org/TR/2001/REC-SVG-20010904/DTD/svg10.dtd">
<!-- Created with Sodipodi ("http://www.sodipodi.com/") -->
<svg
   xml:space="preserve"
   width="30mm"
   height="30mm"
   style="shape-rendering:geometricPrecision; text-rendering:geometricPrecision; image-rendering:optimizeQuality; fill-rule:evenodd"
   viewBox="0 0 30000 30000"
   id="svg548"
   sodipodi:version="0.34-pre"
   sodipodi:docname="/home/david/Desktop/gotoend.svg"
   sodipodi:docbase="/home/david/Desktop"
   xmlns="http://www.w3.org/2000/svg"
   xmlns:sodipodi="http://sodipodi.sourceforge.net/DTD/sodipodi-0.dtd"
   xmlns:xml="http://www.w3.org/XML/1998/namespace"
   xmlns:xlink="http://www.w3.org/1999/xlink">
  <sodipodi:namedview
   id="base" />

  <defs
   id="defs549">
    <linearGradient
   id="linearGradient581"
   gradientUnits="userSpaceOnUse"
   x1="19681"
   y1="21628"
   x2="-2598"
   y2="26610">
      <stop
   offset="0.000000"
   style="stop-color:#178500;stop-opacity:1;"
   id="stop582" />

      <stop
   offset="1.000000"
   style="stop-color:#004200;stop-opacity:1;"
   id="stop583" />

    </linearGradient>

    <linearGradient
   id="linearGradient577"
   gradientUnits="userSpaceOnUse"
   x1="19681"
   y1="21628"
   x2="-2598"
   y2="26610">
      <stop
   offset="0.000000"
   style="stop-color:#ffffff;stop-opacity:1;"
   id="stop578" />

      <stop
   offset="1.000000"
   style="stop-color:#ffffff;stop-opacity:0;"
   id="stop579" />

    </linearGradient>

    <linearGradient
   id="linearGradient574"
   gradientUnits="userSpaceOnUse"
   x1="19681"
   y1="21628"
   x2="-2598"
   y2="26610">
      <stop
   offset="0.000000"
   style="stop-color:#ffffff;stop-opacity:1;"
   id="stop575" />

      <stop
   offset="1.000000"
   style="stop-color:#ffffff;stop-opacity:0;"
   id="stop576" />

    </linearGradient>

    <linearGradient
   id="linearGradient570"
   gradientUnits="userSpaceOnUse"
   x1="19681"
   y1="21628"
   x2="-2598"
   y2="26610">
      <stop
   offset="0.000000"
   style="stop-color:#ffffff;stop-opacity:0.666667;"
   id="stop571" />

      <stop
   offset="1.000000"
   style="stop-color:#caff7a;stop-opacity:0.529412;"
   id="stop572" />

    </linearGradient>

    <linearGradient
   id="linearGradient565"
   gradientUnits="userSpaceOnUse"
   x1="19681"
   y1="21628"
   x2="-2598"
   y2="26610">
      <stop
   offset="0.000000"
   style="stop-color:#c7ff3d;stop-opacity:1;"
   id="stop566" />

      <stop
   offset="1.000000"
   style="stop-color:#1fa300;stop-opacity:1;"
   id="stop567" />

    </linearGradient>

    <style
   type="text/css"
   id="style550" />

    <linearGradient
   id="id0"
   gradientUnits="userSpaceOnUse"
   x1="19681"
   y1="21628"
   x2="-2598"
   y2="26610">
      <stop
   offset="0"
   style="stop-color:#3A9A12"
   id="stop552" />

      <stop
   offset="1"
   style="stop-color:#EEF813"
   id="stop553" />

    </linearGradient>

    <linearGradient
   id="id1"
   gradientUnits="userSpaceOnUse"
   x1="29562"
   y1="14690"
   x2="35556"
   y2="25390">
      <stop
   offset="0"
   style="stop-color:#3A9A12"
   id="stop555" />

      <stop
   offset="1"
   style="stop-color:#004B00"
   id="stop556" />

    </linearGradient>

    <linearGradient
   xlink:href="#linearGradient577"
   id="linearGradient564"
   x1="49201.5820"
   y1="762.377625"
   x2="55564.5586"
   y2="7121.57373"
   gradientUnits="userSpaceOnUse"
   gradientTransform="scale(0.472272,2.117423)" />

    <radialGradient
   xlink:href="#linearGradient565"
   id="radialGradient568"
   cx="23343.789062"
   cy="23546.132812"
   r="18927.173828"
   fx="23343.789062"
   fy="23546.132812"
   gradientTransform="scale(1.010234,0.989870)" />

    <radialGradient
   xlink:href="#linearGradient574"
   id="radialGradient569"
   cx="-1011.80682"
   cy="5017.50684"
   r="20637.5000"
   fx="-1011.80682"
   fy="5017.50684"
   gradientTransform="scale(1.455946,0.686839)"
   gradientUnits="userSpaceOnUse" />

    <linearGradient
   xlink:href="#linearGradient570"
   id="linearGradient573"
   x1="8491.987305"
   y1="4833.941895"
   x2="9567.023438"
   y2="8390.777344"
   gradientTransform="scale(0.999913,1.000087)" />

    <linearGradient
   xlink:href="#linearGradient581"
   id="linearGradient580"
   x1="28164.814453"
   y1="21072.953125"
   x2="-10188.933594"
   y2="-9746.525391"
   gradientTransform="scale(0.866569,1.153976)" />

  <radialGradient
   xlink:href="#linearGradient577"
   id="radialGradient2129"
   cx="51209.9453"
   cy="762.376892"
   r="8726.53613"
   fx="51209.9453"
   fy="762.376892"
   gradientUnits="userSpaceOnUse"
   gradientTransform="scale(0.472272,2.117424)" />
<radialGradient
   xlink:href="#linearGradient565"
   id="radialGradient2130"
   cx="36347.5000"
   cy="26927.2344"
   r="28736.5156"
   fx="36347.5000"
   fy="26927.2344"
   gradientUnits="userSpaceOnUse" />
<linearGradient
   xlink:href="#linearGradient581"
   id="linearGradient2131"
   x1="2.40625072"
   y1="0.90624958"
   x2="-0.90625036"
   y2="0.16406243" />
</defs>

  <path
   class="fil0"
   d="M 7875.129 142.8207 L 7630.329 9147.648 L 24.23006 9147.649 L -74.06989 21339.70 L 7728.429 21240.60 L 8071.429 29896.50 L 22645.63 14924.40 L 7875.129 142.8207 z "
   id="path559"
   style="font-size:12;fill:url(#linearGradient580);fill-opacity:1;"
   nodetypes="cccccccc"
   sodipodi:nodetypes="cccccccc" />

  <path
   class="fil2"
   d="M 21088.93 14923.40 L 8680.629 2453.818 L 8586.028 10283.10 L 1163.030 10479.08 L 1063.230 20256.98 L 8722.329 20148.40 L 8918.729 27479.60 L 21088.93 14923.40 z "
   id="path561"
   style="font-size:12;fill:url(#radialGradient568);fill-opacity:1;"
   nodetypes="cccccccc"
   sodipodi:nodetypes="cccccccc" />

  <path
   class="fil3"
   d="M 1243.756 10381.84 L 8671.029 10300.90 L 8574.329 2315.158 C 10224.03 6905.417 10609.43 10587.30 8214.429 11773.00 C 7280.529 12235.40 2972.426 9018.294 2452.316 12067.14 C 2003.006 14700.94 1839.406 18953.84 1104.376 19968.64 L 1243.756 10381.84 z "
   id="path562"
   style="font-size:12;fill:url(#linearGradient573);fill-opacity:1;"
   nodetypes="cccsccc"
   sodipodi:nodetypes="cccsscc" />

  <path
   class="fil1"
   d="M 1001.948 19931.10 L 1240.718 10243.88 L 8611.729 10331.60 L 8607.629 2344.417 C 11515.63 7421.567 18074.54 11300.97 14574.97 14554.75 C 12076.72 16966.08 9457.748 12859.60 6395.529 14432.10 C 3885.978 15798.84 2736.347 20463.20 1001.948 19931.10 z "
   id="path560"
   style="font-size:12;fill:url(#radialGradient569);shape-rendering:geometricPrecision;text-rendering:geometricPrecision;image-rendering:optimizeQuality;fill-rule:evenodd;fill-opacity:1;"
   nodetypes="cccscc"
   sodipodi:nodetypes="ccccssc" />

  <path
   class="fil4"
   d="M 10226.73 25055.80 C 8868.229 25318.10 10113.93 21049.20 8738.629 20111.20 L 8830.929 27650.60 L 21128.03 14884.80 C 17497.63 16027.90 11553.13 24894.90 10226.73 25055.80 z "
   id="path563"
   style="font-size:12;fill:#00a700;fill-opacity:1;shape-rendering:geometricPrecision;text-rendering:geometricPrecision;image-rendering:optimizeQuality;fill-rule:evenodd;"
   nodetypes="ccccss"
   sodipodi:nodetypes="ccccs" />




 
  

  <path
   fill="#004B00"
   d="M22760 30000l0 -30000 7240 0 0 30000 -7240 0z"
   id="path1023"
   style="font-size:12.000;fill:url(#linearGradient2131);" />


  <path
   fill="url(#id0)"
   d="M23960 28868c0,-18976 0,-8816 0,-27602l4955 0c0,18786 0,8626 0,27602l-4955 0z"
   id="path1025"
   style="font-size:12.000;fill:url(#radialGradient2130);" />


  

  

  

  

  

  

  <path
   fill="#006100"
   d="M 28867.95 28828.95 L 24312.52 28940.95 C 25489.19 28581.63 27822.39 28583.04 28033.00 27482.05 C 29085.23 21483.39 28653.13 14396.17 29058.43 7662.761 L 28867.95 28828.95 z "
   id="path1039"
   style="font-size:12.000;fill:#006100;fill-opacity:0.3150;"
   sodipodi:nodetypes="ccscc" />


 

<path
   fill="#006100"
   d="M 24026.82 1203.323 L 28772.73 1281.799 C 27596.06 1641.120 25262.86 1639.709 25052.25 2740.700 C 24000.02 8739.359 24432.12 15826.59 24026.82 22560.00 L 24026.82 1203.323 z "
   id="path2127"
   style="font-size:12.000;fill:#ffffff;shape-rendering:geometricPrecision;text-rendering:geometricPrecision;image-rendering:optimizeQuality;fill-rule:evenodd;fill-opacity:0.3701;"
   sodipodi:nodetypes="ccscc" />
<path
   fill="#006100"
   d="M 24026.83 1298.566 L 28772.74 1281.803 C 27596.07 1641.124 26500.97 7639.711 26480.83 10454.99 C 26643.24 16543.07 24527.37 15826.59 24122.07 22560 L 24026.83 1298.566 z "
   id="path2128"
   style="font-size:12.000;fill:url(#radialGradient2129);shape-rendering:geometricPrecision;text-rendering:geometricPrecision;image-rendering:optimizeQuality;fill-rule:evenodd;fill-opacity:1.0000;"
   sodipodi:nodetypes="ccscc" />
</svg>
