<?xml version="1.0" encoding="UTF-8" standalone="no"?>
<!DOCTYPE svg PUBLIC "-//W3C//DTD SVG 20010904//EN"
"http://www.w3.org/TR/2001/REC-SVG-20010904/DTD/svg10.dtd">
<!-- Created with Sodipodi ("http://www.sodipodi.com/") -->
<svg
   version="1.0"
   x="0.00000000"
   y="0.00000000"
   width="106.299210"
   height="106.299210"
   viewBox="0 0 30000 30000"
   id="svg607"
   xmlns="http://www.w3.org/2000/svg"
   xmlns:xlink="http://www.w3.org/1999/xlink"
   xmlns:sodipodi="http://sodipodi.sourceforge.net/DTD/sodipodi-0.dtd"
   sodipodi:version="0.34-pre"
   sodipodi:docname="/home/david/.themes/eXperience/icons/goto1.svg"
   sodipodi:docbase="/home/david/.themes/eXperience/icons/">
  <sodipodi:namedview
     id="base" />
  <defs
     id="defs640">
    <linearGradient
       x1="0.00000000"
       y1="0.00000000"
       x2="1.00000000"
       y2="0.00000000"
       id="linearGradient1669"
       gradientUnits="objectBoundingBox"
       spreadMethod="pad">
      <stop
         style="stop-color:#ffffff;stop-opacity:0.6667;"
         offset="0"
         id="stop1670" />
      <stop
         style="stop-color:#ffffff;stop-opacity:0;"
         offset="1"
         id="stop1671" />
    </linearGradient>
    <linearGradient
       x1="0.00000000"
       y1="0.00000000"
       x2="1.00000000"
       y2="0.00000000"
       id="linearGradient745"
       gradientUnits="objectBoundingBox"
       spreadMethod="pad">
      <stop
         style="stop-color:#307100;stop-opacity:0.5294;"
         offset="0"
         id="stop746" />
      <stop
         style="stop-color:#55bf03;stop-opacity:0;"
         offset="1"
         id="stop747" />
    </linearGradient>
    <linearGradient
       x1="0.00000000"
       y1="0.00000000"
       x2="1.00000000"
       y2="0.00000000"
       id="linearGradient741"
       gradientUnits="objectBoundingBox"
       spreadMethod="pad">
      <stop
         style="stop-color:#c2ff41;stop-opacity:1.0000;"
         offset="0"
         id="stop743" />
      <stop
         style="stop-color:#32a206;stop-opacity:1.0000;"
         offset="1"
         id="stop742" />
    </linearGradient>
    <linearGradient
       x1="0.00000000"
       y1="0.00000000"
       x2="1.00000000"
       y2="0.00000000"
       id="linearGradient736"
       gradientUnits="objectBoundingBox"
       spreadMethod="pad">
      <stop
         style="stop-color:#006200;stop-opacity:0.4980;"
         offset="0"
         id="stop737" />
      <stop
         style="stop-color:#55bf03;stop-opacity:0;"
         offset="1"
         id="stop738" />
    </linearGradient>
    <linearGradient
       x1="0.00000000"
       y1="0.00000000"
       x2="1.00000000"
       y2="0.00000000"
       id="linearGradient732"
       gradientUnits="objectBoundingBox"
       spreadMethod="pad">
      <stop
         style="stop-color:#317100;stop-opacity:1;"
         offset="0.00000000"
         id="stop735" />
      <stop
         style="stop-color:#419203;stop-opacity:1;"
         offset="0.23137300"
         id="stop734" />
      <stop
         style="stop-color:#50b306;stop-opacity:1;"
         offset="1.00000000"
         id="stop733" />
    </linearGradient>
    <linearGradient
       x1="0.00000000"
       y1="0.00000000"
       x2="1.00000000"
       y2="0.00000000"
       id="linearGradient727"
       gradientUnits="objectBoundingBox"
       spreadMethod="pad">
      <stop
         style="stop-color:#317100;stop-opacity:1;"
         offset="0.00000000"
         id="stop730" />
      <stop
         style="stop-color:#55bf03;stop-opacity:1;"
         offset="1.00000000"
         id="stop729" />
    </linearGradient>
    <linearGradient
       x1="0.00000000"
       y1="0.00000000"
       x2="1.00000000"
       y2="0.00000000"
       id="linearGradient713"
       gradientUnits="objectBoundingBox"
       spreadMethod="pad">
      <stop
         style="stop-color:#4fb306;stop-opacity:1.0000;"
         offset="0"
         id="stop714" />
      <stop
         style="stop-color:#50b306;stop-opacity:1.0000;"
         offset="1"
         id="stop715" />
    </linearGradient>
    <linearGradient
       x1="0.00000000"
       y1="0.00000000"
       x2="1.00000000"
       y2="0.00000000"
       id="linearGradient697"
       gradientUnits="objectBoundingBox"
       spreadMethod="pad">
      <stop
         style="stop-color:#50b306;stop-opacity:1;"
         offset="0.00000000"
         id="stop701" />
      <stop
         style="stop-color:#50b306;stop-opacity:1;"
         offset="0.30196100"
         id="stop700" />
      <stop
         style="stop-color:#419203;stop-opacity:1;"
         offset="0.76862699"
         id="stop712" />
      <stop
         style="stop-color:#317100;stop-opacity:1;"
         offset="1.00000000"
         id="stop711" />
    </linearGradient>
    <defs
       id="defs610">
      <radialGradient
         cx="6867.00000"
         cy="6867.00000"
         fx="6867.00000"
         fy="6867.00000"
         r="7640.00000"
         id="id0"
         xlink:href="#linearGradient741"
         gradientUnits="userSpaceOnUse"
         spreadMethod="pad" />
      <linearGradient
         x1="14911.0000"
         y1="27330.0000"
         x2="14911.0000"
         y2="23440.0000"
         id="id1"
         xlink:href="#linearGradient727"
         gradientUnits="userSpaceOnUse"
         spreadMethod="pad" />
      <linearGradient
         x1="27333.0000"
         y1="14989.0000"
         x2="23917.0000"
         y2="14989.0000"
         id="id2"
         xlink:href="#linearGradient732"
         gradientUnits="userSpaceOnUse"
         spreadMethod="pad" />
      <radialGradient
         cx="23895.0000"
         cy="24036.0000"
         fx="23895.0000"
         fy="24036.0000"
         r="2046.00000"
         id="id3"
         xlink:href="#linearGradient697"
         gradientUnits="userSpaceOnUse"
         spreadMethod="pad" />
    </defs>
    <radialGradient
       cx="23258.0508"
       cy="23569.5215"
       fx="23258.0508"
       fy="23569.5215"
       r="3403.19067"
       id="radialGradient702"
       xlink:href="#linearGradient713"
       gradientUnits="userSpaceOnUse"
       spreadMethod="pad" />
    <linearGradient
       x1="15370.1465"
       y1="27034.5547"
       x2="15419.5361"
       y2="24030.8848"
       id="linearGradient731"
       xlink:href="#linearGradient745"
       gradientUnits="userSpaceOnUse"
       spreadMethod="pad" />
    <linearGradient
       x1="27539.9707"
       y1="15442.5234"
       x2="24538.9102"
       y2="15337.4307"
       id="linearGradient740"
       xlink:href="#linearGradient736"
       gradientUnits="userSpaceOnUse"
       spreadMethod="pad" />
    <radialGradient
       cx="23857.1543"
       cy="24819.8887"
       fx="23857.1543"
       fy="24819.8887"
       r="23070.2969"
       id="radialGradient744"
       xlink:href="#linearGradient741"
       gradientUnits="userSpaceOnUse"
       spreadMethod="pad" />
    <radialGradient
       xlink:href="#linearGradient1669"
       id="radialGradient1672"
       cx="3325.57886"
       cy="3332.89624"
       r="16801.8867"
       fx="3325.57886"
       fy="3332.89624" />
    <linearGradient
       xlink:href="#linearGradient1669"
       id="linearGradient1673"
       x1="0.48643428"
       y1="0.32794762"
       x2="10.5394077"
       y2="12.2980318"
       gradientTransform="scale(4.057454e-2,4.764482e-2)" />
  </defs>
  <path
     d="M 3794 1850 L 26206 1850 C 27276 1850 28150 2724 28150 3794 L 28150 26206 C 28150 27276 27276 28150 26206 28150 L 3794 28150 C 2724 28150 1850 27276 1850 26206 L 1850 3794 C 1850 2724 2724 1850 3794 1850 z "
     style="font-size:12;fill:#215f00;"
     id="path631" />
  <path
     d="M 3975 2677 L 26025 2677 C 26739 2677 27323 3261 27323 3975 L 27323 26025 C 27323 26739 26739 27323 26025 27323 L 3975 27323 C 3261 27323 2677 26739 2677 26025 L 2677 3975 C 2677 3261 3261 2677 3975 2677 z "
     style="font-size:12;fill:url(#radialGradient744);"
     id="path632" />
  <path
     d="M 27258.58 25056.24 C 27439.66 25769.33 27298.74 27397.34 26493.98 27330.00 L 4001.073 27330.00 C 3273.751 27330.00 2677 26746.00 2677 26034.00 C 3272.731 25601.00 3013.629 24860.00 4464.192 24736.00 L 23847.88 24736.00 C 23847.88 24736.00 26544.72 22312.49 27258.58 25056.24 z "
     style="font-size:12;fill:url(#linearGradient731);"
     id="path633"
     sodipodi:nodetypes="ccccccs" />
  <path
     d="M 24739 23427 L 24739 4991 C 24739 4026 26278 3246 26036 2674 C 26749 2660 27333 3258 27333 3971 L 27333 26021 C 27333 26734 26749 27318 26036 27318 L 23918 27318 L 23918 24634 C 24398 24443 24739 23974 24739 23427 z "
     transform="translate(0.000000,-1.170775e-3)"
     style="font-size:12;fill:url(#linearGradient740);"
     id="path634" />
  <path
     d="M 3975 2677.001 L 26025.00 2677.001 C 26739.00 2677.001 27323.00 3261.001 27323.00 3975 C 25608.71 9308.335 21991.50 8764.117 11213.10 10846.80 C 6842.086 11587.96 8581.764 19977.10 2677 23644.05 L 2677 3975 C 2677 3261.001 3261 2677.001 3975 2677.001 z "
     style="font-size:12;fill:url(#linearGradient1673);"
     id="path1668"
     sodipodi:nodetypes="cccsccc" />
  <g
     style="font-size:12;"
     id="g636">
    <path
       d="M 5217 13067 L 17776 13067 L 13641 8932 L 16178 6395 L 24783 15000 L 16178 23605 L 13641 21068 L 18054 16655 L 5217 16655 L 5217 13067 z "
       style="fill:#215f00;"
       id="path637" />
    <path
       d="M 5567 13417 L 18622 13417 L 14137 8932 L 16178 6891 L 24287 15000 L 16178 23109 L 14137 21068 L 18901 16304 L 5567 16304 L 5567 13417 z "
       style="fill:#ffffff;"
       id="path638" />
  </g>
</svg>
