<?xml version="1.0" encoding="UTF-8" standalone="no"?>
<!DOCTYPE svg PUBLIC "-//W3C//DTD SVG 20010904//EN"
"http://www.w3.org/TR/2001/REC-SVG-20010904/DTD/svg10.dtd">
<!-- Created with Sodipodi ("http://www.sodipodi.com/") -->
<svg
   version="1.0"
   x="0"
   y="0"
   width="106.299210"
   height="106.299210"
   viewBox="0 0 30000 30000"
   id="svg776"
   xml:space="preserve"
   xmlns="http://www.w3.org/2000/svg"
   xmlns:xml="http://www.w3.org/XML/1998/namespace"
   xmlns:xlink="http://www.w3.org/1999/xlink"
   xmlns:sodipodi="http://sodipodi.sourceforge.net/DTD/sodipodi-0.dtd"
   sodipodi:version="0.34-pre"
   sodipodi:docname="/home/david/.themes/eXperience/icons/mail-forward.svg"
   sodipodi:docbase="/home/david/.themes/eXperience/icons/"><sodipodi:namedview
   id="base" />

  <text
   style="font-size:12.000;"
   id="text561" />

  <defs
   id="defs858">
    <text
   id="text563" />

    <text
   id="text564" />

    <text
   id="text565" />

    <linearGradient
   id="linearGradient990">
      <text
   id="text567" />

      <text
   id="text568" />

      <text
   id="text569" />

      <stop
   style="stop-color:#ffffff;stop-opacity:1.0000;"
   offset="0"
   id="stop992" />

      <text
   id="text571" />

      <text
   id="text572" />

      <text
   id="text573" />

      <stop
   style="stop-color:#72afff;stop-opacity:1.0000;"
   offset="1"
   id="stop991" />

      <text
   id="text575" />

      <text
   id="text576" />

      <text
   id="text577" />

    </linearGradient>

    <text
   id="text578" />

    <text
   id="text579" />

    <text
   id="text580" />

    <linearGradient
   id="linearGradient969">
      <text
   id="text582" />

      <text
   id="text583" />

      <text
   id="text584" />

      <stop
   style="stop-color:#000000;stop-opacity:0.4667;"
   offset="0"
   id="stop970" />

      <text
   id="text586" />

      <text
   id="text587" />

      <text
   id="text588" />

      <stop
   style="stop-color:#000000;stop-opacity:0;"
   offset="1"
   id="stop971" />

      <text
   id="text590" />

      <text
   id="text591" />

      <text
   id="text592" />

    </linearGradient>

    <text
   id="text593" />

    <text
   id="text594" />

    <text
   id="text595" />

    <linearGradient
   id="linearGradient962">
      <text
   id="text597" />

      <text
   id="text598" />

      <text
   id="text599" />

      <stop
   style="stop-color:#35d2ff;stop-opacity:1.0000;"
   offset="0"
   id="stop964" />

      <text
   id="text601" />

      <text
   id="text602" />

      <text
   id="text603" />

      <stop
   style="stop-color:#152ad2;stop-opacity:1.0000;"
   offset="1"
   id="stop963" />

      <text
   id="text605" />

      <text
   id="text606" />

      <text
   id="text607" />

    </linearGradient>

    <text
   id="text608" />

    <text
   id="text609" />

    <text
   id="text610" />

    <linearGradient
   id="linearGradient959">
      <text
   id="text612" />

      <text
   id="text613" />

      <text
   id="text614" />

      <stop
   style="stop-color:#ffffff;stop-opacity:1.0000;"
   offset="0"
   id="stop960" />

      <text
   id="text616" />

      <text
   id="text617" />

      <text
   id="text618" />

      <stop
   style="stop-color:#ffffff;stop-opacity:0;"
   offset="1"
   id="stop961" />

      <text
   id="text620" />

      <text
   id="text621" />

      <text
   id="text622" />

    </linearGradient>

    <text
   id="text623" />

    <text
   id="text624" />

    <text
   id="text625" />

    <linearGradient
   id="linearGradient955">
      <text
   id="text627" />

      <text
   id="text628" />

      <text
   id="text629" />

      <stop
   style="stop-color:#5987ca;stop-opacity:1.0000;"
   offset="0"
   id="stop956" />

      <text
   id="text631" />

      <text
   id="text632" />

      <text
   id="text633" />

      <stop
   style="stop-color:#a572ff;stop-opacity:1.0000;"
   offset="1"
   id="stop957" />

      <text
   id="text635" />

      <text
   id="text636" />

      <text
   id="text637" />

    </linearGradient>

    <text
   id="text638" />

    <text
   id="text639" />

    <text
   id="text640" />

    <defs
   id="defs837">
      <text
   id="text642" />

      <text
   id="text643" />

      <text
   id="text644" />

      <linearGradient
   x1="12102"
   y1="22907"
   x2="-3799.00000"
   y2="14488"
   id="id2"
   xlink:href="#linearGradient962"
   gradientUnits="userSpaceOnUse"
   spreadMethod="pad">
        <text
   id="text646" />

        <text
   id="text647" />

        <text
   id="text648" />

      </linearGradient>

      <text
   id="text649" />

      <text
   id="text650" />

      <text
   id="text651" />

    </defs>

    <text
   id="text652" />

    <text
   id="text653" />

    <text
   id="text654" />

    <radialGradient
   cx="0.12142888"
   cy="0.11718840"
   r="0.85469222"
   fx="0.12142888"
   fy="0.11718840"
   id="radialGradient958"
   xlink:href="#linearGradient959" />

    <text
   id="text656" />

    <text
   id="text657" />

    <text
   id="text658" />

    <radialGradient
   cx="10.0807848"
   cy="14.4395151"
   r="7.96170902"
   fx="10.0807848"
   fy="14.4395151"
   id="radialGradient965"
   xlink:href="#linearGradient962"
   gradientTransform="scale(7.145663e-2,6.546705e-2)" />

    <text
   id="text660" />

    <text
   id="text661" />

    <text
   id="text662" />

    <radialGradient
   cx="0.33363581"
   cy="0.12979519"
   r="0.60892129"
   fx="0.33363581"
   fy="0.12979519"
   id="radialGradient968"
   xlink:href="#linearGradient969"
   gradientTransform="scale(0.894147,1.118384)" />

    <text
   id="text664" />

    <text
   id="text665" />

    <text
   id="text666" />

    <radialGradient
   cx="1.07228577"
   cy="0.70990282"
   r="1.47849321"
   fx="1.07228577"
   fy="0.70990282"
   id="radialGradient973"
   xlink:href="#linearGradient990"
   gradientTransform="scale(0.908675,1.100504)" />

    <text
   id="text668" />

    <text
   id="text669" />

    <text
   id="text670" />

    <defs
   id="defs820">
      <text
   id="text672" />

      <text
   id="text673" />

      <text
   id="text674" />

      <linearGradient
   x1="17637"
   y1="23234"
   x2="11583"
   y2="7255"
   id="id1"
   xlink:href="#linearGradient990"
   gradientUnits="userSpaceOnUse"
   spreadMethod="pad">
        <text
   id="text676" />

        <text
   id="text677" />

        <text
   id="text678" />

      </linearGradient>

      <text
   id="text679" />

      <text
   id="text680" />

      <text
   id="text681" />

    </defs>

    <text
   id="text682" />

    <text
   id="text683" />

    <text
   id="text684" />

    <linearGradient
   x1="0.96666652"
   y1="0.95312500"
   x2="0.12666667"
   y2="0.22656249"
   id="linearGradient993"
   xlink:href="#linearGradient955" />

    <text
   id="text686" />

    <text
   id="text687" />

    <text
   id="text688" />

    <radialGradient
   cx="6.30255342e-2"
   cy="0.30000052"
   r="0.72840434"
   fx="6.30255342e-2"
   fy="0.30000052"
   id="radialGradient996"
   xlink:href="#linearGradient959" />

    <text
   id="text690" />

    <text
   id="text691" />

    <text
   id="text692" />

  </defs>

  <text
   style="font-size:12.000;"
   id="text693" />

  <text
   x="-27640.6191"
   y="-3.51232477e-3"
   transform="scale(-1,1)"
   style="font-size:12.000;"
   id="text694" />

  <text
   style="font-size:12.000;"
   id="text695" />

  <text
   x="-27640.6191"
   y="-3.51232477e-3"
   transform="scale(-1,1)"
   style="font-size:12.000;"
   id="text696" />

  <text
   style="font-size:12.000;"
   id="text697" />

  <path
   d="M 82.86308 25051.63 L 4220.739 28653.13 L 35024.93 27168.75 L 27208.93 19764.36 L 82.86308 25051.63 z "
   style="font-size:12.000;fill:url(#radialGradient968);"
   id="path967" />

  <text
   style="font-size:12.000;"
   id="text699" />

  <text
   x="-27640.6191"
   y="-3.51232477e-3"
   transform="scale(-1,1)"
   style="font-size:12.000;"
   id="text700" />

  <text
   style="font-size:12.000;"
   id="text701" />

  <text
   x="-27640.6191"
   y="-3.51232477e-3"
   transform="scale(-1,1)"
   style="font-size:12.000;"
   id="text702" />

  <text
   style="font-size:12.000;"
   id="text703" />

  <g
   transform="matrix(-1,0,0,1,27505.93,134.6859)"
   style="font-size:12.000;"
   id="g780">
    <text
   id="text705" />

    <text
   id="text706" />

    <text
   id="text707" />

  </g>

  <text
   style="font-size:12.000;"
   id="text708" />

  <text
   x="-27640.6191"
   y="-3.51232477e-3"
   transform="scale(-1,1)"
   style="font-size:12.000;"
   id="text709" />

  <text
   style="font-size:12.000;"
   id="text710" />

  <g
   transform="matrix(-1,0,0,1,27505.93,134.6859)"
   style="font-size:12.000;"
   id="g783">
    <text
   id="text712" />

    <text
   id="text713" />

    <text
   id="text714" />

  </g>

  <text
   style="font-size:12.000;"
   id="text715" />

  <text
   x="-27640.6191"
   y="-3.51232477e-3"
   transform="scale(-1,1)"
   style="font-size:12.000;"
   id="text716" />

  <text
   style="font-size:12.000;"
   id="text717" />

  <g
   transform="matrix(-1,0,0,1,27505.93,134.6859)"
   style="font-size:12.000;"
   id="g786">
    <text
   id="text719" />

    <text
   id="text720" />

    <text
   id="text721" />

  </g>

  <text
   style="font-size:12.000;"
   id="text722" />

  <text
   x="-27640.6191"
   y="-3.51232477e-3"
   transform="scale(-1,1)"
   style="font-size:12.000;"
   id="text723" />

  <text
   style="font-size:12.000;"
   id="text724" />

  <g
   transform="matrix(-1,0,0,1,27505.93,134.6859)"
   style="font-size:12.000;"
   id="g789">
    <text
   id="text726" />

    <text
   id="text727" />

    <text
   id="text728" />

    <g
   id="g791">
      <text
   id="text730" />

      <text
   id="text731" />

      <text
   id="text732" />

    </g>

    <text
   id="text733" />

    <text
   id="text734" />

    <text
   id="text735" />

  </g>

  <text
   style="font-size:12.000;"
   id="text736" />

  <text
   x="-27640.6191"
   y="-3.51232477e-3"
   transform="scale(-1,1)"
   style="font-size:12.000;"
   id="text737" />

  <text
   style="font-size:12.000;"
   id="text738" />

  <g
   transform="matrix(-1,0,0,1,27505.93,134.6859)"
   style="font-size:12.000;"
   id="g795">
    <text
   id="text740" />

    <text
   id="text741" />

    <text
   id="text742" />

  </g>

  <text
   style="font-size:12.000;"
   id="text743" />

  <text
   x="-27640.6191"
   y="-3.51232477e-3"
   transform="scale(-1,1)"
   style="font-size:12.000;"
   id="text744" />

  <text
   style="font-size:12.000;"
   id="text745" />

  <g
   transform="matrix(-1,0,0,1,27505.93,134.6859)"
   style="font-size:12.000;"
   id="g798">
    <text
   id="text747" />

    <text
   id="text748" />

    <text
   id="text749" />

  </g>

  <text
   style="font-size:12.000;"
   id="text750" />

  <text
   x="-27640.6191"
   y="-3.51232477e-3"
   transform="scale(-1,1)"
   style="font-size:12.000;"
   id="text751" />

  <text
   style="font-size:12.000;"
   id="text752" />

  <text
   x="-27640.6191"
   y="-3.51232477e-3"
   transform="scale(-1,1)"
   style="font-size:12.000;"
   id="text753" />

  <text
   style="font-size:12.000;"
   id="text754" />

  <path
   d="M 1574.602 4525.888 L 25631.08 1930.043 C 26404.82 1851.532 27161.50 3018.975 27187.67 3975.912 L 27362.86 18803.26 C 27379.93 19448.43 27226.32 19817.09 26448.03 19970.70 L 1617.875 25029.22 C 699.6251 25210.15 448.1581 25048.57 448.1581 24065.46 L 218.2761 6691.231 C 218.2761 5738.843 753.0691 4608.950 1574.602 4525.888 z "
   style="font-size:12.000;fill:url(#linearGradient993);"
   id="path830" />

  <text
   style="font-size:12.000;"
   id="text756" />

  <text
   x="-27640.6191"
   y="-3.51232477e-3"
   transform="scale(-1,1)"
   style="font-size:12.000;"
   id="text757" />

  <text
   style="font-size:12.000;"
   id="text758" />

  <path
   d="M 1997.069 8107.440 L 8680.489 13742.11 L 1750.154 22173.27 C 1314.220 22703.61 1196.436 22832.84 1189.937 21795.11 L 1106.873 8531.930 C 1104.180 8101.819 1319.278 7536.009 1997.069 8107.440 z M 2086.568 23320.98 L 9425.359 14194.58 C 12689.45 16642.08 17519.68 16117.17 20421.22 11640.84 L 25620.87 18100.49 C 26141.35 18747.10 26058.97 19031.35 25034.88 19238.35 L 2477.991 23797.74 C 1700.835 23954.77 1680.353 23812.54 2086.568 23320.98 z M 25432.34 4816.753 C 24208.37 6551.357 20927.53 10857.64 21015.14 10966.88 L 25767.27 16749.50 C 26371.11 17484.28 26485.03 17339.28 26470.85 16491.56 L 26272.86 4649.453 C 26263.01 4060.036 25761.36 4350.464 25432.34 4816.753 z M 25012.12 3826.071 L 19180.60 11892.73 C 16651.47 15391.24 12302.20 15459.59 9522.469 13136.02 L 1992.126 6841.392 C 1528.466 6453.817 1181.972 5460.033 2204.905 5348.523 L 24621.83 2921.474 C 25398.99 2837.272 25253.06 3492.784 25012.12 3826.071 z "
   style="font-size:12.000;fill:url(#radialGradient973);"
   id="path832" />

  <text
   style="font-size:12.000;"
   id="text760" />

  <text
   x="-27640.6191"
   y="-3.51232477e-3"
   transform="scale(-1,1)"
   style="font-size:12.000;"
   id="text761" />

  <text
   style="font-size:12.000;"
   id="text762" />

  <path
   d="M 21056.12 12283.69 L 21028.12 17942.69 L 14706.12 17942.69 L 14706.12 25008.69 L 21028.12 25008.69 L 21056.12 30134.69 L 29982.12 21208.69 L 21056.12 12283.69 z "
   style="font-size:12.000;fill:#180094;"
   id="path847" />

  <text
   style="font-size:12.000;"
   id="text764" />

  <text
   x="-27640.6191"
   y="-3.51232477e-3"
   transform="scale(-1,1)"
   style="font-size:12.000;"
   id="text765" />

  <text
   style="font-size:12.000;"
   id="text766" />

  <path
   d="M 29219.08 21194.45 L 21581.65 13557.02 C 21581.65 13557.02 21578.40 18278.26 21581.65 18378.78 L 21581.65 18380.95 L 21579.48 18380.95 L 15224.57 18476.19 L 15224.57 24506.36 L 21581.65 24411.12 L 21581.65 28831.88 L 29219.08 21194.45 z "
   style="font-size:12.000;fill:url(#radialGradient965);"
   id="path849" />

  <text
   style="font-size:12.000;"
   id="text768" />

  <text
   x="-27640.6191"
   y="-3.51232477e-3"
   transform="scale(-1,1)"
   style="font-size:12.000;"
   id="text769" />

  <text
   style="font-size:12.000;"
   id="text770" />

  <path
   d="M 25135.77 16964.52 C 25544.63 17793.79 22676.01 20563.19 24013.24 19097.13 C 25210.98 17879.24 22576.44 21448.54 19779.72 20963.96 C 17061.22 20572.17 16525.59 19662.60 15299.20 22682.36 L 15201.40 18515.25 L 21597.16 18406.55 L 21556.94 13495.06 L 25135.77 16964.52 z "
   style="font-size:12.000;fill:url(#radialGradient958);"
   id="path851" />

  <text
   style="font-size:12.000;"
   id="text772" />

  <text
   x="-27640.6191"
   y="-3.51232477e-3"
   transform="scale(-1,1)"
   style="font-size:12.000;"
   id="text773" />

  <text
   style="font-size:12.000;"
   id="text774" />

  <path
   d="M 24816.58 25496.15 C 23241.82 26706.67 22927.17 27243.37 21696.75 28878.88 C 24159.04 26364.98 26621.32 23851.09 29083.61 21337.20 C 27851.75 22596.53 26276.51 24462.21 24816.58 25496.15 z "
   style="font-size:12.000;fill:#1a1aa9;"
   id="path853" />

  <text
   style="font-size:12.000;"
   id="text776" />

  <text
   x="-27640.6191"
   y="-3.51232477e-3"
   transform="scale(-1,1)"
   style="font-size:12.000;"
   id="text777" />

  <text
   style="font-size:12.000;"
   id="text778" />

  <path
   d="M 2688.192 5205.164 C 1200.630 5363.915 1362.513 6291.689 2075.174 6890.972 L 5446.769 9726.179 C 8205.349 10262.58 9870.869 9399.978 11193.82 6967.593 C 12921.74 3964.599 19546.19 4438.888 22074.90 3136.223 L 2688.192 5205.164 z "
   style="font-size:12.000;fill:url(#radialGradient996);"
   id="path995" />

  <text
   style="font-size:12.000;"
   id="text780" />

  <text
   x="-27640.6191"
   y="-3.51232477e-3"
   transform="scale(-1,1)"
   style="font-size:12.000;"
   id="text781" />

  <text
   style="font-size:12.000;"
   id="text782" />

</svg>
