<?xml version="1.0" encoding="UTF-8" standalone="no"?>
<!DOCTYPE svg PUBLIC "-//W3C//DTD SVG 20010904//EN"
"http://www.w3.org/TR/2001/REC-SVG-20010904/DTD/svg10.dtd">
<!-- Created with Sodipodi ("http://www.sodipodi.com/") -->
<svg
   version="1.0"
   x="0"
   y="0"
   width="106.299210"
   height="106.299210"
   viewBox="0 0 30000 30000"
   id="svg776"
   xml:space="preserve"
   sodipodi:version="0.34-pre"
   sodipodi:docname="/home/david/.themes/eXperience/icons/mail-sent-recieve1.svg"
   sodipodi:docbase="/home/david/.themes/eXperience/icons/"
   xmlns="http://www.w3.org/2000/svg"
   xmlns:sodipodi="http://sodipodi.sourceforge.net/DTD/sodipodi-0.dtd"
   xmlns:xml="http://www.w3.org/XML/1998/namespace"
   xmlns:xlink="http://www.w3.org/1999/xlink">
  <sodipodi:namedview
   id="base" />


  <defs
   id="defs858">
    <text
   id="text564" />




    <linearGradient
   id="linearGradient990">
      <text
   id="text568" />




      <stop
   style="stop-color:#ffffff;stop-opacity:1.0000;"
   offset="0"
   id="stop992" />




      <text
   id="text572" />




      <stop
   style="stop-color:#72afff;stop-opacity:1.0000;"
   offset="1"
   id="stop991" />




      <text
   id="text576" />




    </linearGradient>




    <text
   id="text579" />




    <linearGradient
   id="linearGradient969">
      <text
   id="text583" />




      <stop
   style="stop-color:#000000;stop-opacity:0.4667;"
   offset="0"
   id="stop970" />




      <text
   id="text587" />




      <stop
   style="stop-color:#000000;stop-opacity:0;"
   offset="1"
   id="stop971" />




      <text
   id="text591" />




    </linearGradient>




    <text
   id="text594" />




    <linearGradient
   id="linearGradient962">
      <text
   id="text598" />




      <stop
   style="stop-color:#35d2ff;stop-opacity:1.0000;"
   offset="0"
   id="stop964" />




      <text
   id="text602" />




      <stop
   style="stop-color:#152ad2;stop-opacity:1.0000;"
   offset="1"
   id="stop963" />




      <text
   id="text606" />




    </linearGradient>




    <text
   id="text609" />




    <linearGradient
   id="linearGradient959">
      <text
   id="text613" />




      <stop
   style="stop-color:#ffffff;stop-opacity:1.0000;"
   offset="0"
   id="stop960" />




      <text
   id="text617" />




      <stop
   style="stop-color:#ffffff;stop-opacity:0;"
   offset="1"
   id="stop961" />




      <text
   id="text621" />




    </linearGradient>




    <text
   id="text624" />




    <linearGradient
   id="linearGradient955">
      <text
   id="text628" />




      <stop
   style="stop-color:#5987ca;stop-opacity:1.0000;"
   offset="0"
   id="stop956" />




      <text
   id="text632" />




      <stop
   style="stop-color:#a572ff;stop-opacity:1.0000;"
   offset="1"
   id="stop957" />




      <text
   id="text636" />




    </linearGradient>




    <text
   id="text639" />




    <defs
   id="defs837">
      <text
   id="text643" />




      <linearGradient
   x1="12102"
   y1="22907"
   x2="-3799.00000"
   y2="14488"
   id="id2"
   xlink:href="#linearGradient962"
   gradientUnits="userSpaceOnUse"
   spreadMethod="pad">
        <text
   id="text647" />




      </linearGradient>




      <text
   id="text650" />




    </defs>




    <text
   id="text653" />




    <radialGradient
   cx="0.12142888"
   cy="0.11718840"
   r="0.85469222"
   fx="0.12142888"
   fy="0.11718840"
   id="radialGradient958"
   xlink:href="#linearGradient959" />




    <text
   id="text657" />




    <radialGradient
   cx="10.0807848"
   cy="14.4395151"
   r="7.96170902"
   fx="10.0807848"
   fy="14.4395151"
   id="radialGradient965"
   xlink:href="#linearGradient962"
   gradientTransform="scale(7.145663e-2,6.546705e-2)" />




    <text
   id="text661" />




    <radialGradient
   cx="0.33363581"
   cy="0.12979519"
   r="0.60892129"
   fx="0.33363581"
   fy="0.12979519"
   id="radialGradient968"
   xlink:href="#linearGradient969"
   gradientTransform="scale(0.894147,1.118384)" />




    <text
   id="text665" />




    <radialGradient
   cx="1.07228577"
   cy="0.70990282"
   r="1.47849321"
   fx="1.07228577"
   fy="0.70990282"
   id="radialGradient973"
   xlink:href="#linearGradient990"
   gradientTransform="scale(0.908675,1.100504)" />




    <text
   id="text669" />




    <defs
   id="defs820">
      <text
   id="text673" />




      <linearGradient
   x1="17637"
   y1="23234"
   x2="11583"
   y2="7255"
   id="id1"
   xlink:href="#linearGradient990"
   gradientUnits="userSpaceOnUse"
   spreadMethod="pad">
        <text
   id="text677" />




      </linearGradient>




      <text
   id="text680" />




    </defs>




    <text
   id="text683" />




    <linearGradient
   x1="0.96666652"
   y1="0.95312500"
   x2="0.12666667"
   y2="0.22656249"
   id="linearGradient993"
   xlink:href="#linearGradient955" />




    <text
   id="text687" />




    <radialGradient
   cx="6.30255342e-2"
   cy="0.30000052"
   r="0.72840434"
   fx="6.30255342e-2"
   fy="0.30000052"
   id="radialGradient996"
   xlink:href="#linearGradient959" />




    <text
   id="text691" />




  <radialGradient
   xlink:href="#linearGradient962"
   id="radialGradient2049"
   cx="0.83752656"
   cy="0.99996948"
   r="0.63240767"
   fx="0.83752656"
   fy="0.99996948"
   gradientTransform="scale(1.044744,0.957172)" />

</defs>


  <path
   d="M 1511.894 26174.44 L 5649.770 29775.94 L 36453.96 28291.56 L 28637.96 20887.17 L 1511.894 26174.44 z "
   style="font-size:12.000;fill:url(#radialGradient968);"
   id="path967" />


  <path
   d="M 3003.633 5648.697 L 27060.11 3052.852 C 27833.85 2974.341 28590.53 4141.784 28616.70 5098.721 L 28791.89 19926.07 C 28808.96 20571.24 28655.35 20939.90 27877.06 21093.51 L 3046.906 26152.03 C 2128.656 26332.96 1877.189 26171.38 1877.189 25188.27 L 1647.307 7814.040 C 1647.307 6861.652 2182.100 5731.759 3003.633 5648.697 z "
   style="font-size:12.000;fill:url(#linearGradient993);"
   id="path830" />


  <path
   d="M 3426.100 9230.249 L 10109.52 14864.92 L 3179.185 23296.08 C 2743.251 23826.42 2625.467 23955.65 2618.968 22917.92 L 2535.904 9654.739 C 2533.211 9224.628 2748.309 8658.818 3426.100 9230.249 z M 3515.599 24443.79 L 10854.39 15317.39 C 14118.48 17764.89 18948.71 17239.98 21850.25 12763.65 L 27049.90 19223.30 C 27570.38 19869.91 27488.00 20154.16 26463.91 20361.16 L 3907.022 24920.55 C 3129.866 25077.58 3109.384 24935.35 3515.599 24443.79 z M 26861.37 5939.562 C 25637.40 7674.166 22356.56 11980.45 22444.17 12089.69 L 27196.30 17872.31 C 27800.14 18607.09 27914.06 18462.09 27899.88 17614.37 L 27701.89 5772.262 C 27692.04 5182.845 27190.39 5473.273 26861.37 5939.562 z M 26441.15 4948.880 L 20609.63 13015.54 C 18080.50 16514.05 13731.23 16582.40 10951.50 14258.83 L 3421.157 7964.201 C 2957.497 7576.626 2611.003 6582.842 3633.936 6471.332 L 26050.86 4044.283 C 26828.02 3960.081 26682.09 4615.593 26441.15 4948.880 z "
   style="font-size:12.000;fill:url(#radialGradient973);"
   id="path832" />


  <path
   d="M 4117.223 6327.973 C 2629.661 6486.724 2791.544 7414.498 3504.205 8013.781 L 6875.800 10848.99 C 9634.380 11385.39 11299.90 10522.79 12622.85 8090.402 C 14350.77 5087.408 20975.22 5561.697 23503.93 4259.032 L 4117.223 6327.973 z "
   style="font-size:12.000;fill:url(#radialGradient996);"
   id="path995" />


  <g
   id="g783"
   transform="matrix(-6.123032e-17,1,1,6.123032e-17,-103.1616,198.3933)">

  

  <text
   style="font-size:12.000;"
   id="text694"
   x="-27640.6196"
   y="-3.51232477e-3"
   transform="matrix(-1,4.898428e-16,4.898428e-16,1,-3.501473e-12,-1.170775e-3)" />




  <text
   style="font-size:12.000;"
   id="text696"
   x="-27640.6196"
   y="-3.51232477e-3"
   transform="matrix(-1,4.898428e-16,4.898428e-16,1,-3.501473e-12,-1.170775e-3)" />




  

  <text
   style="font-size:12.000;"
   id="text700"
   x="-27640.6196"
   y="-3.51232477e-3"
   transform="matrix(-1,4.898428e-16,4.898428e-16,1,-3.501473e-12,-1.170775e-3)" />




  <text
   style="font-size:12.000;"
   id="text702"
   x="-27640.6196"
   y="-3.51232477e-3"
   transform="matrix(-1,4.898428e-16,4.898428e-16,1,-3.501473e-12,-1.170775e-3)" />




  <g
   transform="matrix(-1,4.898425e-16,4.898425e-16,1,27505.93,134.6886)"
   style="font-size:12.000;"
   id="g780">
    <text
   id="text706" />




  </g>




  <text
   style="font-size:12.000;"
   id="text709"
   x="-27640.6196"
   y="-3.51232477e-3"
   transform="matrix(-1,4.898428e-16,4.898428e-16,1,-3.501473e-12,-1.170775e-3)" />




  <g
   transform="matrix(-1,4.898425e-16,4.898425e-16,1,27505.93,134.6886)"
   style="font-size:12.000;"
   id="g802">
    <text
   id="text713" />




  </g>




  <text
   style="font-size:12.000;"
   id="text716"
   x="-27640.6196"
   y="-3.51232477e-3"
   transform="matrix(-1,4.898428e-16,4.898428e-16,1,-3.501473e-12,-1.170775e-3)" />




  <g
   transform="matrix(-1,4.898425e-16,4.898425e-16,1,27505.93,134.6886)"
   style="font-size:12.000;"
   id="g786">
    <text
   id="text720" />




  </g>




  <text
   style="font-size:12.000;"
   id="text723"
   x="-27640.6196"
   y="-3.51232477e-3"
   transform="matrix(-1,4.898428e-16,4.898428e-16,1,-3.501473e-12,-1.170775e-3)" />




  <g
   transform="matrix(-1,4.898425e-16,4.898425e-16,1,27505.93,134.6886)"
   style="font-size:12.000;"
   id="g789">
    <text
   id="text727" />




    <g
   id="g791">
      <text
   id="text731" />




    </g>




    <text
   id="text734" />




  </g>




  <text
   style="font-size:12.000;"
   id="text737"
   x="-27640.6196"
   y="-3.51232477e-3"
   transform="matrix(-1,4.898428e-16,4.898428e-16,1,-3.501473e-12,-1.170775e-3)" />




  <g
   transform="matrix(-1,4.898425e-16,4.898425e-16,1,27505.93,134.6886)"
   style="font-size:12.000;"
   id="g795">
    <text
   id="text741" />




  </g>




  <text
   style="font-size:12.000;"
   id="text744"
   x="-27640.6196"
   y="-3.51232477e-3"
   transform="matrix(-1,4.898428e-16,4.898428e-16,1,-3.501473e-12,-1.170775e-3)" />




  <g
   transform="matrix(-1,4.898425e-16,4.898425e-16,1,27505.93,134.6886)"
   style="font-size:12.000;"
   id="g798">
    <text
   id="text748" />




  </g>




  <text
   style="font-size:12.000;"
   id="text751"
   x="-27640.6196"
   y="-3.51232477e-3"
   transform="matrix(-1,4.898428e-16,4.898428e-16,1,-3.501473e-12,-1.170775e-3)" />




  <text
   style="font-size:12.000;"
   id="text753"
   x="-27640.6196"
   y="-3.51232477e-3"
   transform="matrix(-1,4.898428e-16,4.898428e-16,1,-3.501473e-12,-1.170775e-3)" />




  

  <text
   style="font-size:12.000;"
   id="text757"
   x="-27640.6196"
   y="-3.51232477e-3"
   transform="matrix(-1,4.898428e-16,4.898428e-16,1,-3.501473e-12,-1.170775e-3)" />




  

  <text
   style="font-size:12.000;"
   id="text761"
   x="-27640.6196"
   y="-3.51232477e-3"
   transform="matrix(-1,4.898428e-16,4.898428e-16,1,-3.501473e-12,-1.170775e-3)" />




  <path
   d="M 21056.12 12283.69 L 21028.12 17942.69 L 14706.12 17942.69 L 14706.12 25008.69 L 21028.12 25008.69 L 21056.12 30134.69 L 29982.12 21208.69 L 21056.12 12283.69 z "
   style="font-size:12.000;fill:#180094;"
   id="path847"
   transform="translate(-2.018611e-3,-1.193670e-2)" />




  <text
   style="font-size:12.000;"
   id="text765"
   x="-27640.6196"
   y="-3.51232477e-3"
   transform="matrix(-1,4.898428e-16,4.898428e-16,1,-3.501473e-12,-1.170775e-3)" />




  <path
   d="M 29219.08 21194.45 L 21581.65 13557.02 C 21581.65 13557.02 21578.40 18278.26 21581.65 18378.78 L 21581.65 18380.95 L 21579.48 18380.95 L 15224.57 18476.19 L 15224.57 24506.36 L 21581.65 24411.12 L 21581.65 28831.88 L 29219.08 21194.45 z "
   style="font-size:12.000;fill:url(#radialGradient965);"
   id="path849"
   transform="translate(-4.205439e-4,-6.553737e-3)" />




  <text
   style="font-size:12.000;"
   id="text769"
   x="-27640.6196"
   y="-3.51232477e-3"
   transform="matrix(-1,4.898428e-16,4.898428e-16,1,-3.501473e-12,-1.170775e-3)" />




  <path
   d="M 25135.77 16964.52 C 25544.63 17793.79 22676.01 20563.19 24013.24 19097.13 C 25210.98 17879.24 22576.44 21448.54 19779.72 20963.96 C 17061.22 20572.17 16525.59 19662.60 15299.20 22682.36 L 15201.40 18515.25 L 21597.16 18406.55 L 21556.94 13495.06 L 25135.77 16964.52 z "
   style="font-size:12.000;fill:url(#radialGradient958);"
   id="path851"
   sodipodi:nodetypes="cssccccc"
   transform="translate(3.364351e-4,4.212187e-3)" />




  <text
   style="font-size:12.000;"
   id="text773"
   x="-27640.6196"
   y="-3.51232477e-3"
   transform="matrix(-1,4.898428e-16,4.898428e-16,1,-3.501473e-12,-1.170775e-3)" />




  <path
   d="M 24816.58 25496.15 C 23241.82 26706.67 22927.17 27243.37 21696.75 28878.88 C 24159.04 26364.98 26621.32 23851.09 29083.61 21337.20 C 27851.75 22596.53 26276.51 24462.21 24816.58 25496.15 z "
   style="font-size:12.000;fill:#1a1aa9;"
   id="path853"
   sodipodi:nodetypes="cccs"
   transform="translate(1.577040e-2,-1.170775e-3)" />




  <text
   style="font-size:12.000;"
   id="text777"
   x="-27640.6196"
   y="-3.51232477e-3"
   transform="matrix(-1,4.898428e-16,4.898428e-16,1,-3.501473e-12,-1.170775e-3)" />




  

  <text
   style="font-size:12.000;"
   id="text781"
   x="-27640.6196"
   y="-3.51232477e-3"
   transform="matrix(-1,4.898428e-16,4.898428e-16,1,-3.501473e-12,-1.170775e-3)" />




</g>



  
  <text
   style="font-size:12.000;"
   id="text1789"
   transform="matrix(-6.123032e-17,1,1,6.123032e-17,-12211.62,64.85007)" />


  <text
   style="font-size:12.000;"
   id="text623"
   transform="matrix(-6.123032e-17,1,1,6.123032e-17,-12211.62,64.85007)" />


  
  <text
   style="font-size:12.000;"
   id="text625"
   transform="matrix(-6.123032e-17,1,1,6.123032e-17,-12211.62,64.85007)" />


  <text
   style="font-size:12.000;"
   id="text627"
   transform="matrix(-6.123032e-17,1,1,6.123032e-17,-12211.62,64.85007)" />


  <g
   transform="matrix(-6.123032e-17,1,1,6.123032e-17,-12076.93,199.5372)"
   style="font-size:12.000;"
   id="g1798">
    <text
   id="text629" />


  </g>


  <text
   style="font-size:12.000;"
   id="text630"
   transform="matrix(-6.123032e-17,1,1,6.123032e-17,-12211.62,64.85007)" />


  <g
   transform="matrix(-6.123032e-17,1,1,6.123032e-17,-12076.93,199.5372)"
   style="font-size:12.000;"
   id="g1805">
    <text
   id="text1807" />


  </g>


  <text
   style="font-size:12.000;"
   id="text633"
   transform="matrix(-6.123032e-17,1,1,6.123032e-17,-12211.62,64.85007)" />


  <g
   transform="matrix(-6.123032e-17,1,1,6.123032e-17,-12076.93,199.5372)"
   style="font-size:12.000;"
   id="g1812">
    <text
   id="text635" />


  </g>


  <text
   style="font-size:12.000;"
   id="text1817"
   transform="matrix(-6.123032e-17,1,1,6.123032e-17,-12211.62,64.85007)" />


  <g
   transform="matrix(-6.123032e-17,1,1,6.123032e-17,-12076.93,199.5372)"
   style="font-size:12.000;"
   id="g1819">
    <text
   id="text638" />


    <g
   id="g1823">
      <text
   id="text640" />


    </g>


    <text
   id="text641" />


  </g>


  <text
   style="font-size:12.000;"
   id="text642"
   transform="matrix(-6.123032e-17,1,1,6.123032e-17,-12211.62,64.85007)" />


  <g
   transform="matrix(-6.123032e-17,1,1,6.123032e-17,-12076.93,199.5372)"
   style="font-size:12.000;"
   id="g1833">
    <text
   id="text644" />


  </g>


  <text
   style="font-size:12.000;"
   id="text645"
   transform="matrix(-6.123032e-17,1,1,6.123032e-17,-12211.62,64.85007)" />


  <g
   transform="matrix(-6.123032e-17,1,1,6.123032e-17,-12076.93,199.5372)"
   style="font-size:12.000;"
   id="g1840">
    <text
   id="text1842" />


  </g>


  <text
   style="font-size:12.000;"
   id="text648"
   transform="matrix(-6.123032e-17,1,1,6.123032e-17,-12211.62,64.85007)" />


  <text
   style="font-size:12.000;"
   id="text1847"
   transform="matrix(-6.123032e-17,1,1,6.123032e-17,-12211.62,64.85007)" />


  
  <text
   style="font-size:12.000;"
   id="text667"
   transform="matrix(-6.123032e-17,1,1,6.123032e-17,-12211.62,64.85007)" />


  
  <text
   style="font-size:12.000;"
   id="text1853"
   transform="matrix(-6.123032e-17,1,1,6.123032e-17,-12211.62,64.85007)" />


  <path
   d="M 9060.687 12283.69 L 9088.687 17942.69 L 15410.69 17942.69 L 15410.69 25008.69 L 9088.687 25008.69 L 9060.687 30134.69 L 134.6871 21208.69 L 9060.687 12283.69 z "
   style="font-size:12.000;fill:#180094;"
   id="path1855"
   transform="matrix(-6.123032e-17,1,1,6.123032e-17,-12211.62,64.85007)" />


  <text
   style="font-size:12.000;"
   id="text671"
   transform="matrix(-6.123032e-17,1,1,6.123032e-17,-12211.62,64.85007)" />


  <path
   d="M 897.7342 21194.45 L 8535.163 13557.02 C 8535.163 13557.02 8538.407 18278.26 8535.163 18378.78 L 8535.163 18380.95 L 8537.325 18380.95 L 14892.24 18476.19 L 14892.24 24506.36 L 8535.163 24411.12 L 8535.163 28831.88 L 897.7342 21194.45 z "
   style="font-size:12.000;fill:url(#radialGradient2049);"
   id="path1859"
   transform="matrix(-6.123032e-17,1,1,6.123032e-17,-12211.62,64.85007)" />


  <text
   style="font-size:12.000;"
   id="text1861"
   transform="matrix(-6.123032e-17,1,1,6.123032e-17,-12211.62,64.85007)" />


  <path
   d="M 504.8474 21155.00 C 572.1909 21222.35 3642.282 24425.13 4389.283 25097.13 C 3767.283 24178.13 3848.559 20263.86 6146.612 20106.82 C 8392.778 19948.69 7781.699 17948.31 8531.900 15825.22 L 8724.931 12896.20 L 504.8474 21155.00 z "
   style="font-size:12.000;fill:url(#radialGradient958);"
   id="path1863"
   transform="matrix(-6.123032e-17,1,1,6.123032e-17,-12211.62,64.85007)" />


  <text
   style="font-size:12.000;"
   id="text675"
   transform="matrix(-6.123032e-17,1,1,6.123032e-17,-12211.62,64.85007)" />


  <path
   d="M 14526.75 24125.75 L 14690.75 19824.75 L 14898.75 19454.75 L 14898.75 24497.75 L 9320.747 24497.75 L 14526.75 24125.75 z "
   style="font-size:12.000;fill:#1a1aa9;"
   id="path1867"
   transform="matrix(-6.123032e-17,1,1,6.123032e-17,-12211.62,64.85007)" />


  <text
   style="font-size:12.000;"
   id="text1869"
   transform="matrix(-6.123032e-17,1,1,6.123032e-17,-12211.62,64.85007)" />


  
  <text
   style="font-size:12.000;"
   id="text679"
   transform="matrix(-6.123032e-17,1,1,6.123032e-17,-12211.62,64.85007)" />


</svg>
