<?xml version="1.0" encoding="UTF-8" standalone="no"?>
<!DOCTYPE svg PUBLIC "-//W3C//DTD SVG 20010904//EN"
"http://www.w3.org/TR/2001/REC-SVG-20010904/DTD/svg10.dtd">
<!-- Created with Inkscape ("http://www.inkscape.org/") -->
<svg
   version="1.0"
   x="0"
   y="0"
   width="106.299"
   height="106.299"
   id="svg998"
   sodipodi:version="0.32"
   sodipodi:docname="mygaleon2.svg"
   sodipodi:docbase="/home/david"
   inkscape:version="0.37cvs"
   xmlns="http://www.w3.org/2000/svg"
   xmlns:inkscape="http://www.inkscape.org/namespaces/inkscape"
   xmlns:sodipodi="http://sodipodi.sourceforge.net/DTD/sodipodi-0.dtd"
   xmlns:xlink="http://www.w3.org/1999/xlink">
  <sodipodi:namedview
     id="base"
     inkscape:zoom="4.12878349"
     inkscape:cx="39.6856446"
     inkscape:cy="42.2748274"
     inkscape:window-width="400"
     inkscape:window-height="500"
     inkscape:window-x="558"
     inkscape:window-y="121" />
  <defs
     id="defs1000">
    <linearGradient
       id="linearGradient632"
       gradientUnits="userSpaceOnUse"
       x1="30"
       y1="25"
       x2="82"
       y2="90">
      <stop
         offset="0.000000"
         style="stop-color:#002bbc;stop-opacity:1;"
         id="stop633" />
      <stop
         offset="1.000000"
         style="stop-color:#1295d7;stop-opacity:0;"
         id="stop634" />
    </linearGradient>
    <linearGradient
       id="linearGradient627"
       gradientUnits="userSpaceOnUse"
       x1="30"
       y1="25"
       x2="82"
       y2="90">
      <stop
         offset="0.000000"
         style="stop-color:#009fff;stop-opacity:1;"
         id="stop628" />
      <stop
         offset="1.000000"
         style="stop-color:#125ed7;stop-opacity:1;"
         id="stop629" />
    </linearGradient>
    <linearGradient
       id="linearGradient620"
       gradientUnits="userSpaceOnUse"
       x1="30"
       y1="25"
       x2="82"
       y2="90">
      <stop
         offset="0.000000"
         style="stop-color:#ffffff;stop-opacity:0;"
         id="stop621" />
      <stop
         offset="1.000000"
         style="stop-color:#ffffff;stop-opacity:1;"
         id="stop622" />
    </linearGradient>
    <linearGradient
       id="linearGradient584"
       gradientUnits="userSpaceOnUse"
       x1="30"
       y1="25"
       x2="82"
       y2="90">
      <stop
         offset="0"
         style="stop-color:#abffff;stop-opacity:1.0000;"
         id="stop585" />
      <stop
         offset="1"
         style="stop-color:#1295d7;stop-opacity:0;"
         id="stop586" />
    </linearGradient>
    <linearGradient
       id="linearGradient175"
       gradientUnits="userSpaceOnUse"
       x1="30"
       y1="25"
       x2="82"
       y2="90">
      <stop
         offset="0.000000"
         style="stop-color:#00c3ff;stop-opacity:1;"
         id="stop551" />
      <stop
         offset="1.000000"
         style="stop-color:#127ad7;stop-opacity:1;"
         id="stop552" />
    </linearGradient>
    <linearGradient
       xlink:href="#linearGradient620"
       id="linearGradient578"
       x1="39.552574"
       y1="98.563606"
       x2="30.311312"
       y2="81.906685"
       gradientTransform="scale(1.670553,0.598604)" />
    <linearGradient
       xlink:href="#linearGradient175"
       id="linearGradient579"
       x1="123.370796"
       y1="16.2301903"
       x2="52.4747047"
       y2="9.64367390"
       gradientTransform="matrix(0.622525,0.776524,0.808406,-0.597974,1.157971e-9,2.560901e-8)" />
    <linearGradient
       xlink:href="#linearGradient620"
       id="linearGradient580"
       x1="32.528641"
       y1="-19.724707"
       x2="38.990334"
       y2="-33.797668"
       gradientTransform="matrix(0.857976,0.424541,0.370924,-0.981994,-3.334139e-15,5.048045e-15)"
       spreadMethod="pad" />
    <linearGradient
       xlink:href="#linearGradient620"
       id="linearGradient581"
       x1="0.380042"
       y1="1.090909"
       x2="0.462845"
       y2="0.185771" />
    <linearGradient
       xlink:href="#linearGradient620"
       id="linearGradient582"
       x1="78.270393"
       y1="10.126960"
       x2="47.327225"
       y2="6.159592"
       gradientTransform="matrix(1.013935,0.339609,0.463687,-0.830948,0.000000,0.000000)" />
    <linearGradient
       xlink:href="#linearGradient175"
       id="linearGradient583"
       x1="1.570374"
       y1="0.665213"
       x2="0.489982"
       y2="0.128032"
       gradientTransform="matrix(0.578483,0.789980,0.794636,-0.643499,4.011548e-18,1.475870e-17)" />
    <radialGradient
       xlink:href="#linearGradient584"
       id="radialGradient584"
       cx="34.010342"
       cy="51.740795"
       r="28.030487"
       fx="34.010342"
       fy="51.740795"
       gradientTransform="scale(1.469424,0.680539)" />
    <radialGradient
       xlink:href="#linearGradient584"
       id="radialGradient587"
       cx="59.956200"
       cy="65.293533"
       r="17.397991"
       fx="59.956200"
       fy="65.293533" />
    <linearGradient
       xlink:href="#linearGradient584"
       id="linearGradient589"
       x1="1.088710"
       y1="-0.193798"
       x2="0.784571"
       y2="0.160061"
       gradientUnits="objectBoundingBox"
       gradientTransform="matrix(0.610126,0.792304,0.792305,-0.610126,1.305108e-17,1.089623e-17)" />
    <linearGradient
       xlink:href="#linearGradient620"
       id="linearGradient619"
       x1="25.252058"
       y1="53.232563"
       x2="15.719129"
       y2="17.125910"
       gradientTransform="scale(1.927699,0.518753)" />
    <linearGradient
       xlink:href="#linearGradient620"
       id="linearGradient592"
       x1="27.999506"
       y1="88.189369"
       x2="3.662984"
       y2="98.075607" />
    <linearGradient
       xlink:href="#linearGradient620"
       id="linearGradient621"
       x1="46.362526"
       y1="112.913445"
       x2="26.474453"
       y2="79.512215"
       gradientTransform="scale(1.684847,0.593526)" />
    <radialGradient
       xlink:href="#linearGradient627"
       id="radialGradient625"
       cx="0.960686"
       cy="0.967093"
       r="0.961050"
       fx="0.960686"
       fy="0.967093" />
    <radialGradient
       xlink:href="#linearGradient175"
       id="radialGradient626"
       cx="13.443006"
       cy="95.708656"
       r="88.294632"
       fx="13.443006"
       fy="95.708656"
       gradientTransform="scale(0.926105,1.079791)" />
    <radialGradient
       xlink:href="#linearGradient632"
       id="radialGradient635"
       cx="0.627690"
       cy="0.647547"
       r="0.538023"
       fx="0.627690"
       fy="0.647547"
       gradientTransform="matrix(0.610126,0.792304,0.792305,-0.610126,1.305108e-17,1.089623e-17)" />
    <radialGradient
       xlink:href="#linearGradient632"
       id="radialGradient637"
       cx="0.145902"
       cy="-0.004281"
       r="0.413615"
       fx="0.145902"
       fy="-0.004281"
       gradientTransform="matrix(0.610126,0.792304,0.792305,-0.610126,1.305108e-17,1.089623e-17)" />
    <radialGradient
       xlink:href="#linearGradient632"
       id="radialGradient639"
       cx="1.212320"
       cy="0.359454"
       r="0.379752"
       fx="1.212320"
       fy="0.359454"
       gradientTransform="matrix(0.610126,0.792304,0.792305,-0.610126,1.305108e-17,1.089623e-17)" />
    <radialGradient
       xlink:href="#linearGradient632"
       id="radialGradient641"
       cx="-4.895747"
       cy="54.303680"
       r="70.226440"
       fx="-4.895747"
       fy="54.303680"
       gradientTransform="scale(0.926105,1.079791)" />
    <radialGradient
       xlink:href="#linearGradient175"
       id="radialGradient651"
       cx="0.659608"
       cy="0.074451"
       r="0.584723"
       fx="0.659608"
       fy="0.074451"
       gradientTransform="matrix(0.917893,0.396828,0.396828,-0.917893,1.062518e-17,-4.130810e-17)"
       spreadMethod="pad" />
    <radialGradient
       xlink:href="#linearGradient620"
       id="radialGradient653"
       cx="0.339755"
       cy="-0.075242"
       r="0.525751"
       fx="0.339755"
       fy="-0.075242"
       gradientTransform="matrix(0.917893,0.396828,0.396828,-0.917893,1.062518e-17,-4.130810e-17)" />
  </defs>
  <path
     d="M -1.66427 70.2525 L 5.78789 77.4642 C 3.11038 67.3747 17.5172 27.3735 31.7746 27.3514 C 36.156 27.3283 41.2818 31.6442 44.9798 40.3681 C 42.0388 33.325 39.1294 24.9437 32.8517 24.1652 C 20.0051 22.3522 3.14582 49.1295 -1.66427 70.2525 z "
     transform="matrix(0.905147,0.502173,-0.502173,0.905147,71.79220,-34.36050)"
     style="font-size:12;fill:url(#radialGradient651);fill-rule:evenodd;"
     id="path179" />
  <path
     d="M 93.2805 41.7948 C 85.6194 19.3657 64.9089 14.1118 53.4376 14.1118 C 42.4676 14.1118 16.6115 20.2338 12.1864 49.1218 C 22.0583 34.9627 33.6737 27.1634 41.1623 24.1643 C 36.8425 25.4318 16.4844 52.3068 13.2031 61.2993 C 14.2188 74.9094 30.4951 92.8617 53.4376 92.8617 C 76.3802 92.8617 95.0002 75.5112 95.0002 53.7761 C 95.0002 48.3424 94.753 49.3671 94.675 49.3245 L 51.3537 49.2932 L 51.3425 64.5368 L 66.2655 64.5622 C 65.7968 65.5859 62.0625 73.1741 53.4375 73.1741 C 44.8124 73.1741 37.8124 64.3542 37.8124 53.4867 C 37.8124 42.6192 44.8124 33.7992 53.4375 33.7992 C 57.75 33.7992 62.3314 36.0043 66.0276 41.7859 "
     style="font-size:12;fill:url(#linearGradient175);fill-rule:evenodd;"
     id="path166"
     transform="matrix(1.035120,0.000000,0.000000,1.035120,-2.711160,-0.789309)" />
  <path
     d="M 93.8454 42.4733 C 85.9152 19.2565 64.4773 13.8181 52.6032 13.8181 C 41.2479 13.8181 14.4837 20.1551 9.90323 50.0576 C 20.1218 35.4013 32.1452 27.3281 39.8968 24.2236 C 34.3789 35.3713 14.3522 53.3545 10.9556 62.6628 C 12.007 76.7509 28.8549 95.3337 52.6032 95.3337 C 76.3515 95.3337 95.6254 77.3738 95.6254 54.8754 C 95.5683 51.1379 95.3696 50.4259 95.2888 50.2675 L 50.4461 50.2351 L 50.4345 66.014 L 65.8816 66.0403 C 65.3964 67.1 61.531 74.9547 52.6031 74.9547 C 43.6751 74.9547 36.4292 65.825 36.4292 54.5758 C 36.4292 43.3267 43.6751 34.1969 52.6031 34.1969 C 57.067 34.1969 61.8093 36.4795 65.6353 42.4641 "
     style="font-size:12;fill:url(#linearGradient583);fill-opacity:0.317829;fill-rule:evenodd;"
     id="path189" />
  <path
     d="M -1.66427 70.2525 L 5.78789 77.4642 C 3.11038 67.3747 17.5172 27.3735 31.7746 27.3514 C 36.156 27.3283 41.2818 31.6442 44.9798 40.3681 C 42.0388 33.325 39.1294 24.9437 32.8517 24.1652 C 20.0051 22.3522 3.14582 49.1295 -1.66427 70.2525 z "
     transform="matrix(0.905147,0.502173,-0.502173,0.905147,71.79220,-34.36050)"
     style="font-size:12;fill:url(#linearGradient580);fill-rule:evenodd;"
     id="path652" />
  <path
     d="M 27.926414 36.928839 L 35.670464 38.677126 C 20.54837 56.863766 5.8839675 86.766259 13.270738 96.213102 C 18.941372 103.11395 27.827754 100.84166 40.977678 92.417834 C 31.971671 99.486033 20.007095 110.64472 8.1356381 101.85345 C -2.988075 93.187288 7.3234295 60.008023 27.926414 36.928839 z "
     style="font-size:12;fill:url(#radialGradient626);fill-rule:evenodd;"
     id="path126" />
  <path
     d="M 90.1281 40.0485 C 85.2038 26.9591 75.2909 18.0111 63.8504 15.4018 C 58.4809 14.1602 59.1732 13.9556 53.4376 13.9556 C 44.0849 14.3599 20.2053 22.4761 14.4014 44.2232 C 24.2733 30.0641 37.4964 24.7189 40.5373 24.4768 C 35.28 27.3068 15.5469 53.0881 13.2032 61.2993 C 12.5001 76.0032 35.624 91.1155 52.3164 90.803 C 74.009 90.4905 92.2602 76.9512 93.195 50.3172 L 52.1539 50.2307 L 52.1238 63.7745 L 67.5155 63.781 C 67.6186 67.042 60.9139 75.1684 53.5293 75.3246 C 44.4376 75.6105 36.0427 67.0034 35.8181 52.9261 C 35.861 43.2653 41.2297 31.9628 53.9981 31.8049 C 58.4789 31.8498 63.6894 34.8187 66.3401 40.196 "
     style="font-size:12;fill:url(#linearGradient579);fill-rule:evenodd;"
     id="path191"
     transform="matrix(1.035120,0.000000,0.000000,1.035120,-2.711160,-0.789309)" />
  <path
     style="font-size:12;fill:url(#radialGradient584);fill-opacity:0.75;fill-rule:evenodd;stroke:none;stroke-width:3.07127pt;"
     d="M 52.593750 13.656250 C 42.912582 14.074750 18.195230 22.489141 12.187500 45.000000 C 22.406100 30.343629 36.102300 24.813110 39.250000 24.562500 C 35.571999 26.542364 25.277852 39.234057 18.093750 49.968750 L 34.687500 49.968750 C 36.022386 41.100155 41.716218 32.266855 53.187500 32.125000 C 57.825670 32.171470 63.224950 35.246350 65.968750 40.812500 L 90.593750 40.656250 C 85.496513 27.107148 75.217290 17.857190 63.375000 15.156250 C 57.816918 13.871040 58.530780 13.656250 52.593750 13.656250 z "
     id="path624" />
  <path
     d="M 90.58224 40.66569 C 85.48500 27.11659 75.22396 17.85434 63.38167 15.15340 C 57.82359 13.86819 58.54020 13.65641 52.60317 13.65641 C 42.92200 14.07491 18.20375 22.47615 12.19602 44.98701 C 22.41462 30.33064 36.10211 24.79772 39.24981 24.54711 C 33.80787 27.47650 13.38175 54.16324 10.95574 62.66282 C 10.22794 77.88312 34.16396 93.52616 51.44259 93.20269 C 73.89704 92.87921 92.78922 78.86441 93.75685 51.29503 L 51.27439 51.20549 L 51.24323 65.22495 L 67.17549 65.23168 C 67.28221 68.60720 60.34204 77.01900 52.69809 77.18069 C 43.28709 77.47663 34.59736 68.56725 34.36487 53.99555 C 34.40928 43.99547 39.96653 32.29602 53.18335 32.13258 C 57.82152 32.17905 63.21501 35.25222 65.95881 40.81837 "
     style="font-size:12;fill:url(#linearGradient589);fill-rule:evenodd;"
     id="path582" />
  <path
     style="fill:url(#radialGradient587);fill-rule:evenodd;fill-opacity:0.75;stroke:none;stroke-opacity:1;stroke-width:0;stroke-linejoin:miter;stroke-linecap:butt;stroke-dasharray:none;"
     d="M 51.28125 51.21875 L 51.25 65.21875 L 67.1875 65.21875 C 67.259601 67.499322 66.835101 74.918557 73.990895 71.77418 C 84.477827 67.381809 84.756822 73.307024 89.6875 69.84375 C 92.060526 64.550992 93.501299 58.36715 93.75 51.28125 L 51.28125 51.21875 z M 69.0625 39.875 C 67.868994 39.875 66.621345 39.998781 65.46875 40.09375 C 65.615938 40.355112 65.83395 40.53904 65.96875 40.8125 L 77.21875 40.75 C 74.702729 40.259716 71.833155 39.875 69.0625 39.875 z "
     id="path603"
     sodipodi:nodetypes="cccscccccccc" />
  <path
     d="M 87.660996 5.38245 C 91.638407 7.5617619 92.816817 15.012758 91.783144 24.766206 C 92.657961 16.914274 94.233389 7.8669434 88.942089 4.009795 C 83.583278 -0.036328558 73.673314 2.1522888 63.286759 7.1714629 C 58.09349 9.681055 57.177383 10.048225 52.214733 13.78973 C 52.214733 13.78973 74.744855 -1.7572276 87.660996 5.38245 z "
     style="font-size:12;fill:url(#linearGradient582);fill-opacity:0.410853;fill-rule:evenodd;"
     id="path187"
     sodipodi:nodetypes="cccccc" />
  <path
     d="M 38.289567 24.938255 C 9.663172 57.547557 -0.97403889 91.863306 9.4310313 101.22865 C 16.872098 107.78193 32.421707 100.01768 40.977678 92.417834 C 32.412692 100.07401 18.316726 110.42425 8.1356381 101.85345 C -3.0915666 93.013625 7.1307287 55.660595 38.289567 24.938255 z "
     style="font-size:12;fill:url(#radialGradient625);fill-opacity:0.395349;fill-rule:evenodd;"
     id="path174"
     sodipodi:nodetypes="ccccc" />
  <path
     d="M 90.58224 40.66569 C 85.48500 27.11659 75.22396 17.85434 63.38167 15.15340 C 57.82359 13.86819 58.54020 13.65641 52.60317 13.65641 C 42.92200 14.07491 18.20375 22.47615 12.19602 44.98701 C 22.41462 30.33064 36.10211 24.79772 39.24981 24.54711 C 33.80787 27.47650 13.38175 54.16324 10.95574 62.66282 C 10.22794 77.88312 34.16396 93.52616 51.44259 93.20269 C 73.89704 92.87921 92.78922 78.86441 93.75685 51.29503 L 51.27439 51.20549 L 51.24323 65.22495 L 67.17549 65.23168 C 67.28221 68.60720 60.34204 77.01900 52.69809 77.18069 C 43.28709 77.47663 34.59736 68.56725 34.36487 53.99555 C 34.40928 43.99547 39.96653 32.29602 53.18335 32.13258 C 57.82152 32.17905 63.21501 35.25222 65.95881 40.81837 "
     style="font-size:12;fill:url(#radialGradient635);fill-rule:evenodd;"
     id="path631" />
  <path
     d="M 90.58224 40.66569 C 85.48500 27.11659 75.22396 17.85434 63.38167 15.15340 C 57.82359 13.86819 58.54020 13.65641 52.60317 13.65641 C 42.92200 14.07491 18.20375 22.47615 12.19602 44.98701 C 22.41462 30.33064 36.10211 24.79772 39.24981 24.54711 C 33.80787 27.47650 13.38175 54.16324 10.95574 62.66282 C 10.22794 77.88312 34.16396 93.52616 51.44259 93.20269 C 73.89704 92.87921 92.78922 78.86441 93.75685 51.29503 L 51.27439 51.20549 L 51.24323 65.22495 L 67.17549 65.23168 C 67.28221 68.60720 60.34204 77.01900 52.69809 77.18069 C 43.28709 77.47663 34.59736 68.56725 34.36487 53.99555 C 34.40928 43.99547 39.96653 32.29602 53.18335 32.13258 C 57.82152 32.17905 63.21501 35.25222 65.95881 40.81837 "
     style="font-size:12;fill:url(#radialGradient637);fill-rule:evenodd;"
     id="path636" />
  <path
     d="M 90.58224 40.66569 C 85.48500 27.11659 75.22396 17.85434 63.38167 15.15340 C 57.82359 13.86819 58.54020 13.65641 52.60317 13.65641 C 42.92200 14.07491 18.20375 22.47615 12.19602 44.98701 C 22.41462 30.33064 36.10211 24.79772 39.24981 24.54711 C 33.80787 27.47650 13.38175 54.16324 10.95574 62.66282 C 10.22794 77.88312 34.16396 93.52616 51.44259 93.20269 C 73.89704 92.87921 92.78922 78.86441 93.75685 51.29503 L 51.27439 51.20549 L 51.24323 65.22495 L 67.17549 65.23168 C 67.28221 68.60720 60.34204 77.01900 52.69809 77.18069 C 43.28709 77.47663 34.59736 68.56725 34.36487 53.99555 C 34.40928 43.99547 39.96653 32.29602 53.18335 32.13258 C 57.82152 32.17905 63.21501 35.25222 65.95881 40.81837 "
     style="font-size:12;fill:url(#radialGradient639);fill-rule:evenodd;"
     id="path638" />
  <path
     style="font-size:12;fill:url(#radialGradient641);fill-rule:evenodd;"
     d="M 52.593750 13.656250 C 42.912582 14.074750 18.195230 22.489141 12.187500 45.000000 C 22.406100 30.343629 36.102300 24.813110 39.250000 24.562500 C 36.182057 26.213971 28.526363 35.356416 21.843750 44.593750 C 20.852990 45.937398 19.921808 47.280326 19.000000 48.656250 C 15.133061 54.314897 11.821297 59.669333 10.968750 62.656250 C 10.966776 62.697531 10.970362 62.739963 10.968750 62.781250 C 2.906085 79.845043 0.807237 96.142696 8.125000 101.843750 C 19.996457 110.635020 31.962744 99.474452 40.968750 92.406250 C 27.818826 100.830076 18.951885 103.119596 13.281250 96.218750 C 9.991795 92.011909 11.200550 83.666297 14.750000 74.187500 C 22.085083 84.861762 38.592192 93.427975 51.437500 93.187500 C 73.891950 92.864020 92.782370 78.850629 93.750000 51.281250 L 51.281250 51.218750 L 51.250000 65.218750 L 67.187500 65.218750 C 67.294219 68.594268 60.331450 77.025810 52.687500 77.187500 C 43.276501 77.483443 34.607490 68.571700 34.375000 54.000000 C 34.419412 43.999922 39.970680 32.288440 53.187500 32.125000 C 57.825670 32.171470 63.224950 35.246350 65.968750 40.812500 L 90.593750 40.656250 C 85.496513 27.107148 75.217290 17.857190 63.375000 15.156250 C 57.816918 13.871040 58.530780 13.656250 52.593750 13.656250 z "
     id="path647" />
  <path
     style="fill:url(#linearGradient592);fill-rule:evenodd;fill-opacity:0.796825;stroke:none;stroke-opacity:1;stroke-width:3pt;stroke-linejoin:miter;stroke-linecap:butt;"
     d="M 37.689732 94.34129 C 27.071545 99.589799 18.737446 102.68504 13.232279 95.89886 C 9.9801237 91.698737 11.091562 84.757317 13.163474 78.228788 C 9.1262419 84.78002 7.8455008 91.542711 10.906604 97.058644 C 13.529724 101.6215 24.04746 105.21918 37.689732 94.34129 z "
     id="path630"
     sodipodi:nodetypes="cscsc" />
  <path
     style="font-size:12;fill:url(#linearGradient578);fill-opacity:0.796825;fill-rule:evenodd;stroke:none;stroke-width:3pt;"
     d="M 51.111003 50.873037 L 51.056177 65.033395 C 53.45947 61.728866 54.098679 54.401999 67.758472 55.038247 C 82.898531 55.327679 80.059726 52.22489 90.574137 50.873037 L 51.111003 50.873037 z "
     id="path619"
     sodipodi:nodetypes="ccscc" />
  <path
     style="fill:url(#linearGradient581);fill-rule:evenodd;fill-opacity:0.796825;stroke:none;stroke-opacity:1;stroke-width:3pt;stroke-linejoin:miter;stroke-linecap:butt;"
     d="M 65.797922 67.189161 C 63.401858 70.907972 58.908943 75.322354 53.386836 75.439161 C 47.088162 75.587133 42.259147 73.284586 37.447421 63.696663 C 40.867463 76.557902 48.470689 78.702274 52.973283 78.893483 C 60.289461 79.073468 65.922926 72.521896 65.797922 67.189161 z "
     id="path616"
     sodipodi:nodetypes="ccccc" />
  <path
     style="font-size:12;fill:url(#linearGradient619);fill-rule:evenodd;fill-opacity:0.796825;"
     d="M 53.029918 13.306583 C 45.42475 13.531472 26.317192 18.016335 21.048276 29.825789 C 51.570802 17.273371 44.603825 26.612316 59.244209 28.440274 C 72.195691 30.019559 75.280173 28.301188 82.43401 26.50483 C 75.981567 20.268487 70.440371 15.497609 61.66346 14.128264 C 57.212591 13.424242 57.784246 13.306583 53.029918 13.306583 z "
     id="path618"
     sodipodi:nodetypes="ccsccc" />
  <path
     style="font-size:12;fill:#d8ffff;fill-rule:evenodd;fill-opacity:0.75;"
     d="M 53.029918 14.591054 C 45.42475 14.815943 24.40507 17.633911 19.136154 29.443365 C 26.713215 22.627313 36.292146 15.780168 52.822667 16.125091 C 67.645324 16.442358 76.793936 20.732373 82.43401 26.50483 C 78.100835 19.965734 65.05031 14.591054 53.029918 14.591054 z "
     id="path648"
     sodipodi:nodetypes="ccscc" />
  <rect
     style="font-size:12;fill:#d8ffff;fill-opacity:0.75;fill-rule:evenodd;stroke-width:0.334963pt;"
     id="rect650"
     width="38.624863"
     height="1.067600"
     x="52.774567"
     y="51.612312"
     ry="0.53380011" />
</svg>
