<?xml version="1.0" encoding="UTF-8" standalone="no"?>
<!DOCTYPE svg PUBLIC "-//W3C//DTD SVG 20010904//EN"
"http://www.w3.org/TR/2001/REC-SVG-20010904/DTD/svg10.dtd">
<!-- Created with Sodipodi ("http://www.sodipodi.com/") -->
<svg
   xml:space="preserve"
   width="30mm"
   height="30mm"
   shape-rendering="geometricPrecision"
   text-rendering="geometricPrecision"
   image-rendering="optimizeQuality"
   fill-rule="evenodd"
   viewBox="0 0 30000 30000"
   id="svg1393"
   sodipodi:version="0.34-pre"
   sodipodi:docname="/home/david/.themes/eXperience/icons/network2.svg"
   sodipodi:docbase="/home/david/.themes/eXperience/icons/"
   xmlns="http://www.w3.org/2000/svg"
   xmlns:sodipodi="http://sodipodi.sourceforge.net/DTD/sodipodi-0.dtd"
   xmlns:xml="http://www.w3.org/XML/1998/namespace"
   xmlns:xlink="http://www.w3.org/1999/xlink"><defs
   id="defs1586"><linearGradient
   id="linearGradient775">
  <stop
   offset="0"
   style="stop-color:#000000;stop-opacity:0.5922;"
   id="stop777" />



  <stop
   offset="1"
   style="stop-color:#fffffd;stop-opacity:0;"
   id="stop779" />



</linearGradient>


<linearGradient
   id="linearGradient763">
  <stop
   offset="0"
   style="stop-color:#ffffff;stop-opacity:1.0000;"
   id="stop765" />



  <stop
   offset="1"
   style="stop-color:#fffffd;stop-opacity:0;"
   id="stop767" />



</linearGradient>


<linearGradient
   id="linearGradient1951">
  <stop
   offset="0"
   style="stop-color:#ffffff;stop-opacity:0;"
   id="stop1953" />



  <stop
   offset="1"
   style="stop-color:#000066;stop-opacity:1.0000;"
   id="stop1952" />



</linearGradient>



<linearGradient
   id="linearGradient1947">
  <stop
   offset="0.69999999"
   style="stop-color:#4fab0f;stop-opacity:1.0000;"
   id="stop1949" />



  <stop
   offset="1"
   style="stop-color:#ffff00;stop-opacity:1.0000;"
   id="stop1948" />



</linearGradient>




  <linearGradient
   id="linearGradient1888">
    <stop
   offset="0"
   style="stop-color:#ffffff;stop-opacity:1.0000;"
   id="stop1890" />




    <stop
   offset="1"
   style="stop-color:#2f82ff;stop-opacity:1.0000;"
   id="stop1889" />




  </linearGradient>




  <defs
   id="defs1471">
    <linearGradient
   id="id6"
   gradientUnits="userSpaceOnUse"
   x1="35919"
   y1="31432"
   x2="10289"
   y2="20934">
     <stop
   offset="0"
   stop-color="#000000"
   id="stop1475" />





     <stop
   offset="1"
   stop-color="#FFFFFF"
   id="stop1477" />





    </linearGradient>





    <linearGradient
   id="id7"
   gradientUnits="userSpaceOnUse"
   x1="58883"
   y1="30999"
   x2="12951"
   y2="24525">
     <stop
   offset="0"
   stop-color="#000000"
   id="stop1482" />





     <stop
   offset="1"
   stop-color="#FFFFFF"
   id="stop1484" />





    </linearGradient>





    <linearGradient
   id="id8"
   gradientUnits="userSpaceOnUse"
   x1="59299"
   y1="31038"
   x2="8116"
   y2="23650">
     <stop
   offset="0"
   stop-color="#000000"
   id="stop1489" />





     <stop
   offset="1"
   stop-color="#FFFFFF"
   id="stop1491" />





    </linearGradient>





    <linearGradient
   id="id12"
   gradientUnits="userSpaceOnUse"
   x1="35692"
   y1="27374"
   x2="14266"
   y2="6327">
     <stop
   offset="0"
   stop-color="#000000"
   id="stop1496" />





     <stop
   offset="0.270588"
   stop-color="#7F7F7F"
   id="stop1498" />





     <stop
   offset="1"
   stop-color="#FFFFFF"
   id="stop1500" />





    </linearGradient>





    <radialGradient
   id="id13"
   gradientUnits="userSpaceOnUse"
   cx="22616"
   cy="10061"
   r="7238"
   fx="22616"
   fy="10061"
   spreadMethod="pad"
   xlink:href="#linearGradient1888">
     
     
    </radialGradient>





    <linearGradient
   id="id14"
   gradientUnits="userSpaceOnUse"
   x1="25775"
   y1="24639"
   x2="14921"
   y2="5412">
     <stop
   offset="0"
   stop-color="#000000"
   id="stop1512" />





     <stop
   offset="0.270588"
   stop-color="#7F7F7F"
   id="stop1514" />





     <stop
   offset="1"
   stop-color="#FFFFFF"
   id="stop1516" />





    </linearGradient>





   </defs>




  <radialGradient
   xlink:href="#linearGradient1947"
   id="radialGradient1891"
   cx="7.48889474e-3"
   cy="3.02381627e-2"
   r="0.98844796"
   fx="7.48889474e-3"
   fy="3.02381627e-2"
   gradientTransform="scale(0.967621,1.033462)" />




<linearGradient
   xlink:href="#linearGradient1888"
   id="linearGradient1874"
   x1="0.61363637"
   y1="1.09606981"
   x2="0.45454544"
   y2="0.23580773"
   spreadMethod="reflect" />



<defs
   id="defs1399">
    <radialGradient
   id="id0"
   gradientUnits="userSpaceOnUse"
   cx="6796"
   cy="7295"
   r="17000"
   fx="6796"
   fy="7295">
     <stop
   offset="0"
   stop-color="#82ECFF"
   id="stop1403" />





     <stop
   offset="1"
   stop-color="#003399"
   id="stop1405" />





    </radialGradient>





    <linearGradient
   id="id1"
   gradientUnits="userSpaceOnUse"
   x1="258"
   y1="11001"
   x2="2102"
   y2="19903">
     <stop
   offset="0"
   stop-color="#336699"
   id="stop1410" />





     <stop
   offset="1"
   stop-color="#000066"
   id="stop1412" />





    </linearGradient>





    <linearGradient
   id="id2"
   gradientUnits="userSpaceOnUse"
   x1="4226"
   y1="2093"
   x2="5226"
   y2="6922">
     <stop
   offset="0"
   stop-color="#336699"
   id="stop1417" />





     <stop
   offset="1"
   stop-color="#000066"
   id="stop1419" />





    </linearGradient>





    <linearGradient
   id="id3"
   gradientUnits="userSpaceOnUse"
   x1="8966"
   y1="-273"
   x2="19770"
   y2="26668">
     <stop
   offset="0"
   stop-color="#336699"
   id="stop1424" />





     <stop
   offset="1"
   stop-color="#000066"
   id="stop1426" />





    </linearGradient>





    <linearGradient
   id="id4"
   gradientUnits="userSpaceOnUse"
   x1="3344.00000"
   y1="-2000.00000"
   x2="14780"
   y2="22379"
   spreadMethod="pad"
   xlink:href="#linearGradient1947">
		

    

    </linearGradient>





    <linearGradient
   id="id5"
   gradientUnits="userSpaceOnUse"
   x1="324"
   y1="653.000000"
   x2="23820"
   y2="25930"
   spreadMethod="pad"
   xlink:href="#linearGradient1951">
     

     

    </linearGradient>





   </defs>



<linearGradient
   xlink:href="#linearGradient775"
   id="linearGradient1950"
   x1="-6.01701799e-10"
   y1="-2.52566679e-8"
   x2="1"
   y2="-2.52566679e-8" />



<radialGradient
   xlink:href="#linearGradient763"
   id="radialGradient1954"
   cx="0.15909094"
   cy="8.59375447e-2"
   r="1.02894092"
   fx="0.15909094"
   fy="8.59375447e-2" />



<radialGradient
   xlink:href="#linearGradient763"
   id="radialGradient769"
   cx="0.53181821"
   cy="1.01351357"
   r="0.45497775"
   fx="0.53181821"
   fy="1.01351357" />


<radialGradient
   xlink:href="#linearGradient775"
   id="radialGradient781"
   cx="0.52941179"
   cy="0.52380931"
   r="0.42852393"
   fx="0.52941179"
   fy="0.52380931" />


<radialGradient
   xlink:href="#linearGradient775"
   id="radialGradient1005"
   cx="0.52520770"
   cy="0.37068740"
   r="0.93696791"
   fx="0.52520770"
   fy="0.37068740" />
</defs>


<path
   sodipodi:type="arc"
   style="fill-rule:evenodd;stroke:none;fill:url(#radialGradient781);fill-opacity:1;stroke-opacity:1;stroke-width:1pt;stroke-linejoin:miter;stroke-linecap:butt;"
   id="path774"
   d="M 21047.62 29523.81 A 8476.190 2952.382 0 1 0 4095.238 29523.81 A 8476.190 2952.382 0 1 0  21047.62 29523.81 z"
   sodipodi:cx="12571.4287"
   sodipodi:cy="29523.8086"
   sodipodi:rx="8476.19043"
   sodipodi:ry="2952.38184"
   transform="translate(-3142.857,-5142.864)" />




<sodipodi:namedview
   id="base" />





 
  
   

   <circle
   fill="url(#id0)"
   cx="12072"
   cy="13291"
   r="11992"
   id="circle1444"
   style="font-size:12.000;fill:url(#id0);"
   transform="translate(0,-1047.620)" />





   <path
   fill="url(#id1)"
   d="M 274 10101.38 C 312 10059.38 354 10019.38 396 9975.380 C 482 10203.38 565 10427.38 658 10653.38 C 207 11393.38 533 12455.38 751 13231.38 C 953 13920.38 1171 14706.38 1604 15287.38 C 1922 15739.38 2104 16167.38 2119 16722.38 C 2120 17429.38 2154 18130.38 2154 18833.38 L 2103 18833.38 C 1946 18662.38 1935 18416.38 1813 18228.38 C 1743 18034.38 1595 17745.38 1450 17597.38 C 1387 17446.38 1198 17071.38 1076 16964.38 C 953 16822.38 975 16573.38 858 16424.38 L 860 16424.38 L 893 16457.38 C 893 16323.38 744 15814.38 664 15711.38 L 666 15711.38 L 698 15746.38 C 698 15599.38 536 15449.38 536 15324.38 L 569 15356.38 C 569 15256.38 472 15139.38 472 15065.38 L 504 15098.38 C 504 15005.38 431 14783.38 373 14710.38 L 374 14710.38 L 406 14742.38 C 406 14538.38 364 14327.38 335 14117.38 C 355 13745.38 342 13367.38 342 12996.38 C 342 12910.38 309 12834.38 254 12778.38 L 310 12833.38 C 310 12699.38 278 12562.38 278 12419.38 C 296 12379.38 310 12333.38 310 12284.38 C 310 11803.38 393 11234.38 287 10763.38 C 312 10588.38 362 10267.38 274 10101.38 z "
   id="path1446"
   style="font-size:12.000;fill:url(#id1);" />





   <path
   fill="url(#id2)"
   d="M 4834.000 4227.380 C 4805.000 4209.380 4778.000 4192.380 4748.000 4177.380 C 4714.000 4325.380 4647.000 4364.380 4562.000 4475.380 C 4471.000 4614.380 4422.000 4837.380 4371.000 4990.380 L 3703 4990.380 L 3703 4806.380 C 3263 4961.380 2843 5245.380 2436 5468.380 C 2551 5353.380 2709 5242.380 2783 5102.380 C 2855 5064.380 2993 4922.380 3028 4855.380 L 3020 4871.380 C 3169 4721.380 3481 4507.380 3429 4253.380 C 3824 3811.380 4281.000 3432.380 4715.000 3037.380 C 4925.000 2911.380 5189.000 2729.380 5370.000 2557.380 L 5353.000 2574.380 C 5387.000 2557.380 5420.000 2533.380 5447.000 2502.380 C 5569.000 2420.380 5727.000 2391.380 5836.000 2289.380 L 5829.000 2296.380 C 6129.000 2146.380 6366.000 1939.380 6706.000 1853.380 C 6883.000 1810.380 6984.000 1624.380 6927.000 1453.380 L 7024.000 1448.380 L 7024.000 1970.380 C 6900.000 2040.380 6774.000 2109.380 6652.000 2178.380 L 6789.000 2168.380 C 6840.000 2335.380 6875.000 2453.380 6941.000 2613.380 C 6373.000 3138.380 6082.000 3885.380 5458.000 4351.380 L 5279.000 4473.380 C 5124.000 4397.380 4981.000 4316.380 4834.000 4227.380 z M 2431 5471.380 L 2429 5471.380 "
   id="path1448"
   style="font-size:12.000;fill:url(#id2);" />





   <path
   fill="url(#id3)"
   d="M 11527 9685.380 C 11631 9586.380 11765 9475.380 11916 9488.380 C 11760 9271.380 11529 9174.380 11383 8971.380 C 11394 9047.380 11485 9137.380 11518 9222.380 C 11560 9449.380 11440 9598.380 11210 9598.380 C 10856 9581.380 10848 9326.380 10702 9069.380 C 10669 8974.380 10645 8858.380 10700 8762.380 C 10507 8778.380 10395 8865.380 10269 9004.380 C 9807 9223.380 9543 9660.380 9099 9907.380 C 9859 9986.380 10628 9865.380 11392 9935.380 C 11374 9836.380 11463 9753.380 11527 9685.380 z M 8142.000 9767.380 L 8117.000 9666.380 C 8042.000 9636.380 7967.000 9608.380 7891.000 9580.380 C 7843.000 9168.380 7796.000 8752.380 8013.000 8375.380 C 8349 7888.380 8893 7971.380 9409 7992.380 C 9465 7852.380 9420 7729.380 9377 7592.380 C 9321 7409.380 9283 7227.380 9244 7038.380 L 9342 7025.380 L 9336 6917.380 L 9237 6930.380 C 9044 6745.380 8830 6459.380 9127 6240.380 C 9249 6117.380 9258 5877.380 9446 5813.380 C 9339 5628.380 9405 5511.380 9520 5347.380 C 9801 5338.380 10074 5289.380 10358 5278.380 C 10347 5468.380 10322 5628.380 10382 5806.380 C 10480 6078.380 10656 6311.380 10702 6603.380 C 10830 6535.380 10907 6461.380 11009 6359.380 C 11096 6328.380 11184 6297.380 11271 6269.380 C 11291 6139.380 11316 6010.380 11349 5886.380 C 11156 5600.380 11113 5441.380 11059 5099.380 L 11214 4921.380 C 11623 4515.380 12204 4384.380 12393 3798.380 C 12775 3636.380 13147 3485.380 13568 3483.380 C 14028 3503.380 14417 3707.380 14808 3933.380 C 14933 3885.380 15051 3825.380 15167 3761.380 C 14627 3322.380 14515 2885.380 14851 2267.380 L 15428 2267.380 C 15404 2514.380 15384 2758.380 15368 3006.380 C 15428 3066.380 15484 3129.380 15540 3191.380 L 15540 3192.380 L 15703 3192.380 C 15555 2639.380 15438 2090.380 15335 1525.380 L 15824 1562.380 C 15712 1513.380 15599 1464.380 15488 1414.380 C 15384 1173.380 15294 931.3802 15202 683.3802 C 22645.00 5056.380 20523.00 6891.380 23844.00 10090.38 L 23844.00 11377.38 C 23588.00 11243.38 23695.00 11353.38 23438.00 11223.38 L 23396.00 11107.38 C 23243.00 12160.38 23204.00 13220.38 23061.00 14273.38 C 22863.00 14325.38 22704.00 14380.38 22510.00 14456.38 C 22266.00 13752.38 22036.00 13037.38 21772.00 12342.38 L 21757.00 12305.38 C 21660.00 12304.38 21561.00 12305.38 21465.00 12304.38 C 21391.00 12209.38 21323.00 12114.38 21255.00 12015.38 C 21082.00 11612.38 20603.00 11918.38 20303.00 11987.38 C 20139.00 12020.38 19978.00 12042.38 19812.00 12048.38 C 21348.00 13354.38 18939.00 14862.38 17941.00 15477.38 C 18053.00 15489.38 18153.00 15451.38 18256.00 15409.38 C 18626.00 15246.38 18984.00 15147.38 19375.00 15033.38 C 19163.00 16067.38 18907.00 16863.38 18204.00 17665.38 C 18068.00 17817.38 17927.00 17961.38 17781.00 18101.38 C 17258.00 18602.38 16654.00 19055.38 16686.00 19829.38 C 16693.00 20023.38 16702.00 20215.38 16713.00 20409.38 C 16764.00 21253.38 15929 21463.38 15384 21882.38 C 15352 22013.38 15328 22148.38 15302 22281.38 C 14744 22669.38 14182 23179.38 13541 23399.38 C 12847 23616.38 12148 23552.38 11435 23517.38 C 11383 23379.38 11329 23239.38 11280 23100.38 C 11045 22927.38 10905 22776.38 10742 22533.38 C 10669 22069.38 10301 21803.38 10162 21367.38 L 10118 21209.38 C 10206 21085.38 10297 20966.38 10391 20844.38 L 10470 20844.38 C 10524 20704.38 10580 20565.38 10636 20424.38 C 10489 19607.38 9930 18997.38 9865 18161.38 C 9859 17974.38 9863 17790.38 9881 17605.38 C 9508 17204.38 9011 17055.38 8487 16980.38 C 7799.000 16896.38 6391.000 16927.38 5968.000 16306.38 C 5581.000 15746.38 4892.000 14957.38 4950.000 14244.38 C 5043.000 13160.38 5373.000 12311.38 5985.000 11412.38 C 6235.000 11050.38 6779.000 10958.38 7114.000 10678.38 C 7175.000 10412.38 7317.000 10252.38 7490.000 10050.38 C 7690.000 9978.380 7990.000 9929.380 8142.000 9767.380 z M 12522 6306.380 C 12647 6281.380 12763 6229.380 12881 6184.380 C 12913 6049.380 12949 5915.380 12986 5781.380 C 13080 5779.380 13180 5784.380 13274 5774.380 C 13274 5740.380 13274 5706.380 13274 5671.380 L 13167 5685.380 L 13078 5520.380 C 12938 5806.380 12775 6105.380 12522 6306.380 z M 15482 3592.380 L 15516 3577.380 L 15516 3357.380 L 15482 3592.380 z M 19268.00 12006.38 C 19072.00 11967.38 18877.00 11906.38 18702.00 11811.38 C 18757.00 11860.38 18812.00 11908.38 18867.00 11956.38 C 18874.00 12085.38 18928.00 12106.38 19007.00 12202.38 C 19035.00 12200.38 19065.00 12198.38 19094.00 12198.38 C 19135.00 12122.38 19194.00 12053.38 19268.00 12006.38 z M 11485 10157.38 C 11540 10328.38 11607 10528.38 11507 10697.38 C 11860 10983.38 12333 11285.38 12766 11423.38 C 12808 11311.38 12854 11201.38 12901 11090.38 C 13759 11070.38 14606 11290.38 15458 11226.38 C 15589 10988.38 15546 10705.38 15531 10447.38 C 15216 10471.38 14939 10502.38 14636 10587.38 C 14220 10411.38 14058 10181.38 13980 9743.380 L 13855 9753.380 C 13839 9904.380 13826 10057.38 13810 10211.38 C 13612 10163.38 13424 10120.38 13223 10085.38 C 13114 9866.380 13025 9711.380 12997 9481.380 C 12895 9569.380 12799 9681.380 12661 9704.380 C 12522 9936.380 12295 9939.380 12165 10139.38 C 12132 10191.38 12098 10242.38 12061 10291.38 C 11865 10525.38 11625 10359.38 11485 10157.38 z M 17707.00 20296.38 C 17809.00 20180.38 17916.00 20069.38 18024.00 19956.38 L 18629.00 19956.38 C 18439.00 20534.38 18243.00 20863.38 17871.00 21335.38 C 17570.00 21714.38 17254.00 22040.38 16879.00 22350.38 C 16731.00 22267.38 16596.00 22196.38 16442.00 22126.38 C 16458.00 21773.38 16471.00 21596.38 16704.00 21324.38 C 16948.00 20955.38 17075.00 20741.38 17478.00 20512.38 C 17576.00 20459.38 17631.00 20380.38 17707.00 20296.38 z M 6706.000 6212.380 L 6918.000 6244.380 C 6952.000 6416.380 6992.000 6584.380 7036.000 6754.380 C 6983.000 6885.380 6944.000 7003.380 6905.000 7140.380 C 6767.000 7161.380 6630.000 7183.380 6492.000 7210.380 C 6162.000 7278.380 5813.000 7183.380 5482.000 7133.380 L 5261.000 6913.380 L 5320.000 6220.380 C 5390.000 6194.380 5459.000 6164.380 5530.000 6139.380 C 5765.000 6068.380 5959.000 6347.380 6117.000 6300.380 L 6117.000 6121.380 C 6314.000 6151.380 6509.000 6184.380 6706.000 6212.380 z M 15166 8534.380 C 15062 8519.380 14961 8487.380 14858 8455.380 C 14759 8603.380 14674 8814.380 14700 8997.380 C 14901 8943.380 15102 8894.380 15306 8844.380 C 15591 8778.380 15913 9007.380 16214 8954.380 C 16026 8774.380 15758 8681.380 15555 8510.380 C 15424 8545.380 15299 8552.380 15166 8534.380 z M 17474.00 8170.380 C 17482.00 8208.380 17525.00 8242.380 17553.00 8268.380 C 17702.00 8410.380 17794.00 8616.380 17945.00 8731.380 C 17797.00 8469.380 17667.00 8203.380 17583.00 7914.380 C 17520.00 7979.380 17459.00 8072.380 17474.00 8170.380 z M 18089.00 8984.380 C 18102.00 9149.380 18118.00 9313.380 18134.00 9479.380 C 18203.00 9484.380 18274.00 9492.380 18342.00 9496.380 C 18270.00 9320.380 18182.00 9149.380 18089.00 8984.380 z M 16908.00 14445.38 L 17081.00 14708.38 C 16960.00 14403.38 16809.00 14111.38 16639.00 13831.38 C 16660.00 14124.38 16750.00 14206.38 16908.00 14445.38 z "
   id="path1450"
   style="font-size:12.000;fill:url(#id3);" />





   <path
   fill="#FFFFFF"
   d="M 10081 1618.380 C 10269 1533.380 10325 1398.380 10550 1360.380 C 10556 1313.380 10569 1263.380 10582 1221.380 C 10977 1057.380 10977 1057.380 11014 982.3802 C 11014 814.3802 10929 726.3802 10929 557.3802 C 11057 557.3802 11142 472.3802 11441 472.3802 C 11441 441.3802 11441 410.3802 11441 386.3802 C 11720 386.3802 12000 386.3802 12281 386.3802 C 13245 563.3802 14043 581.3802 14866 941.3802 C 14981 1240.380 15140 1337.380 15207 1659.380 C 15164 1659.380 15122 1659.380 15080 1659.380 C 15080 1702.380 15080 1745.380 15080 1788.380 C 14768 1824.380 14458 1867.380 14147 1909.380 C 14147 1952.380 14147 1996.380 14147 2038.380 C 13951 2056.380 13951 2056.380 13512 2250.380 C 12988 2220.380 12647 2123.380 12117 2166.380 C 12117 2209.380 12117 2250.380 12117 2295.380 C 11916 2275.380 11715 2263.380 11519 2250.380 C 10648 3166.380 9435 3238.380 8326 3287.380 C 7522.000 3579.380 7522.000 3579.380 7362.000 3548.380 C 7448.000 2744.380 9539 2086.380 10081 1618.380 z "
   id="path1452"
   style="font-size:12.000;fill:#ffffff;" />





   <path
   fill="#336699"
   d="M 15089 853.3802 C 15156 1013.380 15258 1151.380 15335 1303.380 C 15428 1495.380 15461 1694.380 15510 1900.380 L 15319 1900.380 L 15319 2000.380 C 15009 2038.380 14697 2076.380 14386 2118.380 L 14386 2256.380 C 14032 2289.380 13887 2348.380 13558 2493.380 C 13156 2469.380 12759 2395.380 12357 2395.380 L 12357 2555.380 C 12109 2533.380 11862 2511.380 11613 2498.380 C 10760 3357.380 9517 3474.380 8374 3527.380 C 8069.000 3636.380 7666.000 3849.380 7333.000 3788.380 L 7083.000 3739.380 C 7138.000 3445.380 7172.000 3265.380 7350.000 3031.380 C 8068.000 2222.380 9229 1963.380 10085 1335.380 C 10229 1224.380 10331 1220.380 10382 1044.380 C 10507 992.3802 10633 942.3802 10757 885.3802 C 10710 743.3802 10696 627.3802 10689 494.3802 C 11036 539.3802 11408 510.3802 11761 510.3802 L 11713 463.3802 L 11717 463.3802 C 11802 527.3802 12235 590.3802 12378 590.3802 C 12570 590.3802 12763 605.3802 12954 605.3802 L 12953 604.3802 C 13092 611.3802 13228 653.3802 13371 653.3802 L 13361 648.3802 C 13430 648.3802 13508 668.3802 13582 668.3802 L 13558 643.3802 C 13669 638.3802 13830 731.3802 13963 731.3802 C 14189 731.3802 14399 793.3802 14625 793.3802 L 14598 780.3802 C 14694 825.3802 14885 841.3802 14994 841.3802 L 14922 768.3802 C 14967 812.3802 15024 842.3802 15089 853.3802 z "
   id="path1454"
   style="font-size:12.000;fill:#336699;" />





   
<path
   fill="#FFFFFF"
   d="M 10081 1618.380 C 10269 1533.380 10325 1398.380 10550 1360.380 C 10556 1313.380 10569 1263.380 10582 1221.380 C 10977 1057.380 10977 1057.380 11014 982.3802 C 11014 814.3802 10929 726.3802 10929 557.3802 C 11057 557.3802 11142 472.3802 11441 472.3802 C 11441 441.3802 11441 410.3802 11441 386.3802 C 11720 386.3802 12000 386.3802 12281 386.3802 C 13245 563.3802 14043 581.3802 14866 941.3802 C 14981 1240.380 15140 1337.380 15207 1659.380 C 15164 1659.380 15122 1659.380 15080 1659.380 C 15080 1702.380 15080 1745.380 15080 1788.380 C 14768 1824.380 14458 1867.380 14147 1909.380 C 14147 1952.380 14147 1996.380 14147 2038.380 C 13951 2056.380 13951 2056.380 13512 2250.380 C 12988 2220.380 12647 2123.380 12117 2166.380 C 12117 2209.380 12117 2250.380 12117 2295.380 C 11916 2275.380 11715 2263.380 11519 2250.380 C 10648 3166.380 9435 3238.380 8326 3287.380 C 7522.000 3579.380 7522.000 3579.380 7362.000 3548.380 C 7448.000 2744.380 9539 2086.380 10081 1618.380 z "
   id="path1456"
   style="font-size:12.000;fill:#ffffff;" />





   <path
   fill="url(#id4)"
   d="M 159 13665.38 L 321 12497.38 C 506 13409.38 803 14379.38 1237 15204.38 C 2249 16447.38 1707 16825.38 1913 18165.38 C 1913 18306.38 1913 18447.38 1913 18591.38 C 1870 18591.38 1830 18591.38 1786 18591.38 C 1237 17446.38 1237 17446.38 579 15770.38 C 500 15442.38 378 13813.38 159 13665.38 z M 2633 5085.380 C 3333 4079.380 5564.000 1703.380 6783.000 1703.380 C 6783.000 1746.380 6783.000 1788.380 6783.000 1830.380 C 6552.000 1964.380 6107.000 2153.380 6107.000 2464.380 C 6273.000 2446.380 6442.000 2433.380 6613.000 2421.380 C 6625.000 2464.380 6637.000 2507.380 6656.000 2549.380 C 6162.000 2989.380 5893.000 3781.380 5261.000 4195.380 C 5004.000 4073.380 4834.000 3903.380 4583.000 3859.380 C 4553.000 3970.380 4523.000 4079.380 4498.000 4195.380 C 4333.000 4354.380 4333.000 4354.380 4199.000 4749.380 C 4114.000 4749.380 4029 4749.380 3943 4749.380 C 3943 4665.380 3943 4580.380 3943 4494.380 C 3461 4580.380 3067 4848.380 2633 5085.380 z M 22485.00 6566.380 C 22826.00 7243.380 22826.00 7243.380 23076.00 7968.380 C 23119.00 7968.380 23161.00 7968.380 23204.00 7968.380 C 23204.00 8047.380 23204.00 8133.380 23204.00 8218.380 C 23270.00 8389.380 23345.00 8559.380 23417.00 8731.380 C 23594.00 9297.380 23582.00 9973.380 23966.00 10418.38 C 23966.00 10685.38 23966.00 10954.38 23966.00 11223.38 C 23850.00 11163.38 23741.00 11107.38 23630.00 11053.38 C 23571.00 10882.38 23515.00 10711.38 23461.00 10546.38 C 23393.00 10534.38 23326.00 10529.38 23265.00 10523.38 C 23246.00 10760.38 23161.00 10846.38 23161.00 11053.38 C 22906.00 12788.38 22929.00 13485.38 22844.00 14082.38 C 22777.00 14100.38 22716.00 14119.38 22655.00 14143.38 C 22485.00 13649.38 22314.00 13155.38 22150.00 12661.38 C 22066.00 12540.38 22027.00 12228.38 21894.00 12069.38 C 21790.00 12064.38 21686.00 12064.38 21582.00 12064.38 C 21540.00 12009.38 21503.00 11954.38 21465.00 11900.38 C 21369.00 11643.38 21169.00 11625.38 20919.00 11521.38 C 20163.00 11888.38 19255.00 11954.38 18548.00 11437.38 C 18462.00 11308.38 18462.00 11308.38 18212.00 11264.38 C 18193.00 11333.38 18181.00 11407.38 18169.00 11479.38 C 18255.00 11778.38 18407.00 11870.38 18633.00 12069.38 C 18633.00 12198.38 18760.00 12241.38 18889.00 12454.38 C 19006.00 12443.38 19120.00 12436.38 19242.00 12431.38 C 19341.00 12241.38 19352.00 12205.38 19553.00 12143.38 C 20863.00 13179.38 19285.00 14313.38 18298.00 14990.38 C 18085.00 15076.38 17792.00 15318.38 17614.00 15374.38 C 17638.00 15471.38 17664.00 15568.38 17694.00 15672.38 C 18097.00 15789.38 18243.00 15672.38 18633.00 15502.38 C 18772.00 15460.38 18913.00 15416.38 19059.00 15374.38 C 18767.00 16903.38 18059.00 17544.38 16939.00 18551.38 C 16853.00 18690.38 16766.00 18828.38 16688.00 18971.38 C 16513.00 19195.38 16480.00 19237.38 16433.00 19518.38 C 16445.00 19829.38 16457.00 20138.38 16475.00 20451.38 C 16475.00 20506.38 16475.00 20561.38 16475.00 20622.38 C 16365 21147.38 15656 21360.38 15249 21683.38 C 15172 21707.38 15172 21707.38 15085 22139.38 C 14684 22419.38 14286 22706.38 13890 22993.38 C 13110 23389.38 12490 23327.38 11605 23286.38 C 11563 23170.38 11519 23061.38 11483 22951.38 C 11142 22700.38 11142 22700.38 10972 22445.38 C 10897 21908.38 10496 21719.38 10380 21256.38 C 10424 21195.38 10463 21140.38 10508 21085.38 C 10550 21085.38 10593 21085.38 10636 21085.38 C 10714 20873.38 10799 20659.38 10886 20451.38 C 10641 18982.38 9952 19098.38 10130 17520.38 C 9057 16294.38 7528.000 17012.38 6228.000 16264.38 C 5913.000 15789.38 5297.000 14995.38 5174.000 14441.38 C 5187.000 14284.38 5199.000 14131.38 5217.000 13978.38 C 5272.000 13056.38 5724.000 12205.38 6228.000 11479.38 C 6584.000 11204.38 7046.000 11089.38 7334.000 10802.38 C 7388.000 10523.38 7442.000 10474.38 7631.000 10254.38 C 7972.000 10126.38 8168.000 10132.38 8393 9845.380 C 8429 9845.380 8472 9845.380 8516 9845.380 C 8520 9899.380 8542 9964.380 8555 10019.38 C 9066 10295.38 10529 10087.38 11235 10159.38 C 11307 10416.38 11398 10534.38 11184 10718.38 C 11336 10954.38 12646 11766.38 12928 11687.38 C 12970 11565.38 13013 11442.38 13060 11327.38 C 13964 11296.38 14634 11559.38 15604 11454.38 C 15733 11241.38 15733 11241.38 15798 10846.38 C 15782 10632.38 15767 10418.38 15755 10210.38 C 15683 10168.38 15610 10126.38 15544 10084.38 C 15519 10126.38 15492 10168.38 15475 10210.38 C 15311 10222.38 15152 10236.38 14993 10254.38 C 14878 10278.38 14762 10303.38 14652 10335.38 C 14275 10181.38 14257 9919.380 14189 9529.380 C 14159 9517.380 14128 9503.380 14104 9492.380 C 13947 9503.380 13793 9517.380 13642 9529.380 C 13622 9658.380 13611 9784.380 13598 9912.380 C 13526 9895.380 13452 9882.380 13385 9870.380 C 13365 9753.380 13353 9638.380 13342 9529.380 C 13311 9553.380 13282 9584.380 13258 9614.380 C 13238 9498.380 13226 9388.380 13214 9278.380 C 13127 9249.380 13044 9218.380 12963 9193.380 C 12610 8907.380 12257 8626.380 11905 8347.380 C 11885 8389.380 11873 8431.380 11861 8474.380 C 12111 8883.380 12366 9090.380 12665 9449.380 C 12581 9509.380 12561 9404.380 12475 9466.380 C 12490 9722.380 12125 9833.380 12100 9804.380 C 12095 9797.380 11883 10147.38 11855 10163.38 C 11804 10188.38 11623 9960.380 11634 9929.380 C 11649 9897.380 11795 9739.380 11892 9726.380 C 11924 9722.380 12065 9791.380 12083 9773.380 C 12188 9668.380 12231 9515.380 12160 9415.380 C 11782 8876.380 11717 9042.380 11563 8809.380 C 11514 8735.380 11471 8663.380 11428 8590.380 C 10886 8522.380 10470 8400.380 10124 8809.380 C 9592 9046.380 9453 9468.380 8898 9742.380 C 8869 9711.380 8838 9681.380 8814 9658.380 C 8711 9699.380 8613 9742.380 8516 9784.380 C 8472 9784.380 8429 9784.380 8393 9784.380 C 8369 9688.380 8344 9589.380 8326 9492.380 C 8252 9462.380 8178.000 9432.380 8113.000 9406.380 C 8004.000 8559.380 8252 8139.380 9069 8218.380 C 9227 8224.380 9387 8231.380 9551 8237.380 C 9801 7835.380 9617 7669.380 9533 7243.380 C 9794 7206.380 10190 7206.380 10296 6907.380 C 10363 6876.380 10435 6846.380 10508 6823.380 C 10550 6846.380 10593 6876.380 10636 6907.380 C 10972 6737.380 10972 6737.380 11142 6566.380 C 11258 6523.380 11374 6485.380 11489 6450.380 C 11496 6377.380 11507 6305.380 11519 6230.380 C 11537 6135.380 11556 6042.380 11580 5951.380 C 11618 5936.380 11760 6032.380 11861 6051.380 C 11756 6108.380 11821 6373.380 11795 6388.380 C 11773 6400.380 12159 6319.380 12159 6402.380 C 12380 6718.380 12794 6457.380 13087 6364.380 C 13110 6250.380 13143 6135.380 13171 6019.380 C 13550 6019.380 13512 5927.380 13512 5597.380 C 13636 5579.380 13762 5567.380 13890 5555.380 C 13890 5493.380 13890 5438.380 13890 5384.380 C 13836 5384.380 13781 5384.380 13726 5384.380 C 13580 5396.380 13440 5408.380 13300 5428.380 C 13147 5146.380 13147 5146.380 13116 4866.380 C 12982 4810.380 12982 4810.380 12750 4921.380 C 12750 5085.380 12750 5085.380 12665 5213.380 C 12721 5299.380 12776 5384.380 12835 5469.380 C 12672 5773.380 12561 5992.380 12281 6188.380 C 12281 6217.380 12247 6246.380 12199 6271.380 C 12257 6423.380 11821 6048.380 11905 5847.380 C 11885 5760.380 11873 5677.380 11861 5597.380 C 11733 5610.380 11605 5628.380 11476 5645.380 C 11361 5475.380 11361 5475.380 11312 5171.380 C 11683 4708.380 12421 4560.380 12586 3975.380 C 13507 3579.380 13861 3646.380 14781 4195.380 C 15164 4079.380 15402 3872.380 15755 3731.380 C 15755 3714.380 15755 3701.380 15755 3690.380 C 15755 3605.380 15755 3517.380 15755 3433.380 C 15841 3433.380 15926 3433.380 16012 3433.380 C 15896 2964.380 15733 2428.380 15671 1996.380 C 15652 1921.380 15640 1853.380 15628 1788.380 C 15793 1801.380 15963 1812.380 16133 1830.380 C 16103 1684.380 16078 1544.380 16055 1404.380 C 15926 1343.380 15798 1288.380 15671 1232.380 C 15640 1160.380 15610 1093.380 15584 1026.380 C 16328 1203.380 17017.00 1568.380 17700.00 1910.380 C 18329.00 2232.380 18834.00 2573.380 19396.00 3013.380 C 19621.00 3195.380 19845.00 3377.380 20072.00 3562.380 C 21017.00 4408.380 21912.00 5421.380 22485.00 6566.380 z M 17700.00 20664.38 C 17840.00 20506.38 17981.00 20348.38 18127.00 20195.38 C 18181.00 20195.38 18238.00 20195.38 18298.00 20195.38 C 18186.00 20537.38 18047.00 20720.38 17829.00 20999.38 C 17512.00 21409.38 17250.00 21738.38 16853.00 22060.38 C 16798.00 22029.38 16743.00 22000.38 16688.00 21975.38 C 16701.00 21707.38 16713.00 21683.38 16896.00 21469.38 C 17194.00 21025.38 17097.00 20988.38 17700.00 20664.38 z M 5596.000 6907.380 C 5564.000 6876.380 5535.000 6846.380 5510.000 6823.380 C 5522.000 6677.380 5535.000 6530.380 5547.000 6388.380 C 5576.000 6377.380 5607.000 6364.380 5637.000 6360.380 C 5778.000 6425.380 5918.000 6492.380 6064.000 6566.380 C 6357.000 6481.380 6357.000 6481.380 6357.000 6402.380 C 6471.000 6420.380 6595.000 6439.380 6716.000 6457.380 C 6734.000 6547.380 6759.000 6640.380 6783.000 6737.380 C 6759.000 6798.380 6734.000 6859.380 6716.000 6925.380 C 6595.000 6944.380 6471.000 6967.380 6357.000 6993.380 C 6357.000 6963.380 6357.000 6932.380 6357.000 6907.380 C 6273.000 6932.380 6186.000 6963.380 6107.000 6993.380 C 5938.000 6963.380 5765.000 6932.380 5596.000 6907.380 z M 14568 9278.380 C 14316 8986.380 14531 8413.380 14781 8175.380 C 15122 8286.380 15280 8371.380 15615 8237.380 C 15926 8572.380 16354 8603.380 16561.00 9024.380 C 16561.00 9036.380 16561.00 9046.380 16561.00 9066.380 C 16232 9254.380 16133 9206.380 15755 9151.380 C 15640 9120.380 15525 9090.380 15415 9066.380 C 15128 9132.380 14847 9206.380 14568 9278.380 z M 17658.00 8809.380 C 17505.00 8363.380 17036.00 8431.380 17322.00 7840.380 C 17389.00 7767.380 17456.00 7700.380 17524.00 7632.380 C 17602.00 7632.380 17682.00 7638.380 17761.00 7644.380 C 17951.00 8493.380 18365.00 8778.380 18675.00 9699.380 C 18566.00 9759.380 18566.00 9759.380 17913.00 9699.380 C 17890.00 9449.380 17865.00 9199.380 17846.00 8955.380 C 17780.00 8907.380 17718.00 8857.380 17658.00 8809.380 z M 16647.00 14484.38 C 16755.00 14648.38 16864.00 14818.38 16981.00 14990.38 C 17005.00 15033.38 17036.00 15076.38 17066.00 15118.38 C 17238.00 15118.38 17322.00 15204.38 17493.00 15204.38 C 17194.00 14019.38 16499.00 13210.38 15841 12198.38 C 15782 12198.38 15727 12198.38 15671 12198.38 C 15743 12661.38 15993 13435.38 16390.00 13680.38 C 16414.00 14057.38 16401.00 14205.38 16647.00 14484.38 z M 10285 6847.380 C 10242 6816.380 10210 6846.380 10167 6823.380 C 10039 6907.380 10039 6907.380 9575 6907.380 C 9544 6761.380 9858 6689.380 9831 6547.380 C 9952 6333.380 9770 6321.380 9831 6219.380 C 9855 6219.380 9665 5877.380 9694 5877.380 C 9810 5801.380 9563 5675.380 9648 5585.380 C 9732 5585.380 10021 5528.380 10104 5528.380 C 10069 6003.380 10435 6250.380 10478 6732.380 C 10404 6756.380 10352 6816.380 10285 6847.380 z M 9244 6450.380 C 9470 6312.380 9443 5900.380 9680 6057.380 C 9619 6162.380 9689 6563.380 9610 6638.380 C 9483 6650.380 9441 6656.380 9319 6674.380 C 9270 6627.380 9201 6592.380 9244 6450.380 z M 15249 3517.380 C 14903 3244.380 14774 2890.380 14993 2507.380 C 15050 2507.380 15103 2507.380 15164 2507.380 C 15146 2701.380 15134 2897.380 15122 3099.380 C 15177 3153.380 15233 3208.380 15287 3268.380 C 15273 3347.380 15262 3433.380 15249 3517.380 z M 10970 8804.380 C 11036 8760.380 11040 8760.380 11092 8838.380 C 11136 8904.380 11172 9080.380 11136 9152.380 C 11132 9159.380 11245 9137.380 11286 9288.380 C 11307 9362.380 11252 9361.380 11195 9356.380 C 11150 9354.380 11110 9371.380 11067 9293.380 C 11061 9286.380 11099 9185.380 11088 9185.380 C 11017 9186.380 10984 9066.380 10939 8997.380 C 10886 8919.380 10903 8848.380 10970 8804.380 z "
   id="path1458"
   style="font-size:12.000;fill:url(#radialGradient1891);" />





   


   


   

   <path
   sodipodi:type="arc"
   style="font-size:12.000;fill:url(#radialGradient769);stroke-width:1;"
   id="path782"
   d="M 23619.05 11809.52 A 11333.33 11333.33 0 1 0 952.3809 11809.52 A 11333.33 11333.33 0 1 0  23619.05 11809.52 z"
   sodipodi:cx="12285.7139"
   sodipodi:cy="11809.5234"
   sodipodi:rx="11333.3330"
   sodipodi:ry="11333.3340"
   transform="matrix(1.029412,0,0,1.029412,-408.9637,557.4207)" />
<path
   fill="#0060f5"
   d="M 12072 171.3802 C 18721.00 171.3802 24144.00 5593.380 24144.00 12243.38 C 24144.00 18892.38 18721.00 24315.38 12072 24315.38 C 5421.000 24315.38 0 18892.38 0 12243.38 C 0 7013.380 3353 2544.380 8021.000 873.3802 L 8137.000 1249.380 L 8021.000 873.3802 C 8034.000 868.3802 8047.000 864.3802 8061.000 858.3802 C 9317 414.3802 10667 171.3802 12072 171.3802 z M 8137.000 1249.380 C 3631 2871.380 393 7191.380 393 12243.38 C 393 18675.38 5640.000 23922.38 12072 23922.38 C 18504.00 23922.38 23751.00 18675.38 23751.00 12243.38 C 23751.00 5811.380 18504.00 564.3802 12072 564.3802 C 10703 564.3802 9388 802.3802 8165.000 1239.380 C 8156.000 1242.380 8146.000 1245.380 8137.000 1249.380 z "
   id="path1466"
   style="font-size:12.000;fill:#0034b5;fill-opacity:1.0000;" />





  

  
   
   <ellipse
   fill="url(#id6)"
   cx="21665"
   cy="25906"
   rx="7831"
   ry="4095"
   id="ellipse1520"
   style="font-size:12.000;fill:url(#id6);"
   transform="translate(0,-1047.620)" />

<path
   sodipodi:type="arc"
   style="fill-rule:evenodd;stroke:none;fill:url(#radialGradient1005);fill-opacity:1;stroke-opacity:1;stroke-width:1pt;stroke-linejoin:miter;stroke-linecap:butt;"
   id="path1004"
   d="M 29428.57 24333.33 A 7904.762 3952.381 0 1 0 13619.05 24333.33 A 7904.762 3952.381 0 1 0  29428.57 24333.33 z"
   sodipodi:cx="21523.8105"
   sodipodi:cy="24333.3340"
   sodipodi:rx="7904.76221"
   sodipodi:ry="3952.38086"
   transform="matrix(1,0,0,0.963855,380.9522,2165.231)" />





   <ellipse
   fill="url(#id7)"
   cx="21603"
   cy="25643"
   rx="7619"
   ry="3810"
   id="ellipse1522"
   style="font-size:12.000;fill:url(#id7);"
   transform="translate(0,-1047.620)" />





   <path
   fill="url(#id8)"
   d="M 21232.00 22937.38 C 23314.00 22678.38 25607.00 21213.38 26986.00 21903.38 C 28366.00 22593.38 29221.00 23546.38 29221.00 24595.38 C 29221.00 26693.38 25800.00 28404.38 21603.00 28404.38 C 19636.00 28404.38 17913.00 28028.38 16559.00 27412.38 C 23723.00 27025.38 18849.00 23234.38 21232.00 22937.38 z "
   id="path1524"
   style="font-size:12.000;fill:url(#id8);" />





   <g
   id="g1526"
   style="font-size:12.000;"
   transform="translate(0,-1047.620)">
    <defs
   id="defs1528">
     <linearGradient
   id="id9"
   gradientUnits="userSpaceOnUse"
   x1="28707"
   y1="22740"
   x2="19905"
   y2="23707">
      <stop
   offset="0"
   stop-color="#000000"
   id="stop1532" />





      <stop
   offset="0.509804"
   stop-color="#7F7F7F"
   id="stop1534" />





      <stop
   offset="1"
   stop-color="#FFFFFF"
   id="stop1536" />





     </linearGradient>





    </defs>





    <path
   fill="url(#id9)"
   d="M21173 19981l4203 -1320 -163 7802c14,328 -304,368 -433,421l-2018 623c-1668,-3887 1929,-2794 -1589,-7526z"
   id="path1540" />





    <g
   id="g1542">
     <defs
   id="defs1544">
      <linearGradient
   id="id10"
   gradientUnits="userSpaceOnUse"
   x1="18256"
   y1="24657"
   x2="20604"
   y2="24111">
       <stop
   offset="0"
   stop-color="#000000"
   id="stop1548" />





       <stop
   offset="0.380392"
   stop-color="#7F7F7F"
   id="stop1550" />





       <stop
   offset="1"
   stop-color="#FFFFFF"
   id="stop1552" />





      </linearGradient>





      <linearGradient
   id="id11"
   gradientUnits="userSpaceOnUse"
   x1="24787"
   y1="22873"
   x2="20328"
   y2="23754">
       <stop
   offset="0"
   stop-color="#000000"
   id="stop1557" />





       <stop
   offset="0.4"
   stop-color="#B2B2B2"
   id="stop1559" />





       <stop
   offset="0.878431"
   stop-color="#D0D0D0"
   id="stop1561" />





       <stop
   offset="1"
   stop-color="#FFFFFF"
   id="stop1563" />





      </linearGradient>





     </defs>





     <path
   fill="url(#id10)"
   d="M18780 20579l2039 900 539 6473c-1,0 -2,0 -4,-1l-1364 -1080c-36,-50 -70,-110 -92,-174l-1118 -6118z"
   id="path1567" />





     <path
   fill="url(#id11)"
   d="M19740 20340l5636 -1679 -175 7887 175 -7887 -4203 1320c3518,4732 -79,3639 1589,7526l2018 -623c-59,23 -100,37 -106,39l-166 58 -3001 985c-56,0 -110,-5 -162,-16l-1605 -7610zm5459 6211c-41,86 -112,155 -190,210 77,-55 149,-124 190,-210zm-194 213c-76,53 -155,90 -218,117 63,-27 142,-65 218,-117z"
   id="path1569" />





    </g>





   </g>





   <path
   fill="url(#id12)"
   d="M 12628 7385.380 L 28540.00 5083.380 L 30000.00 18419.38 L 15683 22958.38 L 12628 7385.380 z "
   id="path1573"
   style="font-size:12.000;fill:url(#id12);" />





   <path
   fill="#7F7F7F"
   d="M 14405 8639.380 L 27537.00 6302.380 L 28867.00 17714.38 L 16622.00 21285.38 L 14405 8639.380 z "
   id="path1575"
   style="font-size:12.000;fill:#7f7f7f;" />





   <path
   fill="#FFFFFF"
   d="M 27537.00 6302.380 L 28867.00 17714.38 L 16622.00 21285.38 L 27537.00 6302.380 z "
   id="path1577"
   style="font-size:12.000;fill:#ffffff;" />





   <path
   fill="url(#id13)"
   d="M 14632 8806.380 L 27388.00 6552.380 L 28639.00 17596.38 L 16808.00 21028.38 L 14632 8806.380 z "
   id="path1579"
   style="font-size:12.000;fill:url(#linearGradient1874);" />





   <path
   fill="url(#id14)"
   d="M 15079 22064.38 L 15696 22945.38 L 12719 7540.380 L 28519.00 5097.380 L 27542.00 5011.380 L 12177 7342.380 L 15079 22064.38 z "
   id="path1581"
   style="font-size:12.000;fill:url(#id14);" />





  
 



<path
   style="font-size:12.000;fill:url(#radialGradient1954);"
   d="M 14238.09 5714.283 C 9894.979 4913.441 11170.79 8690.248 6349.807 8851.325 C 1858.835 8912.657 1857.143 10745.47 380.9531 13285.71 C 380.9531 6842.388 5604.300 1619.039 12047.61 1619.039 C 15269.28 1619.039 18185.94 2924.875 20297.20 5036.129 C 15360.83 8004.523 20190.40 6735.394 14238.09 5714.283 z "
   id="path772"
   sodipodi:nodetypes="cscccs" />
</svg>
