<?xml version="1.0" encoding="UTF-8" standalone="no"?>
<!DOCTYPE svg PUBLIC "-//W3C//DTD SVG 20010904//EN"
"http://www.w3.org/TR/2001/REC-SVG-20010904/DTD/svg10.dtd">
<!-- Created with Sodipodi ("http://www.sodipodi.com/") -->
<svg
   xml:space="preserve"
   width="30mm"
   height="30mm"
   style="shape-rendering:geometricPrecision; text-rendering:geometricPrecision; image-rendering:optimizeQuality; fill-rule:evenodd"
   viewBox="0 0 30000 30000"
   id="svg559"
   sodipodi:version="0.34-pre"
   sodipodi:docname="/home/david/.themes/eXperience/icons/preferences.svg"
   sodipodi:docbase="/home/david/.themes/eXperience/icons/"
   xmlns="http://www.w3.org/2000/svg"
   xmlns:sodipodi="http://sodipodi.sourceforge.net/DTD/sodipodi-0.dtd"
   xmlns:xml="http://www.w3.org/XML/1998/namespace"
   xmlns:xlink="http://www.w3.org/1999/xlink">
  <sodipodi:namedview
   id="base" />


  <defs
   id="defs561"><linearGradient
   id="linearGradient929"
   gradientUnits="userSpaceOnUse"
   x1="8942"
   y1="6980"
   x2="5456"
   y2="6166">
   <stop
   offset="0"
   style="stop-color:#000000;stop-opacity:0.4039;"
   id="stop931" />









   <stop
   offset="1"
   style="stop-color:#000000;stop-opacity:0;"
   id="stop933" />









  </linearGradient>

<linearGradient
   id="linearGradient880"
   gradientUnits="userSpaceOnUse"
   x1="32375"
   y1="2618"
   x2="13664"
   y2="3546">
   <stop
   offset="0"
   style="stop-color:#ffffff;stop-opacity:0.6471;"
   id="stop882" />









   <stop
   offset="1"
   style="stop-color:#ffffff;stop-opacity:0;"
   id="stop884" />









  </linearGradient>



<linearGradient
   id="linearGradient888"
   gradientUnits="userSpaceOnUse"
   x1="3878"
   y1="20582"
   x2="2080"
   y2="24896">
   <stop
   offset="0"
   style="stop-color:#ccccff;stop-opacity:1.0000;"
   id="stop890" />









   <stop
   offset="1"
   style="stop-color:#0072ff;stop-opacity:1.0000;"
   id="stop892" />









  </linearGradient>





<linearGradient
   id="linearGradient879"
   gradientUnits="userSpaceOnUse"
   x1="8942"
   y1="6980"
   x2="5456"
   y2="6166">
   <stop
   offset="0"
   style="stop-color:#262f9f;stop-opacity:1.0000;"
   id="stop881" />









   <stop
   offset="1"
   style="stop-color:#27afff;stop-opacity:0;"
   id="stop883" />









  </linearGradient>





<linearGradient
   id="id14"
   gradientUnits="userSpaceOnUse"
   x1="3878"
   y1="20582"
   x2="2080"
   y2="24896">
   <stop
   offset="0"
   style="stop-color:#ccccff;stop-opacity:1.0000;"
   id="stop693" />









   <stop
   offset="1"
   style="stop-color:#3a55ff;stop-opacity:1.0000;"
   id="stop695" />









  </linearGradient>






<linearGradient
   id="linearGradient1106"
   gradientUnits="userSpaceOnUse"
   x1="32375"
   y1="2618"
   x2="13664"
   y2="3546">
   <stop
   offset="0"
   style="stop-color:#ffff00;stop-opacity:1.0000;"
   id="stop1108" />









   <stop
   offset="1"
   style="stop-color:#ffff00;stop-opacity:0;"
   id="stop1110" />









  </linearGradient>






<linearGradient
   id="linearGradient1099"
   gradientUnits="userSpaceOnUse"
   x1="8942"
   y1="6980"
   x2="5456"
   y2="6166">
   <stop
   offset="0"
   style="stop-color:#000000;stop-opacity:1.0000;"
   id="stop1101" />









   <stop
   offset="1"
   style="stop-color:#000000;stop-opacity:0;"
   id="stop1103" />









  </linearGradient>






<linearGradient
   id="id12"
   gradientUnits="userSpaceOnUse"
   x1="8942"
   y1="6980"
   x2="5456"
   y2="6166">
   <stop
   offset="0"
   style="stop-color:#6666CC"
   id="stop683" />









   <stop
   offset="1"
   style="stop-color:#FFFFFF"
   id="stop685" />









  </linearGradient>






<linearGradient
   id="id20"
   gradientUnits="userSpaceOnUse"
   x1="18210"
   y1="36841"
   x2="4055"
   y2="21685">
   <stop
   offset="0"
   style="stop-color:#ffffff;stop-opacity:1.0000;"
   id="stop731" />









   <stop
   offset="1"
   style="stop-color:#144bb8;stop-opacity:1.0000;"
   id="stop733" />









  </linearGradient>






<linearGradient
   id="linearGradient816"
   gradientUnits="userSpaceOnUse"
   x1="3035"
   y1="1922"
   x2="9211"
   y2="8827">
   <stop
   offset="0"
   style="stop-color:#3f3700;stop-opacity:1.0000;"
   id="stop818" />









   <stop
   offset="1"
   style="stop-color:#00006f;stop-opacity:1.0000;"
   id="stop820" />









  </linearGradient>







<linearGradient
   id="id16"
   gradientUnits="userSpaceOnUse"
   x1="3035"
   y1="1922"
   x2="9211"
   y2="8827">
   <stop
   offset="0"
   style="stop-color:#6699FF"
   id="stop707" />









   <stop
   offset="1"
   style="stop-color:#003399"
   id="stop709" />









  </linearGradient>







<linearGradient
   id="id19"
   gradientUnits="userSpaceOnUse"
   x1="21548"
   y1="26534"
   x2="22371"
   y2="28292">
   <stop
   offset="0"
   style="stop-color:#664400"
   id="stop724" />









   <stop
   offset="1"
   style="stop-color:#000000"
   id="stop726" />









  </linearGradient>







<linearGradient
   id="id17"
   gradientUnits="userSpaceOnUse"
   x1="3299"
   y1="2070"
   x2="1988"
   y2="7431">
   <stop
   offset="0"
   style="stop-color:#FFFFFF"
   id="stop714" />









   <stop
   offset="1"
   style="stop-color:#003399"
   id="stop716" />









  </linearGradient>







<linearGradient
   id="linearGradient949"
   gradientUnits="userSpaceOnUse"
   x1="32375"
   y1="2618"
   x2="13664"
   y2="3546">
   <stop
   offset="0"
   style="stop-color:#ffffff;stop-opacity:1.0000;"
   id="stop951" />









   <stop
   offset="1"
   style="stop-color:#ffffff;stop-opacity:0;"
   id="stop953" />









  </linearGradient>










  <linearGradient
   id="id0"
   gradientUnits="userSpaceOnUse"
   x1="32375"
   y1="2618"
   x2="13664"
   y2="3546">
   <stop
   offset="0"
   style="stop-color:#ffffff;stop-opacity:1.0000;"
   id="stop565" />









   <stop
   offset="1"
   style="stop-color:#0082ca;stop-opacity:1.0000;"
   id="stop567" />









  </linearGradient>









  <linearGradient
   id="id1"
   gradientUnits="userSpaceOnUse"
   x1="19659"
   y1="1709"
   x2="23919"
   y2="3604">
   <stop
   offset="0"
   style="stop-color:#B2B2B2"
   id="stop572" />









   <stop
   offset="0.2"
   style="stop-color:#663300"
   id="stop574" />









   <stop
   offset="0.501961"
   style="stop-color:#D29F00"
   id="stop576" />









   <stop
   offset="0.619608"
   style="stop-color:#FFD111"
   id="stop578" />









   <stop
   offset="0.760784"
   style="stop-color:#FCD82D"
   id="stop580" />









   <stop
   offset="0.858824"
   style="stop-color:#FFDC30"
   id="stop582" />









   <stop
   offset="1"
   style="stop-color:#EEF813"
   id="stop584" />









  </linearGradient>









  <linearGradient
   id="id2"
   gradientUnits="userSpaceOnUse"
   x1="2008"
   y1="15487"
   x2="9597"
   y2="15487">
   <stop
   offset="0"
   style="stop-color:#000066"
   id="stop589" />









   <stop
   offset="0.309804"
   style="stop-color:#6699FF"
   id="stop591" />









   <stop
   offset="0.419608"
   style="stop-color:#3E5EC4"
   id="stop593" />









   <stop
   offset="1"
   style="stop-color:#000066"
   id="stop595" />









  </linearGradient>









  <linearGradient
   id="id3"
   gradientUnits="userSpaceOnUse"
   href="#id2"
   x1="2008"
   y1="15487"
   x2="9597"
   y2="15487">
  </linearGradient>









  <linearGradient
   id="id4"
   gradientUnits="userSpaceOnUse"
   x1="31540"
   y1="9003"
   x2="8447"
   y2="3671">
   <stop
   offset="0"
   style="stop-color:#003399"
   id="stop603" />









   <stop
   offset="0.458824"
   style="stop-color:#7F99CC"
   id="stop605" />









   <stop
   offset="1"
   style="stop-color:#FFFFFF"
   id="stop607" />









  </linearGradient>









  <linearGradient
   id="id5"
   gradientUnits="userSpaceOnUse"
   x1="18902"
   y1="16073"
   x2="25879"
   y2="16073">
   <stop
   offset="0"
   style="stop-color:#95660b"
   id="stop612" />









   <stop
   offset="0.0313725"
   style="stop-color:#8F710D"
   id="stop614" />









   <stop
   offset="0.0901961"
   style="stop-color:#f9d117"
   id="stop616" />









   <stop
   offset="0.219608"
   style="stop-color:#Fbed8b"
   id="stop618" />









   <stop
   offset="0.258824"
   style="stop-color:#eeb300"
   id="stop620" />









   <stop
   offset="0.321569"
   style="stop-color:#da9a00"
   id="stop622" />









   <stop
   offset="0.811765"
   style="stop-color:#a45d00"
   id="stop624" />









   <stop
   offset="1"
   style="stop-color:#A56323"
   id="stop626" />









  </linearGradient>









  <linearGradient
   id="id6"
   gradientUnits="userSpaceOnUse"
   x1="20581"
   y1="1653"
   x2="25675"
   y2="4961">
   <stop
   offset="0"
   style="stop-color:#B2B2B2"
   id="stop631" />









   <stop
   offset="0.2"
   style="stop-color:#663300"
   id="stop633" />









   <stop
   offset="0.568627"
   style="stop-color:#D29F00"
   id="stop635" />









   <stop
   offset="0.619608"
   style="stop-color:#FFD111"
   id="stop637" />









   <stop
   offset="0.760784"
   style="stop-color:#FCD82D"
   id="stop639" />









   <stop
   offset="0.858824"
   style="stop-color:#FFDC30"
   id="stop641" />









   <stop
   offset="1"
   style="stop-color:#EEF813"
   id="stop643" />









  </linearGradient>









  <linearGradient
   id="id7"
   gradientUnits="userSpaceOnUse"
   x1="18980"
   y1="25053"
   x2="25981"
   y2="25053">
   <stop
   offset="0"
   style="stop-color:#664900"
   id="stop648" />









   <stop
   offset="0.101961"
   style="stop-color:#B89A2C"
   id="stop650" />









   <stop
   offset="0.239216"
   style="stop-color:#FFDC30"
   id="stop652" />









   <stop
   offset="0.258824"
   style="stop-color:#FFCF0B"
   id="stop654" />









   <stop
   offset="0.321569"
   style="stop-color:#D29F00"
   id="stop656" />









   <stop
   offset="0.541176"
   style="stop-color:#905D00"
   id="stop658" />









   <stop
   offset="0.74902"
   style="stop-color:#663300"
   id="stop660" />









   <stop
   offset="1"
   style="stop-color:#A3998F"
   id="stop662" />









  </linearGradient>









  <linearGradient
   id="id8"
   href="#id7"
   x1="10400.1172"
   y1="1973.74841"
   x2="13516.4951"
   y2="1973.74841"
   xlink:href="#id14"
   gradientUnits="userSpaceOnUse"
   gradientTransform="scale(0.877295,1.139868)">
  </linearGradient>









  <linearGradient
   id="id9"
   gradientUnits="userSpaceOnUse"
   href="#id0"
   x1="13897.2812"
   y1="10944.0898"
   x2="14980.1289"
   y2="5436.70654"
   xlink:href="#id0">
  </linearGradient>









  <linearGradient
   id="id10"
   href="#id0"
   xlink:href="#id19"
   x1="20474.0059"
   y1="26851.2891"
   x2="23377.2812"
   y2="33567.7422">
  </linearGradient>









  <linearGradient
   id="id11"
   gradientUnits="userSpaceOnUse"
   x1="5869"
   y1="23751"
   x2="7589"
   y2="27931">
   <stop
   offset="0"
   style="stop-color:#9999FF"
   id="stop676" />









   <stop
   offset="1"
   style="stop-color:#003399"
   id="stop678" />









  </linearGradient>









  


  <linearGradient
   id="id13"
   href="#id4"
   xlink:href="#id5"
   x1="18090.0117"
   y1="16137.3086"
   x2="25192.9824"
   y2="16137.3086">
  </linearGradient>









  


  <linearGradient
   id="id15"
   gradientUnits="userSpaceOnUse"
   x1="8403"
   y1="4675"
   x2="8910"
   y2="6992">
   <stop
   offset="0"
   style="stop-color:#9999FF"
   id="stop700" />









   <stop
   offset="1"
   style="stop-color:#FFFFFF"
   id="stop702" />









  </linearGradient>









  

  

  <linearGradient
   id="id18"
   gradientUnits="userSpaceOnUse"
   href="#id16"
   x1="368"
   y1="19523"
   x2="6036"
   y2="23907">
  </linearGradient>









  

  


 <radialGradient
   xlink:href="#id0"
   id="radialGradient947"
   cx="15123.9141"
   cy="11737.2832"
   r="10111.6475"
   fx="15123.9141"
   fy="11737.2832"
   gradientTransform="scale(1.247095,0.801864)" />








<radialGradient
   xlink:href="#linearGradient949"
   id="radialGradient955"
   cx="10263.1279"
   cy="1657.41296"
   r="7126.51611"
   fx="10263.1279"
   fy="1657.41296"
   gradientTransform="scale(1.276972,0.783102)" />








<radialGradient
   xlink:href="#id0"
   id="radialGradient956"
   cx="16483.0215"
   cy="16666.5527"
   r="7790.43457"
   fx="16483.0215"
   fy="16666.5527"
   gradientTransform="scale(1.726776,0.579114)" />








<radialGradient
   xlink:href="#linearGradient949"
   id="radialGradient808"
   cx="-0.12126663"
   cy="0.16225195"
   r="0.66353267"
   fx="-0.12126663"
   fy="0.16225195"
   gradientTransform="scale(1.298023,0.770402)" />







<radialGradient
   xlink:href="#linearGradient1106"
   id="radialGradient809"
   cx="54469.1641"
   cy="17682.0449"
   r="24239.0488"
   fx="54469.1641"
   fy="17682.0449"
   gradientTransform="scale(0.641880,1.557923)" />







<radialGradient
   xlink:href="#linearGradient949"
   id="radialGradient811"
   cx="14988.6016"
   cy="1263.34680"
   r="7845.08740"
   fx="14988.6016"
   fy="1263.34680"
   gradientTransform="scale(1.298023,0.770402)" />







<linearGradient
   xlink:href="#linearGradient879"
   id="linearGradient812"
   x1="-1.25101646e-2"
   y1="0.62451357"
   x2="0.33775875"
   y2="0.61476290"
   gradientUnits="objectBoundingBox"
   gradientTransform="scale(1.249043,0.800613)" />







<linearGradient
   xlink:href="#linearGradient816"
   id="linearGradient815"
   x1="26458.0996"
   y1="9623.92383"
   x2="26258.8613"
   y2="8205.42773"
   gradientTransform="scale(0.825480,1.211416)" />







<radialGradient
   xlink:href="#linearGradient1099"
   id="radialGradient1098"
   cx="20603.7500"
   cy="20828.4160"
   r="1841.26843"
   fx="20603.7500"
   fy="20828.4160"
   gradientTransform="matrix(0.693375,0,0,1.442221,-4.006523e-4,6.613741e-5)" />






<radialGradient
   xlink:href="#linearGradient1099"
   id="radialGradient1105"
   cx="20567.5957"
   cy="7580.23828"
   r="6000.19824"
   fx="20567.5957"
   fy="7580.23828"
   gradientTransform="scale(1.021811,0.978655)" />






<radialGradient
   xlink:href="#linearGradient949"
   id="radialGradient1113"
   cx="1462.38281"
   cy="2097.34888"
   r="6369.17627"
   fx="1462.38281"
   fy="2097.34888"
   gradientUnits="userSpaceOnUse"
   gradientTransform="scale(0.809555,1.235247)" />






<radialGradient
   xlink:href="#linearGradient888"
   id="radialGradient873"
   cx="14038.9795"
   cy="26354.3320"
   r="22502.0605"
   fx="14038.9795"
   fy="26354.3320" />





<radialGradient
   xlink:href="#linearGradient949"
   id="radialGradient874"
   cx="1421.20178"
   cy="21581.5488"
   r="6090.47314"
   fx="1421.20178"
   fy="21581.5488"
   gradientUnits="userSpaceOnUse"
   gradientTransform="scale(1.155332,0.865552)" />





<linearGradient
   xlink:href="#id12"
   id="linearGradient875"
   x1="8942"
   y1="6980"
   x2="5456"
   y2="6166"
   gradientUnits="userSpaceOnUse" />





<linearGradient
   xlink:href="#linearGradient880"
   id="linearGradient876"
   x1="9666.67090"
   y1="10140.1523"
   x2="17998.1797"
   y2="10410.1553"
   gradientUnits="userSpaceOnUse"
   gradientTransform="scale(0.656257,1.523793)"
   spreadMethod="reflect" />





<radialGradient
   xlink:href="#linearGradient929"
   id="radialGradient878"
   cx="9109.74316"
   cy="23257.2324"
   r="8496.56836"
   fx="9109.74316"
   fy="23257.2324"
   gradientUnits="userSpaceOnUse"
   gradientTransform="translate(-7.687911e-5,5.193092e-4)" />





<radialGradient
   xlink:href="#linearGradient1099"
   id="radialGradient887"
   cx="20603.7480"
   cy="20828.4160"
   r="1841.26831"
   fx="20603.7480"
   fy="20828.4160"
   gradientTransform="scale(0.693375,1.442221)" />





</defs>


  <path
   style="font-size:12.000;fill:#00008d;fill-rule:nonzero;fill-opacity:1.0000;"
   d="M 6850.780 26429.61 L 7676.183 23441.09 C 7728.502 23245.72 6757.575 22319.52 6633.734 22175.4 L 5157.139 22664.62 C 4876.192 22713.72 4774.772 22839.2 4729.932 23084.34 L 3935.164 25535.56 C 3894.604 25649.78 3605.024 26133.42 3266.343 26008.92 C 2862.282 25975.25 2544.552 25866.39 1557.391 25610.4 C 837.8181 25072.35 465.8701 25262.92 297.5111 24519.21 C -712.6410 20913.36 2186.168 17997.08 4066.075 17549.14 C 4662.855 17308.94 5958.224 14192.57 6636.134 14212.86 C 7652.464 14243.81 6738.614 16938.37 7939.644 16776.09 C 8866.294 16652.26 9689.058 17527.03 9783.008 18588.2 C 11314.98 19525.53 12295.76 21325.04 12301.10 23273.36 C 12304.31 24710.33 11851.22 26020.24 10928.85 26982.13 C 10648.07 27273.58 10219.73 27785.74 9722.248 27665.12 L 8212.155 27273.82 C 7685.694 27038.7 7125.796 26661.2 6850.780 26429.61 z M 6060.837 1587.151 L 5399.679 4070.659 C 5327.089 4374.915 5484.674 4612.658 5693.914 4874.217 C 5693.914 4874.217 6157.057 5418.162 6410.067 5727.497 L 7887.944 5237.718 C 8209.274 5135.231 8439.863 4900.362 8577.595 4534.186 L 9216.418 2147.741 C 9283.678 2010.021 9590.648 1841.760 9784.938 1910.086 L 11608.89 2323.476 C 12188.33 2453.308 12844.54 2921.380 12901.12 3069.775 C 13117.84 3639.858 13220.32 4439.712 13220.32 5084.527 C 13220.32 7402.232 11631.86 9649.302 9604.538 10392.34 C 9214.868 12527.49 8959.634 14633.99 8590.254 14654.28 C 6988.884 14738.62 5342.584 11227.87 4790.644 10370.61 C 3710.724 9797.257 3095.892 9367.503 2741.489 9017.296 C 1743.271 8030.893 1079.842 6878.738 992.3921 5349.110 C 903.4531 3793.445 1519.860 1630.530 2836.003 428.9456 C 2990.804 284.8221 3428.653 113.0276 3647.514 173.8820 L 4754.519 487.6172 L 5729.232 977.7443 C 5844.533 996.9583 6043.430 1263.111 6060.837 1587.151 z M 3442.600 9397.788 L 4986.155 10848.99 L 9738.948 9035.426 L 9783.048 19916.9 C 9832.168 19990.56 9522.568 19103.41 7704.494 19913.7 C 7493.104 20007.66 6159.704 20443.23 5384.644 19562.47 C 5278.954 19442.89 5397.714 18318.83 5198.084 18332.71 C 4938.664 18350.86 3540.886 18698.96 3542.296 18147.17 L 3442.600 9397.788 z "
   id="path1091"
   sodipodi:nodetypes="ccccccccccccccccccccccccccccccccsscccccccccccccc" />


  <path
   sodipodi:type="arc"
   style="fill-rule:evenodd;stroke:none;fill:url(#radialGradient1098);fill-opacity:1;stroke-opacity:1;stroke-width:1pt;stroke-linejoin:miter;stroke-linecap:butt;"
   id="path1112"
   d="M 15619.06 29904.76 A 1190.477 2476.191 0 1 0 13238.11 29904.76 A 1190.477 2476.191 0 1 0  15619.06 29904.76 z"
   sodipodi:cx="14428.5820"
   sodipodi:cy="29904.7617"
   sodipodi:rx="1190.47705"
   sodipodi:ry="2476.19141"
   transform="matrix(5.820001,0,0,0.769230,-62102.39,4889.537)" />


  









<path
   style="font-size:12.000;fill:#0042c1;fill-opacity:1.0000;"
   d="M 8143.312 23606.79 L 9605.428 24084.55 L 7509.513 21292.84 L 6601.031 21552.56 L 7935.965 23286.15 L 8143.312 23606.79 z "
   id="path770" />







<path
   style="font-size:12.000;fill:url(#id3);"
   d="M 3903.832 8993.693 L 9368.608 8993.693 L 9368.608 22169.89 L 3903.832 22169.89 L 3903.832 8993.693 z "
   id="path772" />







<path
   style="font-size:12.000;fill:#ccccff;"
   d="M 9926.068 24767.51 L 9812.778 22181.01 L 6697.223 21297.11 L 3767.638 22316.75 L 2850.605 24608.26 L 2294.829 24260.9 C 2027.628 23588.62 818.8131 23897.51 818.8131 23122.63 C 818.8131 20026.31 3595.560 17164.06 6437.505 17755.1 C 11595.54 18828.18 12238.95 23637.79 9276.238 26243.53 L 9926.068 24767.51 z "
   id="path774" />







<path
   sodipodi:type="arc"
   style="fill-rule:evenodd;stroke:none;fill:url(#radialGradient878);fill-opacity:1;stroke-opacity:1;stroke-width:1pt;stroke-linejoin:miter;stroke-linecap:butt;shape-rendering:geometricPrecision;text-rendering:geometricPrecision;image-rendering:optimizeQuality;"
   id="path927"
   d="M 12795.27 24343.14 A 5791.543 5791.544 0 1 0 1212.184 24343.14 A 5791.543 5791.544 0 1 0  12795.27 24343.14 z"
   sodipodi:cx="7003.72705"
   sodipodi:cy="24343.1445"
   sodipodi:rx="5791.54346"
   sodipodi:ry="5791.54395"
   transform="matrix(1.180233,0,0,0.337209,-1430.658,19164.87)" />
<path
   style="font-size:12.000;fill:url(#id11);"
   d="M 7935.965 23286.15 C 8030.019 23419.75 8093.079 23504.19 8180.720 23508.46 C 8795.276 23536.25 8833.753 23848.34 9378.838 23869.72 L 8685.195 26919.01 L 8202.097 26835.64 L 7401.564 26405.99 C 7305.372 26355.75 7278.652 26269.18 7317.129 26139.85 L 8004.368 23695.5 C 8047.120 23541.6 8054.602 23456.09 7935.965 23286.15 z "
   id="path776" />








<path
   style="font-size:12.000;fill:url(#id18);"
   d="M 8202.097 26835.64 C 8440.439 26852.75 8592.209 26779 8659.544 26613.33 L 9280.508 24129.44 C 9332.888 23933.85 9248.448 23726.5 9124.467 23582.21 L 7513.788 21684.02 C 7395.151 21580.35 7244.450 21556.83 7060.616 21615.62 L 4670.775 22409.74 C 4524.349 22458.9 4422.813 22550.82 4377.923 22695.11 L 3548.533 25519.95 C 3507.919 25634.31 3420.277 25680.27 3283.470 25656.76 L 3088.948 25611.87 L 2123.820 25389.56 C 1968.844 25354.29 1868.377 25304.05 1802.111 25182.21 C 1791.423 25164.04 1819.212 25109.53 1808.524 25089.22 C 1526.360 24550.55 1491.089 23898.58 1491.089 23255.16 C 1491.089 20302.06 3854.210 17892.98 6751.732 17892.98 C 8784.588 13615.63 9431.208 15038.21 9447.248 18652.9 C 10980.98 19591.31 12007.02 21304.6 12012.37 23255.16 C 12015.58 24693.77 11473.69 26005.19 10550.25 26968.18 C 10269.15 27259.96 10016.92 27375.39 9518.858 27254.62 L 8801.689 27083.61 C 8583.659 27024.82 8389.137 26935.04 8202.097 26835.64 z "
   id="path778" />











<path
   style="font-size:12.000;fill:url(#id14);"
   d="M 740.7901 24686.28 C 490.6901 24052.48 447.9381 23864.38 465.0391 23108.73 C 520.6171 20568.19 1662.098 18939.34 3974.985 17945.35 C 4813.995 17648.22 4298.832 17951.76 4794.756 17941.08 L 6843.649 17894.05 L 6751.732 17892.98 C 3854.210 17892.98 1965.638 25292.29 2123.820 25389.56 C 2008.390 25368.18 1854.482 25317.95 1772.184 25268.78 L 809.1931 24758.96 C 765.3731 24736.52 760.0291 24733.31 740.7901 24686.28 z "
   id="path780"
   sodipodi:nodetypes="cccccccccc" />







<path
   style="font-size:12.000;fill:#9999ff;"
   d="M 4778.112 771.3992 L 5581.851 1249.153 C 5706.901 1326.107 5756.066 1520.629 5720.795 1639.266 L 3561.815 1041.806 L 3356.605 463.5842 L 3610.980 466.7902 L 4508.774 673.0692 C 4631.686 698.7202 4703.296 720.0962 4778.112 771.3992 z "
   id="path782" />










<path
   style="font-size:12.000;fill:url(#id17);"
   d="M 4426.476 1053.562 L 4480.985 1185.025 L 4249.055 4228.973 L 6230.614 6676.529 L 9160.194 5656.892 L 10105.01 2281.616 L 11684.70 2785.021 C 11950.83 3457.298 12109.02 4076.134 12109.02 4851.015 C 12109.02 7947.334 8369.286 10293.36 5527.342 9702.313 C 4731.085 9536.643 4499.155 9895.763 3908.107 9527.023 C 517.8671 7411.865 615.1281 2751.889 3270.032 507.4052 C 3344.849 444.3452 3435.697 406.9372 3610.980 466.7902 C 3268.964 472.1342 3429.284 556.5692 3482.724 571.5332 C 3757.406 647.4182 3892.075 845.1462 4124.005 993.7093 C 4180.652 1031.118 4313.183 1017.223 4426.476 1053.562 z "
   id="path786" />







<path
   style="font-size:12.000;fill:url(#linearGradient875);"
   d="M 9300.208 5049.813 L 10552.84 6128.234 L 6967.018 6882.808 L 6204.962 6059.830 L 8315.846 5356.559 L 9300.208 5049.813 z "
   id="path788" />







<path
   style="font-size:12.000;fill:url(#id8);"
   d="M 8315.846 5356.559 C 8479.373 5323.426 8915.439 5194.101 9106.754 5400.380 C 9313.028 5621.622 9432.738 5781.942 10105.01 5722.089 L 11049.83 2746.545 C 10933.34 2716.618 10818.97 2685.623 10718.51 2641.802 C 10440.62 2516.752 9987.448 2363.913 9707.418 2292.304 C 9630.468 2271.996 9686.048 2208.937 9883.768 2200.387 C 9671.078 2152.291 9563.128 2203.593 9526.788 2323.299 L 8936.815 4684.282 C 8880.168 4915.144 8614.042 5338.389 8315.846 5356.559 z "
   id="path792" />













 
  
  
  








 
  
   
    






    






    






    






    
















    

    






    












    






    






    






    






    






   
   

   

   

   

   

   

   

   

   

   

   <path
   style="font-size:12.000;fill:#333b99;"
   d="M 11606.68 2633.252 L 12271.48 2976.337 C 12401.87 3035.121 12485.24 3143.070 12524.78 3300.184 L 11796.93 3181.547 L 10841.42 2690.967 L 9611.228 2306.198 L 9678.558 2192.905 L 9883.768 2200.387 L 11416.43 2563.779 C 11496.59 2580.880 11559.65 2603.325 11606.68 2633.252 z "
   id="path790" />









   

   

   

  
 

<path
   style="font-size:12.000;fill:url(#radialGradient873);"
   d="M 8188.922 26849.74 C 8426.989 26866.85 8578.587 26793.18 8645.842 26627.7 L 9266.088 24146.66 C 9318.408 23951.29 9234.078 23744.17 9110.234 23600.05 L 7501.402 21704.04 C 7382.901 21600.49 7232.373 21577 7048.751 21635.72 L 4661.652 22428.93 C 4515.395 22478.03 4413.977 22569.84 4369.138 22713.96 L 3540.698 25535.57 C 3500.133 25649.79 3412.590 25695.7 3275.939 25672.21 L 3081.641 25627.39 L 2117.623 25405.33 C 1962.823 25370.11 1862.472 25319.92 1796.282 25198.21 C 1785.606 25180.06 1813.362 25125.62 1802.688 25105.33 C 1520.846 24567.28 1485.617 23916.06 1485.617 23273.37 C 1485.617 21014.38 2869.194 19074.59 4816.451 18289.93 C 5413.227 18049.73 5563.755 14192.58 6241.664 14212.87 C 7257.995 14243.82 6344.151 16938.38 7545.174 16776.1 C 8471.829 16652.27 9338.688 17615.23 9432.638 18676.4 C 10964.61 19613.73 11989.48 21325.05 11994.82 23273.37 C 11998.03 24710.34 11456.75 26020.25 10534.38 26982.14 C 10253.60 27273.59 10001.65 27388.88 9504.168 27268.25 L 8787.827 27097.44 C 8570.047 27038.71 8375.747 26949.04 8188.922 26849.74 z M 5710.466 1587.157 L 5093.411 4026.567 C 5020.813 4330.823 5090.205 4612.664 5299.450 4874.222 L 6746.017 6578.072 C 6898.679 6753.153 7085.504 6785.182 7338.520 6697.641 L 9345.558 6031.473 C 9666.888 5928.987 9897.478 5694.117 10035.21 5327.941 L 10762.23 2853.302 C 10829.49 2715.582 10915.97 2635.516 11110.26 2703.842 L 12140.46 2940.842 C 12323.02 2982.480 12450.07 3097.775 12506.65 3246.169 C 12723.37 3816.252 12825.85 4439.718 12825.85 5084.532 C 12825.85 7402.238 11369.68 9384.728 9342.358 10127.76 C 8952.688 12262.91 8565.163 14634 8195.784 14654.29 C 6594.421 14738.63 5741.867 10566.42 5189.929 9709.158 C 4110.003 9135.805 4377.154 9146.982 4022.716 8796.815 C 3024.534 7810.375 2317.714 6609.032 2317.714 5084.532 C 2317.714 3523.739 2977.477 2115.605 4029.036 1134.506 C 4183.834 990.3833 4313.011 950.8803 4531.864 1011.734 L 5467.061 1242.332 C 5582.358 1261.547 5737.156 1483.602 5710.466 1587.157 z M 3930.078 9530.086 L 5076.756 9614.264 L 9388.578 8991.339 L 9388.578 19916.91 C 9437.698 19990.57 9128.099 19103.42 7310.022 19913.71 C 7098.641 20007.67 5765.239 20443.24 4990.180 19562.48 C 4884.490 19442.9 5003.251 18318.84 4803.612 18332.72 C 4544.193 18350.87 3984.264 18346.19 3985.677 17794.4 L 3930.078 9530.086 z "
   id="path897"
   sodipodi:nodetypes="cccccccccccccccccccccccccccccccccccccccccccccccccccccc" />




<path
   style="font-size:12.000;fill:url(#linearGradient812);"
   d="M 3939.991 9422.766 L 4743.963 9523.781 L 6632.018 9557.453 L 8103.276 18778.32 C 8140.968 18852.07 7903.369 17963.89 6508.098 18775.11 C 6345.875 18869.17 5322.564 19305.24 4727.749 18423.48 C 4646.638 18303.77 4582.732 18358.28 4429.522 18372.17 C 4230.431 18390.34 4110.812 18284.53 3905.167 18035.5 L 3939.991 9422.766 z "
   id="path877"
   sodipodi:nodetypes="ccccccccc" />




<path
   style="font-size:12.000;fill:url(#radialGradient874);"
   d="M 7750.475 18853.76 C 7438.361 19794.25 6606.231 20521.13 4688.941 20156.67 C 3533.127 19928.96 2063.916 21660.76 1390.481 23020.93 C 1794.542 20565.97 2946.278 19044.97 4946.358 18239.03 C 6262.676 19903.05 7992.395 18176.98 7750.475 18853.76 z "
   id="path874"
   sodipodi:nodetypes="csccs" />



<path
   style="font-size:12.000;fill:url(#radialGradient1113);"
   d="M 5634.701 1508.342 C 4968.034 4365.487 2778.782 5593.682 4831.582 7265.530 C 6488.125 8537.804 8719.336 10518.83 7957.188 9850.670 C 7043.205 9049.405 4265.221 9273.245 3901.166 8913.578 C 2875.907 7900.379 2149.914 6666.447 2149.914 5100.592 C 2149.914 3497.457 2827.573 2051.125 3907.659 1043.413 C 4066.654 895.3819 4199.337 854.8051 4424.126 917.3094 L 5384.691 1154.165 C 5503.116 1173.899 5662.114 1401.980 5634.701 1508.342 z "
   id="path875"
   sodipodi:nodetypes="csscccccc" />



<path
   style="font-size:12.000;fill:url(#linearGradient876);fill-rule:nonzero;"
   d="M 8054.235 26849.74 C 8292.302 26866.85 8443.900 26793.18 8511.155 26627.7 L 9131.401 24146.66 C 9183.721 23951.29 9099.391 23744.17 8975.547 23600.05 L 7366.715 21704.04 C 7248.214 21600.49 7097.686 21577 6914.064 21635.72 L 4526.965 22428.93 C 4380.708 22478.03 4279.290 22569.84 4234.451 22713.96 L 3406.011 25535.57 C 3365.446 25649.79 3277.903 25695.7 3141.252 25672.21 L 2946.954 25627.39 L 1982.936 25405.33 C 1828.136 25370.11 1727.785 25319.92 1661.595 25198.21 C 1650.919 25180.06 1678.675 25125.62 1668.001 25105.33 C 1386.159 24567.28 1350.930 23916.06 1350.930 23273.37 C 1350.930 21014.38 2734.507 19074.59 4681.764 18289.93 C 5278.540 18049.73 5429.068 14192.58 6106.977 14212.87 C 7123.308 14243.82 6209.464 16938.38 7410.487 16776.1 C 8337.142 16652.27 9203.998 17615.23 9297.948 18676.4 C 10829.92 19613.73 11854.79 21325.05 11860.13 23273.37 C 11863.34 24710.34 11322.06 26020.25 10399.69 26982.14 C 10118.91 27273.59 9866.958 27388.88 9369.478 27268.25 L 8653.140 27097.44 C 8435.360 27038.71 8241.060 26949.04 8054.235 26849.74 z M 5575.779 1587.156 L 4958.724 4026.566 C 4886.126 4330.822 4955.518 4612.663 5164.763 4874.221 L 6611.330 6578.071 C 6763.992 6753.152 6950.817 6785.181 7203.833 6697.640 L 9210.868 6031.472 C 9532.198 5928.986 9762.788 5694.116 9900.518 5327.940 L 10627.54 2853.301 C 10694.80 2715.581 10781.28 2635.515 10975.57 2703.841 L 12005.77 2940.841 C 12188.33 2982.479 12315.38 3097.774 12371.96 3246.168 C 12588.68 3816.251 12691.16 4439.717 12691.16 5084.531 C 12691.16 7402.237 11234.99 9384.727 9207.668 10127.76 C 8818.001 12262.91 8430.476 14634 8061.097 14654.29 C 6459.734 14738.63 5607.180 10566.42 5055.242 9709.157 C 3975.316 9135.804 4242.467 9146.981 3888.029 8796.814 C 2889.847 7810.374 2183.027 6609.031 2183.027 5084.531 C 2183.027 3523.738 2842.790 2115.604 3894.349 1134.505 C 4049.147 990.3823 4178.324 950.8793 4397.177 1011.733 L 5332.374 1242.331 C 5447.671 1261.546 5602.469 1483.601 5575.779 1587.156 z M 3795.391 9530.085 L 4942.069 9614.263 L 9253.888 8991.338 L 9253.888 19916.91 C 9303.008 19990.57 8993.412 19103.42 7175.335 19913.71 C 6963.954 20007.67 5630.552 20443.24 4855.493 19562.48 C 4749.803 19442.9 4868.564 18318.84 4668.925 18332.72 C 4409.506 18350.87 3849.577 18346.19 3850.990 17794.4 L 3795.391 9530.085 z "
   id="path878"
   sodipodi:nodetypes="cccccccccccccccccccccccccccccccccccccccccccccccccccccc" />




  <path
   style="font-size:12.000;fill:url(#linearGradient815);fill-opacity:1.0000;"
   d="M 17362.21 9988.438 L 17423.78 27178.92 C 17430.92 29173.24 18320.65 29061.13 19871.91 29237.28 C 21375.28 29365.78 24558.79 28739.02 24566.63 27226.53 L 24661.88 8839.813 L 28891.40 8080.299 C 29384.83 7991.692 29947.10 7451.645 29955.77 6950.396 L 30035.00 2367.350 C 30042.27 1946.623 29651.41 1241.993 29233.99 1188.780 L 25400.05 700.0153 C 24978.16 646.2315 24547.46 598.5223 24125.17 648.9795 L 15376.55 1694.305 C 14971.15 1742.743 14965.60 1806.790 14708.62 2124.067 L 10928.71 6790.926 C 10778.80 6976.016 10607.96 7265.636 10611.45 7503.792 L 10626.86 8556.367 C 10630.61 8812.094 10797.73 9104.523 11040.06 9186.292 L 14335.37 10298.32 C 14744.28 10436.31 15204.26 10349.23 15629.92 10278.06 L 17362.21 9988.438 z "
   id="path814"
   sodipodi:nodetypes="cssscssssssssssssssc" />


  <path
   style="font-size:12.000;fill:url(#id9);"
   d="M 15321.28 10028.60 C 14946.13 10092.73 14806.12 10082.04 14568.84 10004.02 L 11357.10 8945.910 C 11056.76 8845.443 10917.82 8746.044 10899.65 8462.811 L 10906.06 7667.623 L 11114.48 7271.097 L 12593.70 7181.318 L 15057.29 7996.814 L 15321.28 10028.60 z "
   id="path743" />


  <path
   style="font-size:12.000;fill:url(#id13);"
   d="M 17691.88 7182.387 L 24250.05 7182.387 L 24250.05 26875.06 C 24272.50 27025.76 24266.08 27657.42 23772.30 27983.41 C 22686.40 28700.57 20214.26 29502.17 18205.98 28581.94 C 17617.07 28312.60 17725.02 26965.91 17691.88 26434.71 L 17691.88 7182.387 z "
   id="path745" />


  <path
   style="font-size:12.000;fill:url(#radialGradient1105);"
   d="M 17691.88 11429.88 C 19521.55 8870.016 19832.65 10869.75 23270.98 9456.802 C 23899.44 9198.152 24129.28 11683.18 24215.85 12338.36 L 24250.05 7054.217 C 24272.50 6983.676 24266.08 6684.411 23772.30 6529.436 C 22686.40 6190.624 20214.26 5811.201 18205.98 6246.203 C 17617.07 6374.458 17725.02 7011.464 17691.88 7262.632 L 17691.88 11429.88 z "
   id="path747"
   sodipodi:nodetypes="cccccccc" />


  <path
   style="font-size:12.000;fill:url(#radialGradient956);"
   d="M 19572.98 2750.065 L 24175.24 1436.508 L 29349.31 1528.425 C 29555.58 1741.116 29700.94 2000.835 29709.49 2356.746 L 29709.49 5901.962 C 29684.91 7537.229 29528.86 7668.692 28065.67 7917.722 L 15305.25 10030.74 C 15204.78 9834.078 15034.84 10168.62 14873.45 9703.692 L 14869.18 8699.017 L 16050.20 5149.526 L 19572.98 2750.065 z "
   id="path749" />


  <path
   style="font-size:12.000;fill:url(#radialGradient811);shape-rendering:geometricPrecision;text-rendering:geometricPrecision;image-rendering:optimizeQuality;fill-rule:evenodd;"
   d="M 19572.98 2750.064 L 24175.24 1436.507 L 29349.31 1528.425 C 27738.93 3461.295 32278.76 8319.101 21871.62 4782.266 C 18973.61 3787.661 16340.42 6381.157 15305.25 10030.74 C 15204.78 9834.078 15034.84 10168.62 14873.45 9703.692 L 14869.18 8699.018 L 16050.20 5149.527 L 19572.98 2750.064 z "
   id="path810"
   sodipodi:nodetypes="cccsccccc" />


  <path
   style="font-size:12.000;fill:url(#radialGradient809);"
   d="M 17691.88 16674.41 C 18331.03 24989.69 19791.01 28088.15 20030.42 27179.67 C 21648.59 21043.68 23462.35 22180.88 24250.05 13061.86 L 24250.05 26875.06 C 24272.50 27025.76 24266.08 27657.42 23772.30 27983.41 C 22686.40 28700.57 20214.26 29502.17 18205.98 28581.94 C 17617.07 28312.60 17725.02 26965.91 17691.88 26434.71 L 17691.88 16674.41 z "
   id="path751" />


  <path
   style="font-size:12.000;fill:url(#radialGradient808);shape-rendering:geometricPrecision;text-rendering:geometricPrecision;image-rendering:optimizeQuality;fill-rule:evenodd;"
   d="M 19096.79 2566.141 L 24175.25 1538.297 L 29349.32 1630.216 C 27738.94 3563.079 27287.65 5394.473 22482.38 4884.055 C 19999.34 4631.124 18478.03 3836.394 15305.26 10132.53 C 15204.79 9935.868 15034.85 10270.41 14873.46 9805.478 L 14869.19 8800.807 L 16050.21 5251.316 L 19096.79 2566.141 z "
   id="path957"
   sodipodi:nodetypes="cccsccccc" />


  <path
   style="font-size:12.000;fill:url(#radialGradient947);fill-opacity:1.0000;"
   d="M 14861.70 8992.937 C 14797.57 8948.047 14886.28 8438.229 14479.07 8302.491 C 13100.31 7840.770 12890.83 8345.245 11327.17 7516.922 C 11071.73 7435.694 10993.70 7855.732 10906.06 7667.623 C 10909.27 7494.477 10941.33 7302.092 11165.78 7030.618 L 14728.93 2535.106 L 15053.39 2154.132 L 19757.88 2014.729 L 19504.57 2833.432 L 19342.93 2958.023 L 15146.00 8378.375 C 14939.72 8580.380 14865.97 8770.626 14861.70 8992.937 z "
   id="path755"
   sodipodi:nodetypes="cccccccccccc" />


  <path
   style="font-size:12.000;fill:url(#radialGradient955);fill-opacity:1.0000;shape-rendering:geometricPrecision;text-rendering:geometricPrecision;image-rendering:optimizeQuality;fill-rule:evenodd;"
   d="M 16911.71 4206.739 C 14333.05 4441.808 10941.33 7302.093 11165.78 7030.617 L 14919.41 2201.770 L 15624.82 1773.179 L 19757.88 2014.730 C 19757.88 2014.730 19162.35 3993.141 16911.71 4206.739 z "
   id="path948"
   sodipodi:nodetypes="cccccs" />


  <path
   style="font-size:12.000;fill:url(#id0);"
   d="M 14948.04 2254.010 C 15033.54 2152.474 15138.28 2075.519 15285.78 2050.938 L 23928.34 920.2762 C 24285.32 868.9742 24645.51 876.4562 25003.56 933.1012 L 29148.37 1453.609 C 29354.65 1480.328 29459.39 1547.663 29631.47 1973.046 C 29397.40 1663.093 29063.94 1588.278 28689.86 1633.166 L 19823.07 2791.749 C 19533.43 2890.077 19290.81 3067.499 19104.84 3338.976 C 18929.56 3260.952 19028.96 2887.940 18879.32 2815.262 C 17747.46 2271.241 16779.96 2503.039 15556.18 2211.259 C 15216.31 2131.098 14645.57 2641.984 14728.93 2535.106 L 14948.04 2254.010 z "
   id="path757"
   sodipodi:nodetypes="ccccccccccccc" />


  <ellipse
   style="font-size:12.000;fill:#3d64b3;"
   cx="22047"
   cy="2801"
   rx="2020"
   ry="473"
   id="ellipse759"
   transform="matrix(1.068802,0,0,1.068802,-2354.555,-1091.206)" />


  <path
   style="font-size:12.000;fill:#9999ff;"
   d="M 22190.47 1452.540 C 22888.40 1536.975 23368.29 1706.915 23368.29 1902.506 C 23368.29 2181.463 22397.82 2408.049 21209.31 2408.049 C 20763.62 2408.049 20347.86 2375.985 20003.70 2321.476 C 19967.36 2498.897 24008.50 1963.427 22190.47 1452.540 z "
   id="path761" />


  <ellipse
   style="font-size:12.000;fill:url(#id1);"
   cx="22035"
   cy="2804"
   rx="1784"
   ry="351"
   id="ellipse763"
   transform="matrix(1.068802,0,0,1.068802,-2354.555,-1091.206)" />


  <path
   style="font-size:12.000;fill:url(#id6);"
   d="M 22865.95 1725.084 C 23016.65 1778.525 23103.23 1840.515 23103.23 1905.712 C 23103.23 2111.991 22246.05 2279.793 21196.49 2279.793 C 20349.99 2279.793 19629.62 2170.775 19381.66 2020.074 C 19706.58 2135.504 20333.96 2214.596 21052.20 2214.596 C 22101.76 2214.596 22958.94 2046.794 22958.94 1840.515 C 22958.94 1799.901 22925.81 1761.424 22865.95 1725.084 z "
   id="path765" />


  <path
   style="font-size:12.000;fill:url(#id10);fill-opacity:0.440000;"
   d="M 24250.05 24604.92 L 24250.05 26875.06 C 24272.50 27025.76 24266.08 27657.42 23772.30 27983.41 C 22686.40 28700.57 20214.26 29502.17 18205.98 28581.94 C 17617.07 28312.60 17725.02 26965.91 17691.88 26434.71 C 17869.30 28370.31 19357.08 28803.18 21662.48 28219.61 C 23826.81 27670.25 21922.20 27175.39 24250.05 24604.92 z "
   id="path767" />


</svg>
