<?xml version="1.0" encoding="UTF-8" standalone="no"?>
<!DOCTYPE svg PUBLIC "-//W3C//DTD SVG 20010904//EN"
"http://www.w3.org/TR/2001/REC-SVG-20010904/DTD/svg10.dtd">
<!-- Created with Sodipodi ("http://www.sodipodi.com/") -->
<svg
   xml:space="preserve"
   width="30mm"
   height="30mm"
   style="shape-rendering:geometricPrecision; text-rendering:geometricPrecision; image-rendering:optimizeQuality; fill-rule:evenodd"
   viewBox="0 0 30000 30000"
   id="svg559"
   sodipodi:version="0.34-pre"
   sodipodi:docname="/home/david/.themes/eXperience 0.6/icons/printpreview.svg"
   sodipodi:docbase="/home/david/.themes/eXperience 0.6/icons/"
   xmlns="http://www.w3.org/2000/svg"
   xmlns:sodipodi="http://sodipodi.sourceforge.net/DTD/sodipodi-0.dtd"
   xmlns:xml="http://www.w3.org/XML/1998/namespace"
   xmlns:xlink="http://www.w3.org/1999/xlink"><sodipodi:namedview
   id="base" />





 <defs
   id="defs561"><linearGradient
   id="linearGradient844"
   gradientUnits="userSpaceOnUse"
   x1="17255"
   y1="9724"
   x2="18700"
   y2="15289">
   <stop
   offset="0"
   style="stop-color:#ffffff;stop-opacity:1.0000;"
   id="stop846" />





   <stop
   offset="1"
   style="stop-color:#ffffff;stop-opacity:0;"
   id="stop848" />





   
   
  </linearGradient>




<linearGradient
   id="linearGradient830"
   gradientUnits="userSpaceOnUse"
   x1="33586"
   y1="23115"
   x2="-1565"
   y2="23115">
   <stop
   offset="0"
   style="stop-color:#000000;stop-opacity:1.0000;"
   id="stop832" />





   <stop
   offset="1"
   style="stop-color:#000000;stop-opacity:0;"
   id="stop834" />





   
   
  </linearGradient>






  <linearGradient
   id="id0)"
   gradientUnits="userSpaceOnUse"
   x1="33586"
   y1="23115"
   x2="-1565"
   y2="23115">
   <stop
   offset="0"
   style="stop-color:#CCCCCC"
   id="stop565" />





   <stop
   offset="0.580392"
   style="stop-color:#999999"
   id="stop567" />





   <stop
   offset="0.631373"
   style="stop-color:#FFFFFF"
   id="stop569" />





   <stop
   offset="1"
   style="stop-color:#E5E5E5"
   id="stop571" />





  </linearGradient>





  <linearGradient
   id="id1"
   gradientUnits="userSpaceOnUse"
   x1="35112"
   y1="16524"
   x2="722"
   y2="16524">
   <stop
   offset="0"
   style="stop-color:#FFFFFF"
   id="stop576" />





   <stop
   offset="0.639216"
   style="stop-color:#999999"
   id="stop578" />





   <stop
   offset="0.690196"
   style="stop-color:#FFFFFF"
   id="stop580" />





   <stop
   offset="1"
   style="stop-color:#E5E5E5"
   id="stop582" />





  </linearGradient>





  <linearGradient
   id="id2"
   gradientUnits="userSpaceOnUse"
   x1="22402"
   y1="10357"
   x2="4774"
   y2="9621">
   <stop
   offset="0"
   style="stop-color:#CCCCCC"
   id="stop587" />





   <stop
   offset="1"
   style="stop-color:#FFFFFF"
   id="stop589" />





  </linearGradient>





  <linearGradient
   id="id3"
   gradientUnits="userSpaceOnUse"
   x1="25303"
   y1="18579"
   x2="1413"
   y2="6000">
   <stop
   offset="0"
   style="stop-color:#B2B2B2"
   id="stop594" />





   <stop
   offset="1"
   style="stop-color:#FFFFFF"
   id="stop596" />





  </linearGradient>





  <linearGradient
   id="id4"
   gradientUnits="userSpaceOnUse"
   x1="12191"
   y1="15197"
   x2="10628"
   y2="1227">
   <stop
   offset="0"
   style="stop-color:#6699FF"
   id="stop601" />





   <stop
   offset="0.341176"
   style="stop-color:#B2CCFF"
   id="stop603" />





   <stop
   offset="1"
   style="stop-color:#FFFFFF"
   id="stop605" />





  </linearGradient>





  <linearGradient
   id="id5"
   gradientUnits="userSpaceOnUse"
   x1="23981"
   y1="21203"
   x2="19826"
   y2="30456">
   <stop
   offset="0"
   style="stop-color:#7F7F7F"
   id="stop610" />





   <stop
   offset="0.509804"
   style="stop-color:#E5E5E5"
   id="stop612" />





   <stop
   offset="1"
   style="stop-color:#B2B2B2"
   id="stop614" />





  </linearGradient>





  <linearGradient
   id="id6"
   gradientUnits="userSpaceOnUse"
   x1="23184"
   y1="21399"
   x2="18328"
   y2="31921">
   <stop
   offset="0"
   style="stop-color:#4C4C4C"
   id="stop619" />





   <stop
   offset="0.411765"
   style="stop-color:#CCCCCC"
   id="stop621" />





   <stop
   offset="1"
   style="stop-color:#666666"
   id="stop623" />





  </linearGradient>





  <linearGradient
   id="id7"
   gradientUnits="userSpaceOnUse"
   x1="-862"
   y1="-1352"
   x2="14664"
   y2="13168">
   <stop
   offset="0"
   style="stop-color:#FFFFFF"
   id="stop628" />





   <stop
   offset="0.160784"
   style="stop-color:#8080B3"
   id="stop630" />





   <stop
   offset="1"
   style="stop-color:#000066"
   id="stop632" />





  </linearGradient>





  <linearGradient
   id="id8"
   gradientUnits="userSpaceOnUse"
   x1="10872"
   y1="17079"
   x2="25738"
   y2="15808">
   <stop
   offset="0"
   style="stop-color:#FFFFFF"
   id="stop637" />





   <stop
   offset="1"
   style="stop-color:#E5E5E5"
   id="stop639" />





  </linearGradient>





  <linearGradient
   id="id9"
   gradientUnits="userSpaceOnUse"
   x1="17255"
   y1="9724"
   x2="18700"
   y2="15289">
   <stop
   offset="0"
   style="stop-color:#CCCCCC"
   id="stop644" />





   <stop
   offset="0.341176"
   style="stop-color:#E5E5E5"
   id="stop646" />





   <stop
   offset="0.529412"
   style="stop-color:#E5E5E5"
   id="stop648" />





   <stop
   offset="1"
   style="stop-color:#E5E5E5"
   id="stop650" />





  </linearGradient>





  <linearGradient
   id="id10"
   gradientUnits="userSpaceOnUse"
   x1="4615"
   y1="11467"
   x2="5648"
   y2="11272">
   <stop
   offset="0"
   style="stop-color:#B2B2B2"
   id="stop655" />





   <stop
   offset="0.780392"
   style="stop-color:#D8D8D8"
   id="stop657" />





   <stop
   offset="1"
   style="stop-color:#FFFFFF"
   id="stop659" />





  </linearGradient>





  <linearGradient
   id="id11"
   gradientUnits="userSpaceOnUse"
   href="#id2"
   x1="12133"
   y1="11951"
   x2="10679"
   y2="8723">
  </linearGradient>





  <linearGradient
   id="id12"
   gradientUnits="userSpaceOnUse"
   x1="5746"
   y1="11996"
   x2="7257"
   y2="11723">
   <stop
   offset="0"
   style="stop-color:#E5E5E5"
   id="stop667" />





   <stop
   offset="1"
   style="stop-color:#FFFFFF"
   id="stop669" />





  </linearGradient>





  <radialGradient
   id="id13"
   gradientUnits="userSpaceOnUse"
   cx="26149"
   cy="16105"
   r="574"
   fx="26149"
   fy="16105">
   <stop
   offset="0"
   style="stop-color:#ffff97;stop-opacity:1.0000;"
   id="stop674" />





   <stop
   offset="1"
   style="stop-color:#ff0000;stop-opacity:1.0000;"
   id="stop676" />





   
  </radialGradient>





  <radialGradient
   id="id14"
   gradientUnits="userSpaceOnUse"
   cx="27203"
   cy="15798"
   r="573"
   fx="27203"
   fy="15798">
   <stop
   offset="0"
   style="stop-color:#ffff00;stop-opacity:1.0000;"
   id="stop683" />





   <stop
   offset="1"
   style="stop-color:#008d00;stop-opacity:1.0000;"
   id="stop685" />





   
  </radialGradient>





 <linearGradient
   xlink:href="#id0)"
   id="linearGradient826"
   x1="18748.1484"
   y1="34573.1484"
   x2="787.349609"
   y2="34741.5742"
   gradientUnits="userSpaceOnUse"
   gradientTransform="scale(1.490608,0.670867)" />




<linearGradient
   xlink:href="#id1"
   id="linearGradient827"
   x1="27706.8066"
   y1="16590.1211"
   x2="3331.06372"
   y2="17608.5820"
   gradientUnits="userSpaceOnUse" />




<radialGradient
   xlink:href="#linearGradient830"
   id="radialGradient829"
   cx="21058.0352"
   cy="17040.1797"
   r="14452.4053"
   fx="21058.0352"
   fy="17040.1797"
   gradientTransform="translate(8.445256e-5,-1.168901e-4)" />






<radialGradient
   xlink:href="#linearGradient844"
   id="radialGradient843"
   cx="9470.00781"
   cy="9715.95508"
   r="13118.9795"
   fx="9470.00781"
   fy="9715.95508"
   gradientUnits="userSpaceOnUse" />



   
   <linearGradient
   x1="10100"
   y1="14100"
   x2="15000"
   y2="19500"
   id="linearGradient660"
   gradientUnits="userSpaceOnUse">
      <stop
   style="stop-color:#f5ffff;stop-opacity:0.4902;"
   offset="0"
   id="stop662" />












      <stop
   style="stop-color:#ffffff;stop-opacity:0;"
   offset="1.20000005"
   id="stop664" />












    </linearGradient>









<linearGradient
   x1="10100"
   y1="14100"
   x2="15000"
   y2="19500"
   id="linearGradient644"
   gradientUnits="userSpaceOnUse">
      <stop
   style="stop-color:#f5ffff;stop-opacity:1.0000;"
   offset="0"
   id="stop1060" />












      <stop
   style="stop-color:#ffffff;stop-opacity:0;"
   offset="1.20000005"
   id="stop652" />












    </linearGradient>












<linearGradient
   x1="10100"
   y1="14100"
   x2="15000"
   y2="19500"
   id="linearGradient629"
   gradientUnits="userSpaceOnUse">

      <stop
   style="stop-color:#ffffff;stop-opacity:0.6980;"
   offset="0"
   id="stop633" />













      <stop
   style="stop-color:#5db7ff;stop-opacity:0.6980;"
   offset="1.20000005"
   id="stop1069" />













    </linearGradient>












    <linearGradient
   x1="10100"
   y1="14100"
   x2="15000"
   y2="19500"
   id="id0"
   gradientUnits="userSpaceOnUse">

      <stop
   style="stop-color:#f5fffa;stop-opacity:1.0000;"
   offset="0"
   id="stop1074" />













      <stop
   style="stop-color:#6f6d7f;stop-opacity:1.0000;"
   offset="1.20000005"
   id="stop1076" />













    </linearGradient>











    <linearGradient
   x1="20158"
   y1="20912"
   x2="10575"
   y2="9295"
   id="linearGradient1079"
   gradientUnits="userSpaceOnUse">
      
      <stop
   style="stop-color:#eda700;stop-opacity:1.0000;"
   offset="0"
   id="stop1081" />












<stop
   style="stop-color:#ffffff;stop-opacity:1.0000;"
   offset="0.38823500"
   id="stop1083" />












<stop
   style="stop-color:#ffcb50;stop-opacity:1.0000;"
   offset="0.7"
   id="stop584" />












<stop
   style="stop-color:#ed8700;stop-opacity:1.0000;"
   offset="1"
   id="stop618" />











      
    </linearGradient>











    <radialGradient
   cx="2458.00000"
   cy="21915"
   r="8500"
   fx="2458.00000"
   fy="21915"
   id="radialGradient1090"
   gradientUnits="userSpaceOnUse">
      <stop
   style="stop-color:#a66500;stop-opacity:1.0000;"
   offset="0"
   id="stop598" />











      <stop
   style="stop-color:#da8f00;stop-opacity:1.0000;"
   offset="1"
   id="stop600" />











    </radialGradient>











    <linearGradient
   x1="-1308.28711"
   y1="-85.1431808"
   x2="12508.2441"
   y2="18950.7070"
   id="linearGradient793"
   xlink:href="#id0"
   gradientUnits="userSpaceOnUse" />











    <radialGradient
   id="radialGradient794"
   xlink:href="#id0"
   cx="26631.0430"
   cy="29167.0723"
   r="4284.19678"
   fx="26631.0430"
   fy="29167.0723"
   gradientUnits="userSpaceOnUse"
   gradientTransform="translate(-1.189672e-4,-1.256180e-4)" />











    <linearGradient
   x1="850.317810"
   y1="27356.0742"
   x2="6753.38477"
   y2="20482.1445"
   id="linearGradient627"
   xlink:href="#radialGradient1090"
   gradientUnits="userSpaceOnUse"
   gradientTransform="scale(0.690467,1.448296)" />











    <linearGradient
   id="linearGradient630"
   xlink:href="#linearGradient1079"
   x1="-3478.94312"
   y1="21261"
   x2="3741.10645"
   y2="21260.9531"
   gradientUnits="userSpaceOnUse"
   gradientTransform="scale(0.653497,1.530228)" />











  <linearGradient
   xlink:href="#id0"
   id="linearGradient621"
   x1="389.401825"
   y1="405.028870"
   x2="24589.6562"
   y2="29618.1992"
   gradientUnits="userSpaceOnUse" />












<radialGradient
   xlink:href="#linearGradient629"
   id="radialGradient628"
   cx="18969.1191"
   cy="17830.8145"
   r="23165.9414"
   fx="18969.1191"
   fy="17830.8145"
   gradientUnits="userSpaceOnUse" />











<radialGradient
   xlink:href="#linearGradient629"
   id="radialGradient647"
   cx="18631.6211"
   cy="17526.4570"
   r="40170.2656"
   fx="18631.6211"
   fy="17526.4570"
   gradientUnits="userSpaceOnUse" />











<radialGradient
   xlink:href="#linearGradient644"
   id="radialGradient656"
   cx="18401.3555"
   cy="17398.3379"
   r="11887.5078"
   fx="18401.3555"
   fy="17398.3379"
   gradientUnits="userSpaceOnUse"
   gradientTransform="translate(-7.321453e-5,-4.329544e-5)" />












<radialGradient
   xlink:href="#linearGradient629"
   id="radialGradient662"
   cx="18299.9414"
   cy="17753.1152"
   r="28430.2363"
   fx="18299.9414"
   fy="17753.1152"
   gradientUnits="userSpaceOnUse" />












<radialGradient
   xlink:href="#linearGradient629"
   id="radialGradient669"
   cx="13189.8584"
   cy="11245.8857"
   r="16247.8887"
   fx="13189.8584"
   fy="11245.8857"
   gradientUnits="userSpaceOnUse"
   gradientTransform="translate(-9.447522e-5,4.096486e-5)" />












<radialGradient
   xlink:href="#linearGradient660"
   id="radialGradient670"
   cx="11715.2910"
   cy="10444.3965"
   r="15131.6611"
   fx="11715.2910"
   fy="10444.3965"
   gradientUnits="userSpaceOnUse" />












<linearGradient
   xlink:href="#linearGradient644"
   id="linearGradient778"
   x1="-1083.75916"
   y1="39560.3008"
   x2="2312.52173"
   y2="39368.1211"
   gradientUnits="userSpaceOnUse"
   gradientTransform="scale(1.697750,0.589015)" />












<radialGradient
   xlink:href="#id13"
   id="radialGradient671"
   cx="26122.8379"
   cy="16497.3125"
   r="967.012268"
   fx="26122.8379"
   fy="16497.3125"
   gradientTransform="translate(3.427693e-6,4.561538e-6)" />









<radialGradient
   xlink:href="#id0"
   id="radialGradient672"
   cx="25537.7500"
   cy="27369.5566"
   r="3682.17627"
   fx="25537.7500"
   fy="27369.5566"
   gradientUnits="userSpaceOnUse"
   gradientTransform="translate(-1.203100e-5,1.325225e-4)" />









<radialGradient
   xlink:href="#id0"
   id="radialGradient673"
   cx="-5.84448092e-2"
   cy="-0.11318462"
   r="0.96579206"
   fx="-5.84448092e-2"
   fy="-0.11318462" />









<radialGradient
   xlink:href="#id0"
   id="radialGradient676"
   cx="-0.35181338"
   cy="-2.22908497"
   r="4.19828272"
   fx="-0.35181338"
   fy="-2.22908497" />









<radialGradient
   xlink:href="#id0"
   id="radialGradient678"
   cx="17070.1621"
   cy="18596"
   r="3734.60205"
   fx="17070.1621"
   fy="18596"
   gradientUnits="userSpaceOnUse"
   gradientTransform="scale(1.012395,0.987757)" />




<linearGradient
   xlink:href="#id8"
   id="linearGradient840"
   x1="0.45000002"
   y1="-8.88894722e-2"
   x2="0.32272729"
   y2="0.67777765" />


<radialGradient
   xlink:href="#id14"
   id="radialGradient1925"
   cx="27204.2793"
   cy="16277.4521"
   r="881.902588"
   fx="27204.2793"
   fy="16277.4521"
   gradientUnits="userSpaceOnUse"
   gradientTransform="translate(3.427693e-6,4.561538e-6)" />
</defs>





 
  
   <path
   sodipodi:type="arc"
   style="fill-rule:evenodd;stroke:none;fill:url(#radialGradient829);fill-opacity:1;stroke-opacity:1;stroke-width:1pt;stroke-linejoin:miter;stroke-linecap:butt;"
   id="path841"
   d="M 35714.28 18571.43 A 14000 14000 0 1 0 7714.285 18571.43 A 14000 14000 0 1 0  35714.28 18571.43 z"
   sodipodi:cx="21714.2832"
   sodipodi:cy="18571.4277"
   sodipodi:rx="13999.9980"
   sodipodi:ry="13999.9990"
   transform="matrix(1.102041,0,0,0.340137,-7834.792,18064.12)" />




<path
   style="font-size:12.000;fill:#666666;"
   d="M 4099.712 9457.783 L 6734.9 9068.384 L 5425.981 9525.253 L 6019.717 12029.35 L 4591.280 11963.81 L 4099.712 9457.783 z "
   id="path695" />





   <g
   id="g697"
   transform="matrix(0.963858,0,0,0.963858,304.0396,285.7130)"
   style="font-size:12.000;">
    <path
   style="fill:url(#id7)"
   d="M2045 1115l12372 -1115c3450,3384 6686,13426 1775,15808l-14380 1064 2343 -1234 254 -163 233 -178 211 -195 190 -209 169 -225 150 -243 130 -261 112 -278 93 -298 73 -319 54 -340 34 -360 13 -383 -7 -404 -28 -426 -50 -446 -72 -468 -94 -489 -116 -511 -138 -530 -160 -551 -183 -572 -205 -593 -228 -611 -250 -633 -272 -652 -296 -672 -317 -692 -341 -711 -362 -732 -707 -1378z"
   id="path699" />





    <path
   style="fill:url(#id4)"
   d="M2721 1516l11569 -1042c2480,2090 7036,13373 1291,15833l-11537 -99c3375,-1620 2934,-6518 -1323,-14692z"
   id="path701" />





   </g>





   <path
   style="font-size:12.000;fill:#666666;"
   d="M 4368.629 9502.120 L 19307.47 7073.199 L 19904.09 8858.263 C 24206.75 7935.851 28356.16 11457.78 28349.42 14589.36 L 28332.07 21808.65 L 26140.25 22758.05 L 28731.10 23798.06 L 18901.68 28281.92 L 16224.08 27222.64 L 12072.75 29084.82 C 11791.30 29236.14 11356.60 29254.46 11076.12 29054.94 L 792.7155 23238.06 L 794.6432 14025.50 C 873.6796 12226.94 3745.976 11745.98 4865.015 11631.28 L 4368.629 9502.120 z "
   id="path704" />

<path
   style="font-size:12.000;fill:url(#id2);"
   d="M 4649.111 9681.398 L 19204.33 7247.657 L 20158.55 10396.58 L 5364.294 12609.60 L 4649.111 9681.398 z "
   id="path708" />





   



   



   <path
   style="font-size:12.000;fill:url(#id11);"
   d="M 5520.439 11307.42 C 8434.181 11709.35 9549.364 11186.94 12992.27 9395.132 C 15026.01 8337.780 18800.48 9111.758 19963.85 9607.181 L 5802.849 12583.57 L 5520.439 11307.42 z "
   id="path710" />





   <path
   style="font-size:12.000;fill:url(#id10);"
   d="M 4340.677 9654.410 L 5387.426 9570.554 L 5980.199 11781.64 L 4873.690 11979.23 L 4340.677 9654.410 z "
   id="path712" />





   <path
   style="font-size:12.000;fill:url(#id12);"
   d="M 6291.291 12186.18 C 6330.809 12099.44 7877.359 11603.06 7744.347 11602.09 L 5648.639 11841.14 C 5750.809 11834.39 5377.788 11689.11 4849.594 11886.70 C 4844.774 11887.67 4562.364 11912.73 4358.990 11934.89 C 3900.194 11984.05 3422.120 12083.33 2905.492 12241.40 L 6291.291 12186.18 z "
   id="path714"
   sodipodi:nodetypes="ccccccc" />





   <path
   style="font-size:12.000;fill:url(#linearGradient840);"
   d="M 5247.667 12151.76 L 20152.77 8988.384 C 23334.46 8331.997 27056.88 10517.06 27954.23 13408.63 L 11821.18 18128.64 C 10623.11 15356.59 8910.327 12866.95 5247.667 12151.76 z "
   id="path716" />





   <path
   style="font-size:12.000;fill:url(#linearGradient826);"
   d="M 1059.704 16876.59 L 11346.96 22106.49 C 11613.95 22219.26 11899.25 22226.97 12202.87 22127.69 L 28173.99 16640.45 L 28152.79 21668.89 L 12218.29 28695.42 C 11783.59 28905.54 11497.33 28889.15 11132.99 28665.54 L 1059.704 23058.78 L 1059.704 16876.59 z "
   id="path706" />

<path
   style="font-size:12.000;fill:#e5e5e5;"
   d="M 5490.559 12405.26 L 6893.936 12077.55 C 5949.355 11911.76 5176.341 11846.22 4358.990 11934.89 C 3900.194 11985.02 3422.120 12083.33 2905.492 12241.40 L 5490.559 12405.26 z "
   id="path718" />





   <path
   style="font-size:12.000;fill:url(#id8);"
   d="M 4469.834 12154.65 C 7159.961 12055.38 9773.943 13249.60 11788.41 17885.75 L 27911.82 13279.48 C 27997.61 13491.52 28068.93 13786.47 28109.41 14040.92 L 11859.74 20816.84 L 4773.449 18307.92 L 4469.834 12154.65 z "
   id="path720" />





   <path
   style="font-size:12.000;fill:url(#linearGradient827);"
   d="M 12585.52 18827.44 L 28088.21 13932.97 C 28141.22 14136.35 28148.93 14462.13 28162.43 14732.97 L 28162.43 16415.87 L 12247.21 21708.41 C 11934.92 21819.26 11597.57 21842.39 11286.24 21670.82 L 1052.957 16609.61 L 1055.849 13815.38 C 2044.767 11192.72 8173.939 10710.80 11299.73 18118.04 C 11588.89 18804.31 11935.88 19113.71 12585.52 18827.44 z "
   id="path722" />





   <path
   style="font-size:12.000;fill:url(#id5);"
   d="M 16195.17 26937.34 L 17700.71 24445.77 L 23000 21710.34 L 28147.97 23843.36 L 18771.56 27924.33 L 16195.17 26937.34 z "
   id="path724" />





   <path
   style="font-size:12.000;fill:url(#id6);"
   d="M 16034.20 23175.40 L 25858.81 19772.02 L 25892.54 22744.56 C 24387.96 23612.03 21967.71 23591.79 19676.62 24301.19 C 18048.67 24805.29 17169.63 26070.83 16188.42 26942.16 L 16034.20 23175.40 z "
   id="path726" />





   <path
   style="font-size:12.000;fill:#7f7f7f;"
   d="M 6577.791 12039.96 L 21117.59 9343.084 C 23778.80 9623.566 25106.03 10670.31 26225.07 12443.81 L 12156.60 16325.27 C 11185.04 13544.54 8884.303 12197.06 6577.791 12039.96 z "
   id="path728" />





   <path
   style="font-size:12.000;fill:url(#id9);"
   d="M 7479.962 12044.77 L 21213.01 9477.060 C 23780.73 9893.447 24947 10746.46 25902.18 12296.34 L 12378.29 15927.19 C 11377.81 13811.53 9970.570 12397.55 7479.962 12044.77 z "
   id="path730" />





   <ellipse
   style="font-size:12.000;fill:url(#radialGradient671);"
   cx="26203"
   cy="16300"
   rx="383"
   ry="574"
   id="ellipse732"
   transform="matrix(0.963858,0,0,0.963858,304.0396,285.7130)" />





   <ellipse
   style="font-size:12.000;fill:url(#radialGradient1925);"
   cx="27302"
   cy="15982"
   rx="382"
   ry="573"
   id="ellipse734"
   transform="matrix(0.963858,0,0,0.963858,304.0396,285.7130)" />





  
 
<path
   style="font-size:12.000;fill:url(#radialGradient843);shape-rendering:geometricPrecision;text-rendering:geometricPrecision;image-rendering:optimizeQuality;fill-rule:evenodd;"
   d="M 7479.962 12044.77 L 21213.01 9477.060 C 23780.73 9893.446 17685.04 11642.94 15330.75 12105.86 C 12822.79 12712.97 13362.44 14653.41 12378.29 15927.19 C 11377.81 13811.53 9970.570 12397.55 7479.962 12044.77 z "
   id="path842"
   sodipodi:nodetypes="ccscc" />





<g
   id="g1962"
   transform="matrix(0.689190,0,0,0.689190,8559.065,5878.605)">
  <g
   id="g701"
   style="fill:#000000;fill-opacity:1.0000;opacity:0.1847;"
   transform="translate(-146.2443,808.1268)">
  <path
   sodipodi:type="arc"
   style="fill-rule:evenodd;stroke:none;fill:#000000;fill-opacity:1.0000;stroke-opacity:1;stroke-width:1pt;stroke-linejoin:miter;stroke-linecap:butt;"
   id="path1179"
   d="M 29523.81 27523.81 A 2285.715 2285.715 0 1 0 24952.38 27523.81 A 2285.715 2285.715 0 1 0  29523.81 27523.81 z"
   sodipodi:cx="27238.0977"
   sodipodi:cy="27523.8086"
   sodipodi:rx="2285.71484"
   sodipodi:ry="2285.71484"
   transform="matrix(1.036611,0,0,1.036611,-8223.773,-8828.788)" />









  <path
   style="font-size:12.000;fill:#000000;fill-rule:evenodd;fill-opacity:1.0000;"
   d="M 19682.64 17385.35 C 19218.72 16813.27 19039.73 17202.01 18796.97 17009.07 C 18610.66 16842.07 18923.69 16578.55 18518.34 16140.13 L 16540.40 18107.42 C 16878.39 18440.92 17063.99 18199.10 17271.00 18482.54 C 17426.23 18708.14 17253.89 19001.78 17753.71 19324.95 L 19682.64 17385.35 z "
   id="path696"
   sodipodi:nodetypes="csccscc" />









  <rect
   style="font-size:12.000;fill:#000000;fill-rule:evenodd;stroke-width:1;fill-opacity:1.0000;"
   id="rect697"
   width="4666.67376"
   height="1619.05009"
   x="-2063.94987"
   y="23097.4248"
   transform="matrix(0.707107,-0.707107,0.707107,0.707107,0,0)" />









  <path
   d="M 19648.88 9700.274 C 19648.88 14758.31 15548.54 18858.65 10490.51 18858.65 C 5432.487 18858.65 1332.146 14758.31 1332.146 9700.274 C 1332.146 4642.248 5432.487 541.9021 10490.51 541.9021 C 15548.54 541.9021 19648.88 4642.248 19648.88 9700.274 z M 18741.67 9700.265 C 18741.67 14257.25 15047.50 17951.42 10490.52 17951.42 C 5933.544 17951.42 2239.376 14257.25 2239.376 9700.265 C 2239.376 5143.279 5933.544 1449.114 10490.52 1449.114 C 15047.50 1449.114 18741.67 5143.279 18741.67 9700.265 z "
   style="font-size:12.000;fill:#000000;fill-rule:evenodd;fill-opacity:1.0000;"
   id="path698" />









  <path
   sodipodi:type="arc"
   style="fill-rule:evenodd;stroke:none;fill:#000000;fill-opacity:1.0000;stroke-opacity:1;stroke-width:1pt;stroke-linejoin:miter;stroke-linecap:butt;"
   id="path1187"
   d="M 29523.81 27523.81 A 2285.715 2285.715 0 1 0 24952.38 27523.81 A 2285.715 2285.715 0 1 0  29523.81 27523.81 z"
   sodipodi:cx="27238.0977"
   sodipodi:cy="27523.8086"
   sodipodi:rx="2285.71484"
   sodipodi:ry="2285.71484"
   transform="matrix(0.958333,0,0,0.958333,944.4438,99.20413)" />









  <rect
   width="5522.18046"
   height="11583.1082"
   x="-2374.95194"
   y="26814.2040"
   transform="matrix(0.707107,-0.707107,0.707107,0.707107,0,0)"
   style="font-size:12.000;fill:#000000;fill-opacity:1.0000;"
   id="rect700" />









</g>

  <g
   id="g1932">
    <path
   style="font-size:12.000;opacity:0.2930;fill:url(#radialGradient647);fill-rule:evenodd;fill-opacity:1.0000;"
   d="M 17960.19 10936.80 C 17960.19 14429.91 15128.48 17261.62 11635.37 17261.62 C 8142.287 17261.62 5310.569 14429.91 5310.569 10936.80 C 5310.569 7443.705 8142.287 4611.990 11635.37 4611.990 C 15128.48 4611.990 17960.19 7443.705 17960.19 10936.80 z M 18918.81 9690.961 C 18918.81 14353.41 15139.15 18133.10 10476.68 18133.10 C 5814.222 18133.10 2034.553 14353.41 2034.553 9690.961 C 2034.553 5028.501 5814.222 1248.830 10476.68 1248.830 C 15139.15 1248.830 18918.81 5028.501 18918.81 9690.961 z "
   id="path667" />

    <path
   sodipodi:type="arc"
   style="fill-rule:evenodd;stroke:none;fill:url(#radialGradient628);fill-opacity:1.0000;stroke-opacity:1;stroke-width:1pt;stroke-linejoin:miter;stroke-linecap:butt;opacity:0.6879;"
   id="path643"
   d="M 19394.94 9325.536 A 9226.064 9226.063 0 1 0 942.8086 9325.536 A 9226.064 9226.063 0 1 0  19394.94 9325.536 z"
   sodipodi:cx="10168.8730"
   sodipodi:cy="9325.53613"
   sodipodi:rx="9226.06445"
   sodipodi:ry="9226.06348"
   transform="matrix(0.932146,0,0,0.932146,1250.944,872.5285)" />

    <path
   sodipodi:type="arc"
   style="fill-rule:evenodd;stroke:none;fill:#717386;fill-opacity:1.0000;stroke-opacity:1;stroke-width:1pt;stroke-linejoin:miter;stroke-linecap:butt;"
   id="path669"
   d="M 29523.81 27523.81 A 2285.715 2285.715 0 1 0 24952.38 27523.81 A 2285.715 2285.715 0 1 0  29523.81 27523.81 z"
   sodipodi:cx="27238.0977"
   sodipodi:cy="27523.8086"
   sodipodi:rx="2285.71484"
   sodipodi:ry="2285.71484"
   transform="matrix(1.036611,0,0,1.036611,-8223.773,-8828.788)" />

    <path
   sodipodi:type="arc"
   style="fill-rule:evenodd;stroke:none;fill:url(#radialGradient672);fill-opacity:1;stroke-opacity:1;stroke-width:1pt;stroke-linejoin:miter;stroke-linecap:butt;opacity:1.0000;"
   id="path666"
   d="M 29523.81 27523.81 A 2285.715 2285.715 0 1 0 24952.38 27523.81 A 2285.715 2285.715 0 1 0  29523.81 27523.81 z"
   sodipodi:cx="27238.0977"
   sodipodi:cy="27523.8086"
   sodipodi:rx="2285.71484"
   sodipodi:ry="2285.71484"
   transform="matrix(0.945994,0,0,0.945994,-5755.511,-6334.628)" />

    <path
   sodipodi:type="arc"
   style="fill-rule:evenodd;stroke:none;fill:url(#radialGradient656);fill-opacity:1.0000;stroke-opacity:1;stroke-width:1pt;stroke-linejoin:miter;stroke-linecap:butt;opacity:1.0000;"
   id="path622"
   d="M 19394.94 9325.536 A 9226.064 9226.063 0 1 0 942.8086 9325.536 A 9226.064 9226.063 0 1 0  19394.94 9325.536 z"
   sodipodi:cx="10168.8730"
   sodipodi:cy="9325.53613"
   sodipodi:rx="9226.06445"
   sodipodi:ry="9226.06348"
   transform="matrix(0.932146,0,0,0.932146,1155.706,872.5285)" />

    <path
   style="font-size:12.000;fill:url(#radialGradient673);fill-rule:evenodd;opacity:1.0000;"
   d="M 19682.64 17385.35 C 19218.72 16813.27 19039.73 17202.01 18796.97 17009.07 C 18610.66 16842.07 18923.69 16578.55 18518.34 16140.13 L 16540.40 18107.42 C 16878.39 18440.92 17063.99 18199.10 17271.00 18482.54 C 17426.23 18708.14 17253.89 19001.78 17753.71 19324.95 L 19682.64 17385.35 z "
   id="path675"
   sodipodi:nodetypes="csccscc" />

    <path
   style="font-size:12.000;fill:url(#radialGradient662);fill-rule:evenodd;stroke-width:1;opacity:1.0000;"
   d="M 18660.29 9885.040 C 18660.29 14225.80 15166.91 17744.68 10857.61 17744.68 C 6548.309 17744.68 3054.928 14225.80 3054.928 9885.040 C 3054.928 5544.289 6548.309 2025.414 10857.61 2025.414 C 15166.91 2025.414 18660.29 5544.289 18660.29 9885.040 z M 19299.35 9566.449 C 19299.35 14437.15 15350.88 18385.62 10480.18 18385.62 C 5609.490 18385.62 1661.012 14437.15 1661.012 9566.449 C 1661.012 4695.755 5609.490 747.2777 10480.18 747.2777 C 15350.88 747.2777 19299.35 4695.755 19299.35 9566.449 z "
   id="path661" />

    <rect
   style="font-size:12.000;fill:url(#radialGradient676);fill-rule:evenodd;stroke-width:1;fill-opacity:1.0000;opacity:0.9554;"
   id="rect982"
   width="4666.67532"
   height="1619.05057"
   x="-2063.95058"
   y="23097.4308"
   transform="matrix(0.707107,-0.707107,0.707107,0.707107,0,0)" />

    <path
   style="font-size:12.000;fill:url(#radialGradient678);fill-rule:evenodd;opacity:1.0000;"
   d="M 19563.59 17552.02 C 19099.67 16979.94 18920.68 17368.68 18677.92 17175.74 C 18491.61 17008.74 18780.83 16602.36 18256.44 16092.51 L 16421.35 17893.14 C 16830.77 18298.07 17230.66 18032.44 17437.67 18315.88 C 17592.90 18541.48 17420.56 18835.11 17920.38 19158.28 L 19563.59 17552.02 z "
   id="path677"
   sodipodi:nodetypes="csccscc" />

    <rect
   style="font-size:12.000;fill:url(#linearGradient778);fill-rule:evenodd;stroke-width:1;fill-opacity:1.0000;opacity:1.0000;"
   id="rect983"
   width="3866.72243"
   height="1341.51581"
   x="-1663.96864"
   y="22966.8624"
   transform="matrix(0.707107,-0.707107,0.707107,0.707107,0,0)" />

    <path
   sodipodi:type="arc"
   style="fill-rule:evenodd;stroke:none;fill:url(#radialGradient669);fill-opacity:1;stroke-opacity:1;stroke-width:1pt;stroke-linejoin:miter;stroke-linecap:butt;opacity:0.2102;"
   id="path668"
   d="M 13468.70 7843.986 A 3569.206 3569.206 0 1 0 6330.290 7843.986 A 3569.206 3569.206 0 1 0  13468.70 7843.986 z"
   sodipodi:cx="9899.49609"
   sodipodi:cy="7843.98633"
   sodipodi:rx="3569.20630"
   sodipodi:ry="3569.20630"
   transform="matrix(0.844207,0,0,0.844207,-547.4831,-885.8752)" />

    <path
   d="M 19648.88 9700.273 C 19648.88 14758.31 15548.54 18858.65 10490.51 18858.65 C 5432.487 18858.65 1332.146 14758.31 1332.146 9700.273 C 1332.146 4642.247 5432.487 541.9009 10490.51 541.9009 C 15548.54 541.9009 19648.88 4642.247 19648.88 9700.273 z M 18741.67 9700.264 C 18741.67 14257.25 15047.50 17951.42 10490.52 17951.42 C 5933.544 17951.42 2239.376 14257.25 2239.376 9700.264 C 2239.376 5143.278 5933.544 1449.113 10490.52 1449.113 C 15047.50 1449.113 18741.67 5143.278 18741.67 9700.264 z "
   style="font-size:12.000;fill:url(#linearGradient793);fill-rule:evenodd;opacity:1.0000;"
   id="path792" />

    <path
   sodipodi:type="arc"
   style="fill-rule:evenodd;stroke:none;fill:gray;fill-opacity:1;stroke-opacity:1;stroke-width:1pt;stroke-linejoin:miter;stroke-linecap:butt;"
   id="path619"
   d="M 29523.81 27523.81 A 2285.715 2285.715 0 1 0 24952.38 27523.81 A 2285.715 2285.715 0 1 0  29523.81 27523.81 z"
   sodipodi:cx="27238.0977"
   sodipodi:cy="27523.8086"
   sodipodi:rx="2285.71484"
   sodipodi:ry="2285.71484"
   transform="matrix(0.958333,0,0,0.958333,944.4438,99.20413)" />

    <path
   sodipodi:type="arc"
   style="fill-rule:evenodd;stroke:none;fill:url(#radialGradient794);fill-opacity:1;stroke-opacity:1;stroke-width:1pt;stroke-linejoin:miter;stroke-linecap:butt;"
   id="path620"
   d="M 29523.81 27523.81 A 2285.715 2285.715 0 1 0 24952.38 27523.81 A 2285.715 2285.715 0 1 0  29523.81 27523.81 z"
   sodipodi:cx="27238.0977"
   sodipodi:cy="27523.8086"
   sodipodi:rx="2285.71484"
   sodipodi:ry="2285.71484"
   transform="matrix(0.869945,0,0,0.869945,3268.291,2520.431)" />

    <rect
   width="5522.18046"
   height="11583.1082"
   x="-2374.95194"
   y="26814.2040"
   transform="matrix(0.707107,-0.707107,0.707107,0.707107,0,0)"
   style="font-size:12.000;fill:url(#linearGradient627);"
   id="rect624" />

    <rect
   width="4415.34554"
   height="10338.9593"
   x="-1821.44562"
   y="27436.3487"
   transform="matrix(0.707107,-0.707107,0.707107,0.707107,0,0)"
   style="font-size:12.000;fill:url(#linearGradient630);fill-opacity:1.0000;"
   id="rect629" />

    <path
   style="font-size:12.000;fill:url(#linearGradient621);fill-rule:evenodd;stroke-width:1;fill-opacity:1.0000;opacity:1.0000;"
   d="M 18920.70 9628.821 C 18920.70 14256.27 15169.40 18007.57 10541.95 18007.57 C 5914.498 18007.57 2163.203 14256.27 2163.203 9628.821 C 2163.203 5001.365 5914.498 1250.072 10541.95 1250.072 C 15169.40 1250.072 18920.70 5001.365 18920.70 9628.821 z M 18670.59 9628.824 C 18670.59 14118.15 15031.26 17757.47 10541.95 17757.47 C 6052.632 17757.47 2413.316 14118.15 2413.316 9628.824 C 2413.316 5139.500 6052.632 1500.185 10541.95 1500.185 C 15031.26 1500.185 18670.59 5139.500 18670.59 9628.824 z "
   id="path646" />

    <path
   style="font-size:12.000;fill:url(#radialGradient670);fill-rule:evenodd;stroke-width:1;opacity:0.5414;"
   d="M 11866.96 7065.498 C 11866.96 8940.342 10347.10 10460.21 8472.250 10460.21 C 6597.407 10460.21 5077.543 8940.342 5077.543 7065.498 C 5077.543 5190.655 6597.407 3670.791 8472.250 3670.791 C 10347.10 3670.791 11866.96 5190.655 11866.96 7065.498 z M 12462.53 6708.170 C 12462.53 9109.293 10516.04 11055.79 8114.912 11055.79 C 5713.798 11055.79 3767.300 9109.293 3767.300 6708.170 C 3767.300 4307.046 5713.798 2360.548 8114.912 2360.548 C 10516.04 2360.548 12462.53 4307.046 12462.53 6708.170 z "
   id="path659" />

    <path
   style="font-size:12.000;fill:#9a9ba9;fill-rule:evenodd;fill-opacity:1.0000;opacity:1.0000;"
   d="M 17757.54 19041.94 L 17908.30 19164.63 L 19579.57 17556.14 L 19488.33 17409.64 L 17757.54 19041.94 z "
   id="path680"
   sodipodi:nodetypes="ccccc" />

    <path
   style="font-size:12.000;fill:#8a92a0;fill-rule:evenodd;fill-opacity:1.0000;opacity:1.0000;"
   d="M 16449.27 17929.24 L 16588.17 18031.69 L 18399.00 16256.36 L 18290.89 16089.46 L 16449.27 17929.24 z "
   id="path681"
   sodipodi:nodetypes="ccccc" />

  </g>

</g>

<sodipodi:namedview
   id="namedview1194" />

</svg>
