<?xml version="1.0" encoding="UTF-8" standalone="no"?>
<!DOCTYPE svg PUBLIC "-//W3C//DTD SVG 20010904//EN"
"http://www.w3.org/TR/2001/REC-SVG-20010904/DTD/svg10.dtd">
<!-- Created with Sodipodi ("http://www.sodipodi.com/") -->
<svg
   xml:space="preserve"
   width="30mm"
   height="30mm"
   shape-rendering="geometricPrecision"
   text-rendering="geometricPrecision"
   image-rendering="optimizeQuality"
   fill-rule="evenodd"
   viewBox="0 0 30000 30000"
   id="svg810"
   sodipodi:version="0.34-pre"
   sodipodi:docname="/home/david/.themes/eXperience/icons/save.svg"
   sodipodi:docbase="/home/david/.themes/eXperience/icons/"
   xmlns="http://www.w3.org/2000/svg"
   xmlns:sodipodi="http://sodipodi.sourceforge.net/DTD/sodipodi-0.dtd"
   xmlns:xml="http://www.w3.org/XML/1998/namespace"
   xmlns:xlink="http://www.w3.org/1999/xlink"><defs
   id="defs883"><linearGradient
   id="linearGradient690">
  <stop
     offset="0"
     style="stop-color:#666767;stop-opacity:1.0000;"
     id="stop693" />
  <stop
     offset="1"
     style="stop-color:#ffffff;stop-opacity:1.0000;"
     id="stop692" />
</linearGradient>
<linearGradient
   id="linearGradient682">
  <stop
   offset="0"
   style="stop-color:#e8eded;stop-opacity:1.0000;"
   id="stop684" />
  <stop
   offset="1"
   style="stop-color:#000066;stop-opacity:1.0000;"
   id="stop686" />
</linearGradient>

<linearGradient
   id="linearGradient799">
  <stop
   offset="0"
   style="stop-color:#ffffff;stop-opacity:1.0000;"
   id="stop800" />
  <stop
   offset="1"
   style="stop-color:#ffffff;stop-opacity:0;"
   id="stop801" />
</linearGradient>
<linearGradient
   id="linearGradient793">
  <stop
   offset="0"
   style="stop-color:#4f45a5;stop-opacity:1.0000;"
   id="stop795" />
  <stop
   offset="1"
   style="stop-color:#5a44cd;stop-opacity:1.0000;"
   id="stop794" />
</linearGradient>
<linearGradient
   id="linearGradient790">
  <stop
   offset="0"
   style="stop-color:#ffffff;stop-opacity:1.0000;"
   id="stop792" />
  <stop
   offset="1"
   style="stop-color:#cccccc;stop-opacity:1.0000;"
   id="stop791" />
</linearGradient>
<linearGradient
   id="linearGradient787">
  <stop
   offset="0"
   style="stop-color:#d4d3ed;stop-opacity:1.0000;"
   id="stop788" />
  <stop
   offset="1"
   style="stop-color:#4d4dba;stop-opacity:1.0000;"
   id="stop789" />
</linearGradient>
<linearGradient
   id="linearGradient784">
  <stop
   offset="0"
   style="stop-color:#e8eded;stop-opacity:1.0000;"
   id="stop786" />
  <stop
   offset="1"
   style="stop-color:#3527b7;stop-opacity:1.0000;"
   id="stop785" />
</linearGradient>
<linearGradient
   id="linearGradient780">
  <stop
   offset="0"
   style="stop-color:#ffffff;stop-opacity:1.0000;"
   id="stop782" />
  <stop
   offset="1"
   style="stop-color:#2d2fc2;stop-opacity:1.0000;"
   id="stop781" />
</linearGradient>

  <linearGradient
   id="linearGradient885">
    <stop
   style="stop-color:#000000;stop-opacity:1.0000;"
   offset="0"
   id="stop886" />

    <stop
   style="stop-color:#000000;stop-opacity:0;"
   offset="1"
   id="stop887" />

  </linearGradient>

  <radialGradient
   xlink:href="#linearGradient885"
   id="radialGradient888"
   cx="0.46069688"
   cy="0.47281149"
   r="0.54061812"
   fx="0.46069688"
   fy="0.47281149" />

<defs
   id="defs816">
    <linearGradient
   id="id0"
   gradientUnits="userSpaceOnUse"
   x1="30337"
   y1="29295"
   x2="-12311"
   y2="-13705"
   spreadMethod="pad"
   xlink:href="#linearGradient780">
     

     

    </linearGradient>
    <linearGradient
   id="id1"
   gradientUnits="userSpaceOnUse"
   x1="23359"
   y1="27067"
   x2="8752"
   y2="17923"
   spreadMethod="pad"
   xlink:href="#linearGradient793">
     

     

    </linearGradient>
    <linearGradient
   id="id2"
   gradientUnits="userSpaceOnUse"
   x1="9497"
   y1="3972.00000"
   x2="23971"
   y2="14982"
   spreadMethod="pad"
   xlink:href="#linearGradient790">
     

     

    </linearGradient>
    <linearGradient
   id="id3"
   gradientUnits="userSpaceOnUse"
   x1="7669"
   y1="11778"
   x2="18258"
   y2="18585"
   spreadMethod="pad"
   xlink:href="#linearGradient784">
     

     

    </linearGradient>
    <linearGradient
   id="id4"
   gradientUnits="userSpaceOnUse"
   x1="4446"
   y1="15551"
   x2="25184"
   y2="32956.0000"
   spreadMethod="pad"
   xlink:href="#linearGradient690">
     

     

     

    </linearGradient>
   </defs>
<radialGradient
   xlink:href="#linearGradient787"
   id="radialGradient783"
   cx="0.61177057"
   cy="0.99066663"
   r="0.62514484"
   fx="0.61177057"
   fy="0.99066663"
   gradientTransform="scale(1.014579,0.985630)" />
<linearGradient
   xlink:href="#linearGradient793"
   id="linearGradient796"
   x1="0.45508760"
   y1="0.33380464"
   x2="3.71674252"
   y2="0.86599898" />
<linearGradient
   xlink:href="#linearGradient784"
   id="linearGradient802"
   x1="0.26365846"
   y1="0.44818544"
   x2="0.40562862"
   y2="0.54597205"
   gradientTransform="scale(1.014530,0.985678)" />
<linearGradient
   xlink:href="#linearGradient790"
   id="linearGradient675"
   x1="0.84778976"
   y1="0.74642611"
   x2="0.23434840"
   y2="0.13131571"
   gradientTransform="scale(0.884653,1.130386)" />

<radialGradient
   xlink:href="#linearGradient799"
   id="radialGradient676"
   cx="4.13553566e-2"
   cy="3.09456851e-8"
   r="0.70777553"
   fx="4.13553566e-2"
   fy="3.09456851e-8"
   gradientTransform="scale(0.884653,1.130386)" />

<radialGradient
   xlink:href="#linearGradient780"
   id="radialGradient679"
   cx="0.39969894"
   cy="-4.50306565e-8"
   r="29.4927082"
   fx="0.39969894"
   fy="-4.50306565e-8"
   gradientTransform="scale(3.971248e-2,3.857727e-2)" />

<linearGradient
   xlink:href="#linearGradient784"
   id="linearGradient688"
   x1="1.15584433"
   y1="0.91275090"
   x2="0.44155848"
   y2="0.34899309" />
<linearGradient
   xlink:href="#linearGradient793"
   id="linearGradient694"
   x1="0.39458290"
   y1="0.19786114"
   x2="1.83601189"
   y2="0.43305475"
   gradientTransform="scale(0.537585,1.860170)" />
<linearGradient
   xlink:href="#linearGradient690"
   id="linearGradient695"
   x1="0.89416653"
   y1="1.49614167"
   x2="6.58859015e-2"
   y2="0.61715651"
   spreadMethod="reflect"
   gradientTransform="scale(0.860278,1.162415)" />
</defs>

<rect
   style="font-size:12.000;fill:url(#radialGradient888);stroke-width:1;"
   id="rect677"
   width="26857.1532"
   height="27619.0556"
   x="3051.73051"
   y="2854.68689"
   transform="matrix(0.999855,-1.704226e-2,1.704226e-2,0.999855,0,0)" />

<sodipodi:namedview
   id="base" />
 
  
   

   <path
   fill="url(#id0)"
   d="M 2224 2613.999 L 3018 1849.999 L 27083.00 1849.999 L 27405.00 2231.999 L 27405.00 27772 L 3335 27772 L 2224 26661 L 2224 2613.999 z "
   id="path856"
   style="font-size:12.000;fill:url(#radialGradient679);" />
   <path
   fill="url(#id0)"
   d="M 14827.52 18421.42 C 22597.94 16852.23 19061.33 1850.000 27083.00 1850.000 L 27405.00 2232 L 27405.00 27772.00 L 3335 27772.00 L 2224 26661.00 C 2128.762 23883.42 7036.151 19861.15 14827.52 18421.42 z "
   id="path779"
   style="font-size:12.000;fill:url(#radialGradient783);"
   sodipodi:nodetypes="ccccccs" />
<rect
   fill="#000066"
   x="6298"
   y="1850"
   width="17775"
   height="13644"
   id="rect858"
   style="font-size:12.000;fill:#000066;" />
   <rect
   fill="url(#id1)"
   x="8805.71547"
   y="18432.9480"
   width="14981.5731"
   height="9709.04785"
   id="rect860"
   style="font-size:12.000;fill:url(#linearGradient688);" />
   <rect
   fill="url(#id2)"
   x="6668"
   y="1850"
   width="17034"
   height="13331"
   id="rect862"
   style="font-size:12.000;fill:url(#linearGradient675);" />
   <rect
   fill="#7F7F7F"
   x="8520"
   y="4812"
   width="13331"
   height="1111"
   id="rect864"
   style="font-size:12.000;fill:#7f7f7f;" />
   <rect
   fill="#7F7F7F"
   x="8520"
   y="7219"
   width="13331"
   height="1111"
   id="rect866"
   style="font-size:12.000;fill:#7f7f7f;" />
   <rect
   fill="#7F7F7F"
   x="8520"
   y="9626"
   width="13331"
   height="1111"
   id="rect868"
   style="font-size:12.000;fill:#7f7f7f;" />
<path
   style="font-size:12.000;fill:url(#radialGradient676);"
   d="M 6668.000 1850.000 L 6668.000 15181 C 8472.983 13149.25 9200.996 5286.645 11892.47 5276.237 C 17831.86 5158.029 19828.98 4261.920 23702.00 1850.000 L 6668.000 1850.000 z "
   id="path798"
   sodipodi:nodetypes="ccscc" />
   <path
   fill="url(#id3)"
   d="M2966 26662l739 739 23330 0 0 -25551 741 741 0 24810 -741 741 -23693 7 -1118 -1118 0 -24440 794 -741 -52 24812zm376 1487c-3,0 0,2 0,0z"
   id="path870"
   style="font-size:12.000;fill:url(#linearGradient802);" />
<rect
   fill="url(#id1)"
   x="9281.90625"
   y="18813.8992"
   width="14029.1924"
   height="8661.42969"
   id="rect689"
   style="font-size:12.000;fill:url(#linearGradient694);fill-opacity:1.0000;" />
   <rect
   fill="#191919"
   x="20817"
   y="19254.9998"
   width="294"
   height="8125.09563"
   id="rect872"
   style="font-size:12.000;fill:#191919;" />
   <path
   fill="url(#id4)"
   d="M 9337 18884.00 L 20817.00 18884.00 L 20817.00 27380.1 L 9337 27380.1 L 9337 18884.00 z M 10741 19564.02 L 14074 19564.02 L 14074 26360.53 L 10741 26360.53 L 10741 19564.02 z "
   id="path874"
   style="font-size:12.000;fill:url(#linearGradient695);" />
   <rect
   fill="#333385"
   x="10741"
   y="19625.0003"
   width="3333.00000"
   height="7120.28623"
   id="rect876"
   style="font-size:12.000;fill:url(#linearGradient796);fill-opacity:1.0000;" />
   <rect
   fill="#191919"
   x="10741"
   y="19994.9990"
   width="294"
   height="6655.04809"
   id="rect878"
   style="font-size:12.000;fill:#191919;" />
   <defs
   id="defs858"><linearGradient
   id="linearGradient805">
  <stop
   offset="0"
   style="stop-color:#ffffff;stop-opacity:1.0000;"
   id="stop807" />
  <stop
   offset="1"
   style="stop-color:#ffffff;stop-opacity:0;"
   id="stop806" />
</linearGradient>
<linearGradient
   id="linearGradient1531">
  <stop
   offset="0"
   style="stop-color:#ffffff;stop-opacity:0.2392;"
   id="stop1533" />
  <stop
   offset="1"
   style="stop-color:#ffffff;stop-opacity:0;"
   id="stop1532" />
</linearGradient>
<linearGradient
   id="linearGradient1526">
  <stop
   offset="0"
   style="stop-color:#178500;stop-opacity:1.0000;"
   id="stop1528" />
  <stop
   offset="1"
   style="stop-color:#004200;stop-opacity:1.0000;"
   id="stop1527" />
</linearGradient>
<linearGradient
   id="linearGradient1523">
  <stop
   offset="0"
   style="stop-color:#c7ff3d;stop-opacity:1.0000;"
   id="stop1525" />
  <stop
   offset="1"
   style="stop-color:#1fa300;stop-opacity:1.0000;"
   id="stop1524" />
</linearGradient>
    <linearGradient
   id="linearGradient959">
      <stop
   style="stop-color:#ffffff;stop-opacity:1.0000;"
   offset="0"
   id="stop960" />
      <stop
   style="stop-color:#ffffff;stop-opacity:0;"
   offset="1"
   id="stop961" />
    </linearGradient>
    <radialGradient
   id="radialGradient958"
   xlink:href="#linearGradient1523"
   cx="0.76621777"
   cy="0.80785316"
   r="0.40093452"
   fx="0.76621777"
   fy="0.80785316"
   gradientTransform="scale(1.003932,0.996083)" />
    <radialGradient
   id="radialGradient965"
   xlink:href="#linearGradient805"
   cx="0.25009933"
   cy="7.23549500e-2"
   r="0.66517198"
   fx="0.25009933"
   fy="7.23549500e-2"
   gradientTransform="scale(1.029053,0.971767)" />
    <linearGradient
   id="linearGradient993"
   xlink:href="#linearGradient805" />
  <linearGradient
   xlink:href="#linearGradient1526"
   id="linearGradient1529"
   x1="-0.49782795"
   y1="0.18228610"
   x2="0.35601708"
   y2="1.86853361"
   gradientTransform="scale(2.916736,0.342849)" />
<linearGradient
   xlink:href="#linearGradient1526"
   id="linearGradient1530"
   x1="-0.16923049"
   y1="-0.77601385"
   x2="0.68461430"
   y2="0.91023302"
   gradientTransform="scale(1.000002,0.999998)" />
<radialGradient
   xlink:href="#linearGradient1531"
   id="radialGradient808"
   cx="0.12051164"
   cy="0.68889922"
   r="0.73451036"
   fx="0.12051164"
   fy="0.68889922"
   gradientTransform="scale(1.037408,0.963941)" />
<radialGradient
   xlink:href="#linearGradient1531"
   id="radialGradient631"
   cx="0.95589459"
   cy="0.94531047"
   r="0.46742827"
   fx="0.95589459"
   fy="0.94531047" />
</defs>
  
  <path
   class="fil0"
   d="M 20485.40 29987.76 L 20485.40 15795.24 L 25351.30 15795.24 L 25351.30 29987.76 L 20485.40 29987.76 z "
   id="path629"
   style="font-size:12.000;fill:url(#linearGradient1529);" />
  <rect
   class="fil0"
   x="15821.7664"
   y="20458.2267"
   width="14192.5254"
   height="4865.90025"
   id="rect631"
   style="font-size:12.000;fill:url(#linearGradient1530);" />
  <path
   class="fil1"
   d="M 20912.31 29560.22 L 20912.31 24897.22 L 16188.94 24897.22 L 16188.94 20764.37 L 20912.31 20824.75 L 20791.54 16202.83 L 24924.38 16263.21 L 24924.38 20885.15 L 29587.39 20885.15 L 29587.39 24897.22 L 24924.38 24897.22 L 24924.38 29560.22 L 20912.31 29560.22 z "
   id="path633"
   style="font-size:12.000;fill:url(#radialGradient958);"
   sodipodi:nodetypes="ccccccccccccc" />
  <path
   class="fil2"
   d="M 20874.54 16253.25 L 23830.84 16253.25 C 23609.46 17222.49 22571.72 17510.35 22447.66 18491.13 C 22234.82 20234.67 23725.22 20649.53 23088.63 21807.78 C 22427.85 22946.82 21416.31 22747.97 19566.53 22373.18 C 17991.52 22002.18 17266.31 22038.26 16206.07 23514.95 L 16141.08 20820.37 L 20874.54 20881.66 L 20874.54 16253.25 z "
   id="path636"
   style="font-size:12.000;fill:url(#radialGradient631);"
   sodipodi:nodetypes="ccssscccc" />
  <g
   id="g640"
   style="font-size:12.000;fill:#007600;fill-opacity:1.0000;"
   transform="matrix(0.634076,0,0,0.634076,13700.42,13811.48)">
   <path
   class="fil3"
   d="M17688 24842l-4700 0 4318 -381 382 -4953 0 5334z"
   id="path642"
   style="fill:#007600;fill-opacity:1.0000;" />
   <path
   class="fil3"
   d="M25054 17539l-6858 0 6477 -381 381 -4953 0 5334z"
   id="path644"
   style="fill:#007600;fill-opacity:1.0000;" />
  </g>
  <path
   class="fil2"
   d="M 20874.54 16253.25 L 23830.84 16253.25 C 23609.46 17222.49 22571.72 17510.35 22447.66 18491.13 C 22234.82 20234.67 23725.22 20649.53 23088.63 21807.78 C 22427.85 22946.82 21416.31 22747.97 19566.53 22373.18 C 17991.52 22002.18 17266.31 22038.26 16206.07 23514.95 L 16141.08 20820.37 L 20874.54 20881.66 L 20874.54 16253.25 z "
   id="path681"
   style="font-size:12.000;fill:url(#radialGradient965);shape-rendering:geometricPrecision;text-rendering:geometricPrecision;image-rendering:optimizeQuality;fill-rule:evenodd;"
   sodipodi:nodetypes="ccssscccc" />
  <path
   class="fil2"
   d="M 20874.54 16253.25 L 23830.84 16253.25 C 23609.46 17222.49 22571.72 17510.35 22447.66 18491.13 C 22234.82 20234.67 23725.22 20649.53 23088.63 21807.78 C 22427.85 22946.82 21416.31 22747.97 19566.53 22373.18 C 17991.52 22002.18 17266.31 22038.26 16206.07 23514.95 L 16141.08 20820.37 L 20874.54 20881.66 L 20874.54 16253.25 z "
   id="path682"
   style="font-size:12.000;fill:url(#radialGradient808);shape-rendering:geometricPrecision;text-rendering:geometricPrecision;image-rendering:optimizeQuality;fill-rule:evenodd;"
   sodipodi:nodetypes="ccssscccc" />
</svg>
