<?xml version="1.0" encoding="UTF-8" standalone="no"?>
<!DOCTYPE svg PUBLIC "-//W3C//DTD SVG 20010904//EN"
"http://www.w3.org/TR/2001/REC-SVG-20010904/DTD/svg10.dtd">
<!-- Created with Sodipodi ("http://www.sodipodi.com/") -->
<svg
   xml:space="preserve"
   width="30mm"
   height="30mm"
   style="shape-rendering:geometricPrecision; text-rendering:geometricPrecision; image-rendering:optimizeQuality; fill-rule:evenodd"
   viewBox="0 0 30000 30000"
   id="svg559"
   sodipodi:version="0.34-pre"
   sodipodi:docname="/home/david/.themes/eXperience 0.6/icons/sort_za"
   sodipodi:docbase="/home/david/.themes/eXperience 0.6/icons/"
   xmlns="http://www.w3.org/2000/svg"
   xmlns:sodipodi="http://sodipodi.sourceforge.net/DTD/sodipodi-0.dtd"
   xmlns:xml="http://www.w3.org/XML/1998/namespace"
   xmlns:xlink="http://www.w3.org/1999/xlink">
  <sodipodi:namedview
     id="base" />
  <defs
     id="defs561">
    <linearGradient
       id="linearGradient720"
       gradientUnits="userSpaceOnUse"
       x1="26170"
       y1="29212"
       x2="11499"
       y2="16234">
   <stop
   offset="0"
   style="stop-color:#ffff3a;stop-opacity:0.7490;"
   id="stop722" />


   <stop
   offset="1"
   style="stop-color:#008f00;stop-opacity:0;"
   id="stop724" />


   
  </linearGradient>
    <linearGradient
       id="id4"
       gradientUnits="userSpaceOnUse"
       x1="26170"
       y1="29212"
       x2="11499"
       y2="16234">
   <stop
   offset="0"
   style="stop-color:#ffff3a;stop-opacity:1.0000;"
   id="stop589" />


   <stop
   offset="1"
   style="stop-color:#008f00;stop-opacity:1.0000;"
   id="stop591" />


   
  </linearGradient>
    <linearGradient
       id="id3"
       gradientUnits="userSpaceOnUse"
       x1="14981"
       y1="13332"
       x2="1815"
       y2="939">
   <stop
   offset="0"
   style="stop-color:#ffffff;stop-opacity:1.0000;"
   id="stop582" />


   <stop
   offset="1"
   style="stop-color:#ffffff;stop-opacity:0;"
   id="stop584" />


  </linearGradient>
    <linearGradient
       id="id2"
       gradientUnits="userSpaceOnUse"
       x1="14807"
       y1="28599"
       x2="2167"
       y2="16702">
   <stop
   offset="0"
   style="stop-color:#000057;stop-opacity:1.0000;"
   id="stop575" />


   <stop
   offset="1"
   style="stop-color:#0000a5;stop-opacity:1.0000;"
   id="stop577" />


  </linearGradient>
    <linearGradient
       id="id0"
       gradientUnits="userSpaceOnUse"
       x1="14360"
       y1="12757"
       x2="2425"
       y2="1525">
   <stop
   offset="0"
   style="stop-color:#002fa7;stop-opacity:1.0000;"
   id="stop565" />


   <stop
   offset="1"
   style="stop-color:#ffffff;stop-opacity:1.0000;"
   id="stop567" />


  </linearGradient>
    <linearGradient
       id="id1"
       href="#id0"
       xlink:href="#id0"
       x1="19344.8496"
       y1="11857.9521"
       x2="6170.62402"
       y2="-1878.91614"
       gradientUnits="userSpaceOnUse"
       gradientTransform="scale(0.928626,1.076860)">
  </linearGradient>
    <linearGradient
       xlink:href="#id2"
       id="linearGradient657"
       x1="15202.8887"
       y1="13426.3115"
       x2="4605.11133"
       y2="1518.70190"
       gradientUnits="userSpaceOnUse" />
    <linearGradient
       xlink:href="#id0"
       id="linearGradient658"
       x1="12.5331955"
       y1="12.3341913"
       x2="2.93115067"
       y2="0.93556565"
       gradientUnits="objectBoundingBox"
       gradientTransform="scale(7.852162e-2,7.676362e-2)" />
    <radialGradient
       xlink:href="#id4"
       id="radialGradient659"
       cx="26614.0859"
       cy="22711"
       r="19659.4082"
       fx="26614.0859"
       fy="22711"
       gradientUnits="userSpaceOnUse" />
    <linearGradient
       xlink:href="#id3"
       id="linearGradient895"
       x1="14529.5195"
       y1="1144.21936"
       x2="15837.4014"
       y2="7104.31689" />
    <linearGradient
       xlink:href="#id3"
       id="linearGradient717"
       x1="10389.4814"
       y1="15084.3477"
       x2="20526.7520"
       y2="13431.9219"
       gradientUnits="userSpaceOnUse" />
    <radialGradient
       xlink:href="#id3"
       id="radialGradient718"
       cx="10506.0020"
       cy="15084.3477"
       r="13516.4404"
       fx="10506.0020"
       fy="15084.3477"
       gradientUnits="userSpaceOnUse" />
    <radialGradient
       xlink:href="#linearGradient720"
       id="radialGradient726"
       cx="23765.3711"
       cy="9723"
       r="7272.40039"
       fx="23765.3711"
       fy="9723"
       gradientUnits="userSpaceOnUse" />
  </defs>
  <path
     style="font-size:12.000;fill:#004b00;"
     d="M 28630 8449.000 L 23307 8475.000 L 20233 30054.00 L 16661 8475 L 11838 8449 L 20233 53.00000 L 28630 8449.000 z "
     id="path601" />
  <path
     style="font-size:12.000;fill:url(#radialGradient659);"
     d="M 22608 7777.000 L 20233 25576.00 L 17360 7777.000 L 13510 7777.000 L 20159 1128.000 L 26804 7777.000 C 25411 7777.000 23999 7822.000 22608 7777.000 z "
     id="path603" />
  <path
     style="font-size:12.000;fill:url(#radialGradient726);shape-rendering:geometricPrecision;text-rendering:geometricPrecision;image-rendering:optimizeQuality;fill-rule:evenodd;"
     d="M 22608 7777.000 L 20233 25576.00 L 17360 7777.000 L 13510 7777.000 L 20159 1128.000 L 26804 7777.000 C 25411 7777.000 23999 7822.000 22608 7777.000 z "
     id="path719" />
  <path
     style="font-size:12.000;fill:#ffffff;fill-opacity:1.0000;"
     d="M 20124 1151.810 C 20124 1151.810 22440 3470.810 23074 4171.810 C 22208 3586.810 21024.15 1860.960 20088.53 2088.760 C 17944.69 2610.730 15977.32 5967.460 13778.86 7478.240 L 20124 1151.810 z "
     id="path605"
     sodipodi:nodetypes="ccscc" />
  <path
     style="font-size:12.000;fill:#006600;fill-opacity:0.6772;"
     d="M 21823.48 10741.00 L 20502.48 23896.00 L 22504.48 7790.000 L 21823.48 10741.00 z "
     id="path607" />
  <path
     style="font-size:12.000;fill:url(#id2);"
     d="M 14754 11747.14 L 14775 11622.14 L 14793 11500.14 L 14810 11379.14 L 14823 11262.14 L 14835 11146.14 L 14843 11034.14 L 14863 10719.14 L 14704 10465.14 L 14623 10366.14 L 14528 10276.14 L 14425 10200.14 L 14317 10139.14 L 14206 10092.14 L 14097 10059.14 L 14000 10038.14 L 13900 10021.14 L 13782 10012.14 L 13663 10015.14 L 13546 10030.14 L 13430 10057.14 L 13320 10093.14 L 13217 10139.14 L 12955 10281.14 L 12773 10658.14 L 12688 10827.14 L 12603 10987.14 L 12519 11138.14 L 12436 11278.14 L 12353 11409.14 L 12272 11531.14 L 12192 11642.14 L 12114 11744.14 L 12038 11836.14 L 11964 11918.14 L 11893 11990.14 L 11825 12053.14 L 11761 12106.14 L 11700 12150.14 L 11642 12188.14 L 11577 12224.14 L 11503 12260.14 L 11425 12294.14 L 11340 12326.14 L 11250 12357.14 L 11155 12385.14 L 11053 12411.14 L 10946 12434.14 L 10833 12455.14 L 10714 12473.14 L 10588 12488.14 L 10458 12500.14 L 10321 12509.14 L 10179 12515.14 L 10031 12518.14 L 9869 12517.14 L 8090.000 12517.14 L 7955.000 12517.14 L 7828.000 12516.14 L 7707.000 12515.14 L 7593.000 12513.14 L 7484.000 12510.14 L 7382.000 12507.14 L 7288.000 12504.14 L 7261.000 12503.14 L 7372.000 12318.14 L 7399.000 12276.14 L 7435.000 12222.14 L 7472.000 12164.14 L 7511.000 12104.14 L 7552.000 12041.14 L 7595.000 11975.14 L 7639.000 11907.14 L 7685.000 11836.14 L 7732.000 11762.14 L 7781.000 11686.14 L 7832.000 11607.14 L 7885.000 11526.14 L 7939.000 11441.14 L 7995.000 11354.14 L 8112.000 11171.14 L 8173.000 11076.14 L 8236 10978.14 L 8300 10877.14 L 8366 10774.14 L 8434 10668.14 L 8504 10559.14 L 8648 10333.14 L 8722 10216.14 L 8798 10097.14 L 8876 9975.140 L 8956 9849.140 L 9037 9721.140 L 9120 9591.140 L 9205 9457.140 L 9291 9323.140 L 11377 6087.140 L 11519 5870.140 L 11660 5656.140 L 11798 5448.140 L 11931 5247.140 L 12061 5051.140 L 12188 4861.140 L 12311 4677.140 L 12431 4499.140 L 12546 4328.140 L 12659 4162.140 L 12767 4002.140 L 12872 3849.140 L 12974 3701.140 L 13072 3559.140 L 13166 3424.140 L 13257 3294.140 L 13344 3171.140 L 13428 3054.140 L 13507 2943.140 L 13583 2837.140 L 13655 2739.140 L 13724 2647.140 L 13789 2561.140 L 13850 2481.140 L 13907 2407.140 L 13959 2341.140 L 14008 2280.140 L 14052 2227.140 L 14091 2182.140 L 14125 2143.140 L 14153 2113.140 L 14340 1923.140 L 14377 1613.140 L 14376 1481.140 L 14356 1346.140 L 14313 1208.140 L 14247 1077.140 L 14164 961.1396 L 14070 866.1396 L 13780 638.1396 L 13463 683.1396 L 13420 687.1396 L 13360 692.1396 L 13285 697.1396 L 13197 702.1396 L 13096 706.1396 L 12983 710.1396 L 12856 714.1396 L 12718 718.1396 L 12569 720.1396 L 12408 723.1396 L 12234 725.1396 L 12049 726.1396 L 11853 727.1396 L 11645 728.1396 L 11425 728.1396 L 6110.000 728.1396 L 5994.000 728.1396 L 5885.000 727.1396 L 5781.000 725.1396 L 5684.000 723.1396 L 5593.000 720.1396 L 5508.000 716.1396 L 5430.000 712.1396 L 5359.000 707.1396 L 5293.000 701.1396 L 5236.000 695.1396 L 5186.000 690.1396 L 5144.000 684.1396 L 5142.000 683.1396 L 5040.000 435.1396 L 4754.000 305.1396 L 4684.000 279.1396 L 4616.000 258.1396 L 4547.000 241.1396 L 4476.000 229.1396 L 4407.000 220.1396 L 4337.000 215.1396 L 4224.000 212.1396 L 4117.000 229.1396 L 4054 241.1396 L 3991 257.1396 L 3928 277.1396 L 3862 301.1396 L 3796 331.1396 L 3728 369.1396 L 3448 555.1396 L 3384 926.1396 L 3369 1017.140 L 3353 1109.140 L 3336 1201.140 L 3319 1295.140 L 3301 1389.140 L 3284 1485.140 L 3265 1580.140 L 3246 1678.140 L 3227 1776.140 L 3207 1876.140 L 3187 1976.140 L 3166 2077.140 L 3145 2180.140 L 3123 2283.140 L 3101 2386.140 L 3078 2491.140 L 3055 2598.140 L 3031 2705.140 L 3008 2813.140 L 2983 2922.140 L 2958 3032.140 L 2933 3143.140 L 2907 3255.140 L 2881 3367.140 L 2854 3481.140 L 2827 3596.140 L 2799 3712.140 L 2771 3828.140 L 2742 3946.140 L 2713 4065.140 L 2611 4479.140 L 2841 4801.140 L 2936 4900.140 L 3040 4982.140 L 3146 5046.140 L 3253 5095.140 L 3360 5133.140 L 3465 5161.140 L 3546 5176.140 L 3631 5193.140 L 3748 5205.140 L 3868 5207.140 L 3987 5197.140 L 4106.000 5176.140 L 4224.000 5142.140 L 4337.000 5096.140 L 4642.000 4937.140 L 4781.000 4558.140 L 4831.000 4431.140 L 4881.000 4310.140 L 4933.000 4194.140 L 4986.000 4084.140 L 5039.000 3980.140 L 5093.000 3882.140 L 5148.000 3789.140 L 5203.000 3703.140 L 5258.000 3622.140 L 5314.000 3547.140 L 5370.000 3477.140 L 5425.000 3414.140 L 5481.000 3355.140 L 5537.000 3302.140 L 5578.000 3265.140 L 5613.000 3241.140 L 5664.000 3210.140 L 5725.000 3178.140 L 5796.000 3146.140 L 5877.000 3115.140 L 5967.000 3086.140 L 6068.000 3057.140 L 6178.000 3031.140 L 6297.000 3008.140 L 6426.000 2987.140 L 6564.000 2969.140 L 6711.000 2954.140 L 6868.000 2942.140 L 7033.000 2933.140 L 7207.000 2928.140 L 7392.000 2926.140 L 9102 2926.140 L 9050 3014.140 L 8951 3181.140 L 8851 3347.140 L 8752 3511.140 L 8652 3675.140 L 8553 3837.140 L 8453 3999.140 L 8354 4159.140 L 8254 4318.140 L 8155.000 4476.140 L 8056.000 4633.140 L 7956.000 4788.140 L 7857.000 4943.140 L 7758.000 5096.140 L 3985 10847.14 L 3929 10928.14 L 3870 11015.14 L 3811 11104.14 L 3751 11193.14 L 3691 11283.14 L 3630 11374.14 L 3569 11466.14 L 3508 11558.14 L 3445 11652.14 L 3382 11747.14 L 3319 11843.14 L 3256 11940.14 L 3192 12037.14 L 3127 12136.14 L 3062 12236.14 L 2995 12338.14 L 2932 12436.14 L 2873 12526.14 L 2816 12613.14 L 2762 12695.14 L 2710 12774.14 L 2659 12848.14 L 2611 12919.14 L 2566 12984.14 L 2522 13047.14 L 2480 13105.14 L 2441 13159.14 L 2405 13208.14 L 2371 13253.14 L 2339 13293.14 L 2310 13329.14 L 2184 13483.14 L 2124 13734.14 L 2111 13896.14 L 2130 14070.14 L 2185 14240.14 L 2271 14393.14 L 2379 14520.14 L 2498 14619.14 L 2794 14803.14 L 3086 14757.14 L 3136 14751.14 L 3198 14744.14 L 3270 14737.14 L 3351 14731.14 L 3442 14725.14 L 3542 14720.14 L 3640 14716.14 L 9493 14716.14 L 9610 14716.14 L 9726 14716.14 L 9958 14717.14 L 10188 14718.14 L 10303 14719.14 L 10417 14721.14 L 10647 14723.14 L 10870 14726.14 L 10983 14728.14 L 11096 14730.14 L 11208 14732.14 L 11325 14735.14 L 11443 14735.14 L 11556 14735.14 L 11671 14736.14 L 11788 14737.14 L 11906 14739.14 L 12028 14740.14 L 12151 14742.14 L 12276 14744.14 L 12403 14747.14 L 12532 14750.14 L 12789 14756.14 L 12933 14760.14 L 13072 14764.14 L 13212 14768.14 L 13777 14786.14 L 13995 14351.14 L 14028 14283.14 L 14061 14211.14 L 14096 14135.14 L 14131 14054.14 L 14167 13968.14 L 14204 13878.14 L 14250 13764.14 L 14288 13645.14 L 14320 13542.14 L 14350 13435.14 L 14381 13327.14 L 14410 13216.14 L 14440 13103.14 L 14468 12988.14 L 14497 12870.14 L 14525 12753.14 L 14553 12635.14 L 14581 12516.14 L 14609 12395.14 L 14654 12203.14 L 14695 12028.14 L 14729 11885.14 L 14754 11747.14 z "
     id="path613" />
  <path
     style="font-size:12.000;fill:url(#id1);fill-opacity:1.0000;"
     d="M 9461 2267.140 C 9912 2267.140 10130 2305.140 10117 2379.140 C 10117 2465.140 10050 2619.140 9919 2840.140 C 9381 3757.140 8847 4631.140 8310 5456.140 L 4533.000 11213.14 C 4226.000 11664.14 3899 12160.14 3548 12697.14 C 3212 13221.14 2959 13583.14 2790 13784.14 C 2745 13928.14 2793 14037.14 2934 14114.14 C 3077 14088.14 3308 14069.14 3624 14056.14 C 3931 14056.14 4328.000 14056.14 4811.000 14056.14 L 9493 14056.14 C 10120 14056.14 10734 14063.14 11332 14075.14 C 11927 14075.14 12605 14088.14 13376 14114.14 C 13447 13976.14 13533 13784.14 13629 13541.14 C 13709 13298.14 13782 13023.14 13856 12716.14 C 13930 12409.14 14003 12089.14 14083 11750.14 C 14144 11434.14 14179 11146.14 14192 10890.14 C 14131 10778.14 14025 10711.14 13875 10685.14 C 13728 10653.14 13591 10679.14 13456 10759.14 C 12970 11795.14 12477 12460.14 11978 12755.14 C 11476 13049.14 10776 13189.14 9868 13177.14 L 8089.000 13177.14 C 7344.000 13177.14 6858.000 13151.14 6628.000 13103.14 C 6407.000 13058.14 6305.000 12998.14 6317.000 12924.14 C 6305.000 12850.14 6471.000 12531.14 6813.000 11968.14 C 7165.000 11430.14 7805.000 10433.14 8735 8968.140 L 10824 5728.140 C 12388 3345.140 13347 1979.140 13712 1621.140 C 13734 1496.140 13696 1400.140 13594 1330.140 C 13357 1368.140 12634 1387.140 11425 1387.140 L 6109.000 1387.140 C 5457.000 1387.140 5041.000 1355.140 4865.000 1295.140 C 4769.000 1256.140 4699.000 1212.140 4657.000 1164.140 C 4609.000 1100.140 4568.000 1023.140 4529.000 927.1396 C 4459.000 892.1396 4370.000 873.1396 4267.000 873.1396 C 4171.000 885.1396 4098.000 911.1396 4050 946.1396 C 3887 1918.140 3644 3051.140 3324 4343.140 C 3384 4442.140 3503 4503.140 3669 4528.140 C 3832 4567.140 3979 4547.140 4111.000 4471.140 C 4392.000 3678.140 4744.000 3102.140 5169.000 2747.140 C 5588.000 2427.140 6327.000 2267.140 7389.000 2267.140 L 9461 2267.140 z "
     id="path615" />
  <path
     style="font-size:12.000;fill:url(#linearGradient657);"
     d="M 9618 507.7145 L 9454 391.7145 L 9273 309.7145 L 9088 265.7145 L 8638 231.7145 L 8410 477.7145 L 8389 500.7145 L 8352 538.7145 L 8300 591.7145 L 8236 656.7145 L 8160.000 734.7145 L 7982.000 917.7145 L 7942.000 954.7145 L 7896.000 994.7145 L 7849.000 1033.714 L 7801.000 1070.714 L 7750.000 1107.714 L 7698.000 1143.714 L 7645.000 1177.714 L 7590.000 1211.714 L 7533.000 1243.714 L 7475.000 1274.714 L 7414.000 1304.715 L 7351.000 1334.715 L 7287.000 1362.715 L 7221.000 1388.715 L 7153.000 1414.715 L 6635.000 1593.715 L 6631.000 2134.715 L 6627.000 2201.715 L 6617.000 2281.715 L 6603.000 2373.715 L 6583.000 2476.715 L 6557.000 2590.715 L 6525.000 2714.715 L 6487.000 2847.715 L 6442.000 2990.715 L 6392.000 3143.715 L 6335.000 3304.715 L 6272.000 3474.715 L 6203.000 3652.715 L 6128.000 3839.715 L 6047.000 4035.715 L 5951.000 4260.715 L 4274.000 8955.715 L 4230.000 9079.715 L 4187.000 9201.715 L 4144.000 9321.715 L 4101.000 9439.715 L 4059 9555.715 L 4018 9670.715 L 3977 9782.715 L 3937 9892.715 L 3898 10002.71 L 3858 10109.71 L 3820 10214.71 L 3780 10321.72 L 3707 10518.72 L 3670 10617.72 L 3635 10713.72 L 3599 10807.72 L 3564 10899.72 L 3530 10990.72 L 3496 11079.72 L 3463 11166.72 L 3430 11251.72 L 3397 11334.72 L 3366 11415.72 L 3335 11494.72 L 3304 11573.72 L 3274 11648.72 L 3244 11721.72 L 3215 11794.72 L 3187 11864.72 L 3134 11991.72 L 3087 12099.72 L 3041 12190.72 L 2998 12267.72 L 2959 12330.72 L 2923 12379.72 L 2893 12413.72 L 2870 12435.72 L 2858 12445.72 L 2839 12457.72 L 2803 12477.72 L 2765 12494.72 L 2725 12510.72 L 2681 12524.72 L 2636 12535.72 L 2588 12544.72 L 2526 12553.72 L 1705 12647.72 L 1502 12992.72 L 1458 13085.72 L 1422 13183.72 L 1397 13282.72 L 1380 13380.72 L 1371 13478.72 L 1370 13576.72 L 1374 13643.72 L 1377 13717.72 L 1391 13826.72 L 1415 13936.72 L 1453 14046.72 L 1503 14155.72 L 1568 14259.72 L 1646 14356.72 L 1908 14607.72 L 2326 14594.72 L 2463 14589.72 L 2597 14585.72 L 2729 14580.72 L 2984 14572.72 L 3108 14569.72 L 3229 14565.72 L 3346 14561.72 L 3462 14558.72 L 3574 14555.72 L 3683 14552.72 L 3790 14549.72 L 3894 14546.72 L 3995 14543.72 L 4079 14541.72 L 4213.000 14544.72 L 4358.000 14546.72 L 4634.000 14551.72 L 4925.000 14558.72 L 5189.000 14565.72 L 5332.000 14569.72 L 5466.000 14573.72 L 5597.000 14576.72 L 5726.000 14580.72 L 5854.000 14585.72 L 5981.000 14589.72 L 6106.000 14594.72 L 6491.000 14608.72 L 6757.000 14376.72 L 6848.000 14267.72 L 6919.000 14151.72 L 6971.000 14033.72 L 7005.000 13917.72 L 7027.000 13806.72 L 7039.000 13697.72 L 7042.000 13593.72 L 7040.000 13501.72 L 7032.000 13411.72 L 7019.000 13319.72 L 6997.000 13222.72 L 6965.000 13123.72 L 6920.000 13021.72 L 6860.000 12920.72 L 6657.000 12658.72 L 5862.000 12522.72 L 5796.000 12506.72 L 5780.000 12502.72 L 5792.000 12459.72 L 5824.000 12347.72 L 6488.000 10201.71 L 6494.000 10201.71 L 8578 10201.71 L 8687 10202.71 L 8785 10203.71 L 8872 10206.71 L 8877 10206.71 L 9339 11735.72 L 9383 11872.72 L 9423 11994.72 L 9459 12110.72 L 9493 12217.72 L 9523 12318.72 L 9551 12412.72 L 9576 12499.72 L 9587 12539.72 L 8870 12653.72 L 8659 12913.72 L 8596 13011.72 L 8543 13115.72 L 8504 13223.72 L 8475 13333.72 L 8459 13443.72 L 8452 13551.72 L 8455 13634.72 L 8459 13724.72 L 8476 13840.72 L 8505 13957.72 L 8549 14072.72 L 8607 14183.72 L 8680 14288.72 L 8765 14382.72 L 9029 14610.72 L 9441 14591.72 L 9591 14585.72 L 9742 14579.72 L 9893 14573.72 L 10045 14568.72 L 10198 14563.72 L 10352 14559.72 L 10507 14555.72 L 10662 14552.72 L 10819 14549.72 L 10976 14547.72 L 11134 14545.72 L 11293 14543.72 L 11453 14542.72 L 11614 14541.72 L 11775 14541.72 L 11867 14541.72 L 11958 14541.72 L 12050 14542.72 L 12142 14542.72 L 12233 14543.72 L 12324 14543.72 L 12505 14545.72 L 12684 14547.72 L 12775 14548.72 L 12864 14549.72 L 12953 14551.72 L 13043 14552.72 L 13132 14554.72 L 13220 14555.72 L 13308 14557.72 L 13396 14559.72 L 13572 14563.72 L 13747 14568.72 L 13834 14571.72 L 13921 14573.72 L 14007 14576.72 L 14093 14579.72 L 14180 14582.72 L 14265 14585.72 L 14351 14588.72 L 14437 14591.72 L 14522 14595.72 L 14893 14609.72 L 15160 14347.72 L 15241 14241.72 L 15305 14129.72 L 15353 14016.72 L 15387 13903.72 L 15409 13793.72 L 15421 13684.72 L 15426 13549.72 L 15413 13430.72 L 15398 13341.72 L 15377 13251.72 L 15348 13158.72 L 15308 13063.72 L 15255 12965.72 L 15186 12868.72 L 14979 12648.72 L 14074 12506.72 L 14015 12491.72 L 13968 12475.72 L 13931 12458.72 L 13903 12440.72 L 13880 12423.72 L 13860 12404.72 L 13841 12379.72 L 13804 12322.72 L 13778 12280.72 L 13757 12242.72 L 13734 12200.72 L 13711 12153.72 L 13688 12102.72 L 13665 12049.72 L 13642 11991.72 L 13611 11911.72 L 13574 11823.72 L 13540 11744.72 L 13505 11662.72 L 13469 11576.72 L 13430 11487.72 L 13391 11393.72 L 13351 11297.72 L 13318 11215.72 L 10801 3702.715 L 10720 3466.715 L 10645 3241.715 L 10572 3025.715 L 10504 2819.715 L 10439 2623.715 L 10378 2437.715 L 10320 2260.715 L 10266 2093.715 L 10215 1936.715 L 10169 1789.715 L 10126 1651.715 L 10087 1523.715 L 10051 1405.715 L 10019 1297.715 L 9992 1201.714 L 9965 1106.714 L 9926 972.7145 L 9854 808.7145 L 9752 651.7145 L 9618 507.7145 z M 7671.000 6378.715 L 7692.000 6443.715 L 7742.000 6605.715 L 8132.000 7872.715 L 7192.000 7872.715 L 7564.000 6713.715 L 7619.000 6542.715 L 7671.000 6378.715 z "
     id="path609"
     transform="translate(0,15523.81)" />
  <path
     style="font-size:12.000;fill:url(#linearGradient658);"
     d="M 8580 9542.716 C 8899 9542.716 9120 9555.716 9242 9580.716 C 9370 9628.716 9443 9734.716 9469 9887.716 L 9968 11537.72 C 10204 12257.72 10323 12692.72 10323 12842.72 C 10323 12897.72 10297 12958.72 10249 13018.72 C 10188 13082.72 10048 13134.72 9824 13169.72 L 9222 13265.72 C 9139 13357.72 9104 13473.72 9114 13610.72 C 9114 13754.72 9165 13866.72 9261 13939.72 C 10064 13901.72 10902 13882.72 11775 13882.72 C 12766 13882.72 13719 13901.72 14634 13939.72 C 14721 13866.72 14765 13741.72 14765 13575.72 C 14753 13425.72 14714 13319.72 14653 13265.72 L 13943 13153.72 C 13623 13089.72 13390 12929.72 13246 12673.72 C 13153 12529.72 13073 12356.72 13000 12158.72 C 12917 11963.72 12814 11726.72 12699 11445.72 L 10176 3913.716 C 9741 2630.716 9459 1757.716 9331 1287.716 C 9274 1037.716 9130 912.7157 8906 912.7157 C 8883 938.7157 8727 1098.716 8442 1389.716 C 8135.000 1683.716 7751.000 1910.716 7291.000 2064.716 C 7304.000 2547.716 7060.000 3359.716 6565.000 4501.716 L 4895.000 9177.716 C 4422.000 10508.72 4038 11534.72 3741 12251.72 C 3590 12609.72 3424 12852.72 3242 12983.72 C 3056 13108.72 2842 13181.72 2608 13207.72 L 2106 13265.72 C 2045 13357.72 2020 13473.72 2033 13610.72 C 2033 13754.72 2077 13866.72 2164 13939.72 C 2918 13914.72 3558 13895.72 4076 13882.72 C 4870.000 13895.72 5596.000 13914.72 6254.000 13939.72 C 6341.000 13875.72 6382.000 13760.72 6382.000 13591.72 C 6382.000 13441.72 6354.000 13332.72 6293.000 13265.72 L 5730.000 13169.72 C 5468.000 13108.72 5298.000 13050.72 5212.000 13002.72 C 5109.000 12964.72 5058.000 12910.72 5058.000 12842.72 C 5046.000 12730.72 5090.000 12500.72 5193.000 12158.72 L 5883.000 9926.716 C 5931.000 9743.716 5999.000 9628.716 6085.000 9580.716 C 6142.000 9555.716 6280.000 9542.716 6491.000 9542.716 L 8580 9542.716 z M 6865.000 8531.716 C 6641.000 8544.716 6497.000 8502.716 6437.000 8410.716 C 6360.000 8346.716 6373.000 8192.716 6475.000 7949.716 L 6936.000 6513.716 C 7233.000 5576.716 7486.000 4869.716 7700.000 4392.716 C 7876.000 4856.716 8100.000 5528.716 8372 6410.716 L 8851 7968.716 C 8957 8211.716 8976 8365.716 8909 8429.716 C 8845 8496.716 8704 8531.716 8481 8531.716 L 6865.000 8531.716 z "
     id="path611"
     transform="translate(0,15523.81)" />
  <path
     class="fil1"
     d="M 16828.22 7789.992 L 13535.53 7768.271 L 20109.22 1038.731 L 23789.32 4663.117 C 21066.05 3996.427 21831.85 5525.608 20163.06 6460.259 C 18959.71 7083.192 17113.25 6860.918 16828.22 7789.992 z "
     id="path560"
     style="font-size:12;fill:url(#linearGradient895);shape-rendering:geometricPrecision;text-rendering:geometricPrecision;image-rendering:optimizeQuality;fill-rule:evenodd;fill-opacity:1;"
     nodetypes="cccscc"
     sodipodi:nodetypes="ccccsc" />
  <path
     class="fil1"
     d="M 18699.10 16146.62 L 17302.22 7779.131 L 13535.53 7768.271 L 20109.22 1038.731 L 23789.32 4663.117 C 21066.05 3996.427 21485.59 6493.155 19539.43 6647.347 C 18126.88 6755.787 18984.13 15217.54 18699.10 16146.62 z "
     id="path716"
     style="font-size:12;fill:url(#radialGradient718);shape-rendering:geometricPrecision;text-rendering:geometricPrecision;image-rendering:optimizeQuality;fill-rule:evenodd;fill-opacity:1;"
     nodetypes="cccscc"
     sodipodi:nodetypes="cccccsc" />
</svg>
