<?xml version="1.0" encoding="UTF-8" standalone="no"?>
<!DOCTYPE svg PUBLIC "-//W3C//DTD SVG 20010904//EN"
"http://www.w3.org/TR/2001/REC-SVG-20010904/DTD/svg10.dtd">
<!-- Created with Sodipodi ("http://www.sodipodi.com/") -->
<svg
   xml:space="preserve"
   width="30mm"
   height="30mm"
   style="shape-rendering:geometricPrecision; text-rendering:geometricPrecision; image-rendering:optimizeQuality; fill-rule:evenodd"
   viewBox="0 0 30000 30000"
   xmlns="http://www.w3.org/2000/svg"
   xmlns:xml="http://www.w3.org/XML/1998/namespace"
   xmlns:sodipodi="http://sodipodi.sourceforge.net/DTD/sodipodi-0.dtd"
   xmlns:xlink="http://www.w3.org/1999/xlink"
   id="svg559"
   sodipodi:version="0.34-pre"
   sodipodi:docname="/home/david/.themes/eXperience 0.6/icons/sort_az.svg"
   sodipodi:docbase="/home/david/.themes/eXperience 0.6/icons/"><sodipodi:namedview
   id="base" />

 <defs
   id="defs561"><linearGradient
   id="id4"
   gradientUnits="userSpaceOnUse"
   x1="26170"
   y1="29212"
   x2="11499"
   y2="16234">
   <stop
   offset="0"
   style="stop-color:#ffff3a;stop-opacity:1.0000;"
   id="stop589" />

   <stop
   offset="1"
   style="stop-color:#008f00;stop-opacity:1.0000;"
   id="stop591" />

   
  </linearGradient>
<linearGradient
   id="id3"
   gradientUnits="userSpaceOnUse"
   x1="14981"
   y1="13332"
   x2="1815"
   y2="939">
   <stop
   offset="0"
   style="stop-color:#ffffff;stop-opacity:1.0000;"
   id="stop582" />

   <stop
   offset="1"
   style="stop-color:#ffffff;stop-opacity:0;"
   id="stop584" />

  </linearGradient>
<linearGradient
   id="id2"
   gradientUnits="userSpaceOnUse"
   x1="14807"
   y1="28599"
   x2="2167"
   y2="16702">
   <stop
   offset="0"
   style="stop-color:#000057;stop-opacity:1.0000;"
   id="stop575" />

   <stop
   offset="1"
   style="stop-color:#0000a5;stop-opacity:1.0000;"
   id="stop577" />

  </linearGradient>


  <linearGradient
   id="id0"
   gradientUnits="userSpaceOnUse"
   x1="14360"
   y1="12757"
   x2="2425"
   y2="1525">
   <stop
   offset="0"
   style="stop-color:#002fa7;stop-opacity:1.0000;"
   id="stop565" />

   <stop
   offset="1"
   style="stop-color:#ffffff;stop-opacity:1.0000;"
   id="stop567" />

  </linearGradient>

  <linearGradient
   id="id1"
   href="#id0"
   xlink:href="#id0"
   x1="14497.8486"
   y1="27808.7656"
   x2="2875.61890"
   y2="14878.1016">
  </linearGradient>

  
  
  
 <linearGradient
   xlink:href="#id2"
   id="linearGradient657"
   x1="15202.8887"
   y1="13426.3115"
   x2="4605.11133"
   y2="1518.70190"
   gradientUnits="userSpaceOnUse" />
<linearGradient
   xlink:href="#id0"
   id="linearGradient658"
   x1="12.5331955"
   y1="12.3341913"
   x2="2.93115067"
   y2="0.93556565"
   gradientUnits="objectBoundingBox"
   gradientTransform="scale(7.852162e-2,7.676362e-2)" />
<radialGradient
   xlink:href="#id4"
   id="radialGradient659"
   cx="24299.1992"
   cy="28215"
   r="12264.2266"
   fx="24299.1992"
   fy="28215"
   gradientUnits="userSpaceOnUse" />
<linearGradient
   xlink:href="#id3"
   id="linearGradient895"
   x1="10152.6318"
   y1="2895.27026"
   x2="35456.6133"
   y2="14701.5967"
   gradientUnits="userSpaceOnUse"
   gradientTransform="scale(0.614176,1.628198)" />
</defs>

 
  
   <path
   style="font-size:12.000;fill:#004b00;"
   d="M11838 21658l5323 -26 3074 -21579 3572 21579 4823 26 -8395 8396 -8397 -8396z"
   id="path601" />

   <path
   style="font-size:12.000;fill:url(#radialGradient659);"
   d="M 17860.00 22330 L 20235.00 4530.999 L 23108.00 22330 L 26958.00 22330 L 20309.00 28979 L 13664 22330 C 15057 22330 16469.00 22285 17860.00 22330 z "
   id="path603" />

   <path
   style="font-size:12.000;fill:#007500;fill-opacity:0.7323;"
   d="M 20344.00 28955.19 C 20344.00 28955.19 18028.00 26636.19 17394.00 25935.19 C 18260.00 26520.19 19443.85 28246.04 20379.47 28018.24 C 22523.31 27496.27 24490.68 24139.54 26689.14 22628.76 L 20344.00 28955.19 z "
   id="path605"
   sodipodi:nodetypes="ccscc" />

   <path
   style="font-size:12.000;fill:#ffffff;"
   d="M 18644.52 19366 L 19965.52 6210.999 L 17963.52 22317 L 18644.52 19366 z "
   id="path607" />

   <path
   style="font-size:12.000;fill:url(#linearGradient657);"
   d="M 9618 507.7145 L 9454 391.7145 L 9273 309.7145 L 9088 265.7145 L 8638 231.7145 L 8410 477.7145 L 8389 500.7145 L 8352 538.7145 L 8300 591.7145 L 8236 656.7145 L 8160.000 734.7145 L 7982.000 917.7145 L 7942.000 954.7145 L 7896.000 994.7145 L 7849.000 1033.714 L 7801.000 1070.714 L 7750.000 1107.714 L 7698.000 1143.714 L 7645.000 1177.714 L 7590.000 1211.714 L 7533.000 1243.714 L 7475.000 1274.714 L 7414.000 1304.715 L 7351.000 1334.715 L 7287.000 1362.715 L 7221.000 1388.715 L 7153.000 1414.715 L 6635.000 1593.715 L 6631.000 2134.715 L 6627.000 2201.715 L 6617.000 2281.715 L 6603.000 2373.715 L 6583.000 2476.715 L 6557.000 2590.715 L 6525.000 2714.715 L 6487.000 2847.715 L 6442.000 2990.715 L 6392.000 3143.715 L 6335.000 3304.715 L 6272.000 3474.715 L 6203.000 3652.715 L 6128.000 3839.715 L 6047.000 4035.715 L 5951.000 4260.715 L 4274.000 8955.715 L 4230.000 9079.715 L 4187.000 9201.715 L 4144.000 9321.715 L 4101.000 9439.715 L 4059 9555.715 L 4018 9670.715 L 3977 9782.715 L 3937 9892.715 L 3898 10002.71 L 3858 10109.71 L 3820 10214.71 L 3780 10321.72 L 3707 10518.72 L 3670 10617.72 L 3635 10713.72 L 3599 10807.72 L 3564 10899.72 L 3530 10990.72 L 3496 11079.72 L 3463 11166.72 L 3430 11251.72 L 3397 11334.72 L 3366 11415.72 L 3335 11494.72 L 3304 11573.72 L 3274 11648.72 L 3244 11721.72 L 3215 11794.72 L 3187 11864.72 L 3134 11991.72 L 3087 12099.72 L 3041 12190.72 L 2998 12267.72 L 2959 12330.72 L 2923 12379.72 L 2893 12413.72 L 2870 12435.72 L 2858 12445.72 L 2839 12457.72 L 2803 12477.72 L 2765 12494.72 L 2725 12510.72 L 2681 12524.72 L 2636 12535.72 L 2588 12544.72 L 2526 12553.72 L 1705 12647.72 L 1502 12992.72 L 1458 13085.72 L 1422 13183.72 L 1397 13282.72 L 1380 13380.72 L 1371 13478.72 L 1370 13576.72 L 1374 13643.72 L 1377 13717.72 L 1391 13826.72 L 1415 13936.72 L 1453 14046.72 L 1503 14155.72 L 1568 14259.72 L 1646 14356.72 L 1908 14607.72 L 2326 14594.72 L 2463 14589.72 L 2597 14585.72 L 2729 14580.72 L 2984 14572.72 L 3108 14569.72 L 3229 14565.72 L 3346 14561.72 L 3462 14558.72 L 3574 14555.72 L 3683 14552.72 L 3790 14549.72 L 3894 14546.72 L 3995 14543.72 L 4079 14541.72 L 4213.000 14544.72 L 4358.000 14546.72 L 4634.000 14551.72 L 4925.000 14558.72 L 5189.000 14565.72 L 5332.000 14569.72 L 5466.000 14573.72 L 5597.000 14576.72 L 5726.000 14580.72 L 5854.000 14585.72 L 5981.000 14589.72 L 6106.000 14594.72 L 6491.000 14608.72 L 6757.000 14376.72 L 6848.000 14267.72 L 6919.000 14151.72 L 6971.000 14033.72 L 7005.000 13917.72 L 7027.000 13806.72 L 7039.000 13697.72 L 7042.000 13593.72 L 7040.000 13501.72 L 7032.000 13411.72 L 7019.000 13319.72 L 6997.000 13222.72 L 6965.000 13123.72 L 6920.000 13021.72 L 6860.000 12920.72 L 6657.000 12658.72 L 5862.000 12522.72 L 5796.000 12506.72 L 5780.000 12502.72 L 5792.000 12459.72 L 5824.000 12347.72 L 6488.000 10201.71 L 6494.000 10201.71 L 8578 10201.71 L 8687 10202.71 L 8785 10203.71 L 8872 10206.71 L 8877 10206.71 L 9339 11735.72 L 9383 11872.72 L 9423 11994.72 L 9459 12110.72 L 9493 12217.72 L 9523 12318.72 L 9551 12412.72 L 9576 12499.72 L 9587 12539.72 L 8870 12653.72 L 8659 12913.72 L 8596 13011.72 L 8543 13115.72 L 8504 13223.72 L 8475 13333.72 L 8459 13443.72 L 8452 13551.72 L 8455 13634.72 L 8459 13724.72 L 8476 13840.72 L 8505 13957.72 L 8549 14072.72 L 8607 14183.72 L 8680 14288.72 L 8765 14382.72 L 9029 14610.72 L 9441 14591.72 L 9591 14585.72 L 9742 14579.72 L 9893 14573.72 L 10045 14568.72 L 10198 14563.72 L 10352 14559.72 L 10507 14555.72 L 10662 14552.72 L 10819 14549.72 L 10976 14547.72 L 11134 14545.72 L 11293 14543.72 L 11453 14542.72 L 11614 14541.72 L 11775 14541.72 L 11867 14541.72 L 11958 14541.72 L 12050 14542.72 L 12142 14542.72 L 12233 14543.72 L 12324 14543.72 L 12505 14545.72 L 12684 14547.72 L 12775 14548.72 L 12864 14549.72 L 12953 14551.72 L 13043 14552.72 L 13132 14554.72 L 13220 14555.72 L 13308 14557.72 L 13396 14559.72 L 13572 14563.72 L 13747 14568.72 L 13834 14571.72 L 13921 14573.72 L 14007 14576.72 L 14093 14579.72 L 14180 14582.72 L 14265 14585.72 L 14351 14588.72 L 14437 14591.72 L 14522 14595.72 L 14893 14609.72 L 15160 14347.72 L 15241 14241.72 L 15305 14129.72 L 15353 14016.72 L 15387 13903.72 L 15409 13793.72 L 15421 13684.72 L 15426 13549.72 L 15413 13430.72 L 15398 13341.72 L 15377 13251.72 L 15348 13158.72 L 15308 13063.72 L 15255 12965.72 L 15186 12868.72 L 14979 12648.72 L 14074 12506.72 L 14015 12491.72 L 13968 12475.72 L 13931 12458.72 L 13903 12440.72 L 13880 12423.72 L 13860 12404.72 L 13841 12379.72 L 13804 12322.72 L 13778 12280.72 L 13757 12242.72 L 13734 12200.72 L 13711 12153.72 L 13688 12102.72 L 13665 12049.72 L 13642 11991.72 L 13611 11911.72 L 13574 11823.72 L 13540 11744.72 L 13505 11662.72 L 13469 11576.72 L 13430 11487.72 L 13391 11393.72 L 13351 11297.72 L 13318 11215.72 L 10801 3702.715 L 10720 3466.715 L 10645 3241.715 L 10572 3025.715 L 10504 2819.715 L 10439 2623.715 L 10378 2437.715 L 10320 2260.715 L 10266 2093.715 L 10215 1936.715 L 10169 1789.715 L 10126 1651.715 L 10087 1523.715 L 10051 1405.715 L 10019 1297.715 L 9992 1201.714 L 9965 1106.714 L 9926 972.7145 L 9854 808.7145 L 9752 651.7145 L 9618 507.7145 z M 7671.000 6378.715 L 7692.000 6443.715 L 7742.000 6605.715 L 8132.000 7872.715 L 7192.000 7872.715 L 7564.000 6713.715 L 7619.000 6542.715 L 7671.000 6378.715 z "
   id="path609" />

   <path
   style="font-size:12.000;fill:url(#linearGradient658);"
   d="M 8580 9542.716 C 8899 9542.716 9120 9555.716 9242 9580.716 C 9370 9628.716 9443 9734.716 9469 9887.716 L 9968 11537.72 C 10204 12257.72 10323 12692.72 10323 12842.72 C 10323 12897.72 10297 12958.72 10249 13018.72 C 10188 13082.72 10048 13134.72 9824 13169.72 L 9222 13265.72 C 9139 13357.72 9104 13473.72 9114 13610.72 C 9114 13754.72 9165 13866.72 9261 13939.72 C 10064 13901.72 10902 13882.72 11775 13882.72 C 12766 13882.72 13719 13901.72 14634 13939.72 C 14721 13866.72 14765 13741.72 14765 13575.72 C 14753 13425.72 14714 13319.72 14653 13265.72 L 13943 13153.72 C 13623 13089.72 13390 12929.72 13246 12673.72 C 13153 12529.72 13073 12356.72 13000 12158.72 C 12917 11963.72 12814 11726.72 12699 11445.72 L 10176 3913.716 C 9741 2630.716 9459 1757.716 9331 1287.716 C 9274 1037.716 9130 912.7157 8906 912.7157 C 8883 938.7157 8727 1098.716 8442 1389.716 C 8135.000 1683.716 7751.000 1910.716 7291.000 2064.716 C 7304.000 2547.716 7060.000 3359.716 6565.000 4501.716 L 4895.000 9177.716 C 4422.000 10508.72 4038 11534.72 3741 12251.72 C 3590 12609.72 3424 12852.72 3242 12983.72 C 3056 13108.72 2842 13181.72 2608 13207.72 L 2106 13265.72 C 2045 13357.72 2020 13473.72 2033 13610.72 C 2033 13754.72 2077 13866.72 2164 13939.72 C 2918 13914.72 3558 13895.72 4076 13882.72 C 4870.000 13895.72 5596.000 13914.72 6254.000 13939.72 C 6341.000 13875.72 6382.000 13760.72 6382.000 13591.72 C 6382.000 13441.72 6354.000 13332.72 6293.000 13265.72 L 5730.000 13169.72 C 5468.000 13108.72 5298.000 13050.72 5212.000 13002.72 C 5109.000 12964.72 5058.000 12910.72 5058.000 12842.72 C 5046.000 12730.72 5090.000 12500.72 5193.000 12158.72 L 5883.000 9926.716 C 5931.000 9743.716 5999.000 9628.716 6085.000 9580.716 C 6142.000 9555.716 6280.000 9542.716 6491.000 9542.716 L 8580 9542.716 z M 6865.000 8531.716 C 6641.000 8544.716 6497.000 8502.716 6437.000 8410.716 C 6360.000 8346.716 6373.000 8192.716 6475.000 7949.716 L 6936.000 6513.716 C 7233.000 5576.716 7486.000 4869.716 7700.000 4392.716 C 7876.000 4856.716 8100.000 5528.716 8372 6410.716 L 8851 7968.716 C 8957 8211.716 8976 8365.716 8909 8429.716 C 8845 8496.716 8704 8531.716 8481 8531.716 L 6865.000 8531.716 z "
   id="path611" />

   <path
   style="font-size:12.000;fill:url(#id2);"
   d="M14754 26890l21 -125 18 -122 17 -121 13 -117 12 -116 8 -112 20 -315 -159 -254 -81 -99 -95 -90 -103 -76 -108 -61 -111 -47 -109 -33 -97 -21 -100 -17 -118 -9 -119 3 -117 15 -116 27 -110 36 -103 46 -262 142 -182 377 -85 169 -85 160 -84 151 -83 140 -83 131 -81 122 -80 111 -78 102 -76 92 -74 82 -71 72 -68 63 -64 53 -61 44 -58 38 -65 36 -74 36 -78 34 -85 32 -90 31 -95 28 -102 26 -107 23 -113 21 -119 18 -126 15 -130 12 -137 9 -142 6 -148 3 -162 -1 -1779 0 -135 0 -127 -1 -121 -1 -114 -2 -109 -3 -102 -3 -94 -3 -27 -1 111 -185 27 -42 36 -54 37 -58 39 -60 41 -63 43 -66 44 -68 46 -71 47 -74 49 -76 51 -79 53 -81 54 -85 56 -87 117 -183 61 -95 63 -98 64 -101 66 -103 68 -106 70 -109 144 -226 74 -117 76 -119 78 -122 80 -126 81 -128 83 -130 85 -134 86 -134 2086 -3236 142 -217 141 -214 138 -208 133 -201 130 -196 127 -190 123 -184 120 -178 115 -171 113 -166 108 -160 105 -153 102 -148 98 -142 94 -135 91 -130 87 -123 84 -117 79 -111 76 -106 72 -98 69 -92 65 -86 61 -80 57 -74 52 -66 49 -61 44 -53 39 -45 34 -39 28 -30 187 -190 37 -310 -1 -132 -20 -135 -43 -138 -66 -131 -83 -116 -94 -95 -290 -228 -317 45 -43 4 -60 5 -75 5 -88 5 -101 4 -113 4 -127 4 -138 4 -149 2 -161 3 -174 2 -185 1 -196 1 -208 1 -220 0 -5315 0 -116 0 -109 -1 -104 -2 -97 -2 -91 -3 -85 -4 -78 -4 -71 -5 -66 -6 -57 -6 -50 -5 -42 -6 -2 -1 -102 -248 -286 -130 -70 -26 -68 -21 -69 -17 -71 -12 -69 -9 -70 -5 -113 -3 -107 17 -63 12 -63 16 -63 20 -66 24 -66 30 -68 38 -280 186 -64 371 -15 91 -16 92 -17 92 -17 94 -18 94 -17 96 -19 95 -19 98 -19 98 -20 100 -20 100 -21 101 -21 103 -22 103 -22 103 -23 105 -23 107 -24 107 -23 108 -25 109 -25 110 -25 111 -26 112 -26 112 -27 114 -27 115 -28 116 -28 116 -29 118 -29 119 -102 414 230 322 95 99 104 82 106 64 107 49 107 38 105 28 81 15 85 17 117 12 120 2 119 -10 119 -21 118 -34 113 -46 305 -159 139 -379 50 -127 50 -121 52 -116 53 -110 53 -104 54 -98 55 -93 55 -86 55 -81 56 -75 56 -70 55 -63 56 -59 56 -53 41 -37 35 -24 51 -31 61 -32 71 -32 81 -31 90 -29 101 -29 110 -26 119 -23 129 -21 138 -18 147 -15 157 -12 165 -9 174 -5 185 -2 1710 0 -52 88 -99 167 -100 166 -99 164 -100 164 -99 162 -100 162 -99 160 -100 159 -99 158 -99 157 -100 155 -99 155 -99 153 -3773 5751 -56 81 -59 87 -59 89 -60 89 -60 90 -61 91 -61 92 -61 92 -63 94 -63 95 -63 96 -63 97 -64 97 -65 99 -65 100 -67 102 -63 98 -59 90 -57 87 -54 82 -52 79 -51 74 -48 71 -45 65 -44 63 -42 58 -39 54 -36 49 -34 45 -32 40 -29 36 -126 154 -60 251 -13 162 19 174 55 170 86 153 108 127 119 99 296 184 292 -46 50 -6 62 -7 72 -7 81 -6 91 -6 100 -5 98 -4 5853 0 117 0 116 0 232 1 230 1 115 1 114 2 230 2 223 3 113 2 113 2 112 2 117 3 118 0 113 0 115 1 117 1 118 2 122 1 123 2 125 2 127 3 129 3 257 6 144 4 139 4 140 4 565 18 218 -435 33 -68 33 -72 35 -76 35 -81 36 -86 37 -90 46 -114 38 -119 32 -103 30 -107 31 -108 29 -111 30 -113 28 -115 29 -118 28 -117 28 -118 28 -119 28 -121 45 -192 41 -175 34 -143 25 -138z"
   id="path613" />

   <path
   style="font-size:12.000;fill:url(#id1);fill-opacity:1.0000;"
   d="M9461 17410c451,0 669,38 656,112 0,86 -67,240 -198,461 -538,917 -1072,1791 -1609,2616l-3777 5757c-307,451 -634,947 -985,1484 -336,524 -589,886 -758,1087 -45,144 3,253 144,330 143,-26 374,-45 690,-58 307,0 704,0 1187,0l4682 0c627,0 1241,7 1839,19 595,0 1273,13 2044,39 71,-138 157,-330 253,-573 80,-243 153,-518 227,-825 74,-307 147,-627 227,-966 61,-316 96,-604 109,-860 -61,-112 -167,-179 -317,-205 -147,-32 -284,-6 -419,74 -486,1036 -979,1701 -1478,1996 -502,294 -1202,434 -2110,422l-1779 0c-745,0 -1231,-26 -1461,-74 -221,-45 -323,-105 -311,-179 -12,-74 154,-393 496,-956 352,-538 992,-1535 1922,-3000l2089 -3240c1564,-2383 2523,-3749 2888,-4107 22,-125 -16,-221 -118,-291 -237,38 -960,57 -2169,57l-5316 0c-652,0 -1068,-32 -1244,-92 -96,-39 -166,-83 -208,-131 -48,-64 -89,-141 -128,-237 -70,-35 -159,-54 -262,-54 -96,12 -169,38 -217,73 -163,972 -406,2105 -726,3397 60,99 179,160 345,185 163,39 310,19 442,-57 281,-793 633,-1369 1058,-1724 419,-320 1158,-480 2220,-480l2072 0z"
   id="path615" />

  
 
<path
   class="fil1"
   d="M 21057.10 9628.446 L 20147.69 4416.042 L 17812.45 22361.46 L 13862.15 22311.16 C 15421.26 23688.01 17274.40 23791.66 18601.07 22970.12 C 19914.34 22145.36 19911.25 20838.05 19707.18 19166.23 C 19529.94 17618.99 19898.13 10792.91 21057.10 9628.446 z "
   id="path560"
   style="font-size:12;fill:url(#linearGradient895);shape-rendering:geometricPrecision;text-rendering:geometricPrecision;image-rendering:optimizeQuality;fill-rule:evenodd;fill-opacity:1;"
   nodetypes="cccscc"
   sodipodi:nodetypes="ccccssc" />
</svg>
