<?xml version="1.0" encoding="UTF-8" standalone="no"?>
<!DOCTYPE svg PUBLIC "-//W3C//DTD SVG 20010904//EN"
"http://www.w3.org/TR/2001/REC-SVG-20010904/DTD/svg10.dtd">
<!-- Created with Sodipodi ("http://www.sodipodi.com/") -->
<svg
   xml:space="preserve"
   width="30mm"
   height="30mm"
   style="shape-rendering:geometricPrecision; text-rendering:geometricPrecision; image-rendering:optimizeQuality; fill-rule:evenodd"
   viewBox="0 0 30000 30000"
   id="svg810"
   sodipodi:version="0.34-pre"
   sodipodi:docname="/home/david/.themes/eXperience 0.6/icons/spellcheck.svg"
   sodipodi:docbase="/home/david/.themes/eXperience 0.6/icons/"
   xmlns="http://www.w3.org/2000/svg"
   xmlns:sodipodi="http://sodipodi.sourceforge.net/DTD/sodipodi-0.dtd"
   xmlns:xml="http://www.w3.org/XML/1998/namespace"
   xmlns:xlink="http://www.w3.org/1999/xlink"><sodipodi:namedview
   id="base" />


 <defs
   id="defs812"><linearGradient
   id="linearGradient918"
   gradientUnits="userSpaceOnUse"
   x1="24332"
   y1="18120"
   x2="5745"
   y2="627">
   <stop
   offset="0"
   style="stop-color:#fffff2;stop-opacity:1.0000;"
   id="stop920" />


   <stop
   offset="1"
   style="stop-color:#ffffff;stop-opacity:0.7412;"
   id="stop922" />


  </linearGradient>


  <linearGradient
   id="id0"
   gradientUnits="userSpaceOnUse"
   x1="24332"
   y1="18120"
   x2="5745"
   y2="627">
   <stop
   offset="0"
   style="stop-color:#0000f2;stop-opacity:1.0000;"
   id="stop816" />


   <stop
   offset="1"
   style="stop-color:#ffffff;stop-opacity:1.0000;"
   id="stop818" />


  </linearGradient>


  <linearGradient
   id="id1"
   gradientUnits="userSpaceOnUse"
   x1="25161"
   y1="18887"
   x2="4926"
   y2="-157">
   <stop
   offset="0"
   style="stop-color:#000087;stop-opacity:1.0000;"
   id="stop823" />


   <stop
   offset="1"
   style="stop-color:#0033cd;stop-opacity:1.0000;"
   id="stop825" />


  </linearGradient>


  <linearGradient
   id="id2"
   gradientUnits="userSpaceOnUse"
   x1="16766"
   y1="31859"
   x2="11108"
   y2="9562">
   <stop
   offset="0"
   style="stop-color:#ffff00;stop-opacity:1.0000;"
   id="stop830" />


   <stop
   offset="1"
   style="stop-color:#00a206;stop-opacity:1.0000;"
   id="stop832" />


   
  </linearGradient>


 <linearGradient
   xlink:href="#id0"
   id="linearGradient896"
   x1="23022.2012"
   y1="13587.0469"
   x2="13542.5664"
   y2="3187.07031"
   gradientUnits="userSpaceOnUse"
   gradientTransform="translate(-5.268830e-7,7.798360e-5)" />

<linearGradient
   xlink:href="#id0"
   id="linearGradient897"
   x1="13068.1611"
   y1="13333.1641"
   x2="3535.50830"
   y2="5444.87500"
   gradientUnits="userSpaceOnUse"
   gradientTransform="translate(-5.268830e-7,7.798360e-5)" />

<linearGradient
   xlink:href="#id0"
   id="linearGradient898"
   x1="33116.0430"
   y1="13710.2158"
   x2="20645.4590"
   y2="5343.70557"
   gradientUnits="userSpaceOnUse" />

<linearGradient
   xlink:href="#id1"
   id="linearGradient899"
   x1="17193.1445"
   y1="14274.6670"
   x2="3286.92480"
   y2="2063.44482"
   gradientUnits="userSpaceOnUse"
   gradientTransform="translate(-5.268830e-7,7.798360e-5)" />

<radialGradient
   xlink:href="#id2"
   id="radialGradient915"
   cx="18053.7598"
   cy="27555.4727"
   r="14322.1406"
   fx="18053.7598"
   fy="27555.4727"
   gradientUnits="userSpaceOnUse"
   gradientTransform="translate(-7.450435e-6,1.057845e-4)" />

<radialGradient
   xlink:href="#linearGradient918"
   id="radialGradient917"
   cx="4.87517405"
   cy="7.70605230"
   r="13.6148815"
   fx="4.87517405"
   fy="7.70605230"
   gradientUnits="objectBoundingBox"
   gradientTransform="scale(5.880134e-2,5.880127e-2)" />

</defs>


 
  
   <path
   style="font-size:12.000;fill:url(#linearGradient899);"
   d="M9380 12990l-25 -57 -24 -61 -26 -65 -27 -70 -27 -74 -27 -77 -28 -83 -2094 -6293 -38 -125 -40 -131 -41 -131 -40 -130 -41 -130 -41 -130 -40 -130 -41 -129 -42 -130 -41 -129 -41 -129 -41 -128 -42 -129 -42 -129 -105 -325 -81 -112 -69 -72 -79 -61 -86 -49 -90 -35 -88 -23 -88 -13 -224 -10 -161 114 -44 39 -36 34 -40 40 -47 46 -54 55 -62 63 -61 62 -56 52 -54 45 -58 41 -60 37 -64 34 -66 31 -69 27 -436 138 31 401 0 26 -1 30 -3 35 -5 41 -7 44 -10 50 -12 52 -16 57 -18 61 -21 65 -23 67 -27 72 -30 75 -33 78 -42 97 -2001 5368 -56 152 -54 146 -52 141 -50 135 -49 131 -48 126 -46 120 -44 116 -43 110 -42 106 -40 101 -39 95 -37 91 -36 85 -34 81 -32 74 -33 74 -30 63 -29 55 -27 47 -26 40 -24 32 -19 24 -2 2 -2 1 -19 13 -25 13 -30 13 -36 13 -42 12 -48 12 -64 11 -651 113 -129 232 -25 54 -22 55 -18 56 -14 58 -10 61 -6 59 -2 59 2 67 8 68 13 70 21 70 28 70 37 69 46 66 185 206 314 -18 90 -5 91 -5 90 -4 89 -4 89 -3 89 -3 89 -3 88 -2 89 -3 88 -1 87 -2 88 -1 87 0 87 -1 83 0 209 4 105 2 104 2 102 2 101 3 100 2 98 2 96 3 95 3 94 3 92 3 91 3 89 3 88 4 248 10 177 -129 64 -61 54 -66 43 -69 33 -68 26 -67 19 -66 26 -112 -5 -116 -10 -75 -17 -76 -27 -77 -36 -75 -45 -71 -55 -66 -142 -134 -585 -100 -66 -10 9 -38 12 -48 14 -53 17 -58 19 -62 21 -66 25 -74 601 -1806 22 -70 6 -19 29 -1 1928 0 63 1 54 2 16 1 6 16 21 70 690 2047 32 99 24 82 2 8 -68 6 -541 74 -145 209 -36 69 -28 71 -19 71 -11 69 -5 68 0 66 4 37 1 43 8 74 16 76 25 79 36 79 48 77 60 72 188 170 294 -15 103 -5 104 -5 105 -4 106 -4 108 -3 109 -3 110 -3 111 -2 112 -3 114 -1 115 -2 116 -1 118 0 118 -1 120 0 131 0 129 1 127 0 125 1 123 2 121 1 120 3 117 2 115 3 113 3 112 3 109 4 108 4 106 5 103 5 289 15 186 -161 36 -41 62 64 185 135 286 -12 123 -5 122 -5 123 -4 122 -4 122 -4 123 -3 122 -3 122 -3 122 -2 122 -2 122 -2 122 -1 122 -1 122 0 117 -1 101 3 106 1 199 4 126 3 110 3 112 3 112 2 112 3 114 3 116 3 115 3 117 4 118 3 118 4 128 4 160 -1 151 -3 148 -4 146 -6 143 -8 140 -9 138 -11 135 -13 132 -15 130 -17 128 -18 125 -20 122 -22 120 -24 117 -26 115 -28 111 -30 110 -32 107 -34 105 -36 102 -38 100 -40 97 -42 95 -45 92 -47 90 -49 86 -52 85 -54 81 -57 79 -59 76 -62 67 -58 66 -59 68 -63 66 -64 63 -66 61 -66 59 -68 57 -70 54 -70 52 -71 50 -73 47 -74 45 -75 42 -76 40 -77 37 -79 42 -94 28 -90 22 -72 20 -72 19 -73 18 -73 16 -74 14 -73 13 -74 11 -74 10 -74 9 -75 7 -74 5 -75 4 -75 3 -75 0 -82 -7 -178 -13 -169 -19 -165 -26 -161 -32 -157 -39 -153 -45 -148 -52 -144 -60 -140 -66 -134 -73 -129 -81 -125 -88 -118 -95 -113 -102 -106 -111 -102 -113 -89 -105 -78 -108 -74 -108 -70 -111 -66 -112 -62 -114 -58 -115 -54 -5 -2 66 -44 162 -125 148 -134 136 -145 122 -153 107 -164 92 -171 76 -180 59 -186 44 -193 28 -196 12 -204 -5 -200 -14 -187 -23 -182 -33 -177 -43 -172 -53 -167 -64 -161 -74 -155 -85 -149 -95 -141 -106 -133 -116 -126 -125 -117 -133 -108 -143 -99 -136 -82 -67 -40 -75 -43 -77 -40 -79 -38 -81 -36 -82 -35 -84 -32 -86 -30 -88 -28 -89 -26 -91 -24 -92 -23 -94 -20 -96 -19 -98 -17 -96 -14 -97 -14 -99 -13 -100 -12 -101 -11 -103 -10 -104 -10 -105 -8 -107 -8 -109 -7 -109 -6 -111 -5 -112 -4 -113 -3 -115 -2 -117 -1 -118 -1 -151 1 -145 1 -142 2 -140 2 -137 1 -134 2 -131 3 -129 2 -126 3 -123 3 -120 3 -117 4 -115 3 -112 4 -109 4 -107 4 -105 5 -101 5 -98 5 -96 5 -94 5 -90 6 -88 6 -85 6 -83 7 -80 6 -77 7 -75 8 -73 7 -69 8 -67 8 -179 23 -143 102 -65 63 -56 71 -44 76 -33 80 -21 79 -11 76 -3 69 2 68 6 65 12 66 17 66 22 67 29 65 36 64 148 218 602 72 116 5 58 9 35 9 0 0 4 13 7 27 7 36 8 45 7 52 7 61 7 68 5 75 5 82 4 88 3 96 3 101 1 107 0 114 0 120 -1 131 0 5503 -1 136 -2 129 -2 121 -4 114 -5 107 -6 99 -7 91 -8 83 -9 74 -9 67 -10 57 -9 48 -10 36 -7 25 -2 5 -3 4 -3 4 -11 8 -22 13 -37 14 -54 15 -71 13 -113 10 -531 75 -110 158 -45 -47 -129 -109 -335 -72 -121 -21 -89 -20 -74 -23 -60 -23 -45 -22 -30 -19 -18 -15 -23 -24 -8 -10 -12 -15 -14 -21 -17 -28 -18 -32 -20 -38 -22 -42 -23 -48 -23 -52zm-4416 -5062l2 -7 535 1583 -1084 0 547 -1576zm11340 2675l43 80 39 85 36 89 33 95 29 100 26 106 21 110 18 117 14 122 9 128 5 124 -3 97 -7 102 -10 96 -13 92 -17 87 -19 82 -22 77 -25 73 -27 68 -30 64 -32 60 -34 57 -37 53 -40 50 -42 47 -48 47 -54 50 -55 45 -56 42 -56 38 -57 35 -58 32 -60 29 -60 25 -63 23 -63 19 -66 17 -67 14 -69 11 -72 8 -73 4 -78 2 -93 -2 -88 -4 -81 -7 -74 -10 -68 -12 -60 -14 -54 -16 -47 -17 -40 -18 -34 -18 -28 -17 -23 -18 -19 -17 -16 -17 -13 -18 -17 -27 -19 -36 -19 -40 -18 -46 -18 -52 -18 -57 -16 -63 -16 -69 -14 -75 -12 -80 -11 -84 -8 -90 -8 -96 -5 -101 -3 -105 -1 -111 1 -121 0 -2087 22 -2 83 -3 90 -1 140 5 138 9 132 13 126 16 121 21 115 24 109 29 103 31 97 35 92 38 87 41 82 44 76 47 73 51 67 53 64 56 59 60 56 63 53 67 49 71 46 75zm-634 -2859l-67 96 -75 83 -86 73 -98 65 -114 57 -132 49 -150 39 -169 28 -190 17 -216 3 -82 -1 -67 -2 0 -2662 -2 -95 2 -60 84 -5 100 -3 111 -1 71 1 66 4 66 7 64 8 62 12 62 14 60 16 60 19 57 22 58 24 57 26 56 29 55 32 55 35 54 37 52 40 47 38 40 39 38 41 35 44 33 49 31 52 29 57 27 61 25 67 22 72 19 77 17 83 14 88 10 94 7 99 3 99 -5 205 -18 183 -30 164 -40 145 -50 127 -58 109zm13896 -3549l-404 -70 -41 -8 -43 -9 -46 -10 -48 -10 -49 -12 -52 -12 -50 -12 -70 -19 -76 -20 -77 -19 -78 -19 -78 -18 -78 -17 -79 -16 -79 -17 -80 -15 -80 -15 -80 -14 -81 -14 -81 -13 -82 -12 -82 -12 -82 -11 -83 -11 -83 -10 -83 -9 -84 -8 -85 -8 -84 -8 -85 -7 -86 -6 -86 -5 -86 -5 -87 -5 -87 -4 -88 -3 -87 -2 -88 -2 -93 -2 -153 2 -150 4 -149 7 -148 9 -147 12 -145 14 -146 18 -143 20 -143 22 -142 26 -141 28 -139 30 -139 34 -137 36 -137 38 -135 42 -134 44 -133 47 -132 49 -130 52 -130 56 -128 57 -127 60 -125 63 -125 66 -123 68 -122 71 -121 74 -120 76 -118 79 -117 81 -115 84 -119 90 -117 95 -114 98 -110 100 -107 104 -103 107 -99 110 -96 113 -92 116 -88 119 -85 122 -80 125 -77 127 -72 131 -69 133 -66 135 -61 139 -57 141 -54 143 -50 147 -46 148 -42 151 -39 154 -34 156 -32 158 -27 161 -23 164 -20 165 -17 168 -12 171 -9 173 -6 181 2 105 3 96 3 96 6 94 6 94 8 93 9 92 10 92 11 91 13 90 14 89 15 89 16 88 18 87 19 87 20 85 22 85 23 84 24 83 25 83 27 81 28 82 29 80 31 79 31 78 34 78 34 77 36 76 37 75 39 75 39 73 39 69 75 133 82 136 84 133 87 129 91 125 93 122 96 119 99 115 101 111 105 108 107 104 111 100 113 97 116 93 119 89 124 88 112 72 109 65 109 63 110 61 111 59 113 57 114 54 115 52 116 50 118 48 119 46 119 44 121 41 122 39 123 37 125 35 125 32 126 31 128 28 128 26 130 24 131 21 131 20 133 17 134 15 135 13 135 11 137 8 138 7 139 4 140 2 144 0 100 -2 96 -3 96 -5 95 -5 95 -7 94 -7 93 -9 93 -10 91 -10 92 -12 91 -13 89 -14 90 -14 89 -16 88 -18 85 -17 79 -17 75 -17 72 -15 69 -16 66 -15 64 -14 61 -14 58 -13 55 -13 53 -12 50 -12 47 -11 46 -11 42 -11 40 -11 50 -13 70 -23 54 -18 55 -16 57 -16 57 -16 59 -15 60 -14 233 -55 128 -179 33 -49 30 -50 30 -51 30 -54 29 -56 29 -59 29 -61 29 -64 29 -66 29 -69 29 -71 30 -74 29 -77 30 -80 32 -88 30 -90 27 -87 26 -89 25 -89 24 -91 22 -91 21 -92 20 -93 19 -95 17 -94 16 -96 15 -97 14 -98 12 -99 11 -99 23 -222 -77 -168 -49 -80 -62 -75 -74 -65 -81 -52 -82 -38 -81 -26 -70 -15 -75 -11 -94 -3 -95 11 -91 23 -86 34 -78 42 -69 49 -134 114 -59 149 -16 40 -17 39 -18 40 -18 40 -19 41 -20 40 -21 41 -21 41 -23 41 -23 42 -23 42 -25 42 -25 42 -25 43 -28 44 -28 46 -27 41 -27 42 -29 41 -29 41 -30 40 -31 40 -32 40 -33 40 -33 39 -35 39 -36 39 -36 38 -38 38 -38 38 -40 38 -37 35 -37 32 -38 32 -39 31 -41 31 -41 29 -43 30 -44 28 -45 28 -47 28 -48 26 -49 26 -50 26 -52 24 -52 24 -60 25 -59 25 -53 21 -55 19 -56 18 -58 17 -59 15 -61 15 -63 12 -64 12 -67 9 -67 9 -70 6 -71 6 -74 4 -74 2 -76 1 -80 -1 -79 -3 -77 -5 -77 -7 -76 -9 -75 -11 -75 -13 -74 -15 -74 -17 -72 -19 -72 -21 -72 -22 -72 -25 -70 -27 -70 -29 -70 -31 -70 -33 -69 -35 -68 -37 -69 -40 -68 -41 -67 -44 -67 -45 -67 -49 -67 -50 -66 -52 -66 -55 -66 -57 -65 -60 -65 -62 -65 -64 -68 -70 -70 -72 -62 -67 -60 -69 -57 -71 -57 -74 -54 -75 -52 -78 -51 -81 -48 -82 -47 -85 -45 -87 -43 -90 -42 -92 -38 -95 -38 -97 -35 -100 -34 -102 -32 -104 -29 -107 -28 -110 -26 -112 -23 -115 -22 -118 -19 -120 -18 -122 -15 -126 -14 -127 -11 -131 -9 -133 -7 -135 -5 -138 -3 -136 3 -131 5 -134 6 -131 9 -128 11 -126 12 -123 15 -120 17 -118 18 -115 21 -112 22 -109 24 -107 27 -105 27 -101 30 -98 32 -97 33 -93 35 -91 37 -87 38 -86 41 -83 41 -80 44 -78 45 -75 47 -73 49 -70 50 -68 51 -66 54 -63 55 -61 56 -59 60 -58 62 -57 63 -57 64 -54 64 -52 64 -50 65 -48 65 -46 66 -45 66 -42 66 -40 67 -39 67 -37 68 -34 68 -33 68 -31 69 -30 70 -27 70 -26 70 -24 72 -22 71 -21 72 -18 74 -17 73 -15 74 -14 75 -11 76 -10 76 -8 77 -6 78 -5 79 -3 80 -1 79 1 79 2 77 3 75 5 73 6 72 7 71 9 67 9 67 11 65 13 63 13 61 14 60 16 58 17 57 18 41 14 37 17 52 24 49 25 49 25 46 26 46 26 44 27 42 26 40 27 41 29 38 28 36 28 36 29 35 31 32 29 36 35 75 72 64 67 59 68 54 70 50 71 47 72 42 74 38 76 17 36 18 42 18 43 17 42 16 42 15 43 15 41 14 41 13 41 12 42 12 41 10 40 10 41 10 41 8 41 48 240 213 134 67 32 66 25 64 18 64 13 65 9 63 5 66 1 72 -3 78 -11 79 -19 78 -29 75 -38 70 -47 63 -54 187 -199 -39 -320 -13 -102 -12 -101 -11 -99 -11 -97 -10 -95 -10 -93 -9 -91 -9 -90 -8 -87 -8 -85 -8 -84 -7 -81 -6 -80 -6 -78 -5 -78 -6 -76 -5 -73 -5 -69 -4 -67 -5 -63 -3 -61 -5 -58 -3 -56 -3 -53 -4 -50 -3 -46 -2 -45 -3 -42 -2 -37 -2 -36 -22 -400z"
   id="path842"
   transform="translate(-95.23806,1904.760)" />


   <path
   style="font-size:12.000;fill:url(#linearGradient897);"
   d="M5850 10643c195,0 333,15 413,45 68,43 128,165 185,366l689 2043c105,306 133,506 85,604 -48,112 -208,177 -481,198l-330 45c-38,47 -53,115 -43,200 0,103 28,178 88,225 548,-30 1147,-42 1795,-42 709,0 1337,12 1886,42 62,-47 95,-122 95,-225 -10,-85 -48,-153 -110,-200l-213 -45c-351,-53 -591,-158 -719,-316 -132,-150 -275,-463 -433,-932l-2096 -6300c-213,-696 -431,-1382 -653,-2063 -48,-78 -131,-118 -248,-118 -20,10 -126,115 -321,315 -193,191 -426,326 -696,404 27,250 -63,616 -278,1094l-1996 5354c-298,821 -536,1432 -711,1835 -98,231 -200,396 -305,499 -118,97 -283,165 -496,197l-434 76c-40,67 -60,137 -60,215 0,93 25,163 73,210 493,-30 977,-42 1445,-42 581,10 1104,22 1567,42 61,-37 98,-107 118,-210 0,-95 -30,-168 -87,-215l-441 -76c-268,-32 -421,-105 -458,-212 -48,-123 0,-389 142,-802l599 -1800c60,-201 115,-323 163,-366 47,-30 157,-45 333,-45l1933 0zm-1698 -676c-165,10 -263,-10 -293,-58 -40,-50 -20,-175 58,-375l611 -1763c137,-363 240,-639 308,-824 55,-200 97,-323 127,-368l28 0c52,55 190,451 413,1192l611 1808c58,170 68,275 30,315 -50,48 -175,73 -378,73l-1515 0z"
   id="path844"
   transform="translate(-95.23806,1904.760)" />


   <path
   style="font-size:12.000;fill:url(#linearGradient896);"
   d="M12015 12166c0,763 -50,1237 -148,1417 -105,190 -328,295 -666,316l-320 45c-38,47 -58,120 -58,215 0,103 28,173 88,210 661,-30 1319,-45 1975,-45 561,10 1165,25 1806,45 1600,0 2705,-280 3321,-844 333,-288 573,-608 721,-961 112,-338 170,-684 170,-1034 -20,-852 -268,-1483 -746,-1896 -494,-401 -1032,-641 -1618,-719 -83,-27 -123,-60 -123,-95 0,-40 30,-68 88,-88 1082,-370 1630,-1006 1650,-1908 0,-919 -340,-1570 -1024,-1950 -318,-201 -719,-336 -1202,-404 -491,-72 -1039,-110 -1653,-110 -1585,10 -2692,55 -3323,140 -60,38 -87,98 -87,176 0,92 22,173 72,240l376 45c340,0 543,110 608,331 73,210 103,666 93,1372l0 5502zm1745 -2487c-10,-150 25,-255 106,-315 75,-48 260,-73 558,-73 1708,30 2579,851 2617,2466 -10,662 -193,1157 -551,1490 -366,348 -809,521 -1325,521 -598,0 -984,-152 -1157,-463 -175,-303 -258,-789 -248,-1460l0 -2166zm0 -4087c-10,-288 30,-475 118,-558 85,-48 298,-73 644,-73 463,0 879,143 1239,426 373,288 564,764 574,1422 10,1292 -644,1928 -1961,1908 -266,0 -436,-25 -508,-72 -81,-40 -116,-150 -106,-331l0 -2722z"
   id="path846"
   transform="translate(-95.23806,1904.760)" />


   <path
   style="font-size:12.000;fill:url(#linearGradient898);"
   d="M 29027.76 6492.760 C 28910.76 6472.760 28774.76 6442.760 28622.76 6404.760 C 27853.76 6194.760 27012.76 6084.760 26098.76 6074.760 C 24568.76 6074.760 23228.76 6500.760 22081.76 7351.760 C 20894.76 8222.760 20283.76 9547.760 20245.76 11328.76 C 20255.76 12302.76 20458.76 13133.76 20856.76 13822.76 C 21237.76 14518.76 21723.76 15064.76 22314.76 15467.76 C 23363.76 16146.76 24605.76 16481.76 26040.76 16471.76 C 26533.76 16461.76 26997.76 16411.76 27427.76 16318.76 C 27845.76 16228.76 28141.76 16161.76 28316.76 16113.76 C 28476.76 16058.76 28644.76 16013.76 28820.76 15973.76 C 28940.76 15813.76 29077.76 15515.76 29233.76 15084.76 C 29375.76 14663.76 29471.76 14200.76 29518.76 13692.76 C 29488.76 13611.76 29428.76 13566.76 29333.76 13551.76 C 29243.76 13531.76 29160.76 13559.76 29082.76 13631.76 C 28990.76 13872.76 28862.76 14117.76 28707.76 14365.76 C 28549.76 14626.76 28351.76 14871.76 28108.76 15099.76 C 27875.76 15319.76 27590.76 15502.76 27249.76 15642.76 C 26906.76 15795.76 26503.76 15870.76 26040.76 15870.76 C 25066.76 15870.76 24204.76 15474.76 23451.76 14681.76 C 22652.76 13889.76 22244.76 12697.76 22226.76 11107.76 C 22244.76 9562.760 22632.76 8433.760 23386.76 7724.760 C 24127.76 7025.760 24978.76 6675.760 25942.76 6675.760 C 26416.76 6675.760 26829.76 6738.760 27179.76 6865.760 C 27505.76 7008.760 27775.76 7183.760 27988.76 7394.760 C 28216.76 7604.760 28391.76 7839.760 28514.76 8097.760 C 28634.76 8358.760 28717.76 8616.760 28764.76 8869.760 C 28822.76 8909.760 28905.76 8929.760 29012.76 8929.760 C 29108.76 8929.760 29180.76 8896.760 29233.76 8833.760 C 29163.76 8265.760 29113.76 7777.760 29085.76 7364.760 C 29055.76 6953.760 29037.76 6662.760 29027.76 6492.760 z "
   id="path848" />


  
  
   <path
   style="font-size:12.000;fill:#004b00;"
   d="M3138 14175l10011 5813 16851 -19988 -15882 30000 -10980 -15825z"
   id="path853"
   transform="matrix(0.888889,0,0,0.888889,1872.477,1619.046)" />


   <path
   style="font-size:12.000;fill:url(#radialGradient915);"
   d="M13149 20957l13942 -16686 -13148 24231 -8692 -12303c1330,906 6601,3809 7898,4758z"
   id="path855"
   transform="matrix(0.888889,0,0,0.888889,1872.477,1619.046)" />


   <path
   style="font-size:12.000;fill:#ffffff;"
   d="M 15958.45 17804.83 L 24726.45 6793.269 L 13676.67 20227.05 L 15958.45 17804.83 z "
   id="path857" />


   <path
   style="font-size:12.000;fill:#007500;fill-opacity:0.4961;"
   d="M 14317.05 27031.37 L 11753.50 23529.15 L 14257.50 26112.26 L 22347.28 12464.26 L 14317.05 27031.37 z "
   id="path859" />


  
 
<path
   style="font-size:12.000;fill:url(#radialGradient917);fill-opacity:0.4961;shape-rendering:geometricPrecision;text-rendering:geometricPrecision;image-rendering:optimizeQuality;fill-rule:evenodd;"
   d="M 13936.10 21888.51 C 12238.36 22037.24 10671.51 19204.49 6801.124 16195.81 L 13400.36 20207.49 L 25204.43 6178.542 C 17226.10 16621.55 17358.30 21396.74 13936.10 21888.51 z "
   id="path916"
   sodipodi:nodetypes="ccccs" />

</svg>
