<?xml version="1.0" encoding="UTF-8" standalone="no"?>
<!DOCTYPE svg PUBLIC "-//W3C//DTD SVG 20010904//EN"
"http://www.w3.org/TR/2001/REC-SVG-20010904/DTD/svg10.dtd">
<!-- Created with Sodipodi ("http://www.sodipodi.com/") -->
<svg
   xml:space="preserve"
   width="30mm"
   height="30mm"
   shape-rendering="geometricPrecision"
   text-rendering="geometricPrecision"
   image-rendering="optimizeQuality"
   fill-rule="evenodd"
   viewBox="0 0 30000 30000"
   id="svg559"
   sodipodi:version="0.34-pre"
   sodipodi:docname="/home/david/.themes/eXperience/icons/trash-empty.svg"
   sodipodi:docbase="/home/david/.themes/eXperience/icons/"
   xmlns="http://www.w3.org/2000/svg"
   xmlns:sodipodi="http://sodipodi.sourceforge.net/DTD/sodipodi-0.dtd"
   xmlns:xml="http://www.w3.org/XML/1998/namespace"
   xmlns:xlink="http://www.w3.org/1999/xlink"><defs
   id="defs672"><linearGradient
   id="linearGradient786">
    <stop
   offset="0"
   style="stop-color:#ffffff;stop-opacity:0;"
   id="stop790" />


    <stop
   offset="1"
   style="stop-color:#326fff;stop-opacity:1.0000;"
   id="stop794" />


  </linearGradient>
<linearGradient
   id="linearGradient745">
    <stop
   offset="0"
   style="stop-color:#ffffff;stop-opacity:0.9608;"
   id="stop747" />


    <stop
   offset="1"
   style="stop-color:#055fff;stop-opacity:0.6039;"
   id="stop749" />


  </linearGradient>

<linearGradient
   id="linearGradient739">
    <stop
   offset="0"
   style="stop-color:#000000;stop-opacity:0.4353;"
   id="stop741" />


    <stop
   offset="1"
   style="stop-color:#000000;stop-opacity:0.0824;"
   id="stop743" />


  </linearGradient>


  <linearGradient
   id="linearGradient816">
    <stop
   offset="0"
   style="stop-color:#ffffff;stop-opacity:0.8863;"
   id="stop817" />


    <stop
   offset="1"
   style="stop-color:#ffffff;stop-opacity:0.5216;"
   id="stop818" />


  </linearGradient>


  <linearGradient
   id="linearGradient813">
    <stop
   offset="0"
   style="stop-color:#ffffff;stop-opacity:0.7294;"
   id="stop814" />


    <stop
   offset="1"
   style="stop-color:#a7caff;stop-opacity:0;"
   id="stop815" />


  </linearGradient>


  <linearGradient
   id="linearGradient810">
    <stop
   offset="0"
   style="stop-color:#ffffff;stop-opacity:0.8431;"
   id="stop811" />


    <stop
   offset="1"
   style="stop-color:#a7caff;stop-opacity:0.0706;"
   id="stop812" />


  </linearGradient>


  <linearGradient
   id="linearGradient791">
    <stop
   offset="0"
   style="stop-color:#ffffff;stop-opacity:0.4471;"
   id="stop793" />


    <stop
   offset="1"
   style="stop-color:#a7caff;stop-opacity:0.7922;"
   id="stop792" />


  </linearGradient>


  <linearGradient
   id="linearGradient787">
    <stop
   offset="0"
   style="stop-color:#ffffff;stop-opacity:1.0000;"
   id="stop789" />


    <stop
   offset="1"
   style="stop-color:#a7caff;stop-opacity:1.0000;"
   id="stop788" />


  </linearGradient>


  <linearGradient
   id="linearGradient784">
    <stop
   offset="0"
   style="stop-color:#ffffff;stop-opacity:1.0000;"
   id="stop786" />


    <stop
   offset="1"
   style="stop-color:#a7caff;stop-opacity:1.0000;"
   id="stop785" />


  </linearGradient>


  <linearGradient
   id="linearGradient781">
    <stop
   offset="0"
   style="stop-color:#ffffff;stop-opacity:0.6039;"
   id="stop783" />


    <stop
   offset="1"
   style="stop-color:#a7caff;stop-opacity:0.4275;"
   id="stop782" />


  </linearGradient>


  <defs
   id="defs563">
   <linearGradient
   id="id0"
   gradientUnits="userSpaceOnUse"
   x1="15228"
   y1="21790"
   x2="25198"
   y2="-941.000000"
   spreadMethod="pad"
   xlink:href="#linearGradient791">
    
    
   </linearGradient>



   <linearGradient
   id="id1"
   gradientUnits="userSpaceOnUse"
   x1="15314"
   y1="21594"
   x2="25112"
   y2="-744.000000"
   spreadMethod="pad"
   xlink:href="#linearGradient787">
    
    
   </linearGradient>



   <linearGradient
   id="id2"
   gradientUnits="userSpaceOnUse"
   x1="19512"
   y1="10284"
   x2="11834"
   y2="23519"
   spreadMethod="pad"
   xlink:href="#linearGradient781">
    
    
   </linearGradient>



   <linearGradient
   id="id3"
   gradientUnits="userSpaceOnUse"
   x1="4274"
   y1="6960"
   x2="7796"
   y2="18112"
   spreadMethod="pad"
   xlink:href="#linearGradient784">
    
    
   </linearGradient>



  </defs>


  <linearGradient
   xlink:href="#linearGradient786"
   id="linearGradient790"
   x1="0.34183669"
   y1="0.54687536"
   x2="0.14795916"
   y2="7.03125596e-2" />


  <linearGradient
   xlink:href="#linearGradient816"
   id="linearGradient794"
   x1="0.37313432"
   y1="0.24218790"
   x2="0.37313432"
   y2="0.36718750" />


  <linearGradient
   xlink:href="#linearGradient781"
   id="linearGradient795"
   x1="0.91044778"
   y1="0.88281250"
   x2="2.98507661e-2"
   y2="1.56250019e-2" />


  <linearGradient
   xlink:href="#linearGradient745"
   id="linearGradient796"
   x1="0.49999985"
   y1="0.49999985"
   x2="0.49999994"
   y2="0.49999994" />


  <radialGradient
   xlink:href="#linearGradient745"
   id="radialGradient797"
   cx="0.91549295"
   cy="1.56250168e-2"
   r="1.15901101"
   fx="0.91549295"
   fy="1.56250168e-2" />


  <radialGradient
   xlink:href="#linearGradient813"
   id="radialGradient798"
   cx="9.18367207e-2"
   cy="0.14062619"
   r="0.98274809"
   fx="9.18367207e-2"
   fy="0.14062619" />


  <linearGradient
   xlink:href="#linearGradient745"
   id="linearGradient799"
   x1="0.49999985"
   y1="0.49999985"
   x2="0.49999994"
   y2="0.49999994" />


  <linearGradient
   xlink:href="#linearGradient745"
   id="linearGradient800"
   x1="0.49999985"
   y1="0.49999985"
   x2="0.49999994"
   y2="0.49999994" />


  <linearGradient
   xlink:href="#linearGradient745"
   id="linearGradient801"
   x1="0.49999985"
   y1="0.49999985"
   x2="0.49999994"
   y2="0.49999994" />


  <linearGradient
   xlink:href="#linearGradient745"
   id="linearGradient802"
   x1="-1.60572220e7"
   y1="-1.60572230e7"
   x2="-4014305.50"
   y2="-4014305.75"
   gradientTransform="scale(-0.649868,-1.538774)" />


  <linearGradient
   xlink:href="#linearGradient745"
   id="linearGradient803"
   x1="0.49999985"
   y1="0.49999985"
   x2="0.49999994"
   y2="0.49999994" />


  <linearGradient
   xlink:href="#linearGradient745"
   id="linearGradient804"
   x1="0.49999985"
   y1="0.49999985"
   x2="0.49999994"
   y2="0.49999994" />


  <linearGradient
   xlink:href="#linearGradient745"
   id="linearGradient805"
   x1="0.49999985"
   y1="0.49999985"
   x2="0.49999994"
   y2="0.49999994" />


  <linearGradient
   xlink:href="#linearGradient745"
   id="linearGradient806"
   x1="0.49999985"
   y1="0.49999985"
   x2="0.49999994"
   y2="0.49999994" />


  <linearGradient
   xlink:href="#linearGradient791"
   id="linearGradient807"
   x1="7594.70215"
   y1="28856.4648"
   x2="24126.5566"
   y2="22819.1934" />


  <linearGradient
   xlink:href="#linearGradient791"
   id="linearGradient808"
   x1="7594.70215"
   y1="28856.4648"
   x2="24126.5566"
   y2="22819.1934" />


  <linearGradient
   xlink:href="#linearGradient791"
   id="linearGradient809"
   x1="7594.70215"
   y1="28856.4648"
   x2="24126.5566"
   y2="22819.1934" />


<radialGradient
   xlink:href="#linearGradient739"
   id="radialGradient738"
   cx="0.52280104"
   cy="0.54796278"
   r="0.43762705"
   fx="0.52280104"
   fy="0.54796278" />

<radialGradient
   xlink:href="#linearGradient745"
   id="radialGradient751"
   cx="9.18367207e-2"
   cy="0.14062621"
   r="0.98274809"
   fx="9.18367207e-2"
   fy="0.14062621" />

<radialGradient
   xlink:href="#linearGradient745"
   id="radialGradient752"
   cx="0.49999997"
   cy="0.49999997"
   r="0.50000000"
   fx="0.49999997"
   fy="0.49999997" />

<radialGradient
   xlink:href="#linearGradient745"
   id="radialGradient753"
   cx="0.49999997"
   cy="0.49999997"
   r="0.50000000"
   fx="0.49999997"
   fy="0.49999997" />

<radialGradient
   xlink:href="#linearGradient745"
   id="radialGradient754"
   cx="0.49999997"
   cy="0.49999997"
   r="0.50000000"
   fx="0.49999997"
   fy="0.49999997" />

<radialGradient
   xlink:href="#linearGradient745"
   id="radialGradient755"
   cx="0.49999997"
   cy="0.49999997"
   r="0.50000000"
   fx="0.49999997"
   fy="0.49999997" />

<radialGradient
   xlink:href="#linearGradient745"
   id="radialGradient756"
   cx="0"
   cy="0"
   r="6.73488747e13"
   fx="0"
   fy="0"
   gradientTransform="scale(-0.649868,-1.538774)" />

<radialGradient
   xlink:href="#linearGradient745"
   id="radialGradient757"
   cx="0.49999997"
   cy="0.49999997"
   r="0.50000000"
   fx="0.49999997"
   fy="0.49999997" />

<radialGradient
   xlink:href="#linearGradient745"
   id="radialGradient758"
   cx="0.49999997"
   cy="0.49999997"
   r="0.50000000"
   fx="0.49999997"
   fy="0.49999997" />

<radialGradient
   xlink:href="#linearGradient745"
   id="radialGradient759"
   cx="0.49999997"
   cy="0.49999997"
   r="0.50000000"
   fx="0.49999997"
   fy="0.49999997" />

<radialGradient
   xlink:href="#linearGradient745"
   id="radialGradient760"
   cx="0.49999997"
   cy="0.49999997"
   r="0.50000000"
   fx="0.49999997"
   fy="0.49999997" />

</defs>
<path
   fill="url(#id3)"
   fill-opacity="0.501961"
   d="M 3273.761 18497.51 L 730.8855 7072.852 C 33.81675 3823.190 7227.492 4416.923 11873.11 6812.698 C 14022.33 7920.395 18095.96 8227.685 21554.11 7472.604 C 21836.71 11045.04 18712.90 16306.67 12416.76 12885.73 C 6997.817 9893.875 4394.146 15288.19 3273.761 18497.51 z "
   id="path785"
   style="font-size:12.000;fill:url(#linearGradient790);fill-opacity:0.501961;"
   sodipodi:nodetypes="ccccsc" />






 
  
  


  


  <path
   fill="#ffffff"
   fill-opacity="0.788235"
   d="M 14259.82 19790.51 C 20022.20 18955.65 25062.12 20144.03 25478.19 22437.37 C 25894.26 24729.81 21534.17 27281.50 15771.80 28116.34 C 10008.51 28952.10 4969.498 27762.84 4553.431 25470.39 C 4137.366 23177.04 8497.444 20625.36 14259.82 19790.51 z "
   id="path779"
   style="font-size:12.000;fill:#6ecdff;fill-opacity:0.3071;" />





  
  
  


  


  


 


<sodipodi:namedview
   id="base"
   pagecolor="#ff006d" />

<path
   sodipodi:type="arc"
   style="fill-rule:evenodd;stroke:none;fill:url(#radialGradient738);fill-opacity:1;stroke-opacity:1;stroke-width:1pt;stroke-linejoin:miter;stroke-linecap:butt;"
   id="path737"
   d="M 28823.05 29730.63 A 11313.72 3771.241 0 1 0 6195.608 29730.63 A 11313.72 3771.241 0 1 0  28823.05 29730.63 z"
   sodipodi:cx="17509.3281"
   sodipodi:cy="29730.6250"
   sodipodi:rx="11313.7197"
   sodipodi:ry="3771.24121"
   transform="matrix(0.963309,-0.173818,0.147172,1.137717,-6752.012,-5424.923)" />



 
  
  <path
   fill="url(#id0)"
   fill-opacity="0.619608"
   d="M 767.1439 6946.857 C 739.0437 8555.825 5363.808 7766.297 8032.430 7292.217 C 16083.62 5862.728 19933.71 967.7388 25808.04 1162.630 C 27200.24 1257.100 27785.03 2294.865 27545.62 2953.466 L 25500.84 22637.71 C 20509.87 16411.22 4534.396 21769.31 4568.842 25446.82 L 767.1439 6946.857 z "
   id="path594"
   style="font-size:12.000;fill:url(#radialGradient797);fill-opacity:0.619608;"
   sodipodi:nodetypes="ccccccc" />



  <path
   fill="#FFFFFF"
   fill-opacity="0.619608"
   d="M 1238.504 6885.216 C 1209.497 8494.185 5363.808 7765.390 8032.430 7292.217 C 16083.62 5862.728 19531.89 1055.608 25838.95 1193.547 C 27107.60 1221.294 27846.86 2016.597 27700.22 3386.328 C 27640.39 3938.362 27418.01 3454.162 27263.91 3816.747 C 27564.86 2236.783 26964.61 1550.492 25804.52 1528.031 C 19744.62 1410.701 16114.44 6379.412 8032.430 7620.355 C 4179.969 8212.275 912.1777 8566.701 704.5981 6862.554 L 1238.504 6885.216 z "
   id="path596"
   style="font-size:12.000;fill:#ffffff;fill-opacity:0.619608;"
   sodipodi:nodetypes="ccsccsccc" />



  <path
   fill="#ffffff"
   fill-opacity="0.788235"
   d="M 14259.82 19790.51 C 20022.20 18955.65 25062.12 20144.03 25478.19 22437.37 C 25894.26 24729.81 21534.17 27281.50 15771.80 28116.34 C 10008.51 28952.10 4969.498 27762.84 4553.431 25470.39 C 4137.366 23177.04 8497.444 20625.36 14259.82 19790.51 z "
   id="path598"
   style="font-size:12.000;fill:#6ecdff;fill-opacity:0.3071;" />


<path
   fill="url(#id2)"
   fill-opacity="0.380392"
   d="M 25501.76 22627.73 C 25652.23 24869.41 21374.64 27304.16 15770.89 28116.34 C 10008.51 28952.10 4766.450 26640.63 4553.431 25470.39 L 3630.655 20988.85 L 730.8855 7072.853 C 52.85245 3818.657 7232.025 4408.764 11873.11 6812.699 C 16021.98 8961.012 27246.69 8179.643 27610.18 2401.859 L 25501.76 22627.73 z "
   id="path602"
   style="font-size:12.000;fill:url(#linearGradient795);fill-opacity:0.380392;" />



  
  
  <path
   fill="url(#id3)"
   fill-opacity="0.501961"
   d="M 3273.761 18497.51 L 730.8855 7072.852 C 33.81675 3823.190 7227.492 4416.923 11873.11 6812.698 C 14022.33 7920.395 18095.96 8227.685 21554.11 7472.604 C 21836.71 11045.04 18712.90 16306.67 12416.76 12885.73 C 6997.817 9893.875 4394.146 15288.19 3273.761 18497.51 z "
   id="path604"
   style="font-size:12.000;fill:url(#radialGradient798);fill-opacity:0.501961;"
   sodipodi:nodetypes="ccccsc" />



  <g
   id="g606"
   style="font-size:12.000;"
   transform="matrix(0.906462,0,0,0.906462,552.3126,1189.924)">
   <defs
   id="defs608">
    <linearGradient
   id="id6"
   gradientUnits="userSpaceOnUse"
   x1="14066"
   y1="19997"
   x2="15434"
   y2="15650">
     <stop
   offset="0"
   stop-color="#3A9A12"
   id="stop612" />



     <stop
   offset="1"
   stop-color="#004B00"
   id="stop614" />



    </linearGradient>



    <linearGradient
   id="id7"
   gradientUnits="userSpaceOnUse"
   x1="18083"
   y1="19136"
   x2="23598"
   y2="22822">
     <stop
   offset="0"
   stop-color="#3A9A12"
   id="stop619" />



     <stop
   offset="1"
   stop-color="#004B00"
   id="stop621" />



    </linearGradient>



   </defs>



   <g
   id="g625">
    <defs
   id="defs627">
     <linearGradient
   id="id4"
   gradientUnits="userSpaceOnUse"
   x1="24415"
   y1="16060"
   x2="23048"
   y2="20407">
      <stop
   offset="0"
   stop-color="#3A9A12"
   id="stop631" />



      <stop
   offset="1"
   stop-color="#004B00"
   id="stop633" />



     </linearGradient>



     <linearGradient
   id="id5"
   gradientUnits="userSpaceOnUse"
   x1="20399"
   y1="16921"
   x2="14884"
   y2="13235">
      <stop
   offset="0"
   stop-color="#3A9A12"
   id="stop638" />



      <stop
   offset="1"
   stop-color="#EEF813"
   id="stop640" />



     </linearGradient>



    </defs>



    <path
   fill="#004B00"
   d="M24681 10575c-971,1221 -1478,1842 -1768,2162 5747,3663 1165,10041 -2315,11232 4392,-4694 2114,-8437 -95,-8565 -877,938 -1770,2044 -2580,3063 393,-2641 406,-3676 -138,-6352 1841,-395 3998,-786 6896,-1540z"
   id="path644" />



    <path
   fill="url(#id4)"
   d="M18230 12411c2129,-252 3316,-339 5183,-971 38,-13 -339,407 -1250,1411 5847,3182 2138,8876 -273,10017 2235,-3119 2329,-6968 -1523,-8078 -734,893 -360,280 -1672,1936 310,-1804 -626,-4578 -465,-4315z"
   id="path646" />



    <path
   fill="url(#id5)"
   d="M18230 12411c1965,-464 3540,-689 5281,-1090 38,-9 -437,526 -1348,1530 975,806 1273,1782 1639,2698l-1322 246c-498,-753 -945,-627 -2113,-1005 -734,893 -299,332 -1672,1936 -51,-2378 -172,-2479 -465,-4315z"
   id="path648" />



   </g>



   <path
   fill="#004B00"
   d="M13801 25482c971,-1221 1478,-1841 1768,-2162 -5748,-3662 -1165,-10041 2315,-11231 -4392,4693 -2114,8436 95,8564 877,-938 1770,-2043 2580,-3062 -393,2641 -406,3676 138,6352 -1841,394 -3998,786 -6896,1539z"
   id="path651" />



   <path
   fill="url(#id6)"
   d="M20252 23646c-2129,252 -3316,339 -5183,971 -38,13 339,-407 1250,-1411 -5848,-3181 -2139,-8875 273,-10016 -2235,3118 -2329,6968 1523,8077 734,-893 360,-280 1672,-1936 -310,1804 626,4578 465,4315z"
   id="path653" />



   <path
   fill="url(#id7)"
   d="M20252 23646c-1965,464 -3541,689 -5281,1090 -38,9 437,-526 1348,-1530 -975,-805 -1274,-1782 -1639,-2698l1322 -245c498,752 945,626 2113,1004 734,-893 299,-331 1672,-1936 51,2378 172,2479 465,4315z"
   id="path655" />



   <path
   fill="#FFFFFF"
   d="M18355 12435l614 -45c558,-77 1155,-172 1673,-232 -566,207 -1407,321 -2046,477 303,1560 561,3037 474,3475l-217 247c29,-1038 -93,-1774 -498,-3922z"
   id="path657" />



   <path
   fill="#FFFFFF"
   d="M15467 14007c-1238,1731 -2537,3505 -1687,6642 -1554,-3227 1029,-5905 1687,-6642z"
   id="path659" />



   <path
   fill="#FFFFFF"
   d="M22179 22428c865,-1826 1923,-2904 955,-5603 1415,2614 -247,4156 -955,5603z"
   id="path661" />



   <path
   fill="#FFFFFF"
   d="M18159 21383l1506 -1659c-325,511 -1011,1558 -1506,1659z"
   id="path663" />



   <path
   fill="#FFFFFF"
   d="M15155 24673l1228 -1366c-4,316 -319,743 -1228,1366z"
   id="path665" />



  </g>



  <path
   fill="#FFFFFF"
   fill-opacity="0.709804"
   d="M 730.8855 7072.852 C 52.85245 3818.657 7230.212 4411.484 11873.11 6812.698 C 16024.71 8958.292 27326.75 8253.463 27610.18 2247.268 C 27860.77 3281.391 27832.61 3768.828 26902.92 5065.168 C 24522.95 8340.579 15832.67 9195.867 11782.87 7113.484 C 8347.383 5342.259 3621.766 4833.342 1618.487 5860.364 C 1061.921 6144.993 1238.504 7141.745 1298.330 7431.813 L 5015.727 25533.84 C 5461.705 26768.44 8278.081 27937.77 12476.80 28380.13 C 8733.125 28439.96 5188.862 27589.70 4593.316 25620.86 L 730.8855 7072.852 z "
   id="path668"
   style="font-size:12.000;fill:url(#linearGradient794);fill-opacity:0.8504;"
   sodipodi:nodetypes="cccsccccccc" />



 
</svg>
