<?xml version="1.0" encoding="UTF-8" standalone="no"?>
<!DOCTYPE svg PUBLIC "-//W3C//DTD SVG 20010904//EN"
"http://www.w3.org/TR/2001/REC-SVG-20010904/DTD/svg10.dtd">
<!-- Created with Inkscape ("http://www.inkscape.org/") -->
<svg
   xml:space="preserve"
   width="30mm"
   height="30mm"
   shape-rendering="geometricPrecision"
   text-rendering="geometricPrecision"
   image-rendering="optimizeQuality"
   fill-rule="evenodd"
   viewBox="0 0 30000 30000"
   id="svg1393"
   sodipodi:version="0.32"
   sodipodi:docname="world.svg"
   sodipodi:docbase="/home/david/.themes/eXperience 0.6/icons"
   xmlns="http://www.w3.org/2000/svg"
   xmlns:sodipodi="http://sodipodi.sourceforge.net/DTD/sodipodi-0.dtd"
   xmlns:xml="http://www.w3.org/XML/1998/namespace"
   xmlns:xlink="http://www.w3.org/1999/xlink"
   xmlns:inkscape="http://www.inkscape.org/namespaces/inkscape"
   inkscape:version="0.37cvs"><defs
   id="defs1586"><linearGradient
   id="linearGradient1474"><stop
   offset="0"
   style="stop-color:#000000;stop-opacity:1.0000;"
   id="stop1479" />
<stop
   offset="0.27058801"
   style="stop-color:#7f7f7f;stop-opacity:1.0000;"
   id="stop1478" />
<stop
   offset="1"
   style="stop-color:#ffffff;stop-opacity:1.0000;"
   id="stop1476" />
</linearGradient>
<linearGradient
   id="linearGradient1471"><stop
   offset="0"
   style="stop-color:#000000;stop-opacity:1.0000;"
   id="stop1473" />
<stop
   offset="1"
   style="stop-color:#ffffff;stop-opacity:1.0000;"
   id="stop1472" />
</linearGradient>
<linearGradient
   id="linearGradient1468"><stop
   offset="0"
   style="stop-color:#000000;stop-opacity:1.0000;"
   id="stop1470" />
<stop
   offset="1"
   style="stop-color:#ffffff;stop-opacity:1.0000;"
   id="stop1469" />
</linearGradient>
<linearGradient
   id="linearGradient1465"><stop
   offset="0"
   style="stop-color:#000000;stop-opacity:1.0000;"
   id="stop1467" />
<stop
   offset="1"
   style="stop-color:#ffffff;stop-opacity:1.0000;"
   id="stop1466" />
</linearGradient>
<linearGradient
   id="linearGradient1461"><stop
   offset="0"
   style="stop-color:#000000;stop-opacity:1.0000;"
   id="stop1464" />
<stop
   offset="0.27058801"
   style="stop-color:#7f7f7f;stop-opacity:1.0000;"
   id="stop1463" />
<stop
   offset="1"
   style="stop-color:#ffffff;stop-opacity:1.0000;"
   id="stop1462" />
</linearGradient>
<linearGradient
   id="linearGradient775"><stop
   offset="0"
   style="stop-color:#000000;stop-opacity:0.5922;"
   id="stop777" />
<stop
   offset="1"
   style="stop-color:#fffffd;stop-opacity:0;"
   id="stop779" />
</linearGradient>
<linearGradient
   id="linearGradient763"><stop
   offset="0"
   style="stop-color:#ffffff;stop-opacity:1.0000;"
   id="stop765" />
<stop
   offset="1"
   style="stop-color:#fffffd;stop-opacity:0;"
   id="stop767" />
</linearGradient>
<linearGradient
   id="linearGradient1951"><stop
   offset="0"
   style="stop-color:#ffffff;stop-opacity:0;"
   id="stop1953" />
<stop
   offset="1"
   style="stop-color:#000066;stop-opacity:1.0000;"
   id="stop1952" />
</linearGradient>
<linearGradient
   id="linearGradient1947"><stop
   offset="0.69999999"
   style="stop-color:#4fab0f;stop-opacity:1.0000;"
   id="stop1949" />
<stop
   offset="1"
   style="stop-color:#ffff00;stop-opacity:1.0000;"
   id="stop1948" />
</linearGradient>
<linearGradient
   id="linearGradient1888"><stop
   offset="0"
   style="stop-color:#ffffff;stop-opacity:1.0000;"
   id="stop1890" />
<stop
   offset="1"
   style="stop-color:#2f82ff;stop-opacity:1.0000;"
   id="stop1889" />
</linearGradient>
<defs
   id="defs1471"><linearGradient
   id="id6"
   gradientUnits="userSpaceOnUse"
   x1="35919.0000"
   y1="31432"
   x2="10289"
   y2="20934"
   spreadMethod="pad"
   xlink:href="#linearGradient1471"></linearGradient>
<linearGradient
   id="id7"
   gradientUnits="userSpaceOnUse"
   x1="58883.0000"
   y1="30999"
   x2="12951"
   y2="24525"
   spreadMethod="pad"
   xlink:href="#linearGradient1468"></linearGradient>
<linearGradient
   id="id8"
   gradientUnits="userSpaceOnUse"
   x1="59299.0000"
   y1="31038"
   x2="8116"
   y2="23650"
   spreadMethod="pad"
   xlink:href="#linearGradient1465"></linearGradient>
<linearGradient
   id="id12"
   gradientUnits="userSpaceOnUse"
   x1="35692.0000"
   y1="27374"
   x2="14266"
   y2="6327"
   spreadMethod="pad"
   xlink:href="#linearGradient1461"></linearGradient>
<radialGradient
   id="id13"
   gradientUnits="userSpaceOnUse"
   cx="22616"
   cy="10061"
   r="7238"
   fx="22616"
   fy="10061"
   spreadMethod="pad"
   xlink:href="#linearGradient1888"></radialGradient>
<linearGradient
   id="id14"
   gradientUnits="userSpaceOnUse"
   x1="25775"
   y1="24639"
   x2="14921"
   y2="5412"
   spreadMethod="pad"
   xlink:href="#linearGradient1474"></linearGradient>
</defs>
<radialGradient
   xlink:href="#linearGradient1947"
   id="radialGradient1891"
   cx="7.48889474e-3"
   cy="3.02381627e-2"
   r="0.98844796"
   fx="7.48889474e-3"
   fy="3.02381627e-2"
   gradientTransform="scale(0.967621,1.033462)" />
<linearGradient
   xlink:href="#linearGradient1888"
   id="linearGradient1874"
   x1="0.61363637"
   y1="1.09606981"
   x2="0.45454544"
   y2="0.23580773"
   spreadMethod="reflect" />
<defs
   id="defs1399"><radialGradient
   id="id0"
   gradientUnits="userSpaceOnUse"
   cx="6796"
   cy="7295"
   r="17000"
   fx="6796"
   fy="7295"><stop
   offset="0"
   stop-color="#82ECFF"
   id="stop1403" />
<stop
   offset="1"
   stop-color="#003399"
   id="stop1405" />
</radialGradient>
<linearGradient
   id="id1"
   gradientUnits="userSpaceOnUse"
   x1="258"
   y1="11001"
   x2="2102"
   y2="19903"><stop
   offset="0"
   stop-color="#336699"
   id="stop1410" />
<stop
   offset="1"
   stop-color="#000066"
   id="stop1412" />
</linearGradient>
<linearGradient
   id="id2"
   gradientUnits="userSpaceOnUse"
   x1="4226"
   y1="2093"
   x2="5226"
   y2="6922"><stop
   offset="0"
   stop-color="#336699"
   id="stop1417" />
<stop
   offset="1"
   stop-color="#000066"
   id="stop1419" />
</linearGradient>
<linearGradient
   id="id3"
   gradientUnits="userSpaceOnUse"
   x1="8966"
   y1="-273"
   x2="19770"
   y2="26668"><stop
   offset="0"
   stop-color="#336699"
   id="stop1424" />
<stop
   offset="1"
   stop-color="#000066"
   id="stop1426" />
</linearGradient>
<linearGradient
   id="id4"
   gradientUnits="userSpaceOnUse"
   x1="3344.00000"
   y1="-2000.00000"
   x2="14780"
   y2="22379"
   spreadMethod="pad"
   xlink:href="#linearGradient1947"></linearGradient>
<linearGradient
   id="id5"
   gradientUnits="userSpaceOnUse"
   x1="324"
   y1="653.000000"
   x2="23820"
   y2="25930"
   spreadMethod="pad"
   xlink:href="#linearGradient1951"></linearGradient>
</defs>
<linearGradient
   xlink:href="#linearGradient775"
   id="linearGradient1950"
   x1="-6.01701799e-10"
   y1="-2.52566679e-8"
   x2="1"
   y2="-2.52566679e-8" />
<radialGradient
   xlink:href="#linearGradient763"
   id="radialGradient1954"
   cx="0.15909094"
   cy="8.59375447e-2"
   r="1.02894092"
   fx="0.15909094"
   fy="8.59375447e-2" />
<radialGradient
   xlink:href="#linearGradient763"
   id="radialGradient769"
   cx="0.53181821"
   cy="1.01351357"
   r="0.45497775"
   fx="0.53181821"
   fy="1.01351357" />
<radialGradient
   xlink:href="#linearGradient775"
   id="radialGradient781"
   cx="0.52941179"
   cy="0.52380931"
   r="0.42852393"
   fx="0.52941179"
   fy="0.52380931" />
<radialGradient
   xlink:href="#linearGradient775"
   id="radialGradient1005"
   cx="0.52520770"
   cy="0.37068740"
   r="0.93696791"
   fx="0.52520770"
   fy="0.37068740" />
</defs>
<path
   sodipodi:type="arc"
   style="fill-rule:evenodd;stroke:none;fill:url(#radialGradient781);fill-opacity:1;stroke-opacity:1;stroke-width:1pt;stroke-linejoin:miter;stroke-linecap:butt;"
   id="path774"
   d="M 21047.619141 29523.808594 A 8476.190430 2952.381836 0 1 0 4095.238281,29523.808594 A 8476.19 2952.38 0 1 0 21047.6 29523.8 L 12571.428711 29523.808594 z"
   sodipodi:cx="12571.4287"
   sodipodi:cy="29523.8086"
   sodipodi:rx="8476.19043"
   sodipodi:ry="2952.38184"
   transform="matrix(1.140252,0.000000,0.000000,1.006551,-440.7923,-2049.861)" />
<sodipodi:namedview
   id="base"
   inkscape:zoom="3.57481492"
   inkscape:cx="42.5196844"
   inkscape:cy="42.5196838"
   inkscape:window-width="400"
   inkscape:window-height="500"
   inkscape:window-x="1"
   inkscape:window-y="20" />
<circle
   fill="url(#id0)"
   cx="12072"
   cy="13291"
   r="11992"
   id="circle1444"
   style="font-size:12.000;fill:url(#id0);"
   transform="matrix(1.140252,0,0,1.140252,1238.095,-1028.117)" />
<path
   fill="url(#id1)"
   d="M 1550.524 11684.55 C 1593.853 11636.66 1641.744 11591.05 1689.635 11540.88 C 1787.696 11800.86 1882.337 12056.27 1988.381 12313.97 C 1474.127 13157.76 1845.849 14368.71 2094.424 15253.54 C 2324.755 16039.18 2573.330 16935.41 3067.060 17597.90 C 3429.660 18113.29 3637.186 18601.32 3654.289 19234.16 C 3655.430 20040.32 3694.198 20839.64 3694.198 21641.23 L 3636.045 21641.23 C 3457.026 21446.25 3444.483 21165.75 3305.372 20951.38 C 3225.555 20730.17 3056.797 20400.64 2891.461 20231.88 C 2819.625 20059.70 2604.117 19632.11 2465.006 19510.10 C 2324.755 19348.19 2349.841 19064.26 2216.431 18894.37 L 2218.712 18894.37 L 2256.340 18932.00 C 2256.340 18779.20 2086.442 18198.81 1995.222 18081.37 L 1997.503 18081.37 L 2033.991 18121.28 C 2033.991 17953.66 1849.270 17782.62 1849.270 17640.09 L 1886.898 17676.58 C 1886.898 17562.55 1776.294 17429.14 1776.294 17344.76 L 1812.782 17382.39 C 1812.782 17276.35 1729.543 17023.21 1663.409 16939.97 L 1664.549 16939.97 L 1701.037 16976.46 C 1701.037 16743.85 1653.147 16503.26 1620.079 16263.81 C 1642.884 15839.63 1628.061 15408.62 1628.061 14985.58 C 1628.061 14887.52 1590.433 14800.86 1527.719 14737.01 L 1591.573 14799.72 C 1591.573 14646.93 1555.085 14490.71 1555.085 14327.66 C 1575.609 14282.05 1591.573 14229.60 1591.573 14173.72 C 1591.573 13625.26 1686.214 12976.46 1565.347 12439.40 C 1593.853 12239.86 1650.866 11873.83 1550.524 11684.55 z "
   id="path1446"
   style="font-size:12.000;fill:url(#id1);" />
<path
   fill="url(#id2)"
   d="M 6750.074 4986.716 C 6717.007 4966.191 6686.220 4946.807 6652.013 4929.703 C 6613.244 5098.460 6536.847 5142.930 6439.926 5269.498 C 6336.163 5427.993 6280.290 5682.270 6222.138 5856.728 L 5460.449 5856.728 L 5460.449 5646.922 C 4958.738 5823.661 4479.832 6147.492 4015.749 6401.769 C 4146.878 6270.640 4327.038 6144.072 4411.417 5984.436 C 4493.515 5941.107 4650.870 5779.191 4690.779 5702.794 L 4681.657 5721.038 C 4851.554 5550 5207.313 5305.986 5148.020 5016.362 C 5598.420 4512.371 6119.515 4080.215 6614.384 3629.816 C 6853.837 3486.144 7154.864 3278.618 7361.249 3082.494 L 7341.865 3101.879 C 7380.634 3082.494 7418.262 3055.128 7449.049 3019.781 C 7588.160 2926.280 7768.320 2893.213 7892.607 2776.907 L 7884.625 2784.889 C 8226.701 2613.851 8496.941 2377.819 8884.626 2279.757 C 9086.451 2230.726 9201.617 2018.639 9136.622 1823.656 L 9247.227 1817.955 L 9247.227 2413.166 C 9105.835 2492.984 8962.164 2571.661 8823.053 2650.339 L 8979.267 2638.936 C 9037.420 2829.358 9077.329 2963.908 9152.586 3146.349 C 8504.922 3744.981 8173.109 4596.749 7461.592 5128.107 L 7257.487 5267.218 C 7080.747 5180.559 6917.691 5088.198 6750.074 4986.716 z M 4010.048 6405.189 L 4007.768 6405.189 "
   id="path1448"
   style="font-size:12.000;fill:url(#id2);" />
<path
   fill="url(#id3)"
   d="M 14381.78 11210.21 C 14500.36 11097.32 14653.16 10970.75 14825.34 10985.58 C 14647.46 10738.14 14384.06 10627.54 14217.58 10396.07 C 14230.12 10482.73 14333.89 10585.35 14371.52 10682.27 C 14419.41 10941.11 14282.58 11111.01 14020.32 11111.01 C 13616.67 11091.62 13607.55 10800.86 13441.07 10507.81 C 13403.44 10399.49 13376.08 10267.22 13438.79 10157.76 C 13218.72 10176.00 13091.01 10275.20 12947.34 10433.70 C 12420.54 10683.41 12119.52 11181.70 11613.25 11463.34 C 12479.84 11553.42 13356.69 11415.45 14227.84 11495.27 C 14207.32 11382.39 14308.80 11287.74 14381.78 11210.21 z M 10522.03 11303.71 L 10493.52 11188.54 C 10408.00 11154.34 10322.48 11122.41 10235.82 11090.48 C 10181.09 10620.70 10127.50 10146.36 10374.94 9716.482 C 10758.06 9161.179 11378.35 9255.820 11966.72 9279.765 C 12030.58 9120.130 11979.27 8979.879 11930.24 8823.664 C 11866.38 8614.998 11823.05 8407.472 11778.58 8191.965 L 11890.33 8177.141 L 11883.48 8053.994 L 11770.60 8068.817 C 11550.53 7857.871 11306.52 7531.759 11645.17 7282.043 C 11784.28 7141.792 11794.55 6868.132 12008.91 6795.156 C 11886.91 6584.209 11962.16 6450.800 12093.29 6263.798 C 12413.70 6253.536 12724.99 6197.664 13048.82 6185.121 C 13036.28 6401.769 13007.77 6584.209 13076.19 6787.174 C 13187.93 7097.323 13388.62 7363.001 13441.07 7695.955 C 13587.02 7618.418 13674.82 7534.039 13791.13 7417.733 C 13890.33 7382.386 13990.67 7347.038 14089.87 7315.111 C 14112.68 7166.878 14141.18 7019.785 14178.81 6878.394 C 13958.74 6552.282 13909.71 6370.982 13848.14 5981.016 L 14024.88 5778.051 C 14491.24 5315.108 15153.73 5165.735 15369.24 4497.547 C 15804.81 4312.827 16228.99 4140.649 16709.03 4138.368 C 17233.55 4161.173 17677.11 4393.785 18122.95 4651.482 C 18265.48 4596.749 18400.03 4528.334 18532.30 4455.358 C 17916.56 3954.787 17788.85 3456.497 18171.98 2751.821 L 18829.90 2751.821 C 18802.54 3033.464 18779.73 3311.685 18761.49 3594.468 C 18829.90 3662.883 18893.76 3734.719 18957.61 3805.414 L 18957.61 3806.555 L 19143.47 3806.555 C 18974.71 3175.995 18841.30 2549.997 18723.86 1905.754 L 19281.44 1947.943 C 19153.73 1892.071 19024.88 1836.199 18898.32 1779.186 C 18779.73 1504.385 18677.11 1228.445 18572.20 945.6619 C 27059.10 5931.985 24639.49 8024.348 28426.26 11672.01 L 28426.26 13139.51 C 28134.36 12986.72 28256.37 13112.15 27963.32 12963.92 L 27915.43 12831.65 C 27740.97 14032.33 27696.50 15241.00 27533.45 16441.68 C 27307.68 16500.98 27126.38 16563.69 26905.17 16650.35 C 26626.95 15847.61 26364.69 15032.33 26063.66 14239.86 L 26046.56 14197.67 C 25935.95 14196.53 25823.07 14197.67 25713.60 14196.53 C 25629.23 14088.20 25551.69 13979.88 25474.15 13867.00 C 25276.89 13407.47 24730.71 13756.39 24388.63 13835.07 C 24201.63 13872.70 24018.05 13897.78 23828.77 13904.62 C 25580.19 15393.79 22833.33 17113.29 21695.36 17814.55 C 21823.06 17828.23 21937.09 17784.90 22054.53 17737.01 C 22476.43 17551.15 22884.64 17438.27 23330.48 17308.28 C 23088.74 18487.30 22796.84 19394.94 21995.24 20309.42 C 21840.17 20482.74 21679.39 20646.93 21512.91 20806.57 C 20916.56 21377.84 20227.85 21894.37 20264.34 22776.93 C 20272.32 22998.13 20282.58 23217.06 20295.13 23438.27 C 20353.28 24400.65 19401.17 24640.10 18779.73 25117.86 C 18743.24 25267.24 18715.88 25421.17 18686.23 25572.82 C 18049.97 26015.24 17409.15 26596.77 16678.25 26847.63 C 15886.91 27095.06 15089.87 27022.09 14276.87 26982.18 C 14217.58 26824.82 14156.01 26665.19 14100.14 26506.69 C 13832.18 26309.43 13672.54 26137.25 13486.68 25860.17 C 13403.44 25331.09 12983.83 25027.78 12825.33 24530.63 L 12775.16 24350.47 C 12875.50 24209.08 12979.27 24073.39 13086.45 23934.28 L 13176.53 23934.28 C 13238.10 23774.65 13301.96 23616.15 13365.81 23455.38 C 13198.20 22523.79 12560.79 21828.24 12486.68 20874.99 C 12479.84 20661.76 12484.40 20451.95 12504.92 20241.01 C 12079.61 19783.76 11512.90 19613.87 10915.42 19528.35 C 10130.92 19432.57 8525.447 19467.91 8043.120 18759.82 C 7601.843 18121.28 6816.209 17221.62 6882.344 16408.62 C 6988.387 15172.58 7364.670 14204.51 8062.505 13179.42 C 8347.568 12766.65 8967.865 12661.75 9349.849 12342.48 C 9419.405 12039.17 9581.321 11856.73 9778.584 11626.40 C 10006.63 11544.30 10348.71 11488.43 10522.03 11303.71 z M 15516.33 7357.300 C 15658.86 7328.794 15791.13 7269.501 15925.68 7218.189 C 15962.17 7064.255 16003.22 6911.461 16045.41 6758.668 C 16152.59 6756.387 16266.61 6762.088 16373.80 6750.686 C 16373.80 6711.917 16373.80 6673.149 16373.80 6633.240 L 16251.79 6649.203 L 16150.31 6461.062 C 15990.67 6787.174 15804.81 7128.109 15516.33 7357.300 z M 18891.48 4262.656 L 18930.24 4245.552 L 18930.24 3994.696 L 18891.48 4262.656 z M 23208.47 13856.73 C 22984.98 13812.26 22762.63 13742.71 22563.09 13634.38 C 22625.80 13690.26 22688.51 13744.99 22751.23 13799.72 C 22759.21 13946.81 22820.78 13970.76 22910.86 14080.22 C 22942.79 14077.94 22977.00 14075.66 23010.07 14075.66 C 23056.82 13989.00 23124.09 13910.32 23208.47 13856.73 z M 14333.89 11748.41 C 14396.60 11943.39 14473.00 12171.44 14358.97 12364.14 C 14761.48 12690.25 15300.82 13034.61 15794.55 13191.97 C 15842.44 13064.26 15894.89 12938.83 15948.48 12812.26 C 16926.82 12789.46 17892.61 13040.31 18864.11 12967.34 C 19013.48 12695.96 18964.45 12373.26 18947.35 12079.08 C 18588.17 12106.45 18272.32 12141.79 17926.82 12238.71 C 17452.48 12038.03 17267.76 11775.77 17178.82 11276.34 L 17036.28 11287.74 C 17018.04 11459.92 17003.22 11634.38 16984.97 11809.98 C 16759.20 11755.25 16544.84 11706.22 16315.65 11666.31 C 16191.36 11416.59 16089.88 11239.85 16057.95 10977.60 C 15941.64 11077.94 15832.18 11205.65 15674.82 11231.87 C 15516.33 11496.41 15257.49 11499.83 15109.26 11727.88 C 15071.63 11787.18 15032.86 11845.33 14990.67 11901.20 C 14767.18 12168.02 14493.52 11978.74 14333.89 11748.41 z M 21428.54 23309.42 C 21544.84 23177.15 21666.85 23050.59 21790.00 22921.74 L 22479.85 22921.74 C 22263.20 23580.80 22039.71 23955.95 21615.54 24494.15 C 21272.32 24926.30 20912.00 25298.02 20484.41 25651.50 C 20315.65 25556.86 20161.72 25475.90 19986.12 25396.09 C 20004.36 24993.58 20019.18 24791.75 20284.86 24481.60 C 20563.08 24060.85 20707.90 23816.84 21167.42 23555.72 C 21279.16 23495.28 21341.88 23405.21 21428.54 23309.42 z M 8884.626 7250.116 L 9126.360 7286.604 C 9165.129 7482.728 9210.739 7674.290 9260.910 7868.133 C 9200.476 8017.506 9156.007 8152.056 9111.537 8308.270 C 8954.182 8332.216 8797.967 8357.301 8640.612 8388.088 C 8264.329 8465.625 7866.381 8357.301 7488.958 8300.289 L 7236.962 8049.433 L 7304.237 7259.238 C 7384.055 7229.592 7462.732 7195.384 7543.690 7166.878 C 7811.649 7085.920 8032.858 7404.050 8213.018 7350.459 L 8213.018 7146.353 C 8437.648 7180.561 8659.997 7218.189 8884.626 7250.116 z M 18531.16 9897.782 C 18412.57 9880.678 18297.40 9844.190 18179.96 9807.702 C 18067.07 9976.459 17970.15 10217.05 17999.80 10425.71 C 18228.99 10364.14 18458.18 10308.27 18690.79 10251.26 C 19015.76 10176.00 19382.92 10437.12 19726.14 10376.68 C 19511.77 10171.44 19206.18 10065.40 18974.71 9870.416 C 18825.34 9910.325 18682.81 9918.307 18531.16 9897.782 z M 21162.86 9482.730 C 21171.98 9526.060 21221.01 9564.828 21252.94 9594.475 C 21422.84 9756.391 21527.74 9991.283 21699.92 10122.41 C 21531.16 9823.666 21382.93 9520.359 21287.15 9190.826 C 21215.31 9264.942 21145.75 9370.986 21162.86 9482.730 z M 21864.11 10410.89 C 21878.94 10599.03 21897.18 10786.03 21915.42 10975.32 C 21994.10 10981.02 22075.06 10990.14 22152.60 10994.70 C 22070.50 10794.02 21970.16 10599.03 21864.11 10410.89 z M 20517.47 16637.81 L 20714.74 16937.69 C 20576.77 16589.92 20404.59 16256.96 20210.75 15937.69 C 20234.69 16271.79 20337.31 16365.29 20517.47 16637.81 z "
   id="path1450"
   style="font-size:12.000;fill:url(#id3);" />
<path
   fill="#FFFFFF"
   d="M 12732.97 2011.798 C 12947.34 1914.876 13011.19 1760.942 13267.75 1717.613 C 13274.59 1664.021 13289.42 1607.008 13304.24 1559.117 C 13754.64 1372.116 13754.64 1372.116 13796.83 1286.597 C 13796.83 1095.035 13699.91 994.6928 13699.91 801.9901 C 13845.86 801.9901 13942.78 705.0687 14283.72 705.0687 C 14283.72 669.7209 14283.72 634.3731 14283.72 607.0070 C 14601.85 607.0070 14921.12 607.0070 15241.53 607.0070 C 16340.73 808.8316 17250.65 829.3562 18189.08 1239.847 C 18320.21 1580.782 18501.51 1691.387 18577.91 2058.548 C 18528.87 2058.548 18480.98 2058.548 18433.09 2058.548 C 18433.09 2107.579 18433.09 2156.610 18433.09 2205.640 C 18077.33 2246.690 17723.86 2295.720 17369.24 2343.611 C 17369.24 2392.642 17369.24 2442.813 17369.24 2490.704 C 17145.75 2511.228 17145.75 2511.228 16645.18 2732.437 C 16047.69 2698.229 15658.86 2587.625 15054.53 2636.656 C 15054.53 2685.687 15054.53 2732.437 15054.53 2783.748 C 14825.34 2760.943 14596.14 2747.260 14372.66 2732.437 C 13379.50 3776.908 11996.37 3859.006 10731.83 3914.879 C 9815.072 4247.832 9815.072 4247.832 9632.632 4212.484 C 9730.694 3295.722 12114.96 2545.436 12732.97 2011.798 z "
   id="path1452"
   style="font-size:12.000;fill:#ffffff;" />
<path
   fill="#336699"
   d="M 18443.36 1139.505 C 18519.75 1321.945 18636.06 1479.300 18723.86 1652.618 C 18829.90 1871.547 18867.53 2098.457 18923.40 2333.349 L 18705.61 2333.349 L 18705.61 2447.374 C 18352.14 2490.704 17996.38 2534.033 17641.76 2581.924 L 17641.76 2739.279 C 17238.11 2776.907 17072.77 2844.182 16697.63 3009.518 C 16239.25 2982.152 15786.57 2897.774 15328.19 2897.774 L 15328.19 3080.214 C 15045.40 3055.128 14763.76 3030.043 14479.84 3015.220 C 13507.20 3994.696 12089.87 4128.106 10786.57 4188.539 C 10438.79 4312.827 9979.269 4555.700 9599.565 4486.145 L 9314.502 4430.273 C 9377.215 4095.038 9415.984 3889.793 9618.949 3622.974 C 10437.65 2700.510 11761.48 2405.185 12737.53 1689.106 C 12901.73 1562.538 13018.04 1557.977 13076.19 1357.293 C 13218.72 1298 13362.39 1240.987 13503.78 1175.993 C 13450.19 1014.077 13434.23 881.8078 13426.25 730.1542 C 13821.91 781.4656 14246.09 748.3983 14648.60 748.3983 L 14593.86 694.8064 L 14598.43 694.8064 C 14695.35 767.7826 15189.08 839.6185 15352.13 839.6185 C 15571.06 839.6185 15791.13 856.7222 16008.92 856.7222 L 16007.78 855.5820 C 16166.27 863.5638 16321.35 911.4543 16484.40 911.4543 L 16473.00 905.7531 C 16551.68 905.7531 16640.62 928.5581 16725.00 928.5581 L 16697.63 900.0518 C 16824.20 894.3506 17007.78 1000.394 17159.43 1000.394 C 17417.13 1000.394 17656.58 1071.090 17914.28 1071.090 L 17883.49 1056.266 C 17992.96 1107.578 18210.74 1125.822 18335.03 1125.822 L 18252.93 1042.583 C 18304.25 1092.754 18369.24 1126.962 18443.36 1139.505 z "
   id="path1454"
   style="font-size:12.000;fill:#336699;" />
<path
   fill="#FFFFFF"
   d="M 12732.97 2011.798 C 12947.34 1914.876 13011.19 1760.942 13267.75 1717.613 C 13274.59 1664.021 13289.42 1607.008 13304.24 1559.117 C 13754.64 1372.116 13754.64 1372.116 13796.83 1286.597 C 13796.83 1095.035 13699.91 994.6928 13699.91 801.9901 C 13845.86 801.9901 13942.78 705.0687 14283.72 705.0687 C 14283.72 669.7209 14283.72 634.3731 14283.72 607.0070 C 14601.85 607.0070 14921.12 607.0070 15241.53 607.0070 C 16340.73 808.8316 17250.65 829.3562 18189.08 1239.847 C 18320.21 1580.782 18501.51 1691.387 18577.91 2058.548 C 18528.87 2058.548 18480.98 2058.548 18433.09 2058.548 C 18433.09 2107.579 18433.09 2156.610 18433.09 2205.640 C 18077.33 2246.690 17723.86 2295.720 17369.24 2343.611 C 17369.24 2392.642 17369.24 2442.813 17369.24 2490.704 C 17145.75 2511.228 17145.75 2511.228 16645.18 2732.437 C 16047.69 2698.229 15658.86 2587.625 15054.53 2636.656 C 15054.53 2685.687 15054.53 2732.437 15054.53 2783.748 C 14825.34 2760.943 14596.14 2747.260 14372.66 2732.437 C 13379.50 3776.908 11996.37 3859.006 10731.83 3914.879 C 9815.072 4247.832 9815.072 4247.832 9632.632 4212.484 C 9730.694 3295.722 12114.96 2545.436 12732.97 2011.798 z "
   id="path1456"
   style="font-size:12.000;fill:#ffffff;" />
<path
   fill="url(#id4)"
   d="M 1419.395 15748.41 L 1604.116 14416.60 C 1815.062 15456.51 2153.717 16562.55 2648.587 17503.26 C 3802.522 18920.59 3184.506 19351.61 3419.398 20879.55 C 3419.398 21040.32 3419.398 21201.10 3419.398 21365.29 C 3370.367 21365.29 3324.757 21365.29 3274.585 21365.29 C 2648.587 20059.70 2648.587 20059.70 1898.301 18148.64 C 1808.221 17774.64 1669.110 15917.17 1419.395 15748.41 z M 4240.379 5965.052 C 5038.556 4817.958 7582.458 2108.719 8972.426 2108.719 C 8972.426 2157.750 8972.426 2205.640 8972.426 2253.531 C 8709.028 2406.325 8201.615 2621.833 8201.615 2976.451 C 8390.897 2955.926 8583.600 2941.103 8778.583 2927.420 C 8792.266 2976.451 8805.949 3025.482 8827.614 3073.372 C 8264.329 3575.083 7957.601 4478.163 7236.962 4950.228 C 6943.917 4811.117 6750.074 4617.274 6463.871 4567.103 C 6429.663 4693.671 6395.456 4817.958 6366.950 4950.228 C 6178.808 5131.528 6178.808 5131.528 6026.014 5581.927 C 5929.093 5581.927 5832.171 5581.927 5734.110 5581.927 C 5734.110 5486.146 5734.110 5389.225 5734.110 5291.163 C 5184.508 5389.225 4735.249 5694.812 4240.379 5965.052 z M 26876.66 7653.766 C 27265.49 8425.716 27265.49 8425.716 27550.55 9252.399 C 27599.58 9252.399 27647.47 9252.399 27696.50 9252.399 C 27696.50 9342.479 27696.50 9440.541 27696.50 9537.462 C 27771.76 9732.445 27857.28 9926.288 27939.38 10122.41 C 28141.20 10767.79 28127.52 11538.60 28565.38 12046.01 C 28565.38 12350.46 28565.38 12657.19 28565.38 12963.92 C 28433.11 12895.50 28308.82 12831.65 28182.25 12770.07 C 28114.98 12575.09 28051.12 12380.11 27989.55 12191.96 C 27912.01 12178.28 27835.61 12172.58 27766.06 12165.74 C 27744.39 12435.98 27647.47 12534.04 27647.47 12770.07 C 27356.71 14748.41 27382.93 15543.17 27286.01 16223.90 C 27209.62 16244.42 27140.06 16266.09 27070.50 16293.45 C 26876.66 15730.17 26681.68 15166.88 26494.68 14603.60 C 26398.90 14465.63 26354.43 14109.87 26202.77 13928.57 C 26084.19 13922.87 25965.60 13922.87 25847.01 13922.87 C 25799.12 13860.15 25756.93 13797.44 25713.60 13735.87 C 25604.14 13442.82 25376.09 13422.30 25091.03 13303.71 C 24229.00 13722.18 23193.65 13797.44 22387.49 13207.93 C 22289.43 13060.84 22289.43 13060.84 22004.36 13010.67 C 21982.70 13089.34 21969.02 13173.72 21955.33 13255.82 C 22053.39 13596.76 22226.71 13701.66 22484.41 13928.57 C 22484.41 14075.66 22629.22 14124.69 22776.31 14367.57 C 22909.72 14355.02 23039.71 14347.04 23178.82 14341.34 C 23291.71 14124.69 23304.25 14083.64 23533.44 14012.95 C 25027.17 15194.25 23227.85 16487.29 22102.43 17259.25 C 21859.55 17357.31 21525.46 17633.25 21322.49 17697.10 C 21349.86 17807.71 21379.51 17918.31 21413.71 18036.90 C 21873.23 18170.31 22039.71 18036.90 22484.41 17843.05 C 22642.90 17795.16 22803.68 17744.99 22970.16 17697.10 C 22637.20 19440.55 21829.91 20171.45 20552.82 21319.68 C 20454.76 21478.18 20355.56 21635.53 20266.62 21798.59 C 20067.08 22054.01 20029.45 22101.90 19975.85 22422.31 C 19989.54 22776.93 20003.22 23129.26 20023.75 23486.16 C 20023.75 23548.88 20023.75 23611.59 20023.75 23681.15 C 19898.32 24279.78 19089.88 24522.65 18625.80 24890.95 C 18538.00 24918.32 18538.00 24918.32 18438.79 25410.91 C 17981.55 25730.18 17527.73 26057.43 17076.19 26384.68 C 16186.80 26836.22 15479.84 26765.53 14470.72 26718.78 C 14422.83 26586.51 14372.66 26462.22 14331.61 26336.79 C 13942.78 26050.59 13942.78 26050.59 13748.94 25759.83 C 13663.42 25147.51 13206.18 24932.00 13073.91 24404.07 C 13124.08 24334.51 13168.55 24271.80 13219.86 24209.08 C 13267.75 24209.08 13316.78 24209.08 13365.81 24209.08 C 13454.75 23967.35 13551.67 23723.34 13650.88 23486.16 C 13371.51 21811.13 12585.88 21943.40 12788.85 20144.08 C 11565.35 18746.13 9821.914 19564.84 8339.586 18711.93 C 7980.406 18170.31 7278.011 17264.95 7137.760 16633.25 C 7152.583 16454.23 7166.266 16279.77 7186.791 16105.31 C 7249.505 15054.00 7764.899 14083.64 8339.586 13255.82 C 8745.516 12942.25 9272.312 12811.12 9600.705 12483.87 C 9662.278 12165.74 9723.852 12109.87 9939.360 11859.01 C 10328.19 11713.06 10551.67 11719.90 10808.23 11392.65 C 10849.28 11392.65 10898.31 11392.65 10948.48 11392.65 C 10953.04 11454.22 10978.13 11528.34 10992.95 11591.05 C 11575.62 11905.76 13243.81 11668.59 14048.82 11750.69 C 14130.92 12043.73 14234.68 12178.28 13990.67 12388.09 C 14163.99 12657.19 15657.72 13583.07 15979.27 13492.99 C 16027.16 13353.88 16076.19 13213.63 16129.78 13082.50 C 17160.57 13047.15 17924.54 13347.04 19030.59 13227.31 C 19177.68 12984.44 19177.68 12984.44 19251.79 12534.04 C 19233.55 12290.03 19216.45 12046.01 19202.76 11808.84 C 19120.67 11760.95 19037.43 11713.06 18962.17 11665.17 C 18933.66 11713.06 18902.88 11760.95 18883.49 11808.84 C 18696.49 11822.52 18515.19 11838.49 18333.89 11859.01 C 18202.76 11886.38 18070.49 11914.88 17945.07 11951.37 C 17515.19 11775.77 17494.67 11477.03 17417.13 11032.33 C 17382.92 11018.65 17347.57 11002.68 17320.21 10990.14 C 17141.19 11002.68 16965.59 11018.65 16793.41 11032.33 C 16770.61 11179.42 16758.06 11323.09 16743.24 11469.04 C 16661.14 11449.66 16576.76 11434.84 16500.37 11421.15 C 16477.56 11287.74 16463.88 11156.62 16451.34 11032.33 C 16415.99 11059.69 16382.92 11095.04 16355.55 11129.25 C 16332.75 10996.98 16319.07 10871.55 16305.38 10746.12 C 16206.18 10713.06 16111.54 10677.71 16019.18 10649.20 C 15616.67 10323.09 15214.16 10002.68 14812.79 9684.555 C 14789.99 9732.445 14776.30 9780.336 14762.62 9829.367 C 15047.68 10295.73 15338.45 10531.76 15679.38 10941.11 C 15583.60 11009.52 15560.80 10889.80 15462.74 10960.49 C 15479.84 11252.40 15063.65 11378.96 15035.14 11345.90 C 15029.44 11337.92 14787.71 11737.00 14755.78 11755.25 C 14697.63 11783.75 14491.24 11523.78 14503.78 11488.43 C 14520.89 11451.94 14687.37 11271.78 14797.97 11256.96 C 14834.46 11252.40 14995.23 11331.07 15015.76 11310.55 C 15135.48 11190.82 15184.52 11016.36 15103.56 10902.34 C 14672.54 10287.74 14598.43 10477.03 14422.83 10211.35 C 14366.95 10126.97 14317.92 10044.87 14268.89 9961.636 C 13650.88 9884.099 13176.53 9744.988 12782.00 10211.35 C 12175.39 10481.59 12016.89 10962.77 11384.05 11275.20 C 11350.99 11239.85 11315.64 11205.65 11288.27 11179.42 C 11170.83 11226.17 11059.09 11275.20 10948.48 11323.09 C 10898.31 11323.09 10849.28 11323.09 10808.23 11323.09 C 10780.87 11213.63 10752.36 11100.74 10731.83 10990.14 C 10647.46 10955.93 10563.08 10921.72 10488.96 10892.08 C 10364.67 9926.288 10647.46 9447.382 11579.04 9537.462 C 11759.20 9544.304 11941.64 9552.286 12128.64 9559.127 C 12413.70 9100.746 12203.90 8911.464 12108.11 8425.716 C 12405.72 8383.527 12857.26 8383.527 12978.13 8042.592 C 13054.52 8007.244 13136.62 7973.036 13219.86 7946.810 C 13267.75 7973.036 13316.78 8007.244 13365.81 8042.592 C 13748.94 7848.749 13748.94 7848.749 13942.78 7653.766 C 14075.05 7604.735 14207.32 7561.405 14338.45 7521.496 C 14346.43 7438.258 14358.97 7356.160 14372.66 7270.641 C 14393.18 7162.317 14414.84 7056.273 14442.21 6952.511 C 14485.54 6935.407 14647.46 7044.871 14762.62 7066.536 C 14642.90 7131.530 14717.01 7433.697 14687.37 7450.801 C 14662.28 7464.484 15102.42 7372.123 15102.42 7466.764 C 15354.41 7827.084 15826.48 7529.478 16160.57 7423.435 C 16186.80 7293.446 16224.43 7162.317 16256.35 7030.048 C 16688.51 7030.048 16645.18 6925.144 16645.18 6548.861 C 16786.57 6528.337 16930.24 6514.654 17076.19 6500.971 C 17076.19 6430.275 17076.19 6367.561 17076.19 6305.988 C 17014.62 6305.988 16951.91 6305.988 16889.19 6305.988 C 16722.72 6319.671 16563.08 6333.354 16403.44 6356.159 C 16228.99 6034.607 16228.99 6034.607 16193.64 5715.337 C 16040.84 5651.483 16040.84 5651.483 15776.31 5778.051 C 15776.31 5965.052 15776.31 5965.052 15679.38 6111.004 C 15743.24 6209.066 15805.95 6305.988 15873.23 6402.909 C 15687.37 6749.546 15560.80 6999.261 15241.53 7222.750 C 15241.53 7255.818 15202.76 7288.885 15148.03 7317.391 C 15214.16 7490.710 14717.01 7063.115 14812.79 6833.924 C 14789.99 6734.722 14776.30 6640.081 14762.62 6548.861 C 14616.67 6563.685 14470.72 6584.209 14323.62 6603.593 C 14192.50 6409.750 14192.50 6409.750 14136.62 6063.114 C 14559.66 5535.177 15401.16 5366.420 15589.30 4699.372 C 16639.48 4247.832 17043.13 4324.229 18092.16 4950.228 C 18528.87 4817.958 18800.25 4581.926 19202.76 4421.151 C 19202.76 4401.766 19202.76 4386.943 19202.76 4374.400 C 19202.76 4277.479 19202.76 4177.137 19202.76 4081.355 C 19300.83 4081.355 19397.75 4081.355 19495.81 4081.355 C 19363.54 3546.577 19177.68 2935.402 19106.98 2442.813 C 19085.32 2357.294 19071.63 2279.757 19057.95 2205.640 C 19246.09 2220.464 19439.94 2233.007 19633.78 2253.531 C 19599.57 2087.054 19571.07 1927.419 19544.84 1767.784 C 19397.75 1698.228 19251.79 1635.514 19106.98 1571.660 C 19071.63 1489.562 19037.43 1413.165 19007.78 1336.768 C 19856.13 1538.593 20641.76 1954.785 21420.55 2344.751 C 22137.77 2711.912 22713.60 3100.739 23354.42 3602.449 C 23610.98 3809.975 23866.40 4017.501 24125.23 4228.448 C 25202.77 5193.101 26223.30 6348.177 26876.66 7653.766 z M 21420.55 23729.04 C 21580.19 23548.88 21740.97 23368.72 21907.44 23194.26 C 21969.02 23194.26 22034.01 23194.26 22102.43 23194.26 C 21974.72 23584.22 21816.22 23792.89 21567.65 24111.02 C 21206.19 24578.52 20907.44 24953.67 20454.76 25320.83 C 20392.05 25285.48 20329.33 25252.41 20266.62 25223.91 C 20281.44 24918.32 20295.13 24890.95 20503.79 24646.94 C 20843.59 24140.67 20732.98 24098.48 21420.55 23729.04 z M 7618.946 8042.592 C 7582.458 8007.244 7549.391 7973.036 7520.885 7946.810 C 7534.568 7780.334 7549.391 7612.717 7563.074 7450.801 C 7596.141 7438.258 7631.489 7423.435 7665.697 7418.874 C 7826.472 7492.990 7986.108 7569.387 8152.585 7653.766 C 8486.678 7556.844 8486.678 7556.844 8486.678 7466.764 C 8616.667 7487.289 8758.058 7508.954 8896.029 7529.478 C 8916.554 7632.101 8945.060 7738.144 8972.426 7848.749 C 8945.060 7918.304 8916.554 7987.860 8896.029 8063.116 C 8758.058 8084.781 8616.667 8111.007 8486.678 8140.653 C 8486.678 8106.446 8486.678 8071.098 8486.678 8042.592 C 8390.897 8071.098 8291.695 8106.446 8201.615 8140.653 C 8008.913 8106.446 7811.649 8071.098 7618.946 8042.592 z M 17849.28 10746.12 C 17561.94 10413.17 17807.10 9759.812 18092.16 9488.432 C 18480.98 9615 18661.14 9711.921 19043.13 9559.127 C 19397.75 9941.112 19885.78 9976.459 20121.81 10456.50 C 20121.81 10470.18 20121.81 10481.59 20121.81 10504.39 C 19746.66 10718.76 19633.78 10664.03 19202.76 10601.31 C 19071.63 10565.96 18940.51 10531.76 18815.08 10504.39 C 18487.83 10579.65 18167.41 10664.03 17849.28 10746.12 z M 21372.66 10211.35 C 21198.21 9702.799 20663.43 9780.336 20989.54 9106.447 C 21065.94 9023.209 21142.33 8946.812 21219.87 8869.275 C 21308.81 8869.275 21400.03 8876.116 21490.11 8882.958 C 21706.76 9851.032 22178.82 10176.00 22532.30 11226.17 C 22408.01 11294.59 22408.01 11294.59 21663.43 11226.17 C 21637.20 10941.11 21608.70 10656.04 21587.03 10377.82 C 21511.77 10323.09 21441.08 10266.08 21372.66 10211.35 z M 20219.87 16682.28 C 20343.02 16869.28 20467.30 17063.12 20600.71 17259.25 C 20628.08 17308.28 20663.43 17357.31 20697.63 17405.20 C 20893.76 17405.20 20989.54 17503.26 21184.52 17503.26 C 20843.59 16152.06 20051.11 15229.60 19300.83 14075.66 C 19233.55 14075.66 19170.84 14075.66 19106.98 14075.66 C 19189.08 14603.60 19474.14 15486.15 19926.82 15765.52 C 19954.19 16195.39 19939.37 16364.15 20219.87 16682.28 z M 12965.58 7974.177 C 12916.55 7938.829 12880.07 7973.036 12831.03 7946.810 C 12685.08 8042.592 12685.08 8042.592 12156.01 8042.592 C 12120.66 7876.115 12478.70 7794.017 12447.91 7632.101 C 12585.88 7388.087 12378.35 7374.404 12447.91 7258.098 C 12475.28 7258.098 12258.63 6868.132 12291.70 6868.132 C 12423.96 6781.473 12142.32 6637.801 12239.24 6535.178 C 12335.02 6535.178 12664.56 6470.184 12759.20 6470.184 C 12719.29 7011.804 13136.62 7293.446 13185.65 7843.048 C 13101.27 7870.414 13041.98 7938.829 12965.58 7974.177 z M 11778.58 7521.496 C 12036.28 7364.142 12005.49 6894.358 12275.73 7073.377 C 12206.18 7193.104 12285.99 7650.345 12195.91 7735.864 C 12051.10 7749.547 12003.21 7756.388 11864.10 7776.913 C 11808.23 7723.321 11729.55 7683.412 11778.58 7521.496 z M 18625.80 4177.137 C 18231.27 3865.848 18084.18 3462.198 18333.89 3025.482 C 18398.89 3025.482 18459.32 3025.482 18528.87 3025.482 C 18508.35 3246.691 18494.67 3470.180 18480.98 3700.511 C 18543.70 3762.085 18607.55 3824.799 18669.13 3893.214 C 18653.16 3983.294 18640.62 4081.355 18625.80 4177.137 z M 13746.66 10205.65 C 13821.91 10155.48 13826.47 10155.48 13885.77 10244.41 C 13935.94 10319.67 13976.99 10520.35 13935.94 10602.45 C 13931.38 10610.43 14060.23 10585.35 14106.98 10757.53 C 14130.92 10841.91 14068.21 10840.77 14003.21 10835.06 C 13951.90 10832.78 13906.29 10852.17 13857.26 10763.23 C 13850.42 10755.25 13893.75 10640.08 13881.21 10640.08 C 13800.25 10641.22 13762.62 10504.39 13711.31 10425.71 C 13650.88 10336.77 13670.26 10255.82 13746.66 10205.65 z "
   id="path1458"
   style="font-size:12.000;fill:url(#radialGradient1891);" />
<path
   sodipodi:type="arc"
   style="font-size:12.000;fill:url(#radialGradient769);stroke-width:1;"
   id="path782"
   d="M 23619.046875 11809.523438 A 11333.333008 11333.333984 0 1 0 952.380859,11809.523438 A 11333.3 11333.3 0 1 0 23619 11809.5 L 12285.713867 11809.523438 z"
   sodipodi:cx="12285.7139"
   sodipodi:cy="11809.5234"
   sodipodi:rx="11333.3330"
   sodipodi:ry="11333.3340"
   transform="matrix(1.173789,0,0,1.173789,486.0588,421.0891)" />
<path
   fill="#0060f5"
   d="M 15003.21 361.8528 C 22584.75 361.8528 28768.34 6544.300 28768.34 14126.97 C 28768.34 21708.51 22584.75 27892.10 15003.21 27892.10 C 7419.402 27892.10 1238.095 21708.51 1238.095 14126.97 C 1238.095 8163.458 5061.361 3067.671 10384.06 1162.310 L 10516.33 1591.045 L 10384.06 1162.310 C 10398.88 1156.609 10413.70 1152.048 10429.67 1145.206 C 11861.82 638.9341 13401.16 361.8528 15003.21 361.8528 z M 10516.33 1591.045 C 5378.351 3440.534 1686.214 8366.423 1686.214 14126.97 C 1686.214 21461.07 7669.118 27443.98 15003.21 27443.98 C 22337.32 27443.98 28320.22 21461.07 28320.22 14126.97 C 28320.22 6792.875 22337.32 809.9719 15003.21 809.9719 C 13442.21 809.9719 11942.78 1081.352 10548.25 1579.642 C 10537.99 1583.063 10526.59 1586.484 10516.33 1591.045 z "
   id="path1466"
   style="font-size:12.000;fill:#0034b5;fill-opacity:1.0000;" />
<path
   style="font-size:12.000;fill:url(#radialGradient1954);"
   d="M 17473.10 5444.061 C 12520.86 4530.898 13975.61 8837.410 8478.478 9021.070 C 3357.636 9091.011 3355.706 11180.88 1672.477 14077.39 C 1672.477 6730.385 7628.411 774.4494 14975.40 774.4494 C 18648.92 774.4494 21974.65 2263.433 24382.02 4670.796 C 24181.88 6245.988 24260.24 6608.385 17473.10 5444.061 z "
   id="path772"
   sodipodi:nodetypes="cscccs" />
</svg>
