/* XPM */
static char * xmms_applet_xpm[] = {
"22 22 147 2",
"  	c #FFFDD4",
". 	c #FDFFFE",
"+ 	c #DCE0C4",
"@ 	c #C8CAAE",
"# 	c #CACCB0",
"$ 	c #5F4BB1",
"% 	c #2200B3",
"& 	c #2A0AB2",
"* 	c #B9B8B0",
"= 	c #BAB9B0",
"- 	c #2909B2",
"; 	c #614DB1",
"> 	c #CDD0B1",
", 	c #C5C7B1",
"' 	c #3C20B2",
") 	c #5F4AB2",
"! 	c #6754B2",
"~ 	c #4024B2",
"{ 	c #C6C8B1",
"] 	c #CDD1B5",
"^ 	c #AEACB4",
"/ 	c #2807B3",
"( 	c #A49FB4",
"_ 	c #B2B1B4",
": 	c #2403B3",
"< 	c #2A0AB3",
"[ 	c #B3B1B4",
"} 	c #D3D2B7",
"| 	c #8C7EB5",
"1 	c #4226B3",
"2 	c #D0CFB6",
"3 	c #5841B4",
"4 	c #978BB5",
"5 	c #D1D5BB",
"6 	c #DB2323",
"7 	c #610C81",
"8 	c #8B1460",
"9 	c #AF1A44",
"0 	c #710E75",
"a 	c #DCDCC7",
"b 	c #E97979",
"c 	c #E25353",
"d 	c #EC8D8D",
"e 	c #E04545",
"f 	c #E35656",
"g 	c #EB8A8A",
"h 	c #D63A42",
"i 	c #5423AA",
"j 	c #7864D0",
"k 	c #5B39BB",
"l 	c #9E7EC9",
"m 	c #4428BE",
"n 	c #7341AD",
"o 	c #E98A8C",
"p 	c #DF3C3C",
"q 	c #E66666",
"r 	c #E97D7D",
"s 	c #DADAC4",
"t 	c #E6E7D6",
"u 	c #FFFFFF",
"v 	c #F5C2C2",
"w 	c #FAE3E3",
"x 	c #FCF1F1",
"y 	c #F3B9B9",
"z 	c #FBECEC",
"A 	c #F4C0C0",
"B 	c #CE667D",
"C 	c #C2B9EA",
"D 	c #E3DFF5",
"E 	c #F1EFF9",
"F 	c #ECB8BF",
"G 	c #EB8888",
"H 	c #FDF2F2",
"I 	c #EB8787",
"J 	c #F0A7A7",
"K 	c #E3E4D1",
"L 	c #E9E9D9",
"M 	c #DD3434",
"N 	c #EB8989",
"O 	c #FDF5F5",
"P 	c #F0A5A5",
"Q 	c #F9DCDC",
"R 	c #E66B6B",
"S 	c #3314B8",
"T 	c #8977D6",
"U 	c #F8F4F9",
"V 	c #EA8282",
"W 	c #F7D3D3",
"X 	c #EFA0A0",
"Y 	c #E1E1CA",
"Z 	c #E8EADC",
"` 	c #EFA2A2",
" .	c #F9DDDD",
"..	c #D0667C",
"+.	c #8674D5",
"@.	c #F5F4FB",
"#.	c #B31B41",
"$.	c #E04747",
"%.	c #FEFEFE",
"&.	c #ECEEE2",
"*.	c #ECEDDF",
"=.	c #F8DDDE",
"-.	c #7D57BC",
";.	c #591A9A",
">.	c #9075CC",
",.	c #3904A0",
"'.	c #EBA1A6",
").	c #EE9C9C",
"!.	c #FCECEC",
"~.	c #F9DFDF",
"{.	c #E8E8D7",
"].	c #E7E8D3",
"^.	c #640C7F",
"/.	c #981656",
"(.	c #5E0B83",
"_.	c #DD3131",
":.	c #DE3636",
"<.	c #ECEAD7",
"[.	c #9D8FC9",
"}.	c #654EBF",
"|.	c #4F35BB",
"1.	c #9889C8",
"2.	c #EDF0DB",
"3.	c #C9C6D4",
"4.	c #2908B4",
"5.	c #2504B3",
"6.	c #D1CFD5",
"7.	c #C4C0D3",
"8.	c #2301B3",
"9.	c #2807B4",
"0.	c #C8C4D3",
"a.	c #F1F0DE",
"b.	c #E8E5DC",
"c.	c #4326B9",
"d.	c #7A66C5",
"e.	c #725DC3",
"f.	c #4225B9",
"g.	c #F4F0E1",
"h.	c #7059C4",
"i.	c #2D0DB5",
"j.	c #E3DDDD",
"k.	c #E1DBDD",
"l.	c #2E0EB5",
"m.	c #6F58C3",
"n.	c #F6F5E5",
"o.	c #F9F8E6",
"p.	c #E3E2C9",
"                                            ",
". . . . . . . . . . . . . . . . . . . . . . ",
"+ + + + + + + + + + + + + + + + + + + + + + ",
"@ @ @ @ @ @ @ @ @ @ @ @ @ @ @ @ @ @ @ @ @ @ ",
"# # # # $ % % & * # # # # = - % % ; # # # # ",
"> > > > , ' % % ) > > > > ! % % ~ { > > > > ",
"] ] ] ] ] ^ / % % ( ] ] _ : % < [ ] ] ] ] ] ",
"} } } } } } | % % 1 2 } 3 % % 4 } } } } } } ",
"5 6 6 6 6 6 6 7 % % 8 9 % % 0 6 6 6 6 6 6 5 ",
"a b c d e f g h i j k l m n o p 6 6 q d r s ",
"t u v w x y z A B u C D E F z A 6 G H I J K ",
"L u M N O 6 P Q R u S T U 6 P Q 6 V u W X Y ",
"Z u M I O 6 `  ...u S +.@.#.`  .6 $.f g %.&.",
"*.u M I O 6 ` =.-.u ;.>.@.,.'. .6 ).!.~.~.{.",
"].6 6 6 6 6 6 ^.% % #./.% % (.6 6 6 _.:.6 ].",
"<.<.<.<.<.<.[.% % }.<.<.|.% % 1.<.<.<.<.<.<.",
"2.2.2.2.2.3.4.% 5.6.2.2.7.8.% 9.0.2.2.2.2.2.",
"a.a.a.a.b.c.% % d.a.a.a.a.e.% % f.b.a.a.a.a.",
"g.g.g.g.h.% % i.j.g.g.g.g.k.l.% % m.g.g.g.g.",
"n.n.n.n.n.n.n.n.n.n.n.n.n.n.n.n.n.n.n.n.n.n.",
"o.o.o.o.o.o.o.o.o.o.o.o.o.o.o.o.o.o.o.o.o.o.",
"p.p.p.p.p.p.p.p.p.p.p.p.p.p.p.p.p.p.p.p.p.p."};
